<svg height="214" viewBox="0 0 238 214" width="238" xmlns="http://www.w3.org/2000/svg" xmlns:xlink="http://www.w3.org/1999/xlink"><mask id="a" fill="#fff"><path d="m0 0h238v214h-238z" fill="#fff" fill-rule="evenodd"/></mask><g style="stroke-linecap:square;mask:url(#a);fill:none;fill-rule:evenodd;stroke:#000;stroke-width:28"><path d="m60 0c-33.137085 0-60 26.862915-60 60s26.862915 60 60 60h100" transform="matrix(-.5 .8660254 -.8660254 -.5 203.961524 115.038476)"/><path d="m60 0c-33.137085 0-60 26.862915-60 60s26.862915 60 60 60h100" transform="matrix(-.5 -.8660254 .8660254 -.5 100.038476 218.961524)"/><path d="m60 0c-33.137085 0-60 26.862915-60 60s26.862915 60 60 60h100" transform="translate(62 77)"/></g></svg>
