<svg viewBox="0 0 45 45" xmlns="http://www.w3.org/2000/svg"><path d="m45.05 36.53v.01l-43.53516518-11.7452402c-.05529362-.0149175-.10761337-.0392237-.15467628-.071858-.22692403-.1573535-.28332215-.4688719-.12596873-.6957959l3.71505995-5.357598c.12039178-.1736206.33691948-.2528297.54092608-.197879l23.93982416 6.4483711-6.5567746-10.6467856-4.1921646 5.9054965-7.4253239-2.1218698 11.7442631-17.34293144-.0002287.02531955.0002287-.02412606zm-40.28022461-8.8938763 7.25451241 1.903175-4.82077424 6.799048c-.12207702.1721731-.33911866.2491484-.54239678.1923649l-5.99175481-1.6737325c-.05204069-.014537-.10138099-.0374133-.14610141-.0677389-.22854961-.1549828-.28818724-.4658973-.13320438-.6944469z" transform="translate(0 4)"/></svg>