<?xml version="1.0" standalone="no"?>
<!DOCTYPE svg PUBLIC "-//W3C//DTD SVG 1.1//EN" "http://www.w3.org/Graphics/SVG/1.1/DTD/svg11.dtd" >
<svg xmlns="http://www.w3.org/2000/svg" width="100%" height="100%">
<metadata>
Created by FontXChange 20110222 at Sat Apr 16 11:47:29 2016
 By jasecoop
Webtype Web Use Only
</metadata>
<defs>
<font id="NittiGrotesk-Bold" horiz-adv-x="1040" >
  <font-face 
    font-family="NittiGrotesk"
    font-weight="700"
    font-stretch="normal"
    units-per-em="2048"
    panose-1="2 11 8 3 6 0 0 6 0 3"
    ascent="1630"
    descent="-418"
    x-height="890"
    cap-height="1116"
    bbox="-60 -416 2186 1682"
    underline-thickness="88"
    underline-position="-224"
    stemh="188"
    stemv="148"
    unicode-range="U+000D-FB02"
  />
<missing-glyph 
 />
    <glyph glyph-name=".notdef" 
 />
    <glyph glyph-name="uni0000" horiz-adv-x="0" 
 />
    <glyph glyph-name="uni0000" horiz-adv-x="0" 
 />
    <glyph glyph-name="nonmarkingreturn" unicode="&#xd;" horiz-adv-x="452" 
 />
    <glyph glyph-name="space" unicode=" " horiz-adv-x="452" 
 />
    <glyph glyph-name="exclam" unicode="!" horiz-adv-x="596" 
d="M268 358l-96 370v388h252v-388l-96 -370h-60zM166 0v264h264v-264h-264z" />
    <glyph glyph-name="quotedbl" unicode="&#x22;" horiz-adv-x="932" 
d="M248 648l-104 548h270l-104 -548h-62zM622 648l-104 548h270l-104 -548h-62z" />
    <glyph glyph-name="numbersign" unicode="#" horiz-adv-x="1044" 
d="M464 694l-48 -248h176l48 248h-176zM150 686l32 168h140l52 262h180l-52 -262h160l52 262h180l-52 -262h142l-32 -168h-142l-44 -232h140l-32 -168h-142l-54 -286h-180l54 286h-160l-54 -286h-180l54 286h-140l32 168h142l44 232h-140z" />
    <glyph glyph-name="dollar" unicode="$" horiz-adv-x="1100" 
d="M84 344h244c5 -104 81 -161 182 -180v300l-110 30c-189 53 -292 151 -292 316c0 91 34 164 102 221s160 90 276 101v230h150v-232c216 -24 353 -150 366 -350h-242c-8 101 -61 155 -146 174v-290l120 -32c184 -51 290 -141 290 -314c0 -96 -35 -173 -104 -232
s-164 -93 -284 -102v-230h-150v230c-117 11 -212 47 -284 108s-111 145 -118 252zM614 440v-282c112 11 174 63 174 140c0 69 -51 110 -174 142zM344 832c0 -67 46 -105 166 -140v266c-107 -5 -166 -51 -166 -126z" />
    <glyph glyph-name="percent" unicode="%" horiz-adv-x="1578" 
d="M366 634c91 0 128 62 128 174s-37 174 -128 174c-88 0 -126 -62 -126 -174s38 -174 126 -174zM366 480c-144 0 -302 80 -302 328c0 247 158 328 302 328c147 0 304 -81 304 -328c0 -248 -157 -328 -304 -328zM320 0l744 1116h194l-744 -1116h-194zM1212 134
c88 0 126 62 126 174s-38 174 -126 174c-91 0 -128 -62 -128 -174s37 -174 128 -174zM1212 -20c-147 0 -304 80 -304 328c0 247 157 328 304 328c144 0 302 -81 302 -328c0 -248 -158 -328 -302 -328z" />
    <glyph glyph-name="ampersand" unicode="&#x26;" horiz-adv-x="1190" 
d="M874 0l-72 82c-99 -64 -219 -102 -358 -102c-274 0 -384 150 -384 308c0 177 138 264 280 332c-31 35 -60 74 -88 117s-42 92 -42 147c0 135 112 252 322 252c215 0 330 -119 330 -266s-108 -215 -238 -280l210 -234c43 72 68 159 68 260h202c-3 -136 -52 -276 -148 -396
l200 -220h-282zM500 162c73 0 137 17 192 50l-252 292c-83 -45 -138 -95 -138 -188c0 -107 78 -154 198 -154zM432 878c0 -56 31 -103 90 -172c77 45 118 84 118 156c0 77 -44 112 -108 112c-61 0 -100 -35 -100 -96z" />
    <glyph glyph-name="quotesingle" unicode="'" horiz-adv-x="558" 
d="M248 648l-104 548h270l-104 -548h-62z" />
    <glyph glyph-name="parenleft" unicode="(" horiz-adv-x="654" 
d="M708 -356h-248c-210 215 -326 517 -326 810c0 296 117 590 326 810h248c-121 -121 -210 -252 -266 -392s-84 -279 -84 -418s28 -278 84 -418s145 -271 266 -392z" />
    <glyph glyph-name="parenright" unicode=")" horiz-adv-x="654" 
d="M194 -356h-248c121 121 210 252 266 392s84 279 84 418s-28 278 -84 418s-145 271 -266 392h248c209 -220 326 -514 326 -810c0 -293 -116 -595 -326 -810z" />
    <glyph glyph-name="asterisk" unicode="*" horiz-adv-x="692" 
d="M412 1196l-16 -244l228 92l40 -126l-236 -58l158 -190l-108 -76l-132 210l-132 -210l-108 76l158 190l-236 58l40 126l228 -92l-16 244h132z" />
    <glyph glyph-name="plus" unicode="+" 
d="M118 384v188h302v308h198v-308h304v-188h-304v-310h-198v310h-302z" />
    <glyph glyph-name="comma" unicode="," horiz-adv-x="596" 
d="M146 -322l150 322h-130v264h264v-264l-156 -322h-128z" />
    <glyph glyph-name="hyphen" unicode="-" horiz-adv-x="712" 
d="M110 354v222h492v-222h-492z" />
    <glyph glyph-name="period" unicode="." horiz-adv-x="596" 
d="M166 0v264h264v-264h-264z" />
    <glyph glyph-name="slash" unicode="/" horiz-adv-x="696" 
d="M-10 -128l516 1392h200l-516 -1392h-200z" />
    <glyph glyph-name="zero" unicode="0" horiz-adv-x="1152" 
d="M576 934c-165 0 -208 -157 -208 -376s43 -376 208 -376s208 157 208 376s-43 376 -208 376zM576 1136c323 0 462 -228 462 -578s-139 -578 -462 -578s-462 228 -462 578s139 578 462 578z" />
    <glyph glyph-name="one" unicode="1" horiz-adv-x="724" 
d="M348 1116h226v-1116h-256v802c-59 -56 -169 -100 -286 -100v208c76 3 142 24 199 63s96 87 117 143z" />
    <glyph glyph-name="two" unicode="2" horiz-adv-x="952" 
d="M472 1136c121 0 217 -30 286 -90s104 -142 104 -246c0 -81 -22 -150 -65 -207s-104 -112 -183 -167l-136 -94c-59 -40 -95 -77 -106 -128h502v-204h-788v82c0 96 22 176 67 241s102 120 173 167l134 90c45 31 83 62 114 93s46 73 46 125c0 99 -64 150 -160 150
c-112 0 -169 -68 -172 -188h-230c0 245 174 376 414 376z" />
    <glyph glyph-name="three" unicode="3" horiz-adv-x="966" 
d="M470 1136c245 0 394 -137 394 -320c0 -112 -54 -202 -150 -250c107 -43 172 -134 172 -262c0 -96 -36 -174 -108 -234s-173 -90 -302 -90c-131 0 -235 32 -312 96s-116 157 -116 278h234c1 -68 20 -116 55 -144s78 -42 129 -42c101 0 178 51 178 152s-75 154 -200 154
h-98v178h98c112 0 178 49 178 148c0 93 -62 148 -158 148c-48 0 -88 -14 -121 -41s-50 -73 -51 -137h-234c0 235 172 366 412 366z" />
    <glyph glyph-name="four" unicode="4" horiz-adv-x="976" 
d="M554 1116h226v-708h156v-188h-156v-220h-246v220h-514v162zM246 408h288v392z" />
    <glyph glyph-name="five" unicode="5" horiz-adv-x="992" 
d="M166 1116h682v-204h-486l-18 -242c53 32 125 56 216 56c226 0 364 -153 364 -368c0 -222 -147 -378 -416 -378c-247 0 -422 132 -422 374h234c1 -68 19 -116 54 -144s77 -42 128 -42c120 0 180 75 180 184c0 120 -70 190 -198 190c-85 0 -154 -33 -218 -78l-146 36z" />
    <glyph glyph-name="six" unicode="6" horiz-adv-x="1070" 
d="M576 1136c220 0 392 -129 392 -364h-234c0 101 -56 176 -160 176c-128 0 -205 -111 -210 -330c67 45 155 74 248 74c187 0 354 -122 354 -346c0 -226 -169 -366 -404 -366c-140 0 -250 48 -329 145s-119 238 -119 425c0 387 185 586 462 586zM550 512
c-61 0 -131 -21 -184 -58c13 -203 88 -286 200 -286c99 0 162 65 162 172c0 117 -74 172 -178 172z" />
    <glyph glyph-name="seven" unicode="7" horiz-adv-x="808" 
d="M18 1116h770v-180c-113 -119 -193 -253 -239 -402s-69 -311 -69 -484v-50h-260v86c0 330 130 661 300 826h-502v204z" />
    <glyph glyph-name="eight" unicode="8" horiz-adv-x="1024" 
d="M512 1136c245 0 408 -137 408 -318c0 -107 -53 -201 -162 -254c112 -45 182 -140 182 -260c0 -189 -159 -324 -428 -324s-428 135 -428 324c0 123 68 215 180 260c-107 53 -158 148 -158 252c0 183 161 320 406 320zM512 476c-112 0 -188 -57 -188 -156s76 -154 188 -154
s188 55 188 154s-73 156 -188 156zM512 950c-104 0 -168 -54 -168 -150s64 -150 168 -150s168 54 168 150s-64 150 -168 150z" />
    <glyph glyph-name="nine" unicode="9" horiz-adv-x="1068" 
d="M506 1136c270 0 448 -185 448 -580c0 -195 -40 -339 -121 -434s-190 -142 -329 -142c-256 0 -402 158 -402 364h234c0 -101 59 -176 166 -176c125 0 192 99 200 326c-67 -48 -149 -70 -234 -70c-199 0 -366 120 -366 346s169 366 404 366zM518 604c65 0 127 19 184 58
c-13 203 -91 286 -200 286c-99 0 -162 -65 -162 -172c0 -117 74 -172 178 -172z" />
    <glyph glyph-name="colon" unicode=":" horiz-adv-x="648" 
d="M192 0v264h264v-264h-264zM192 626v264h264v-264h-264z" />
    <glyph glyph-name="semicolon" unicode=";" horiz-adv-x="648" 
d="M172 -322l150 322h-130v264h264v-264l-156 -322h-128zM192 626v264h264v-264h-264z" />
    <glyph glyph-name="less" unicode="&#x3c;" 
d="M130 384v146l780 392v-198l-540 -264l540 -264v-204z" />
    <glyph glyph-name="equal" unicode="=" 
d="M138 588v186h764v-186h-764zM138 182v186h764v-186h-764z" />
    <glyph glyph-name="greater" unicode="&#x3e;" 
d="M910 530v-146l-780 -392v198l540 264l-540 264v204z" />
    <glyph glyph-name="question" unicode="?" horiz-adv-x="900" 
d="M300 0v252h264v-252h-264zM332 352v12c0 189 61 235 146 304c53 43 94 81 94 150c0 72 -43 124 -144 124c-63 0 -106 -18 -130 -55s-36 -80 -36 -129h-210c0 120 36 213 109 279s170 99 291 99c250 0 368 -150 368 -308c0 -160 -128 -246 -192 -294
c-59 -45 -96 -85 -96 -170v-12h-200z" />
    <glyph glyph-name="at" unicode="@" horiz-adv-x="1878" 
d="M1094 222v166l-142 -16c-112 -13 -168 -47 -168 -124c0 -61 35 -98 120 -98c77 0 137 29 190 72zM1138 118c-24 -32 -63 -63 -116 -93s-119 -45 -198 -45c-155 0 -286 74 -286 250c0 221 210 264 364 276l192 16v20c0 112 -19 184 -142 184c-109 0 -143 -53 -146 -146
h-232c5 270 218 330 402 330c277 0 364 -133 364 -346v-340c0 -49 20 -74 60 -74c103 0 208 122 208 396c0 414 -246 578 -614 578c-445 0 -716 -242 -716 -690c0 -443 263 -660 698 -660c210 0 393 54 462 86v-144c-70 -32 -265 -80 -466 -80c-578 0 -862 341 -862 794
c0 466 306 832 880 832c475 0 778 -241 778 -710c0 -326 -140 -572 -412 -572c-69 0 -121 14 -156 42s-55 60 -62 96z" />
    <glyph glyph-name="A" unicode="A" horiz-adv-x="1180" 
d="M40 0l410 1116h280l410 -1116h-266l-70 202h-438l-68 -202h-258zM428 394h314l-158 470z" />
    <glyph glyph-name="B" unicode="B" horiz-adv-x="1166" 
d="M150 0v1116h464c272 0 416 -112 416 -312c0 -117 -51 -186 -142 -226c120 -37 188 -115 188 -254c0 -208 -149 -324 -432 -324h-494zM404 200h210c80 0 133 12 160 37s40 58 40 101s-13 76 -40 101s-80 37 -160 37h-210v-276zM404 664h184c72 0 120 11 144 34
s36 53 36 92s-12 69 -36 92s-72 34 -144 34h-184v-252z" />
    <glyph glyph-name="C" unicode="C" horiz-adv-x="1214" 
d="M872 404h258c-21 -272 -224 -424 -500 -424c-341 0 -520 229 -520 578s179 578 520 578c276 0 479 -152 500 -424h-258c-4 56 -26 104 -65 144s-97 60 -173 60c-210 0 -262 -182 -262 -358s52 -358 262 -358c76 0 134 20 173 60s61 88 65 144z" />
    <glyph glyph-name="D" unicode="D" horiz-adv-x="1224" 
d="M150 0v1116h398c384 0 566 -224 566 -558s-182 -558 -566 -558h-398zM404 208h140c251 0 308 179 308 350s-57 350 -308 350h-140v-700z" />
    <glyph glyph-name="E" unicode="E" horiz-adv-x="1048" 
d="M150 0v1116h800v-214h-546v-226h442v-214h-442v-248h546v-214h-800z" />
    <glyph glyph-name="F" unicode="F" horiz-adv-x="1008" 
d="M150 0v1116h758v-214h-504v-226h424v-214h-424v-462h-254z" />
    <glyph glyph-name="G" unicode="G" horiz-adv-x="1284" 
d="M612 -20c-284 0 -502 178 -502 576c0 442 278 580 534 580c251 0 466 -129 498 -380h-254c-11 45 -35 84 -72 116s-92 48 -164 48c-184 0 -288 -108 -288 -364c0 -243 100 -360 276 -360c81 0 144 18 187 54s68 79 75 130h-248v192h502v-572h-200v138
c-75 -112 -200 -158 -344 -158z" />
    <glyph glyph-name="H" unicode="H" horiz-adv-x="1258" 
d="M150 0v1116h254v-436h450v436h254v-1116h-254v460h-450v-460h-254z" />
    <glyph glyph-name="I" unicode="I" horiz-adv-x="718" 
d="M78 0v164h154v788h-154v164h562v-164h-154v-788h154v-164h-562z" />
    <glyph glyph-name="J" unicode="J" horiz-adv-x="1006" 
d="M176 898v218h698v-750c0 -136 -31 -221 -92 -282c-80 -80 -189 -104 -314 -104c-251 0 -404 109 -404 378v102h252v-100c0 -128 51 -174 152 -174s152 46 152 174v538h-444z" />
    <glyph glyph-name="K" unicode="K" horiz-adv-x="1142" 
d="M150 0v1116h254v-462l404 462h306l-400 -434l426 -682h-296l-302 496l-138 -150v-346h-254z" />
    <glyph glyph-name="L" unicode="L" horiz-adv-x="940" 
d="M150 0v1116h254v-898h496v-218h-750z" />
    <glyph glyph-name="M" unicode="M" horiz-adv-x="1424" 
d="M150 0v1116h312l258 -506l260 506h294v-1116h-242v786l-250 -488h-140l-250 488v-786h-242z" />
    <glyph glyph-name="N" unicode="N" horiz-adv-x="1270" 
d="M150 0v1116h310l416 -786v786h244v-1116h-310l-416 786v-786h-244z" />
    <glyph glyph-name="O" unicode="O" horiz-adv-x="1300" 
d="M650 200c224 0 278 182 278 358s-54 358 -278 358s-278 -182 -278 -358s54 -358 278 -358zM650 -20c-362 0 -540 233 -540 578s178 578 540 578s540 -233 540 -578s-178 -578 -540 -578z" />
    <glyph glyph-name="P" unicode="P" horiz-adv-x="1120" 
d="M150 0v1116h390c157 0 281 -30 371 -91s135 -156 135 -287s-45 -226 -135 -287s-214 -91 -371 -91h-136v-360h-254zM404 568h134c176 0 244 47 244 170c0 120 -68 170 -244 170h-134v-340z" />
    <glyph glyph-name="Q" unicode="Q" horiz-adv-x="1306" 
d="M650 -20c-362 0 -540 233 -540 578s178 578 540 578s540 -233 540 -578c0 -159 -39 -288 -116 -388l134 -134l-152 -150l-148 148c-75 -35 -159 -54 -258 -54zM650 194c33 0 64 4 92 12l-134 134l148 146l138 -140c23 57 34 128 34 212c0 176 -54 358 -278 358
s-278 -182 -278 -358s54 -364 278 -364z" />
    <glyph glyph-name="R" unicode="R" horiz-adv-x="1164" 
d="M150 0v1116h390c157 0 281 -30 371 -91s135 -156 135 -287c0 -88 -22 -158 -65 -210s-99 -91 -167 -116l284 -412h-292l-232 360h-170v-360h-254zM404 568h134c176 0 244 47 244 170c0 120 -68 170 -244 170h-134v-340z" />
    <glyph glyph-name="S" unicode="S" horiz-adv-x="1090" 
d="M84 344h258c5 -60 31 -103 77 -130s100 -40 161 -40c120 0 188 49 188 126c0 61 -42 103 -146 132l-224 60c-187 51 -288 151 -288 316c0 237 209 328 430 328c242 0 430 -116 446 -356h-256c-4 59 -26 100 -66 125s-87 37 -140 37c-104 0 -160 -44 -160 -116
c0 -59 35 -99 144 -128l224 -60c89 -24 160 -61 212 -111s78 -119 78 -207c0 -251 -224 -340 -456 -340c-140 0 -253 31 -339 94s-134 153 -143 270z" />
    <glyph glyph-name="T" unicode="T" horiz-adv-x="966" 
d="M356 0v898h-322v218h898v-218h-322v-898h-254z" />
    <glyph glyph-name="U" unicode="U" horiz-adv-x="1224" 
d="M132 422v694h254v-668c0 -92 18 -156 55 -193s94 -55 171 -55s134 18 171 55s55 101 55 193v668h254v-694c0 -155 -43 -267 -128 -337s-203 -105 -352 -105c-151 0 -268 35 -353 105s-127 182 -127 337z" />
    <glyph glyph-name="V" unicode="V" horiz-adv-x="1104" 
d="M408 0l-386 1116h264l270 -846l270 846h256l-386 -1116h-288z" />
    <glyph glyph-name="W" unicode="W" horiz-adv-x="1648" 
d="M356 0l-304 1116h244l200 -798l206 798h252l208 -798l198 798h236l-304 -1116h-254l-214 810l-214 -810h-254z" />
    <glyph glyph-name="X" unicode="X" horiz-adv-x="1110" 
d="M28 0l380 574l-360 542h290l222 -342l220 342h276l-358 -538l384 -578h-288l-246 382l-244 -382h-276z" />
    <glyph glyph-name="Y" unicode="Y" horiz-adv-x="1070" 
d="M408 0v426l-408 690h278l262 -464l262 464h268l-408 -690v-426h-254z" />
    <glyph glyph-name="Z" unicode="Z" horiz-adv-x="1042" 
d="M82 0v204l546 694h-530v218h844v-204l-548 -694h570v-218h-882z" />
    <glyph glyph-name="bracketleft" unicode="[" horiz-adv-x="626" 
d="M170 -356v1620h442v-168h-228v-1284h228v-168h-442z" />
    <glyph glyph-name="backslash" unicode="\" horiz-adv-x="696" 
d="M506 -128l-516 1392h200l516 -1392h-200z" />
    <glyph glyph-name="bracketright" unicode="]" horiz-adv-x="626" 
d="M14 -356v168h228v1284h-228v168h442v-1620h-442z" />
    <glyph glyph-name="asciicircum" unicode="^" horiz-adv-x="884" 
d="M50 500l320 616h144l320 -616h-202l-194 386l-192 -386h-196z" />
    <glyph glyph-name="underscore" unicode="_" horiz-adv-x="912" 
d="M54 -186v186h804v-186h-804z" />
    <glyph glyph-name="grave" unicode="`" horiz-adv-x="852" 
d="M514 1048l-288 290h260l140 -290h-112z" />
    <glyph glyph-name="a" unicode="a" horiz-adv-x="1014" 
d="M622 222v166l-142 -16c-112 -13 -168 -47 -168 -124c0 -61 35 -98 120 -98c77 0 137 29 190 72zM666 110v10c-24 -33 -63 -65 -116 -95s-119 -45 -198 -45c-155 0 -286 74 -286 250c0 221 210 264 364 276l192 16v20c0 112 -19 184 -142 184c-109 0 -143 -53 -146 -146
h-232c5 270 218 330 402 330c277 0 364 -133 364 -346v-344c0 -35 11 -52 48 -52c24 0 51 7 70 18v-168c-32 -21 -91 -38 -158 -38c-135 0 -162 71 -162 130z" />
    <glyph glyph-name="b" unicode="b" horiz-adv-x="1064" 
d="M372 646v-402c37 -37 95 -60 162 -60c136 0 202 92 202 260s-66 262 -202 262c-67 0 -125 -23 -162 -60zM124 0v1324h248v-516c69 75 155 102 240 102c185 0 376 -126 376 -462s-193 -468 -380 -468c-71 0 -128 14 -171 41s-74 56 -93 85v-106h-220z" />
    <glyph glyph-name="c" unicode="c" horiz-adv-x="990" 
d="M680 330h244c-8 -113 -49 -200 -123 -260s-168 -90 -283 -90c-204 1 -443 103 -442 466c0 365 237 464 442 464c115 0 209 -30 283 -90s115 -147 123 -260h-244c-5 83 -60 148 -164 148c-128 0 -188 -91 -188 -262s60 -264 188 -264c104 0 159 65 164 148z" />
    <glyph glyph-name="d" unicode="d" horiz-adv-x="1064" 
d="M720 0v106c-19 -29 -50 -58 -93 -85s-100 -41 -171 -41c-190 0 -380 126 -380 462s193 468 380 468c131 0 203 -65 236 -104v518h248v-1324h-220zM692 244v402c-37 37 -95 60 -162 60c-136 0 -202 -92 -202 -260s66 -262 202 -262c67 0 125 23 162 60z" />
    <glyph glyph-name="e" unicode="e" horiz-adv-x="1006" 
d="M322 544h368c-15 124 -76 186 -184 186c-109 0 -171 -62 -184 -186zM692 300h240c-37 -251 -257 -320 -422 -320c-213 0 -434 114 -434 466c0 357 226 464 430 464c199 0 430 -99 430 -464v-36h-618c5 -165 73 -244 198 -244c101 0 163 49 176 134z" />
    <glyph glyph-name="f" unicode="f" horiz-adv-x="580" 
d="M142 0v706h-128v184h128v148c0 176 87 306 300 306c59 0 101 -9 122 -20v-190c-23 7 -46 10 -70 10c-80 0 -104 -45 -104 -120v-134h174v-184h-174v-706h-248z" />
    <glyph glyph-name="g" unicode="g" horiz-adv-x="1030" 
d="M96 584c0 235 222 326 392 326c52 0 106 -9 162 -27s104 -46 144 -85c43 67 116 112 236 112v-216c-72 0 -123 -5 -160 -24c5 -27 12 -54 12 -86c0 -235 -222 -326 -392 -326c-53 0 -106 8 -158 24c-27 -13 -52 -38 -52 -70c0 -43 43 -70 134 -70h228
c183 0 338 -67 338 -250c0 -101 -43 -178 -130 -230s-206 -78 -358 -78c-288 0 -442 94 -442 238c0 48 15 86 46 114s65 49 104 64c-61 27 -114 83 -114 160c0 85 65 139 142 174c-77 53 -132 133 -132 250zM598 -56h-282c-29 -13 -56 -43 -56 -88c0 -69 67 -116 240 -116
c157 0 246 37 246 120c0 59 -44 84 -148 84zM650 584c0 93 -61 152 -162 152s-160 -59 -160 -152s61 -152 162 -152s160 59 160 152z" />
    <glyph glyph-name="h" unicode="h" horiz-adv-x="1054" 
d="M124 0v1324h248v-536c23 32 55 60 97 85s99 37 171 37c142 0 300 -62 300 -360v-550h-248v506c0 64 -10 112 -30 144s-60 48 -120 48c-85 0 -141 -34 -170 -66v-632h-248z" />
    <glyph glyph-name="i" unicode="i" horiz-adv-x="500" 
d="M126 0v890h248v-890h-248zM120 1104v220h260v-220h-260z" />
    <glyph glyph-name="j" unicode="j" horiz-adv-x="516" 
d="M-34 -396v190c19 -5 49 -10 70 -10c77 0 98 45 98 120v986h248v-1000c0 -176 -81 -306 -294 -306c-59 0 -101 9 -122 20zM128 1104v220h260v-220h-260z" />
    <glyph glyph-name="k" unicode="k" horiz-adv-x="994" 
d="M124 0v1324h248v-808l330 374h274l-322 -346l326 -544h-286l-210 378l-112 -122v-256h-248z" />
    <glyph glyph-name="l" unicode="l" horiz-adv-x="496" 
d="M124 0v1324h248v-1324h-248z" />
    <glyph glyph-name="m" unicode="m" horiz-adv-x="1558" 
d="M124 0v890h220v-116c45 75 128 136 272 136c47 0 93 -9 139 -28s82 -55 109 -108c53 77 142 136 286 136c142 0 294 -62 294 -360v-550h-248v506c0 63 -9 110 -26 143s-53 49 -108 49c-77 0 -129 -34 -158 -66c3 -27 4 -53 4 -82v-550h-248v506c0 64 -9 112 -26 144
s-53 48 -108 48c-77 0 -127 -34 -154 -66v-632h-248z" />
    <glyph glyph-name="n" unicode="n" horiz-adv-x="1054" 
d="M124 0v890h220v-116c48 75 138 136 290 136c147 0 306 -62 306 -360v-550h-248v506c0 64 -10 112 -30 144s-60 48 -120 48c-85 0 -141 -34 -170 -66v-632h-248z" />
    <glyph glyph-name="o" unicode="o" horiz-adv-x="1048" 
d="M524 182c131 0 196 88 196 264c0 175 -65 262 -196 262s-196 -87 -196 -262c0 -176 65 -264 196 -264zM524 -20c-208 1 -450 103 -448 466c-2 362 240 463 448 464c208 -1 450 -102 448 -464c2 -363 -240 -465 -448 -466z" />
    <glyph glyph-name="p" unicode="p" horiz-adv-x="1064" 
d="M124 -396v1286h220v-106c19 29 50 58 93 85s100 41 171 41c190 0 380 -126 380 -462s-193 -468 -380 -468c-129 0 -205 63 -236 104v-480h-248zM372 646v-402c37 -37 95 -60 162 -60c136 0 202 92 202 260s-66 262 -202 262c-67 0 -125 -23 -162 -60z" />
    <glyph glyph-name="q" unicode="q" horiz-adv-x="1064" 
d="M692 -396v480c-31 -41 -107 -104 -236 -104c-190 0 -380 126 -380 462s193 468 380 468c71 0 128 -14 171 -41s74 -56 93 -85v106h220v-1286h-248zM692 244v402c-37 37 -95 60 -162 60c-136 0 -202 -92 -202 -260s66 -262 202 -262c67 0 125 23 162 60z" />
    <glyph glyph-name="r" unicode="r" horiz-adv-x="702" 
d="M124 0v890h220v-122c45 88 122 142 234 142c61 0 93 -15 106 -20v-212c-35 16 -75 26 -128 26c-85 0 -147 -24 -184 -72v-632h-248z" />
    <glyph glyph-name="s" unicode="s" horiz-adv-x="950" 
d="M68 290h244c5 -85 76 -144 180 -144c83 0 140 36 140 100c0 85 -101 86 -266 134c-120 31 -264 89 -264 262c0 197 184 268 366 268c206 0 360 -90 376 -280h-244c-5 69 -58 114 -138 114c-64 0 -114 -31 -114 -84c0 -82 114 -85 268 -128c133 -37 262 -96 262 -268
c0 -211 -198 -284 -390 -284c-229 0 -404 102 -420 310z" />
    <glyph glyph-name="t" unicode="t" horiz-adv-x="692" 
d="M138 284v422h-128v184h80c75 0 100 28 100 100v162h196v-262h262v-184h-262v-394c0 -88 27 -134 128 -134c45 0 93 9 120 20v-188c-29 -13 -104 -30 -184 -30c-240 0 -312 128 -312 304z" />
    <glyph glyph-name="u" unicode="u" horiz-adv-x="1044" 
d="M114 340v550h248v-504c0 -64 9 -112 28 -145s57 -49 116 -49c85 0 137 34 166 66v632h248v-890h-218v118c-24 -37 -59 -70 -104 -97s-106 -41 -182 -41c-149 0 -302 62 -302 360z" />
    <glyph glyph-name="v" unicode="v" horiz-adv-x="956" 
d="M340 0l-314 890h266l198 -634l198 634h242l-314 -890h-276z" />
    <glyph glyph-name="w" unicode="w" horiz-adv-x="1446" 
d="M304 0l-270 890h248l160 -636l160 636h256l160 -636l160 636h234l-270 -890h-264l-156 602l-156 -602h-262z" />
    <glyph glyph-name="x" unicode="x" horiz-adv-x="944" 
d="M4 0l334 460l-302 430h290l160 -242l154 242h266l-300 -416l334 -474h-288l-192 286l-190 -286h-266z" />
    <glyph glyph-name="y" unicode="y" horiz-adv-x="956" 
d="M94 -396v198c27 -8 65 -18 102 -18c61 0 103 25 132 102l28 76l-330 928h266l198 -634l198 634h242l-352 -996c-54 -146 -127 -310 -354 -310c-67 0 -114 15 -130 20z" />
    <glyph glyph-name="z" unicode="z" horiz-adv-x="896" 
d="M72 0v158l430 544h-420v188h730v-158l-430 -544h440v-188h-750z" />
    <glyph glyph-name="braceleft" unicode="{" horiz-adv-x="674" 
d="M242 -12v206c0 133 -52 174 -172 174v172c120 0 172 41 172 174v206c0 267 110 354 432 354v-174c-160 0 -216 -18 -216 -208v-206c0 -109 -52 -200 -164 -232c112 -32 164 -123 164 -232v-206c0 -194 56 -208 216 -208v-174c-322 0 -432 87 -432 354z" />
    <glyph glyph-name="bar" unicode="|" horiz-adv-x="538" 
d="M170 -356v1620h198v-1620h-198z" />
    <glyph glyph-name="braceright" unicode="}" horiz-adv-x="674" 
d="M0 -366v174c160 0 216 14 216 208v206c0 109 52 200 164 232c-112 32 -164 123 -164 232v206c0 190 -56 208 -216 208v174c322 0 432 -87 432 -354v-206c0 -133 52 -174 172 -174v-172c-120 0 -172 -41 -172 -174v-206c0 -267 -110 -354 -432 -354z" />
    <glyph glyph-name="asciitilde" unicode="~" 
d="M276 308h-170c0 235 86 344 238 344c93 0 156 -44 205 -85s87 -85 135 -85c45 0 80 37 80 154h170c0 -235 -86 -344 -238 -344c-93 0 -156 44 -205 85s-87 85 -135 85c-45 0 -80 -37 -80 -154z" />
    <glyph glyph-name="uni00A0" unicode="&#xa0;" horiz-adv-x="452" 
 />
    <glyph glyph-name="exclamdown" unicode="&#xa1;" horiz-adv-x="596" 
d="M328 531l96 -370v-388h-252v388l96 370h60zM430 889v-264h-264v264h264z" />
    <glyph glyph-name="cent" unicode="&#xa2;" horiz-adv-x="998" 
d="M706 330h226c-8 -103 -43 -183 -105 -242s-141 -93 -237 -104v-230h-150v232c-183 27 -364 145 -364 460c0 313 181 431 364 458v232h150v-230c96 -11 175 -46 237 -105s97 -140 105 -241h-226c-5 77 -55 143 -140 162v-552c85 16 135 83 140 160zM312 446
c0 -152 51 -247 152 -274v546c-101 -24 -152 -120 -152 -272z" />
    <glyph glyph-name="sterling" unicode="&#xa3;" horiz-adv-x="998" 
d="M106 424v154h102c-23 35 -44 70 -64 106s-30 79 -30 130c0 174 152 322 408 322c205 0 400 -94 416 -366h-242c-3 69 -20 118 -53 146s-72 42 -117 42c-101 0 -162 -61 -162 -154c0 -83 44 -151 84 -226h310v-154h-254c0 -11 2 -17 2 -28c0 -77 -39 -151 -100 -202h546
v-194h-884v156c72 16 124 46 157 90s49 93 49 148c0 11 -2 19 -2 30h-166z" />
    <glyph glyph-name="currency" unicode="&#xa4;" 
d="M520 356c109 0 178 79 178 202s-69 202 -178 202s-178 -79 -178 -202s69 -202 178 -202zM520 172c-75 0 -147 17 -208 54l-136 -136l-122 122l136 136c-37 67 -54 135 -54 210s17 143 54 210l-136 136l122 122l136 -136c61 37 133 54 208 54s147 -17 208 -54l136 136
l122 -122l-136 -136c37 -67 54 -135 54 -210s-17 -143 -54 -210l136 -136l-122 -122l-136 136c-61 -37 -133 -54 -208 -54z" />
    <glyph glyph-name="yen" unicode="&#xa5;" horiz-adv-x="1102" 
d="M120 424v142h222l-316 550h278l252 -478l252 478h268l-318 -550h224v-142h-304v-120h304v-142h-304v-162h-254v162h-304v142h304v120h-304z" />
    <glyph glyph-name="brokenbar" unicode="&#xa6;" horiz-adv-x="538" 
d="M170 -356v642h198v-642h-198zM170 622v642h198v-642h-198z" />
    <glyph glyph-name="section" unicode="&#xa7;" horiz-adv-x="1034" 
d="M392 412l248 -104c21 -8 61 -29 82 -48c27 27 40 59 40 96c0 57 -40 103 -120 136l-246 104c-21 8 -61 29 -82 48c-28 -25 -42 -57 -42 -96c0 -57 40 -103 120 -136zM90 80h206c5 -101 73 -168 204 -168c99 0 166 37 166 106c0 61 -55 95 -140 132l-254 108
c-110 42 -208 113 -208 244c0 83 36 159 156 210c-43 47 -64 100 -64 160c0 183 171 264 366 264c227 0 363 -102 376 -310h-206c-8 93 -61 154 -178 154c-80 0 -140 -30 -140 -94c0 -61 53 -97 136 -132l254 -108c107 -43 206 -112 206 -244c0 -41 -11 -80 -32 -117
s-62 -68 -122 -93c45 -48 62 -99 62 -160c0 -194 -178 -276 -386 -276c-113 0 -207 28 -281 83s-114 136 -121 241z" />
    <glyph glyph-name="dieresis" unicode="&#xa8;" horiz-adv-x="852" 
d="M118 1088v206h224v-206h-224zM510 1088v206h224v-206h-224z" />
    <glyph glyph-name="copyright" unicode="&#xa9;" horiz-adv-x="1360" 
d="M680 88c272 0 456 189 456 470c0 279 -184 470 -456 470s-456 -191 -456 -470c0 -281 184 -470 456 -470zM680 -20c-341 0 -570 233 -570 578s229 578 570 578s570 -233 570 -578s-229 -578 -570 -578zM806 466h180c-7 -84 -37 -148 -92 -192s-124 -66 -208 -66
c-153 0 -326 76 -326 350c0 275 173 350 326 350c84 0 153 -22 208 -66s85 -108 92 -192h-180c-5 61 -45 108 -122 108c-93 0 -140 -67 -140 -200c0 -128 47 -200 140 -200c77 0 117 47 122 108z" />
    <glyph glyph-name="ordfeminine" unicode="&#xaa;" horiz-adv-x="768" 
d="M446 708v98l-70 -8c-85 -11 -108 -37 -108 -74c0 -40 23 -60 70 -60c45 0 79 17 108 44zM476 636v4c-13 -19 -37 -38 -70 -57s-75 -29 -126 -29s-94 12 -130 37s-54 64 -54 119c0 140 131 161 232 172l118 10v14c0 69 -10 110 -82 110c-61 0 -81 -33 -84 -86h-160
c5 168 139 206 262 206c89 0 151 -19 185 -58s51 -92 51 -160v-214c0 -20 9 -30 28 -30c16 0 33 7 46 12v-108c-21 -13 -61 -24 -106 -24c-44 0 -73 8 -88 25s-22 36 -22 57zM120 304v138h536v-138h-536z" />
    <glyph glyph-name="guillemotleft" unicode="&#xab;" horiz-adv-x="990" 
d="M354 148l-238 318l238 318h188l-220 -318l220 -318h-188zM698 148l-238 318l238 318h188l-220 -318l220 -318h-188z" />
    <glyph glyph-name="logicalnot" unicode="&#xac;" 
d="M118 384v188h788v-572h-200v384h-588z" />
    <glyph glyph-name="uni00AD" unicode="&#xad;" horiz-adv-x="712" 
d="M110 354v222h492v-222h-492z" />
    <glyph glyph-name="registered" unicode="&#xae;" horiz-adv-x="1056" 
d="M528 524c242 0 342 154 342 344s-100 344 -342 344s-342 -154 -342 -344s100 -344 342 -344zM348 622v494h176c128 0 206 -50 206 -162c0 -80 -49 -123 -110 -142l138 -190h-132l-118 174h-42v-174h-118zM466 888h46c69 0 100 15 100 66c0 48 -31 66 -100 66h-46v-132z
M90 868c0 232 137 430 438 430s438 -198 438 -430c0 -235 -137 -430 -438 -430s-438 195 -438 430z" />
    <glyph glyph-name="overscore" unicode="&#xaf;" horiz-adv-x="852" 
d="M150 1112v160h552v-160h-552z" />
    <glyph glyph-name="degree" unicode="&#xb0;" horiz-adv-x="668" 
d="M476 854c0 91 -59 150 -142 150s-142 -59 -142 -150s59 -150 142 -150s142 59 142 150zM50 854c0 167 131 282 284 282s284 -115 284 -282c0 -168 -131 -282 -284 -282s-284 114 -284 282z" />
    <glyph glyph-name="plusminus" unicode="&#xb1;" 
d="M118 598v188h302v308h198v-308h304v-188h-304v-310h-198v310h-302zM122 0v182h796v-182h-796z" />
    <glyph glyph-name="twosuperior" unicode="&#xb2;" horiz-adv-x="696" 
d="M350 1128c123 0 230 -68 230 -204c0 -115 -76 -174 -152 -228l-68 -48c-35 -24 -62 -45 -70 -80h298v-122h-476v46c0 67 15 120 45 159s64 72 103 97l74 48c53 35 88 61 88 122c0 59 -34 86 -82 86s-90 -25 -90 -102h-148c0 153 120 226 248 226z" />
    <glyph glyph-name="threesuperior" unicode="&#xb3;" horiz-adv-x="706" 
d="M360 1128c68 0 123 -17 165 -52s63 -81 63 -140c0 -63 -29 -111 -86 -146c56 -27 100 -78 100 -158c0 -120 -92 -198 -244 -198c-73 0 -135 19 -184 56s-74 94 -74 170h148c0 -77 43 -106 102 -106s96 30 96 86c0 59 -37 88 -112 88h-54v110h54c65 0 98 28 98 84
c0 57 -29 86 -86 86c-53 0 -90 -30 -90 -102h-146c0 150 117 222 250 222z" />
    <glyph glyph-name="acute" unicode="&#xb4;" horiz-adv-x="852" 
d="M226 1048l140 290h260l-288 -290h-112z" />
    <glyph glyph-name="mu" unicode="&#xb5;" horiz-adv-x="1048" 
d="M124 -396v1286h248v-632c29 -32 83 -66 166 -66c59 0 98 16 118 49s30 81 30 145v504h248v-550c0 -293 -158 -360 -302 -360c-69 0 -125 12 -166 37s-73 52 -94 83v-496h-248z" />
    <glyph glyph-name="paragraph" unicode="&#xb6;" horiz-adv-x="1142" 
d="M448 -396v820c-109 0 -197 29 -264 86s-100 144 -100 260c0 117 33 204 100 261s155 85 264 85h172v-1512h-172zM810 -396v1512h172v-1512h-172z" />
    <glyph glyph-name="middot" unicode="&#xb7;" horiz-adv-x="616" 
d="M176 326v264h264v-264h-264z" />
    <glyph glyph-name="cedilla" unicode="&#xb8;" horiz-adv-x="852" 
d="M232 -240h114c5 -45 36 -60 68 -60c45 0 76 24 76 72c0 53 -35 76 -80 76c-36 0 -64 -12 -84 -36l-70 30l58 158h76l-36 -100c29 19 63 26 100 26c104 0 166 -63 166 -154c0 -53 -19 -94 -57 -122s-85 -42 -141 -42c-107 0 -179 51 -190 152z" />
    <glyph glyph-name="onesuperior" unicode="&#xb9;" horiz-adv-x="564" 
d="M276 1116h138v-670h-154v476c-29 -32 -91 -68 -176 -68v138c105 0 165 71 192 124z" />
    <glyph glyph-name="ordmasculine" unicode="&#xba;" horiz-adv-x="764" 
d="M114 304v138h536v-138h-536zM382 694c79 0 118 50 118 150c0 101 -39 152 -118 152s-118 -51 -118 -152c0 -100 39 -150 118 -150zM382 554c-139 0 -292 66 -292 290c0 227 153 292 292 292s292 -65 292 -292c0 -224 -153 -290 -292 -290z" />
    <glyph glyph-name="guillemotright" unicode="&#xbb;" horiz-adv-x="990" 
d="M104 148l220 318l-220 318h188l238 -318l-238 -318h-188zM448 148l220 318l-220 318h188l238 -318l-238 -318h-188z" />
    <glyph glyph-name="onequarter" unicode="&#xbc;" horiz-adv-x="1414" 
d="M1098 672h148v-424h82v-112h-82v-134h-152v134h-318v98zM1094 248v254l-186 -254h186zM276 1116h138v-670h-154v476c-29 -32 -91 -68 -176 -68v138c105 0 165 71 192 124zM228 0l744 1116h166l-744 -1116h-166z" />
    <glyph glyph-name="onehalf" unicode="&#xbd;" horiz-adv-x="1470" 
d="M1124 684c123 0 230 -68 230 -204c0 -115 -76 -174 -152 -228l-68 -48c-35 -24 -62 -45 -70 -80h298v-122h-476v46c0 67 15 120 45 159s64 72 103 97l74 48c53 35 88 61 88 122c0 59 -34 86 -82 86s-90 -25 -90 -102h-148c0 153 120 226 248 226zM276 1116h138v-670h-154
v476c-29 -32 -91 -68 -176 -68v138c105 0 165 71 192 124zM228 0l744 1116h166l-744 -1116h-166z" />
    <glyph glyph-name="threequarters" unicode="&#xbe;" horiz-adv-x="1538" 
d="M1222 672h148v-424h82v-112h-82v-134h-152v134h-318v98zM1218 248v254l-186 -254h186zM360 1128c68 0 123 -17 165 -52s63 -81 63 -140c0 -63 -29 -111 -86 -146c56 -27 100 -78 100 -158c0 -120 -92 -198 -244 -198c-73 0 -135 19 -184 56s-74 94 -74 170h148
c0 -77 43 -106 102 -106s96 30 96 86c0 59 -37 88 -112 88h-54v110h54c65 0 98 28 98 84c0 57 -29 86 -86 86c-53 0 -90 -30 -90 -102h-146c0 150 117 222 250 222zM352 0l744 1116h166l-744 -1116h-166z" />
    <glyph glyph-name="questiondown" unicode="&#xbf;" horiz-adv-x="900" 
d="M599 890v-252h-264v252h264zM567 538v-12c0 -188 -61 -235 -146 -304c-53 -43 -94 -81 -94 -150c0 -72 43 -124 144 -124c63 0 106 18 130 55s36 80 36 129h210c0 -120 -36 -213 -109 -279s-170 -99 -291 -99c-250 0 -368 150 -368 308c0 161 128 246 192 294
c59 45 96 85 96 170v12h200z" />
    <glyph glyph-name="Agrave" unicode="&#xc0;" horiz-adv-x="1180" 
d="M40 0l410 1116h280l410 -1116h-266l-70 202h-438l-68 -202h-258zM428 394h314l-158 470zM590 1262l-288 290h260l140 -290h-112z" />
    <glyph glyph-name="Aacute" unicode="&#xc1;" horiz-adv-x="1180" 
d="M40 0l410 1116h280l410 -1116h-266l-70 202h-438l-68 -202h-258zM428 394h314l-158 470zM478 1262l140 290h260l-288 -290h-112z" />
    <glyph glyph-name="Acircumflex" unicode="&#xc2;" horiz-adv-x="1180" 
d="M40 0l410 1116h280l410 -1116h-266l-70 202h-438l-68 -202h-258zM428 394h314l-158 470zM274 1256l244 298h144l244 -298h-126l-190 126l-190 -126h-126z" />
    <glyph glyph-name="Atilde" unicode="&#xc3;" horiz-adv-x="1180" 
d="M40 0l410 1116h280l410 -1116h-266l-70 202h-438l-68 -202h-258zM428 394h314l-158 470zM282 1306v136c29 53 92 100 164 100c139 0 209 -120 306 -120c61 0 109 33 146 78v-136c-29 -53 -92 -100 -164 -100c-139 0 -209 120 -306 120c-64 0 -109 -33 -146 -78z" />
    <glyph glyph-name="Adieresis" unicode="&#xc4;" horiz-adv-x="1180" 
d="M40 0l410 1116h280l410 -1116h-266l-70 202h-438l-68 -202h-258zM428 394h314l-158 470zM282 1302v206h224v-206h-224zM674 1302v206h224v-206h-224z" />
    <glyph glyph-name="Aring" unicode="&#xc5;" horiz-adv-x="1180" 
d="M40 0l410 1116h280l410 -1116h-266l-70 202h-438l-68 -202h-258zM428 394h314l-158 470zM590 1334c64 0 110 41 110 118s-46 118 -110 118s-110 -41 -110 -118s46 -118 110 -118zM590 1222c-117 0 -228 86 -228 230s111 230 228 230s228 -86 228 -230
s-111 -230 -228 -230z" />
    <glyph glyph-name="AE" unicode="&#xc6;" horiz-adv-x="1668" 
d="M-22 0l656 1116h936v-214h-546v-226h442v-214h-442v-248h546v-214h-800v202h-402l-118 -202h-272zM466 394h304v512h-8z" />
    <glyph glyph-name="Ccedilla" unicode="&#xc7;" horiz-adv-x="1214" 
d="M872 404h258c-21 -272 -224 -424 -500 -424c-341 0 -520 229 -520 578s179 578 520 578c276 0 479 -152 500 -424h-258c-4 56 -26 104 -65 144s-97 60 -173 60c-210 0 -262 -182 -262 -358s52 -358 262 -358c76 0 134 20 173 60s61 88 65 144zM464 -240h114
c5 -45 36 -60 68 -60c45 0 76 24 76 72c0 53 -35 76 -80 76c-36 0 -64 -12 -84 -36l-70 30l58 158h76l-36 -100c29 19 63 26 100 26c104 0 166 -63 166 -154c0 -53 -19 -94 -57 -122s-85 -42 -141 -42c-107 0 -179 51 -190 152z" />
    <glyph glyph-name="Egrave" unicode="&#xc8;" horiz-adv-x="1048" 
d="M150 0v1116h800v-214h-546v-226h442v-214h-442v-248h546v-214h-800zM544 1262l-288 290h260l140 -290h-112z" />
    <glyph glyph-name="Eacute" unicode="&#xc9;" horiz-adv-x="1048" 
d="M150 0v1116h800v-214h-546v-226h442v-214h-442v-248h546v-214h-800zM432 1262l140 290h260l-288 -290h-112z" />
    <glyph glyph-name="Ecircumflex" unicode="&#xca;" horiz-adv-x="1048" 
d="M150 0v1116h800v-214h-546v-226h442v-214h-442v-248h546v-214h-800zM228 1256l244 298h144l244 -298h-126l-190 126l-190 -126h-126z" />
    <glyph glyph-name="Edieresis" unicode="&#xcb;" horiz-adv-x="1048" 
d="M150 0v1116h800v-214h-546v-226h442v-214h-442v-248h546v-214h-800zM236 1302v206h224v-206h-224zM628 1302v206h224v-206h-224z" />
    <glyph glyph-name="Igrave" unicode="&#xcc;" horiz-adv-x="718" 
d="M78 0v164h154v788h-154v164h562v-164h-154v-788h154v-164h-562zM360 1262l-288 290h260l140 -290h-112z" />
    <glyph glyph-name="Iacute" unicode="&#xcd;" horiz-adv-x="718" 
d="M78 0v164h154v788h-154v164h562v-164h-154v-788h154v-164h-562zM246 1262l140 290h260l-288 -290h-112z" />
    <glyph glyph-name="Icircumflex" unicode="&#xce;" horiz-adv-x="718" 
d="M78 0v164h154v788h-154v164h562v-164h-154v-788h154v-164h-562zM44 1256l244 298h144l244 -298h-126l-190 126l-190 -126h-126z" />
    <glyph glyph-name="Idieresis" unicode="&#xcf;" horiz-adv-x="718" 
d="M78 0v164h154v788h-154v164h562v-164h-154v-788h154v-164h-562zM52 1302v206h224v-206h-224zM444 1302v206h224v-206h-224z" />
    <glyph glyph-name="Eth" unicode="&#xd0;" horiz-adv-x="1244" 
d="M46 488v166h124v462h398c384 0 566 -224 566 -558s-182 -558 -566 -558h-398v488h-124zM424 208h140c251 0 308 179 308 350s-57 350 -308 350h-140v-254h182v-166h-182v-280z" />
    <glyph glyph-name="Ntilde" unicode="&#xd1;" horiz-adv-x="1270" 
d="M150 0v1116h310l416 -786v786h244v-1116h-310l-416 786v-786h-244zM328 1306v136c29 53 92 100 164 100c139 0 209 -120 306 -120c61 0 109 33 146 78v-136c-29 -53 -92 -100 -164 -100c-139 0 -209 120 -306 120c-64 0 -109 -33 -146 -78z" />
    <glyph glyph-name="Ograve" unicode="&#xd2;" horiz-adv-x="1300" 
d="M650 200c224 0 278 182 278 358s-54 358 -278 358s-278 -182 -278 -358s54 -358 278 -358zM650 -20c-362 0 -540 233 -540 578s178 578 540 578s540 -233 540 -578s-178 -578 -540 -578zM650 1262l-288 290h260l140 -290h-112z" />
    <glyph glyph-name="Oacute" unicode="&#xd3;" horiz-adv-x="1300" 
d="M650 200c224 0 278 182 278 358s-54 358 -278 358s-278 -182 -278 -358s54 -358 278 -358zM650 -20c-362 0 -540 233 -540 578s178 578 540 578s540 -233 540 -578s-178 -578 -540 -578zM538 1262l140 290h260l-288 -290h-112z" />
    <glyph glyph-name="Ocircumflex" unicode="&#xd4;" horiz-adv-x="1300" 
d="M650 200c224 0 278 182 278 358s-54 358 -278 358s-278 -182 -278 -358s54 -358 278 -358zM650 -20c-362 0 -540 233 -540 578s178 578 540 578s540 -233 540 -578s-178 -578 -540 -578zM334 1256l244 298h144l244 -298h-126l-190 126l-190 -126h-126z" />
    <glyph glyph-name="Otilde" unicode="&#xd5;" horiz-adv-x="1300" 
d="M650 200c224 0 278 182 278 358s-54 358 -278 358s-278 -182 -278 -358s54 -358 278 -358zM650 -20c-362 0 -540 233 -540 578s178 578 540 578s540 -233 540 -578s-178 -578 -540 -578zM342 1306v136c29 53 92 100 164 100c139 0 209 -120 306 -120c61 0 109 33 146 78
v-136c-29 -53 -92 -100 -164 -100c-139 0 -209 120 -306 120c-64 0 -109 -33 -146 -78z" />
    <glyph glyph-name="Odieresis" unicode="&#xd6;" horiz-adv-x="1300" 
d="M650 200c224 0 278 182 278 358s-54 358 -278 358s-278 -182 -278 -358s54 -358 278 -358zM650 -20c-362 0 -540 233 -540 578s178 578 540 578s540 -233 540 -578s-178 -578 -540 -578zM342 1302v206h224v-206h-224zM734 1302v206h224v-206h-224z" />
    <glyph glyph-name="multiply" unicode="&#xd7;" 
d="M148 238l240 238l-240 240l132 132l240 -240l240 240l132 -132l-240 -240l240 -238l-132 -132l-240 238l-240 -238z" />
    <glyph glyph-name="Oslash" unicode="&#xd8;" horiz-adv-x="1312" 
d="M164 -124l-116 100l172 200c-69 97 -104 225 -104 382c0 345 178 578 540 578c133 0 239 -32 324 -88l168 192l116 -100l-174 -200c69 -99 106 -230 106 -382c0 -345 -178 -578 -540 -578c-132 0 -241 29 -326 88zM378 558c0 -67 7 -131 28 -190l428 488
c-44 40 -103 60 -178 60c-224 0 -278 -182 -278 -358zM656 200c224 0 278 182 278 358c0 67 -9 131 -30 190l-426 -490c43 -37 101 -58 178 -58z" />
    <glyph glyph-name="Ugrave" unicode="&#xd9;" horiz-adv-x="1224" 
d="M132 422v694h254v-668c0 -92 18 -156 55 -193s94 -55 171 -55s134 18 171 55s55 101 55 193v668h254v-694c0 -155 -43 -267 -128 -337s-203 -105 -352 -105c-151 0 -268 35 -353 105s-127 182 -127 337zM612 1262l-288 290h260l140 -290h-112z" />
    <glyph glyph-name="Uacute" unicode="&#xda;" horiz-adv-x="1224" 
d="M132 422v694h254v-668c0 -92 18 -156 55 -193s94 -55 171 -55s134 18 171 55s55 101 55 193v668h254v-694c0 -155 -43 -267 -128 -337s-203 -105 -352 -105c-151 0 -268 35 -353 105s-127 182 -127 337zM500 1262l140 290h260l-288 -290h-112z" />
    <glyph glyph-name="Ucircumflex" unicode="&#xdb;" horiz-adv-x="1224" 
d="M132 422v694h254v-668c0 -92 18 -156 55 -193s94 -55 171 -55s134 18 171 55s55 101 55 193v668h254v-694c0 -155 -43 -267 -128 -337s-203 -105 -352 -105c-151 0 -268 35 -353 105s-127 182 -127 337zM296 1256l244 298h144l244 -298h-126l-190 126l-190 -126h-126z
" />
    <glyph glyph-name="Udieresis" unicode="&#xdc;" horiz-adv-x="1224" 
d="M132 422v694h254v-668c0 -92 18 -156 55 -193s94 -55 171 -55s134 18 171 55s55 101 55 193v668h254v-694c0 -155 -43 -267 -128 -337s-203 -105 -352 -105c-151 0 -268 35 -353 105s-127 182 -127 337zM304 1302v206h224v-206h-224zM696 1302v206h224v-206h-224z" />
    <glyph glyph-name="Yacute" unicode="&#xdd;" horiz-adv-x="1070" 
d="M408 0v426l-408 690h278l262 -464l262 464h268l-408 -690v-426h-254zM424 1262l140 290h260l-288 -290h-112z" />
    <glyph glyph-name="Thorn" unicode="&#xde;" horiz-adv-x="1126" 
d="M150 0v1116h254v-172h136c157 0 281 -30 371 -91s135 -156 135 -287s-45 -226 -135 -287s-214 -91 -371 -91h-136v-188h-254zM404 396h134c176 0 244 50 244 170s-68 170 -244 170h-134v-340z" />
    <glyph glyph-name="germandbls" unicode="&#xdf;" horiz-adv-x="1106" 
d="M126 0v952c0 272 190 392 416 392c227 0 384 -127 384 -330c0 -149 -81 -263 -204 -340c135 -54 328 -174 328 -398c0 -149 -89 -296 -352 -296c-83 0 -153 14 -190 30v194c37 -19 91 -36 152 -36c83 0 140 31 140 124c0 64 -27 118 -80 161s-124 80 -212 111v160
c138 80 172 198 172 278c0 99 -53 154 -146 154s-160 -56 -160 -192v-964h-248z" />
    <glyph glyph-name="agrave" unicode="&#xe0;" horiz-adv-x="1014" 
d="M622 222v166l-142 -16c-112 -13 -168 -47 -168 -124c0 -61 35 -98 120 -98c77 0 137 29 190 72zM666 110v10c-24 -33 -63 -65 -116 -95s-119 -45 -198 -45c-155 0 -286 74 -286 250c0 221 210 264 364 276l192 16v20c0 112 -19 184 -142 184c-109 0 -143 -53 -146 -146
h-232c5 270 218 330 402 330c277 0 364 -133 364 -346v-344c0 -35 11 -52 48 -52c24 0 51 7 70 18v-168c-32 -21 -91 -38 -158 -38c-135 0 -162 71 -162 130zM486 1048l-288 290h260l140 -290h-112z" />
    <glyph glyph-name="aacute" unicode="&#xe1;" horiz-adv-x="1014" 
d="M622 222v166l-142 -16c-112 -13 -168 -47 -168 -124c0 -61 35 -98 120 -98c77 0 137 29 190 72zM666 110v10c-24 -33 -63 -65 -116 -95s-119 -45 -198 -45c-155 0 -286 74 -286 250c0 221 210 264 364 276l192 16v20c0 112 -19 184 -142 184c-109 0 -143 -53 -146 -146
h-232c5 270 218 330 402 330c277 0 364 -133 364 -346v-344c0 -35 11 -52 48 -52c24 0 51 7 70 18v-168c-32 -21 -91 -38 -158 -38c-135 0 -162 71 -162 130zM370 1048l140 290h260l-288 -290h-112z" />
    <glyph glyph-name="acircumflex" unicode="&#xe2;" horiz-adv-x="1014" 
d="M622 222v166l-142 -16c-112 -13 -168 -47 -168 -124c0 -61 35 -98 120 -98c77 0 137 29 190 72zM666 110v10c-24 -33 -63 -65 -116 -95s-119 -45 -198 -45c-155 0 -286 74 -286 250c0 221 210 264 364 276l192 16v20c0 112 -19 184 -142 184c-109 0 -143 -53 -146 -146
h-232c5 270 218 330 402 330c277 0 364 -133 364 -346v-344c0 -35 11 -52 48 -52c24 0 51 7 70 18v-168c-32 -21 -91 -38 -158 -38c-135 0 -162 71 -162 130zM166 1042l244 298h144l244 -298h-126l-190 126l-190 -126h-126z" />
    <glyph glyph-name="atilde" unicode="&#xe3;" horiz-adv-x="1014" 
d="M622 222v166l-142 -16c-112 -13 -168 -47 -168 -124c0 -61 35 -98 120 -98c77 0 137 29 190 72zM666 110v10c-24 -33 -63 -65 -116 -95s-119 -45 -198 -45c-155 0 -286 74 -286 250c0 221 210 264 364 276l192 16v20c0 112 -19 184 -142 184c-109 0 -143 -53 -146 -146
h-232c5 270 218 330 402 330c277 0 364 -133 364 -346v-344c0 -35 11 -52 48 -52c24 0 51 7 70 18v-168c-32 -21 -91 -38 -158 -38c-135 0 -162 71 -162 130zM174 1092v136c29 53 92 100 164 100c139 0 209 -120 306 -120c61 0 109 33 146 78v-136
c-29 -53 -92 -100 -164 -100c-139 0 -209 120 -306 120c-64 0 -109 -33 -146 -78z" />
    <glyph glyph-name="adieresis" unicode="&#xe4;" horiz-adv-x="1014" 
d="M622 222v166l-142 -16c-112 -13 -168 -47 -168 -124c0 -61 35 -98 120 -98c77 0 137 29 190 72zM666 110v10c-24 -33 -63 -65 -116 -95s-119 -45 -198 -45c-155 0 -286 74 -286 250c0 221 210 264 364 276l192 16v20c0 112 -19 184 -142 184c-109 0 -143 -53 -146 -146
h-232c5 270 218 330 402 330c277 0 364 -133 364 -346v-344c0 -35 11 -52 48 -52c24 0 51 7 70 18v-168c-32 -21 -91 -38 -158 -38c-135 0 -162 71 -162 130zM174 1088v206h224v-206h-224zM566 1088v206h224v-206h-224z" />
    <glyph glyph-name="aring" unicode="&#xe5;" horiz-adv-x="1014" 
d="M622 222v166l-142 -16c-112 -13 -168 -47 -168 -124c0 -61 35 -98 120 -98c77 0 137 29 190 72zM666 110v10c-24 -33 -63 -65 -116 -95s-119 -45 -198 -45c-155 0 -286 74 -286 250c0 221 210 264 364 276l192 16v20c0 112 -19 184 -142 184c-109 0 -143 -53 -146 -146
h-232c5 270 218 330 402 330c277 0 364 -133 364 -346v-344c0 -35 11 -52 48 -52c24 0 51 7 70 18v-168c-32 -21 -91 -38 -158 -38c-135 0 -162 71 -162 130zM482 1120c64 0 110 41 110 118s-46 118 -110 118s-110 -41 -110 -118s46 -118 110 -118zM482 1008
c-117 0 -228 86 -228 230s111 230 228 230s228 -86 228 -230s-111 -230 -228 -230z" />
    <glyph glyph-name="ae" unicode="&#xe6;" horiz-adv-x="1530" 
d="M334 580h-232c5 270 222 330 386 330c136 0 221 -41 274 -110c67 69 158 110 278 110c186 0 420 -99 420 -464v-36h-618c5 -165 73 -244 198 -244c99 0 163 49 176 134h240c-37 -251 -257 -320 -422 -320c-125 0 -241 37 -318 138c-91 -80 -197 -138 -344 -138
c-168 0 -306 78 -306 256c0 219 210 260 364 274l192 16v16c0 112 -19 184 -142 184c-109 0 -143 -53 -146 -146zM432 150c83 0 159 35 220 94c-13 43 -21 94 -26 150l-146 -18c-120 -13 -168 -54 -168 -126c0 -67 40 -100 120 -100zM846 544h368c-15 124 -76 186 -184 186
c-109 0 -171 -62 -184 -186z" />
    <glyph glyph-name="ccedilla" unicode="&#xe7;" horiz-adv-x="990" 
d="M680 330h244c-8 -113 -49 -200 -123 -260s-168 -90 -283 -90c-204 1 -443 103 -442 466c0 365 237 464 442 464c115 0 209 -30 283 -90s115 -147 123 -260h-244c-5 83 -60 148 -164 148c-128 0 -188 -91 -188 -262s60 -264 188 -264c104 0 159 65 164 148zM358 -240h114
c5 -45 36 -60 68 -60c45 0 76 24 76 72c0 53 -35 76 -80 76c-36 0 -64 -12 -84 -36l-70 30l58 158h76l-36 -100c29 19 63 26 100 26c104 0 166 -63 166 -154c0 -53 -19 -94 -57 -122s-85 -42 -141 -42c-107 0 -179 51 -190 152z" />
    <glyph glyph-name="egrave" unicode="&#xe8;" horiz-adv-x="1006" 
d="M322 544h368c-15 124 -76 186 -184 186c-109 0 -171 -62 -184 -186zM692 300h240c-37 -251 -257 -320 -422 -320c-213 0 -434 114 -434 466c0 357 226 464 430 464c199 0 430 -99 430 -464v-36h-618c5 -165 73 -244 198 -244c101 0 163 49 176 134zM508 1048l-288 290
h260l140 -290h-112z" />
    <glyph glyph-name="eacute" unicode="&#xe9;" horiz-adv-x="1006" 
d="M322 544h368c-15 124 -76 186 -184 186c-109 0 -171 -62 -184 -186zM692 300h240c-37 -251 -257 -320 -422 -320c-213 0 -434 114 -434 466c0 357 226 464 430 464c199 0 430 -99 430 -464v-36h-618c5 -165 73 -244 198 -244c101 0 163 49 176 134zM392 1048l140 290h260
l-288 -290h-112z" />
    <glyph glyph-name="ecircumflex" unicode="&#xea;" horiz-adv-x="1006" 
d="M322 544h368c-15 124 -76 186 -184 186c-109 0 -171 -62 -184 -186zM692 300h240c-37 -251 -257 -320 -422 -320c-213 0 -434 114 -434 466c0 357 226 464 430 464c199 0 430 -99 430 -464v-36h-618c5 -165 73 -244 198 -244c101 0 163 49 176 134zM188 1042l244 298h144
l244 -298h-126l-190 126l-190 -126h-126z" />
    <glyph glyph-name="edieresis" unicode="&#xeb;" horiz-adv-x="1006" 
d="M322 544h368c-15 124 -76 186 -184 186c-109 0 -171 -62 -184 -186zM692 300h240c-37 -251 -257 -320 -422 -320c-213 0 -434 114 -434 466c0 357 226 464 430 464c199 0 430 -99 430 -464v-36h-618c5 -165 73 -244 198 -244c101 0 163 49 176 134zM196 1088v206h224
v-206h-224zM588 1088v206h224v-206h-224z" />
    <glyph glyph-name="igrave" unicode="&#xec;" horiz-adv-x="500" 
d="M126 0v890h248v-890h-248zM256 1048l-288 290h260l140 -290h-112z" />
    <glyph glyph-name="iacute" unicode="&#xed;" horiz-adv-x="500" 
d="M144 1048l140 290h260l-288 -290h-112zM126 0v890h248v-890h-248z" />
    <glyph glyph-name="icircumflex" unicode="&#xee;" horiz-adv-x="500" 
d="M-60 1042l244 298h144l244 -298h-126l-190 126l-190 -126h-126zM126 0v890h248v-890h-248z" />
    <glyph glyph-name="idieresis" unicode="&#xef;" horiz-adv-x="500" 
d="M-52 1088v206h224v-206h-224zM340 1088v206h224v-206h-224zM126 0v890h248v-890h-248z" />
    <glyph glyph-name="eth" unicode="&#xf0;" horiz-adv-x="1048" 
d="M328 964v160l130 32l-76 168h248l50 -112l204 52v-162l-140 -36l116 -258c33 -75 60 -143 81 -205s31 -127 31 -195c0 -294 -212 -428 -452 -428c-203 0 -444 98 -444 450c2 348 230 437 384 436c69 0 119 -18 156 -50l-92 196zM524 174c131 0 196 83 196 248
s-65 248 -196 248s-196 -83 -196 -248s65 -248 196 -248z" />
    <glyph glyph-name="ntilde" unicode="&#xf1;" horiz-adv-x="1054" 
d="M124 0v890h220v-116c48 75 138 136 290 136c147 0 306 -62 306 -360v-550h-248v506c0 64 -10 112 -30 144s-60 48 -120 48c-85 0 -141 -34 -170 -66v-632h-248zM224 1092v136c29 53 92 100 164 100c139 0 209 -120 306 -120c61 0 109 33 146 78v-136
c-29 -53 -92 -100 -164 -100c-139 0 -209 120 -306 120c-64 0 -109 -33 -146 -78z" />
    <glyph glyph-name="ograve" unicode="&#xf2;" horiz-adv-x="1048" 
d="M524 182c131 0 196 88 196 264c0 175 -65 262 -196 262s-196 -87 -196 -262c0 -176 65 -264 196 -264zM524 -20c-208 1 -450 103 -448 466c-2 362 240 463 448 464c208 -1 450 -102 448 -464c2 -363 -240 -465 -448 -466zM524 1048l-288 290h260l140 -290h-112z" />
    <glyph glyph-name="oacute" unicode="&#xf3;" horiz-adv-x="1048" 
d="M524 182c131 0 196 88 196 264c0 175 -65 262 -196 262s-196 -87 -196 -262c0 -176 65 -264 196 -264zM524 -20c-208 1 -450 103 -448 466c-2 362 240 463 448 464c208 -1 450 -102 448 -464c2 -363 -240 -465 -448 -466zM412 1048l140 290h260l-288 -290h-112z" />
    <glyph glyph-name="ocircumflex" unicode="&#xf4;" horiz-adv-x="1048" 
d="M524 182c131 0 196 88 196 264c0 175 -65 262 -196 262s-196 -87 -196 -262c0 -176 65 -264 196 -264zM524 -20c-208 1 -450 103 -448 466c-2 362 240 463 448 464c208 -1 450 -102 448 -464c2 -363 -240 -465 -448 -466zM208 1042l244 298h144l244 -298h-126l-190 126
l-190 -126h-126z" />
    <glyph glyph-name="otilde" unicode="&#xf5;" horiz-adv-x="1048" 
d="M524 182c131 0 196 88 196 264c0 175 -65 262 -196 262s-196 -87 -196 -262c0 -176 65 -264 196 -264zM524 -20c-208 1 -450 103 -448 466c-2 362 240 463 448 464c208 -1 450 -102 448 -464c2 -363 -240 -465 -448 -466zM216 1092v136c29 53 92 100 164 100
c139 0 209 -120 306 -120c61 0 109 33 146 78v-136c-29 -53 -92 -100 -164 -100c-139 0 -209 120 -306 120c-64 0 -109 -33 -146 -78z" />
    <glyph glyph-name="odieresis" unicode="&#xf6;" horiz-adv-x="1048" 
d="M524 182c131 0 196 88 196 264c0 175 -65 262 -196 262s-196 -87 -196 -262c0 -176 65 -264 196 -264zM524 -20c-208 1 -450 103 -448 466c-2 362 240 463 448 464c208 -1 450 -102 448 -464c2 -363 -240 -465 -448 -466zM216 1088v206h224v-206h-224zM608 1088v206h224
v-206h-224z" />
    <glyph glyph-name="divide" unicode="&#xf7;" 
d="M400 28v238h238v-238h-238zM400 690v238h238v-238h-238zM118 384v188h804v-188h-804z" />
    <glyph glyph-name="oslash" unicode="&#xf8;" horiz-adv-x="1056" 
d="M130 -124l-112 100l144 166c-51 72 -82 168 -82 304c-2 362 240 463 448 464c85 0 175 -17 252 -62l146 166l112 -100l-146 -168c53 -69 84 -167 84 -300c2 -363 -240 -465 -448 -466c-85 0 -177 17 -254 62zM332 446c0 -49 5 -90 14 -122l302 346c-31 25 -71 38 -120 38
c-131 0 -196 -87 -196 -262zM528 182c131 0 196 88 196 264c0 45 -6 83 -14 118l-302 -344c31 -25 71 -38 120 -38z" />
    <glyph glyph-name="ugrave" unicode="&#xf9;" horiz-adv-x="1044" 
d="M114 340v550h248v-504c0 -64 9 -112 28 -145s57 -49 116 -49c85 0 137 34 166 66v632h248v-890h-218v118c-24 -37 -59 -70 -104 -97s-106 -41 -182 -41c-149 0 -302 62 -302 360zM516 1048l-288 290h260l140 -290h-112z" />
    <glyph glyph-name="uacute" unicode="&#xfa;" horiz-adv-x="1044" 
d="M114 340v550h248v-504c0 -64 9 -112 28 -145s57 -49 116 -49c85 0 137 34 166 66v632h248v-890h-218v118c-24 -37 -59 -70 -104 -97s-106 -41 -182 -41c-149 0 -302 62 -302 360zM404 1048l140 290h260l-288 -290h-112z" />
    <glyph glyph-name="ucircumflex" unicode="&#xfb;" horiz-adv-x="1044" 
d="M114 340v550h248v-504c0 -64 9 -112 28 -145s57 -49 116 -49c85 0 137 34 166 66v632h248v-890h-218v118c-24 -37 -59 -70 -104 -97s-106 -41 -182 -41c-149 0 -302 62 -302 360zM200 1042l244 298h144l244 -298h-126l-190 126l-190 -126h-126z" />
    <glyph glyph-name="udieresis" unicode="&#xfc;" horiz-adv-x="1044" 
d="M114 340v550h248v-504c0 -64 9 -112 28 -145s57 -49 116 -49c85 0 137 34 166 66v632h248v-890h-218v118c-24 -37 -59 -70 -104 -97s-106 -41 -182 -41c-149 0 -302 62 -302 360zM208 1088v206h224v-206h-224zM600 1088v206h224v-206h-224z" />
    <glyph glyph-name="yacute" unicode="&#xfd;" horiz-adv-x="956" 
d="M94 -396v198c27 -8 65 -18 102 -18c61 0 103 25 132 102l28 76l-330 928h266l198 -634l198 634h242l-352 -996c-54 -146 -127 -310 -354 -310c-67 0 -114 15 -130 20zM378 1048l140 290h260l-288 -290h-112z" />
    <glyph glyph-name="thorn" unicode="&#xfe;" horiz-adv-x="1064" 
d="M124 -396v1720h248v-518c33 39 105 104 236 104c190 0 380 -126 380 -462s-193 -468 -380 -468c-129 0 -205 63 -236 104v-480h-248zM372 646v-402c37 -37 95 -60 162 -60c136 0 202 92 202 260s-66 262 -202 262c-67 0 -125 -23 -162 -60z" />
    <glyph glyph-name="ydieresis" unicode="&#xff;" horiz-adv-x="956" 
d="M94 -396v198c27 -8 65 -18 102 -18c61 0 103 25 132 102l28 76l-330 928h266l198 -634l198 634h242l-352 -996c-54 -146 -127 -310 -354 -310c-67 0 -114 15 -130 20zM182 1088v206h224v-206h-224zM574 1088v206h224v-206h-224z" />
    <glyph glyph-name="Amacron" unicode="&#x100;" horiz-adv-x="1180" 
 />
    <glyph glyph-name="amacron" unicode="&#x101;" horiz-adv-x="1014" 
 />
    <glyph glyph-name="Abreve" unicode="&#x102;" horiz-adv-x="1180" 
 />
    <glyph glyph-name="abreve" unicode="&#x103;" horiz-adv-x="1014" 
 />
    <glyph glyph-name="Aogonek" unicode="&#x104;" horiz-adv-x="1180" 
 />
    <glyph glyph-name="aogonek" unicode="&#x105;" horiz-adv-x="1014" 
 />
    <glyph glyph-name="Cacute" unicode="&#x106;" horiz-adv-x="1214" 
 />
    <glyph glyph-name="cacute" unicode="&#x107;" horiz-adv-x="990" 
 />
    <glyph glyph-name="Ccircumflex" unicode="&#x108;" horiz-adv-x="1214" 
 />
    <glyph glyph-name="ccircumflex" unicode="&#x109;" horiz-adv-x="990" 
 />
    <glyph glyph-name="Cdotaccent" unicode="&#x10a;" horiz-adv-x="1214" 
 />
    <glyph glyph-name="cdotaccent" unicode="&#x10b;" horiz-adv-x="990" 
 />
    <glyph glyph-name="Ccaron" unicode="&#x10c;" horiz-adv-x="1214" 
 />
    <glyph glyph-name="ccaron" unicode="&#x10d;" horiz-adv-x="990" 
 />
    <glyph glyph-name="Dcaron" unicode="&#x10e;" horiz-adv-x="1224" 
 />
    <glyph glyph-name="dcaron" unicode="&#x10f;" horiz-adv-x="1074" 
 />
    <glyph glyph-name="Dcroat" unicode="&#x110;" horiz-adv-x="1244" 
 />
    <glyph glyph-name="dslash" unicode="&#x111;" horiz-adv-x="1074" 
 />
    <glyph glyph-name="Emacron" unicode="&#x112;" horiz-adv-x="1048" 
 />
    <glyph glyph-name="emacron" unicode="&#x113;" horiz-adv-x="1006" 
 />
    <glyph glyph-name="Ebreve" unicode="&#x114;" horiz-adv-x="1048" 
 />
    <glyph glyph-name="ebreve" unicode="&#x115;" horiz-adv-x="1006" 
 />
    <glyph glyph-name="Edotaccent" unicode="&#x116;" horiz-adv-x="1048" 
 />
    <glyph glyph-name="edotaccent" unicode="&#x117;" horiz-adv-x="1006" 
 />
    <glyph glyph-name="Eogonek" unicode="&#x118;" horiz-adv-x="1048" 
 />
    <glyph glyph-name="eogonek" unicode="&#x119;" horiz-adv-x="1006" 
 />
    <glyph glyph-name="Ecaron" unicode="&#x11a;" horiz-adv-x="1048" 
 />
    <glyph glyph-name="ecaron" unicode="&#x11b;" horiz-adv-x="1006" 
 />
    <glyph glyph-name="Gcircumflex" unicode="&#x11c;" horiz-adv-x="1284" 
 />
    <glyph glyph-name="gcircumflex" unicode="&#x11d;" horiz-adv-x="1030" 
 />
    <glyph glyph-name="Gbreve" unicode="&#x11e;" horiz-adv-x="1284" 
 />
    <glyph glyph-name="gbreve" unicode="&#x11f;" horiz-adv-x="1030" 
 />
    <glyph glyph-name="Gdotaccent" unicode="&#x120;" horiz-adv-x="1284" 
 />
    <glyph glyph-name="gdotaccent" unicode="&#x121;" horiz-adv-x="1030" 
 />
    <glyph glyph-name="Gcommaaccent" unicode="&#x122;" horiz-adv-x="1284" 
 />
    <glyph glyph-name="gcommaaccent" unicode="&#x123;" horiz-adv-x="1030" 
 />
    <glyph glyph-name="Hcircumflex" unicode="&#x124;" horiz-adv-x="1258" 
 />
    <glyph glyph-name="hcircumflex" unicode="&#x125;" horiz-adv-x="1054" 
 />
    <glyph glyph-name="Hbar" unicode="&#x126;" horiz-adv-x="1298" 
 />
    <glyph glyph-name="hbar" unicode="&#x127;" horiz-adv-x="1064" 
 />
    <glyph glyph-name="Itilde" unicode="&#x128;" horiz-adv-x="718" 
 />
    <glyph glyph-name="itilde" unicode="&#x129;" horiz-adv-x="500" 
 />
    <glyph glyph-name="Imacron" unicode="&#x12a;" horiz-adv-x="718" 
 />
    <glyph glyph-name="imacron" unicode="&#x12b;" horiz-adv-x="500" 
 />
    <glyph glyph-name="Ibreve" unicode="&#x12c;" horiz-adv-x="718" 
 />
    <glyph glyph-name="ibreve" unicode="&#x12d;" horiz-adv-x="500" 
 />
    <glyph glyph-name="Iogonek" unicode="&#x12e;" horiz-adv-x="718" 
 />
    <glyph glyph-name="iogonek" unicode="&#x12f;" horiz-adv-x="500" 
 />
    <glyph glyph-name="Idot" unicode="&#x130;" horiz-adv-x="718" 
 />
    <glyph glyph-name="dotlessi" unicode="&#x131;" horiz-adv-x="500" 
d="M126 0v890h248v-890h-248z" />
    <glyph glyph-name="IJ" unicode="&#x132;" horiz-adv-x="1160" 
d="M586 -20c-143 0 -254 36 -334 109s-120 185 -120 337h254c0 -160 62 -232 198 -232s190 70 190 254v668h254v-678c0 -168 -38 -274 -110 -346c-77 -77 -193 -112 -332 -112zM132 642v474h254v-474h-254z" />
    <glyph glyph-name="ij" unicode="&#x133;" horiz-adv-x="1016" 
 />
    <glyph glyph-name="Jcircumflex" unicode="&#x134;" horiz-adv-x="1006" 
 />
    <glyph glyph-name="jcircumflex" unicode="&#x135;" horiz-adv-x="516" 
 />
    <glyph glyph-name="Kcommaaccent" unicode="&#x136;" horiz-adv-x="1142" 
 />
    <glyph glyph-name="kcommaaccent" unicode="&#x137;" horiz-adv-x="994" 
 />
    <glyph glyph-name="kgreenlandic" unicode="&#x138;" horiz-adv-x="994" 
 />
    <glyph glyph-name="Lacute" unicode="&#x139;" horiz-adv-x="940" 
 />
    <glyph glyph-name="lacute" unicode="&#x13a;" horiz-adv-x="496" 
 />
    <glyph glyph-name="Lcommaaccent" unicode="&#x13b;" horiz-adv-x="940" 
 />
    <glyph glyph-name="lcommaaccent" unicode="&#x13c;" horiz-adv-x="496" 
 />
    <glyph glyph-name="Lcaron" unicode="&#x13d;" horiz-adv-x="940" 
 />
    <glyph glyph-name="lcaron" unicode="&#x13e;" horiz-adv-x="546" 
 />
    <glyph glyph-name="Ldot" unicode="&#x13f;" horiz-adv-x="940" 
 />
    <glyph glyph-name="ldot" unicode="&#x140;" horiz-adv-x="780" 
 />
    <glyph glyph-name="Lslash" unicode="&#x141;" horiz-adv-x="960" 
 />
    <glyph glyph-name="lslash" unicode="&#x142;" horiz-adv-x="536" 
 />
    <glyph glyph-name="Nacute" unicode="&#x143;" horiz-adv-x="1270" 
 />
    <glyph glyph-name="nacute" unicode="&#x144;" horiz-adv-x="1054" 
 />
    <glyph glyph-name="Ncommaaccent" unicode="&#x145;" horiz-adv-x="1270" 
 />
    <glyph glyph-name="ncommaaccent" unicode="&#x146;" horiz-adv-x="1054" 
 />
    <glyph glyph-name="Ncaron" unicode="&#x147;" horiz-adv-x="1270" 
 />
    <glyph glyph-name="ncaron" unicode="&#x148;" horiz-adv-x="1054" 
 />
    <glyph glyph-name="napostrophe" unicode="&#x149;" horiz-adv-x="1464" 
 />
    <glyph glyph-name="Eng" unicode="&#x14a;" horiz-adv-x="1270" 
 />
    <glyph glyph-name="eng" unicode="&#x14b;" horiz-adv-x="1054" 
 />
    <glyph glyph-name="Omacron" unicode="&#x14c;" horiz-adv-x="1300" 
 />
    <glyph glyph-name="omacron" unicode="&#x14d;" horiz-adv-x="1048" 
 />
    <glyph glyph-name="Obreve" unicode="&#x14e;" horiz-adv-x="1300" 
 />
    <glyph glyph-name="obreve" unicode="&#x14f;" horiz-adv-x="1048" 
 />
    <glyph glyph-name="Ohungarumlaut" unicode="&#x150;" horiz-adv-x="1300" 
 />
    <glyph glyph-name="ohungarumlaut" unicode="&#x151;" horiz-adv-x="1048" 
 />
    <glyph glyph-name="OE" unicode="&#x152;" horiz-adv-x="1718" 
d="M1620 0h-924c-403 0 -586 224 -586 558s183 558 586 558h924v-214h-546v-226h442v-214h-442v-248h546v-214zM700 208h120v700h-120c-272 0 -328 -179 -328 -350s56 -350 328 -350z" />
    <glyph glyph-name="oe" unicode="&#x153;" horiz-adv-x="1650" 
d="M1154 -20c-125 0 -239 45 -314 146c-77 -107 -192 -146 -320 -146c-203 0 -444 103 -444 466c0 361 241 464 444 464c128 0 243 -39 320 -146c77 101 190 146 310 146c199 0 430 -99 430 -464v-36h-618c5 -165 73 -244 198 -244c101 0 163 49 176 134h240
c-37 -251 -257 -320 -422 -320zM524 182c131 0 196 88 196 264c0 175 -65 262 -196 262s-196 -87 -196 -262c0 -176 65 -264 196 -264zM966 544h368c-15 124 -76 186 -184 186c-109 0 -171 -62 -184 -186z" />
    <glyph glyph-name="Racute" unicode="&#x154;" horiz-adv-x="1164" 
 />
    <glyph glyph-name="racute" unicode="&#x155;" horiz-adv-x="702" 
 />
    <glyph glyph-name="Rcommaaccent" unicode="&#x156;" horiz-adv-x="1164" 
 />
    <glyph glyph-name="rcommaaccent" unicode="&#x157;" horiz-adv-x="702" 
 />
    <glyph glyph-name="Rcaron" unicode="&#x158;" horiz-adv-x="1164" 
 />
    <glyph glyph-name="rcaron" unicode="&#x159;" horiz-adv-x="702" 
 />
    <glyph glyph-name="Sacute" unicode="&#x15a;" horiz-adv-x="1090" 
 />
    <glyph glyph-name="sacute" unicode="&#x15b;" horiz-adv-x="950" 
 />
    <glyph glyph-name="Scircumflex" unicode="&#x15c;" horiz-adv-x="1090" 
 />
    <glyph glyph-name="scircumflex" unicode="&#x15d;" horiz-adv-x="950" 
 />
    <glyph glyph-name="Scedilla" unicode="&#x15e;" horiz-adv-x="1090" 
 />
    <glyph glyph-name="scedilla" unicode="&#x15f;" horiz-adv-x="950" 
 />
    <glyph glyph-name="Scaron" unicode="&#x160;" horiz-adv-x="1090" 
d="M84 344h258c5 -60 31 -103 77 -130s100 -40 161 -40c120 0 188 49 188 126c0 61 -42 103 -146 132l-224 60c-187 51 -288 151 -288 316c0 237 209 328 430 328c242 0 430 -116 446 -356h-256c-4 59 -26 100 -66 125s-87 37 -140 37c-104 0 -160 -44 -160 -116
c0 -59 35 -99 144 -128l224 -60c89 -24 160 -61 212 -111s78 -119 78 -207c0 -251 -224 -340 -456 -340c-140 0 -253 31 -339 94s-134 153 -143 270zM484 1256l-244 298h126l190 -126l190 126h126l-244 -298h-144z" />
    <glyph glyph-name="scaron" unicode="&#x161;" horiz-adv-x="950" 
d="M68 290h244c5 -85 76 -144 180 -144c83 0 140 36 140 100c0 85 -101 86 -266 134c-120 31 -264 89 -264 262c0 197 184 268 366 268c206 0 360 -90 376 -280h-244c-5 69 -58 114 -138 114c-64 0 -114 -31 -114 -84c0 -82 114 -85 268 -128c133 -37 262 -96 262 -268
c0 -211 -198 -284 -390 -284c-229 0 -404 102 -420 310zM402 1042l-244 298h126l190 -126l190 126h126l-244 -298h-144z" />
    <glyph glyph-name="Tcommaaccent" unicode="&#x162;" horiz-adv-x="966" 
 />
    <glyph glyph-name="tcommaaccent" unicode="&#x163;" horiz-adv-x="692" 
 />
    <glyph glyph-name="Tcaron" unicode="&#x164;" horiz-adv-x="966" 
 />
    <glyph glyph-name="tcaron" unicode="&#x165;" horiz-adv-x="692" 
 />
    <glyph glyph-name="Tbar" unicode="&#x166;" horiz-adv-x="966" 
 />
    <glyph glyph-name="tbar" unicode="&#x167;" horiz-adv-x="740" 
 />
    <glyph glyph-name="Utilde" unicode="&#x168;" horiz-adv-x="1224" 
 />
    <glyph glyph-name="utilde" unicode="&#x169;" horiz-adv-x="1044" 
 />
    <glyph glyph-name="Umacron" unicode="&#x16a;" horiz-adv-x="1224" 
 />
    <glyph glyph-name="umacron" unicode="&#x16b;" horiz-adv-x="1044" 
 />
    <glyph glyph-name="Ubreve" unicode="&#x16c;" horiz-adv-x="1224" 
 />
    <glyph glyph-name="ubreve" unicode="&#x16d;" horiz-adv-x="1044" 
 />
    <glyph glyph-name="Uring" unicode="&#x16e;" horiz-adv-x="1224" 
 />
    <glyph glyph-name="uring" unicode="&#x16f;" horiz-adv-x="1044" 
 />
    <glyph glyph-name="Uhungarumlaut" unicode="&#x170;" horiz-adv-x="1224" 
 />
    <glyph glyph-name="uhungarumlaut" unicode="&#x171;" horiz-adv-x="1044" 
 />
    <glyph glyph-name="Uogonek" unicode="&#x172;" horiz-adv-x="1224" 
 />
    <glyph glyph-name="uogonek" unicode="&#x173;" horiz-adv-x="1044" 
 />
    <glyph glyph-name="Wcircumflex" unicode="&#x174;" horiz-adv-x="1648" 
 />
    <glyph glyph-name="wcircumflex" unicode="&#x175;" horiz-adv-x="1446" 
 />
    <glyph glyph-name="Ycircumflex" unicode="&#x176;" horiz-adv-x="1070" 
 />
    <glyph glyph-name="ycircumflex" unicode="&#x177;" horiz-adv-x="956" 
 />
    <glyph glyph-name="Ydieresis" unicode="&#x178;" horiz-adv-x="1070" 
d="M408 0v426l-408 690h278l262 -464l262 464h268l-408 -690v-426h-254zM228 1302v206h224v-206h-224zM620 1302v206h224v-206h-224z" />
    <glyph glyph-name="Zacute" unicode="&#x179;" horiz-adv-x="1042" 
 />
    <glyph glyph-name="zacute" unicode="&#x17a;" horiz-adv-x="896" 
 />
    <glyph glyph-name="Zdotaccent" unicode="&#x17b;" horiz-adv-x="1042" 
 />
    <glyph glyph-name="zdotaccent" unicode="&#x17c;" horiz-adv-x="896" 
 />
    <glyph glyph-name="Zcaron" unicode="&#x17d;" horiz-adv-x="1042" 
d="M82 0v204l546 694h-530v218h844v-204l-548 -694h570v-218h-882zM458 1256l-244 298h126l190 -126l190 126h126l-244 -298h-144z" />
    <glyph glyph-name="zcaron" unicode="&#x17e;" horiz-adv-x="896" 
d="M72 0v158l430 544h-420v188h730v-158l-430 -544h440v-188h-750zM368 1042l-244 298h126l190 -126l190 126h126l-244 -298h-144z" />
    <glyph glyph-name="florin" unicode="&#x192;" horiz-adv-x="1062" 
d="M654 550l-44 -248c-19 -104 -54 -184 -105 -239s-129 -83 -233 -83c-89 0 -152 19 -188 57s-54 86 -54 143c0 25 2 47 6 66h176c-3 -11 -4 -23 -4 -36c0 -43 22 -56 54 -56c51 0 79 38 100 150l44 246h-146l26 158h148l18 106c19 104 54 184 105 239s129 83 233 83
c89 0 152 -19 188 -57s54 -86 54 -143c0 -21 -1 -47 -6 -66h-176c3 11 4 23 4 36c0 43 -22 56 -54 56c-51 0 -79 -38 -100 -150l-18 -104h188l-26 -158h-190z" />
    <glyph glyph-name="AEacute" unicode="&#x1fc;" horiz-adv-x="1668" 
 />
    <glyph glyph-name="aeacute" unicode="&#x1fd;" horiz-adv-x="1530" 
 />
    <glyph glyph-name="Oslashacute" unicode="&#x1fe;" horiz-adv-x="1312" 
 />
    <glyph glyph-name="oslashacute" unicode="&#x1ff;" horiz-adv-x="1056" 
 />
    <glyph glyph-name="Scommaaccent" unicode="&#x218;" horiz-adv-x="1090" 
 />
    <glyph glyph-name="scommaaccent" unicode="&#x219;" horiz-adv-x="950" 
 />
    <glyph glyph-name="uni021A" unicode="&#x21a;" horiz-adv-x="966" 
 />
    <glyph glyph-name="uni021B" unicode="&#x21b;" horiz-adv-x="692" 
 />
    <glyph glyph-name="dotlessj" unicode="&#x237;" horiz-adv-x="516" 
 />
    <glyph glyph-name="circumflex" unicode="&#x2c6;" horiz-adv-x="852" 
d="M110 1042l244 298h144l244 -298h-126l-190 126l-190 -126h-126z" />
    <glyph glyph-name="caron" unicode="&#x2c7;" horiz-adv-x="852" 
d="M354 1042l-244 298h126l190 -126l190 126h126l-244 -298h-144z" />
    <glyph glyph-name="breve" unicode="&#x2d8;" horiz-adv-x="852" 
 />
    <glyph glyph-name="dotaccent" unicode="&#x2d9;" horiz-adv-x="852" 
 />
    <glyph glyph-name="ring" unicode="&#x2da;" horiz-adv-x="852" 
d="M426 1120c64 0 110 41 110 118s-46 118 -110 118s-110 -41 -110 -118s46 -118 110 -118zM426 1008c-117 0 -228 86 -228 230s111 230 228 230s228 -86 228 -230s-111 -230 -228 -230z" />
    <glyph glyph-name="ogonek" unicode="&#x2db;" horiz-adv-x="852" 
 />
    <glyph glyph-name="tilde" unicode="&#x2dc;" horiz-adv-x="852" 
d="M118 1092v136c29 53 92 100 164 100c139 0 209 -120 306 -120c61 0 109 33 146 78v-136c-29 -53 -92 -100 -164 -100c-139 0 -209 120 -306 120c-64 0 -109 -33 -146 -78z" />
    <glyph glyph-name="hungarumlaut" unicode="&#x2dd;" horiz-adv-x="852" 
 />
    <glyph glyph-name="commatop" unicode="&#x312;" horiz-adv-x="852" 
 />
    <glyph glyph-name="commaaccent" unicode="&#x326;" horiz-adv-x="852" 
 />
    <glyph glyph-name="pi" unicode="&#x3c0;" horiz-adv-x="1062" 
 />
    <glyph glyph-name="Wgrave" unicode="&#x1e80;" horiz-adv-x="1648" 
 />
    <glyph glyph-name="wgrave" unicode="&#x1e81;" horiz-adv-x="1446" 
 />
    <glyph glyph-name="Wacute" unicode="&#x1e82;" horiz-adv-x="1648" 
 />
    <glyph glyph-name="wacute" unicode="&#x1e83;" horiz-adv-x="1446" 
 />
    <glyph glyph-name="Wdieresis" unicode="&#x1e84;" horiz-adv-x="1648" 
 />
    <glyph glyph-name="wdieresis" unicode="&#x1e85;" horiz-adv-x="1446" 
 />
    <glyph glyph-name="Ygrave" unicode="&#x1ef2;" horiz-adv-x="1070" 
 />
    <glyph glyph-name="ygrave" unicode="&#x1ef3;" horiz-adv-x="956" 
 />
    <glyph glyph-name="endash" unicode="&#x2013;" 
d="M118 384v188h804v-188h-804z" />
    <glyph glyph-name="emdash" unicode="&#x2014;" horiz-adv-x="1424" 
d="M110 384v188h1204v-188h-1204z" />
    <glyph glyph-name="quoteleft" unicode="&#x2018;" horiz-adv-x="532" 
d="M134 648v264l142 284h122l-136 -284h136v-264h-264z" />
    <glyph glyph-name="quoteright" unicode="&#x2019;" horiz-adv-x="532" 
d="M398 1196v-264l-142 -284h-122l136 284h-136v264h264z" />
    <glyph glyph-name="quotesinglbase" unicode="&#x201a;" horiz-adv-x="624" 
d="M444 264v-264l-142 -284h-122l136 284h-136v264h264z" />
    <glyph glyph-name="quotedblleft" unicode="&#x201c;" horiz-adv-x="916" 
d="M134 648v264l142 284h122l-136 -284h136v-264h-264zM518 648v264l142 284h122l-136 -284h136v-264h-264z" />
    <glyph glyph-name="quotedblright" unicode="&#x201d;" horiz-adv-x="916" 
d="M398 1196v-264l-142 -284h-122l136 284h-136v264h264zM782 1196v-264l-142 -284h-122l136 284h-136v264h264z" />
    <glyph glyph-name="quotedblbase" unicode="&#x201e;" horiz-adv-x="1008" 
d="M444 264v-264l-142 -284h-122l136 284h-136v264h264zM828 264v-264l-142 -284h-122l136 284h-136v264h264z" />
    <glyph glyph-name="dagger" unicode="&#x2020;" horiz-adv-x="762" 
d="M304 394v498h-228v138h228v234h154v-234h228v-138h-228v-498h-154z" />
    <glyph glyph-name="daggerdbl" unicode="&#x2021;" horiz-adv-x="762" 
d="M304 44v484h-228v138h228v226h-228v138h228v234h154v-234h228v-138h-228v-226h228v-138h-228v-484h-154z" />
    <glyph glyph-name="bullet" unicode="&#x2022;" horiz-adv-x="628" 
d="M120 466c0 53 16 99 48 137s81 57 146 57s114 -19 146 -57s48 -84 48 -137c0 -55 -16 -101 -48 -138s-81 -56 -146 -56s-114 19 -146 56s-48 83 -48 138z" />
    <glyph glyph-name="ellipsis" unicode="&#x2026;" horiz-adv-x="1490" 
d="M180 0v254h254v-254h-254zM618 0v254h254v-254h-254zM1056 0v254h254v-254h-254z" />
    <glyph glyph-name="perthousand" unicode="&#x2030;" horiz-adv-x="2250" 
d="M1884 134c88 0 126 62 126 174s-38 174 -126 174c-91 0 -128 -62 -128 -174s37 -174 128 -174zM1884 -20c-147 0 -304 80 -304 328c0 247 157 328 304 328c144 0 302 -81 302 -328c0 -248 -158 -328 -302 -328zM366 634c91 0 128 62 128 174s-37 174 -128 174
c-88 0 -126 -62 -126 -174s38 -174 126 -174zM366 480c-144 0 -302 80 -302 328c0 247 158 328 302 328c147 0 304 -81 304 -328c0 -248 -157 -328 -304 -328zM320 0l744 1116h194l-744 -1116h-194zM1212 134c88 0 126 62 126 174s-38 174 -126 174
c-91 0 -128 -62 -128 -174s37 -174 128 -174zM1212 -20c-147 0 -304 80 -304 328c0 247 157 328 304 328c144 0 302 -81 302 -328c0 -248 -158 -328 -302 -328z" />
    <glyph glyph-name="guilsinglleft" unicode="&#x2039;" horiz-adv-x="646" 
d="M354 148l-238 318l238 318h188l-220 -318l220 -318h-188z" />
    <glyph glyph-name="guilsinglright" unicode="&#x203a;" horiz-adv-x="646" 
d="M104 148l220 318l-220 318h188l238 -318l-238 -318h-188z" />
    <glyph glyph-name="fraction" unicode="&#x2044;" horiz-adv-x="954" 
d="M22 0l744 1116h166l-744 -1116h-166z" />
    <glyph glyph-name="uni2070" unicode="&#x2070;" horiz-adv-x="784" 
d="M392 562c91 0 118 111 118 218c0 109 -27 220 -118 220c-92 0 -118 -111 -118 -220c0 -107 26 -218 118 -218zM392 434c-95 0 -165 32 -210 95s-68 147 -68 251s23 188 68 252s115 96 210 96s165 -32 210 -96s68 -148 68 -252s-23 -188 -68 -251s-115 -95 -210 -95z" />
    <glyph glyph-name="uni2074" unicode="&#x2074;" horiz-adv-x="716" 
d="M400 1116h148v-424h82v-112h-82v-134h-152v134h-318v98zM396 692v254l-186 -254h186z" />
    <glyph glyph-name="uni2075" unicode="&#x2075;" horiz-adv-x="706" 
d="M154 1116h416v-128h-292l-10 -132c29 19 72 30 120 30c64 0 117 -19 159 -57s63 -93 63 -165c0 -144 -94 -230 -246 -230c-142 0 -256 77 -256 226h148c0 -77 45 -106 98 -106c61 0 102 37 102 106s-43 108 -112 108c-51 0 -95 -20 -132 -44l-84 22z" />
    <glyph glyph-name="uni2076" unicode="&#x2076;" horiz-adv-x="732" 
d="M386 1128c67 0 123 -19 169 -56s69 -93 69 -166h-148c0 67 -30 100 -90 100c-31 0 -58 -13 -81 -38s-37 -75 -41 -148c35 27 89 42 148 42c65 0 117 -20 155 -59s57 -89 57 -149c0 -64 -22 -117 -65 -158s-102 -62 -177 -62c-171 0 -276 118 -276 342
c0 117 26 205 77 264s119 88 203 88zM368 752c-37 0 -75 -11 -102 -30c5 -65 19 -110 40 -133s46 -35 74 -35c53 0 88 37 88 98s-36 100 -100 100z" />
    <glyph glyph-name="uni2077" unicode="&#x2077;" horiz-adv-x="602" 
d="M66 1116h450v-118c-125 -141 -176 -323 -176 -520v-32h-160v46c0 188 61 384 162 496h-276v128z" />
    <glyph glyph-name="uni2078" unicode="&#x2078;" horiz-adv-x="724" 
d="M362 1128c119 0 244 -54 244 -190c0 -77 -38 -121 -94 -150c67 -29 110 -78 110 -158c0 -139 -127 -196 -260 -196s-260 57 -260 198c0 80 44 129 108 156c-56 29 -92 73 -92 148c0 137 121 192 244 192zM362 734c-56 0 -108 -23 -108 -92c0 -35 11 -58 33 -71
s47 -19 75 -19c27 0 51 6 74 19s34 36 34 71s-11 59 -34 72s-47 20 -74 20zM362 1010c-48 0 -94 -23 -94 -84s47 -84 92 -84c51 0 94 23 94 84s-47 84 -92 84z" />
    <glyph glyph-name="uni2079" unicode="&#x2079;" horiz-adv-x="732" 
d="M348 1128c168 0 276 -117 276 -344c0 -117 -26 -205 -77 -263s-119 -87 -203 -87c-67 0 -123 19 -168 56s-68 93 -68 166h148c0 -67 29 -100 88 -100c29 0 56 12 79 37s37 74 41 147c-35 -24 -90 -40 -146 -40c-65 0 -117 20 -154 59s-56 89 -56 149c0 64 21 117 64 158
s101 62 176 62zM364 810c37 0 73 11 100 30c-13 128 -59 168 -112 168s-88 -37 -88 -98s36 -100 100 -100z" />
    <glyph glyph-name="uni2080" unicode="&#x2080;" horiz-adv-x="784" 
d="M392 118c91 0 118 111 118 218c0 109 -27 220 -118 220c-92 0 -118 -111 -118 -220c0 -107 26 -218 118 -218zM392 -10c-95 0 -165 32 -210 95s-68 147 -68 251s23 188 68 252s115 96 210 96s165 -32 210 -96s68 -148 68 -252s-23 -188 -68 -251s-115 -95 -210 -95z" />
    <glyph glyph-name="uni2081" unicode="&#x2081;" horiz-adv-x="564" 
d="M276 672h138v-670h-154v476c-29 -32 -91 -68 -176 -68v138c105 0 165 71 192 124z" />
    <glyph glyph-name="uni2082" unicode="&#x2082;" horiz-adv-x="696" 
d="M350 684c123 0 230 -68 230 -204c0 -115 -76 -174 -152 -228l-68 -48c-35 -24 -62 -45 -70 -80h298v-122h-476v46c0 67 15 120 45 159s64 72 103 97l74 48c53 35 88 61 88 122c0 59 -34 86 -82 86s-90 -25 -90 -102h-148c0 153 120 226 248 226z" />
    <glyph glyph-name="uni2083" unicode="&#x2083;" horiz-adv-x="706" 
d="M360 684c68 0 123 -17 165 -52s63 -81 63 -140c0 -63 -29 -111 -86 -146c56 -27 100 -78 100 -158c0 -120 -92 -198 -244 -198c-73 0 -135 19 -184 56s-74 94 -74 170h148c0 -77 43 -106 102 -106s96 30 96 86c0 59 -37 88 -112 88h-54v110h54c65 0 98 28 98 84
c0 57 -29 86 -86 86c-53 0 -90 -30 -90 -102h-146c0 150 117 222 250 222z" />
    <glyph glyph-name="uni2084" unicode="&#x2084;" horiz-adv-x="716" 
d="M400 672h148v-424h82v-112h-82v-134h-152v134h-318v98zM396 248v254l-186 -254h186z" />
    <glyph glyph-name="uni2085" unicode="&#x2085;" horiz-adv-x="706" 
d="M154 672h416v-128h-292l-10 -132c29 19 72 30 120 30c64 0 117 -19 159 -57s63 -93 63 -165c0 -144 -94 -230 -246 -230c-142 0 -256 77 -256 226h148c0 -77 45 -106 98 -106c61 0 102 37 102 106s-43 108 -112 108c-51 0 -95 -20 -132 -44l-84 22z" />
    <glyph glyph-name="uni2086" unicode="&#x2086;" horiz-adv-x="732" 
d="M386 684c67 0 123 -19 169 -56s69 -93 69 -166h-148c0 67 -30 100 -90 100c-31 0 -58 -13 -81 -38s-37 -75 -41 -148c35 27 89 42 148 42c65 0 117 -20 155 -59s57 -89 57 -149c0 -64 -22 -117 -65 -158s-102 -62 -177 -62c-171 0 -276 118 -276 342c0 117 26 205 77 264
s119 88 203 88zM368 308c-37 0 -75 -11 -102 -30c5 -65 19 -110 40 -133s46 -35 74 -35c53 0 88 37 88 98s-36 100 -100 100z" />
    <glyph glyph-name="uni2087" unicode="&#x2087;" horiz-adv-x="602" 
d="M66 672h450v-118c-125 -141 -176 -323 -176 -520v-32h-160v46c0 188 61 384 162 496h-276v128z" />
    <glyph glyph-name="uni2088" unicode="&#x2088;" horiz-adv-x="724" 
d="M362 684c119 0 244 -54 244 -190c0 -77 -38 -121 -94 -150c67 -29 110 -78 110 -158c0 -139 -127 -196 -260 -196s-260 57 -260 198c0 80 44 129 108 156c-56 29 -92 73 -92 148c0 137 121 192 244 192zM362 290c-56 0 -108 -23 -108 -92c0 -35 11 -58 33 -71
s47 -19 75 -19c27 0 51 6 74 19s34 36 34 71s-11 59 -34 72s-47 20 -74 20zM362 566c-48 0 -94 -23 -94 -84s47 -84 92 -84c51 0 94 23 94 84s-47 84 -92 84z" />
    <glyph glyph-name="uni2089" unicode="&#x2089;" horiz-adv-x="732" 
d="M348 684c168 0 276 -117 276 -344c0 -117 -26 -205 -77 -263s-119 -87 -203 -87c-67 0 -123 19 -168 56s-68 93 -68 166h148c0 -67 29 -100 88 -100c29 0 56 12 79 37s37 74 41 147c-35 -24 -90 -40 -146 -40c-65 0 -117 20 -154 59s-56 89 -56 149c0 64 21 117 64 158
s101 62 176 62zM364 366c37 0 73 11 100 30c-13 128 -59 168 -112 168s-88 -37 -88 -98s36 -100 100 -100z" />
    <glyph glyph-name="Euro" unicode="&#x20ac;" horiz-adv-x="1222" 
d="M28 630v116h148c27 120 80 215 161 285s188 105 321 105c261 0 459 -140 480 -412h-242c-11 117 -81 220 -232 220c-69 0 -122 -19 -159 -57s-63 -85 -79 -141h300v-116h-318c-3 -24 -2 -48 -2 -72s-1 -48 2 -72h318v-116h-300c16 -57 42 -105 79 -142s90 -56 159 -56
c151 0 221 103 232 220h242c-21 -272 -219 -412 -480 -412c-267 0 -429 147 -482 390h-148v116h132c-3 21 -2 45 -2 72c0 24 -1 48 2 72h-132z" />
    <glyph glyph-name="trademark" unicode="&#x2122;" horiz-adv-x="1110" 
d="M514 622v494h130l108 -222l110 222h124v-494h-112v322l-88 -188h-72l-88 188v-322h-112zM212 622v390h-126v104h370v-104h-126v-390h-118z" />
    <glyph glyph-name="Omega" unicode="&#x2126;" horiz-adv-x="1268" 
 />
    <glyph glyph-name="uni2153" unicode="&#x2153;" horiz-adv-x="1478" 
d="M1132 684c68 0 123 -17 165 -52s63 -81 63 -140c0 -63 -29 -111 -86 -146c56 -27 100 -78 100 -158c0 -120 -92 -198 -244 -198c-73 0 -135 19 -184 56s-74 94 -74 170h148c0 -77 43 -106 102 -106s96 30 96 86c0 59 -37 88 -112 88h-54v110h54c65 0 98 28 98 84
c0 57 -29 86 -86 86c-53 0 -90 -30 -90 -102h-146c0 150 117 222 250 222zM276 1116h138v-670h-154v476c-29 -32 -91 -68 -176 -68v138c105 0 165 71 192 124zM228 0l744 1116h166l-744 -1116h-166z" />
    <glyph glyph-name="uni2154" unicode="&#x2154;" horiz-adv-x="1630" 
d="M350 1128c123 0 230 -68 230 -204c0 -115 -76 -174 -152 -228l-68 -48c-35 -24 -62 -45 -70 -80h298v-122h-476v46c0 67 15 120 45 159s64 72 103 97l74 48c53 35 88 61 88 122c0 59 -34 86 -82 86s-90 -25 -90 -102h-148c0 153 120 226 248 226zM1284 684
c68 0 123 -17 165 -52s63 -81 63 -140c0 -63 -29 -111 -86 -146c56 -27 100 -78 100 -158c0 -120 -92 -198 -244 -198c-73 0 -135 19 -184 56s-74 94 -74 170h148c0 -77 43 -106 102 -106s96 30 96 86c0 59 -37 88 -112 88h-54v110h54c65 0 98 28 98 84c0 57 -29 86 -86 86
c-53 0 -90 -30 -90 -102h-146c0 150 117 222 250 222zM380 0l744 1116h166l-744 -1116h-166z" />
    <glyph glyph-name="uni2155" unicode="&#x2155;" horiz-adv-x="1488" 
d="M936 672h416v-128h-292l-10 -132c29 19 72 30 120 30c64 0 117 -19 159 -57s63 -93 63 -165c0 -144 -94 -230 -246 -230c-142 0 -256 77 -256 226h148c0 -77 45 -106 98 -106c61 0 102 37 102 106s-43 108 -112 108c-51 0 -95 -20 -132 -44l-84 22zM276 1116h138v-670
h-154v476c-29 -32 -91 -68 -176 -68v138c105 0 165 71 192 124zM228 0l744 1116h166l-744 -1116h-166z" />
    <glyph glyph-name="uni2156" unicode="&#x2156;" horiz-adv-x="1640" 
d="M1088 672h416v-128h-292l-10 -132c29 19 72 30 120 30c64 0 117 -19 159 -57s63 -93 63 -165c0 -144 -94 -230 -246 -230c-142 0 -256 77 -256 226h148c0 -77 45 -106 98 -106c61 0 102 37 102 106s-43 108 -112 108c-51 0 -95 -20 -132 -44l-84 22zM350 1128
c123 0 230 -68 230 -204c0 -115 -76 -174 -152 -228l-68 -48c-35 -24 -62 -45 -70 -80h298v-122h-476v46c0 67 15 120 45 159s64 72 103 97l74 48c53 35 88 61 88 122c0 59 -34 86 -82 86s-90 -25 -90 -102h-148c0 153 120 226 248 226zM380 0l744 1116h166l-744 -1116h-166
z" />
    <glyph glyph-name="uni2157" unicode="&#x2157;" horiz-adv-x="1612" 
d="M1060 672h416v-128h-292l-10 -132c29 19 72 30 120 30c64 0 117 -19 159 -57s63 -93 63 -165c0 -144 -94 -230 -246 -230c-142 0 -256 77 -256 226h148c0 -77 45 -106 98 -106c61 0 102 37 102 106s-43 108 -112 108c-51 0 -95 -20 -132 -44l-84 22zM360 1128
c68 0 123 -17 165 -52s63 -81 63 -140c0 -63 -29 -111 -86 -146c56 -27 100 -78 100 -158c0 -120 -92 -198 -244 -198c-73 0 -135 19 -184 56s-74 94 -74 170h148c0 -77 43 -106 102 -106s96 30 96 86c0 59 -37 88 -112 88h-54v110h54c65 0 98 28 98 84c0 57 -29 86 -86 86
c-53 0 -90 -30 -90 -102h-146c0 150 117 222 250 222zM352 0l744 1116h166l-744 -1116h-166z" />
    <glyph glyph-name="uni2158" unicode="&#x2158;" horiz-adv-x="1636" 
d="M400 1116h148v-424h82v-112h-82v-134h-152v134h-318v98zM396 692v254l-186 -254h186zM1084 672h416v-128h-292l-10 -132c29 19 72 30 120 30c64 0 117 -19 159 -57s63 -93 63 -165c0 -144 -94 -230 -246 -230c-142 0 -256 77 -256 226h148c0 -77 45 -106 98 -106
c61 0 102 37 102 106s-43 108 -112 108c-51 0 -95 -20 -132 -44l-84 22zM376 0l744 1116h166l-744 -1116h-166z" />
    <glyph glyph-name="uni2159" unicode="&#x2159;" horiz-adv-x="1502" 
d="M1156 684c67 0 123 -19 169 -56s69 -93 69 -166h-148c0 67 -30 100 -90 100c-31 0 -58 -13 -81 -38s-37 -75 -41 -148c35 27 89 42 148 42c65 0 117 -20 155 -59s57 -89 57 -149c0 -64 -22 -117 -65 -158s-102 -62 -177 -62c-171 0 -276 118 -276 342
c0 117 26 205 77 264s119 88 203 88zM1138 308c-37 0 -75 -11 -102 -30c5 -65 19 -110 40 -133s46 -35 74 -35c53 0 88 37 88 98s-36 100 -100 100zM276 1116h138v-670h-154v476c-29 -32 -91 -68 -176 -68v138c105 0 165 71 192 124zM228 0l744 1116h166l-744 -1116h-166z
" />
    <glyph glyph-name="uni215A" unicode="&#x215a;" horiz-adv-x="1626" 
d="M1280 684c67 0 123 -19 169 -56s69 -93 69 -166h-148c0 67 -30 100 -90 100c-31 0 -58 -13 -81 -38s-37 -75 -41 -148c35 27 89 42 148 42c65 0 117 -20 155 -59s57 -89 57 -149c0 -64 -22 -117 -65 -158s-102 -62 -177 -62c-171 0 -276 118 -276 342
c0 117 26 205 77 264s119 88 203 88zM1262 308c-37 0 -75 -11 -102 -30c5 -65 19 -110 40 -133s46 -35 74 -35c53 0 88 37 88 98s-36 100 -100 100zM154 1116h416v-128h-292l-10 -132c29 19 72 30 120 30c64 0 117 -19 159 -57s63 -93 63 -165c0 -144 -94 -230 -246 -230
c-142 0 -256 77 -256 226h148c0 -77 45 -106 98 -106c61 0 102 37 102 106s-43 108 -112 108c-51 0 -95 -20 -132 -44l-84 22zM354 0l744 1116h166l-744 -1116h-166z" />
    <glyph glyph-name="uni215B" unicode="&#x215b;" horiz-adv-x="1494" 
d="M276 1116h138v-670h-154v476c-29 -32 -91 -68 -176 -68v138c105 0 165 71 192 124zM228 0l744 1116h166l-744 -1116h-166zM1132 684c119 0 244 -54 244 -190c0 -77 -38 -121 -94 -150c67 -29 110 -78 110 -158c0 -139 -127 -196 -260 -196s-260 57 -260 198
c0 80 44 129 108 156c-56 29 -92 73 -92 148c0 137 121 192 244 192zM1132 290c-56 0 -108 -23 -108 -92c0 -35 11 -58 33 -71s47 -19 75 -19c27 0 51 6 74 19s34 36 34 71s-11 59 -34 72s-47 20 -74 20zM1132 566c-48 0 -94 -23 -94 -84s47 -84 92 -84c51 0 94 23 94 84
s-47 84 -92 84z" />
    <glyph glyph-name="uni215C" unicode="&#x215c;" horiz-adv-x="1618" 
d="M360 1128c68 0 123 -17 165 -52s63 -81 63 -140c0 -63 -29 -111 -86 -146c56 -27 100 -78 100 -158c0 -120 -92 -198 -244 -198c-73 0 -135 19 -184 56s-74 94 -74 170h148c0 -77 43 -106 102 -106s96 30 96 86c0 59 -37 88 -112 88h-54v110h54c65 0 98 28 98 84
c0 57 -29 86 -86 86c-53 0 -90 -30 -90 -102h-146c0 150 117 222 250 222zM352 0l744 1116h166l-744 -1116h-166zM1256 684c119 0 244 -54 244 -190c0 -77 -38 -121 -94 -150c67 -29 110 -78 110 -158c0 -139 -127 -196 -260 -196s-260 57 -260 198c0 80 44 129 108 156
c-56 29 -92 73 -92 148c0 137 121 192 244 192zM1256 290c-56 0 -108 -23 -108 -92c0 -35 11 -58 33 -71s47 -19 75 -19c27 0 51 6 74 19s34 36 34 71s-11 59 -34 72s-47 20 -74 20zM1256 566c-48 0 -94 -23 -94 -84s47 -84 92 -84c51 0 94 23 94 84s-47 84 -92 84z" />
    <glyph glyph-name="uni215D" unicode="&#x215d;" horiz-adv-x="1618" 
d="M154 1116h416v-128h-292l-10 -132c29 19 72 30 120 30c64 0 117 -19 159 -57s63 -93 63 -165c0 -144 -94 -230 -246 -230c-142 0 -256 77 -256 226h148c0 -77 45 -106 98 -106c61 0 102 37 102 106s-43 108 -112 108c-51 0 -95 -20 -132 -44l-84 22zM354 0l744 1116h166
l-744 -1116h-166zM1256 684c119 0 244 -54 244 -190c0 -77 -38 -121 -94 -150c67 -29 110 -78 110 -158c0 -139 -127 -196 -260 -196s-260 57 -260 198c0 80 44 129 108 156c-56 29 -92 73 -92 148c0 137 121 192 244 192zM1256 290c-56 0 -108 -23 -108 -92
c0 -35 11 -58 33 -71s47 -19 75 -19c27 0 51 6 74 19s34 36 34 71s-11 59 -34 72s-47 20 -74 20zM1256 566c-48 0 -94 -23 -94 -84s47 -84 92 -84c51 0 94 23 94 84s-47 84 -92 84z" />
    <glyph glyph-name="uni215E" unicode="&#x215e;" horiz-adv-x="1466" 
d="M66 1116h450v-118c-125 -141 -176 -323 -176 -520v-32h-160v46c0 188 61 384 162 496h-276v128zM202 0l744 1116h166l-744 -1116h-166zM1104 684c119 0 244 -54 244 -190c0 -77 -38 -121 -94 -150c67 -29 110 -78 110 -158c0 -139 -127 -196 -260 -196s-260 57 -260 198
c0 80 44 129 108 156c-56 29 -92 73 -92 148c0 137 121 192 244 192zM1104 290c-56 0 -108 -23 -108 -92c0 -35 11 -58 33 -71s47 -19 75 -19c27 0 51 6 74 19s34 36 34 71s-11 59 -34 72s-47 20 -74 20zM1104 566c-48 0 -94 -23 -94 -84s47 -84 92 -84c51 0 94 23 94 84
s-47 84 -92 84z" />
    <glyph glyph-name="uni2190" unicode="&#x2190;" horiz-adv-x="1240" 
 />
    <glyph glyph-name="uni2191" unicode="&#x2191;" horiz-adv-x="1240" 
 />
    <glyph glyph-name="uni2192" unicode="&#x2192;" horiz-adv-x="1240" 
 />
    <glyph glyph-name="uni2193" unicode="&#x2193;" horiz-adv-x="1240" 
 />
    <glyph glyph-name="uni2196" unicode="&#x2196;" horiz-adv-x="1240" 
 />
    <glyph glyph-name="uni2197" unicode="&#x2197;" horiz-adv-x="1240" 
 />
    <glyph glyph-name="uni2198" unicode="&#x2198;" horiz-adv-x="1240" 
 />
    <glyph glyph-name="uni2199" unicode="&#x2199;" horiz-adv-x="1240" 
 />
    <glyph glyph-name="partialdiff" unicode="&#x2202;" horiz-adv-x="1048" 
 />
    <glyph glyph-name="increment" unicode="&#x2206;" horiz-adv-x="1170" 
 />
    <glyph glyph-name="product" unicode="&#x220f;" horiz-adv-x="1202" 
 />
    <glyph glyph-name="summation" unicode="&#x2211;" horiz-adv-x="1024" 
 />
    <glyph glyph-name="minus" unicode="&#x2212;" 
 />
    <glyph glyph-name="radical" unicode="&#x221a;" horiz-adv-x="1094" 
 />
    <glyph glyph-name="infinity" unicode="&#x221e;" horiz-adv-x="1296" 
 />
    <glyph glyph-name="integral" unicode="&#x222b;" horiz-adv-x="872" 
 />
    <glyph glyph-name="approxequal" unicode="&#x2248;" 
 />
    <glyph glyph-name="notequal" unicode="&#x2260;" 
 />
    <glyph glyph-name="lessequal" unicode="&#x2264;" 
 />
    <glyph glyph-name="greaterequal" unicode="&#x2265;" 
 />
    <glyph glyph-name="lozenge" unicode="&#x25ca;" horiz-adv-x="1008" 
 />
    <glyph glyph-name="fi" unicode="&#xfb01;" horiz-adv-x="1080" 
d="M142 0v706h-128v184h128v148c0 176 87 306 300 306c59 0 101 -9 122 -20v-190c-23 7 -46 10 -70 10c-80 0 -104 -45 -104 -120v-134h174v-184h-174v-706h-248zM706 0v890h248v-890h-248zM700 1104v220h260v-220h-260z" />
    <glyph glyph-name="fl" unicode="&#xfb02;" horiz-adv-x="1076" 
d="M142 0v706h-128v184h128v148c0 176 87 306 300 306c59 0 101 -9 122 -20v-190c-23 7 -46 10 -70 10c-80 0 -104 -45 -104 -120v-134h174v-184h-174v-706h-248zM704 0v1324h248v-1324h-248z" />
    <glyph glyph-name="zero.zero" horiz-adv-x="1152" 
d="M576 942c-176 0 -216 -162 -216 -384c0 -226 40 -384 216 -384s216 158 216 384c0 222 -40 384 -216 384zM576 636c45 0 78 -33 78 -78s-33 -78 -78 -78s-78 33 -78 78s33 78 78 78zM576 1136c323 0 462 -228 462 -578s-139 -578 -462 -578s-462 228 -462 578
s139 578 462 578z" />
    <glyph glyph-name="zero.tf" 
d="M520 934c-157 0 -194 -157 -194 -376s37 -376 194 -376s194 157 194 376s-37 376 -194 376zM520 1136c315 0 448 -228 448 -578s-133 -578 -448 -578s-448 228 -448 578s133 578 448 578z" />
    <glyph glyph-name="zero.zero_tf" 
 />
    <glyph glyph-name="one.tf" 
d="M188 202h282v596c-29 -28 -70 -52 -123 -72s-110 -30 -171 -30v212c80 3 148 24 205 64s96 88 117 144h222v-914h244v-202h-776v202z" />
    <glyph glyph-name="two.tf" 
d="M530 1136c119 0 211 -30 277 -91s99 -144 99 -249c0 -163 -86 -264 -234 -370l-132 -94c-56 -40 -91 -77 -102 -128h484v-204h-766v82c0 184 86 309 230 408l132 90c43 29 78 60 106 92s42 74 42 126c0 99 -55 150 -146 150c-107 0 -159 -68 -162 -188h-230
c0 245 167 376 402 376z" />
    <glyph glyph-name="three.tf" 
d="M532 1136c238 0 382 -137 382 -318c0 -112 -51 -201 -150 -252c104 -43 172 -134 172 -262c0 -96 -35 -174 -104 -234s-167 -90 -292 -90c-245 0 -414 129 -414 374h234c3 -136 71 -186 172 -186s166 51 166 150c0 104 -72 156 -192 156h-92v178h92c112 0 168 49 168 148
c0 96 -57 148 -150 148s-155 -51 -158 -182h-234c0 240 167 370 400 370z" />
    <glyph glyph-name="four.tf" 
d="M606 1116h228v-710h140v-186h-140v-220h-246v220h-502v162zM308 406h280v396z" />
    <glyph glyph-name="five.tf" 
d="M204 1116h664v-204h-470l-18 -240c51 32 125 54 208 54c221 0 354 -153 354 -368c0 -222 -146 -378 -402 -378c-238 0 -412 132 -412 374h234c0 -142 85 -186 172 -186c115 0 168 75 168 184c0 120 -65 190 -188 190c-80 0 -147 -33 -208 -78l-148 36z" />
    <glyph glyph-name="six.tf" 
d="M574 1136c245 0 376 -159 376 -364h-232c0 101 -45 176 -146 176c-123 0 -197 -115 -202 -326c69 47 146 70 230 70c185 0 350 -120 350 -346s-163 -366 -392 -366c-262 0 -438 185 -438 572c0 409 198 584 454 584zM546 512c-56 0 -121 -17 -174 -54
c13 -200 81 -290 190 -290c93 0 152 66 152 170c0 109 -64 174 -168 174z" />
    <glyph glyph-name="seven.tf" 
d="M136 1116h770v-180c-113 -119 -193 -253 -239 -402s-69 -311 -69 -484v-50h-260v86c0 329 129 662 298 826h-500v204z" />
    <glyph glyph-name="eight.tf" 
d="M520 1136c237 0 394 -137 394 -320c0 -104 -53 -199 -154 -252c112 -45 176 -139 176 -262c0 -187 -155 -322 -416 -322s-416 135 -416 322c0 123 65 217 174 262c-101 53 -152 148 -152 252c0 183 157 320 394 320zM520 476c-107 0 -178 -55 -178 -156
c0 -99 66 -154 178 -154s178 55 178 154c0 101 -69 156 -178 156zM520 950c-101 0 -158 -54 -158 -150s57 -150 158 -150s158 54 158 150s-57 150 -158 150z" />
    <glyph glyph-name="nine.tf" 
d="M506 1136c258 0 436 -178 436 -578c0 -196 -40 -341 -120 -436s-187 -142 -322 -142c-250 0 -388 159 -388 364h232c0 -49 13 -91 38 -125s64 -51 116 -51c120 0 184 97 192 324c-67 -45 -144 -68 -224 -68c-190 0 -354 120 -354 346s165 366 394 366zM516 604
c53 0 121 17 174 54c-13 200 -83 290 -190 290c-93 0 -152 -66 -152 -170c0 -109 64 -174 168 -174z" />
    <glyph glyph-name="at.alt02" horiz-adv-x="1878" 
d="M882 -20c-192 0 -384 126 -384 462s192 468 384 468c68 0 124 -14 167 -41s74 -56 93 -85v106h220v-666c0 -49 19 -74 56 -74c91 0 190 125 190 392c0 419 -251 582 -614 582c-445 0 -716 -242 -716 -690c0 -443 263 -660 698 -660c210 0 393 54 462 86v-144
c-69 -32 -259 -80 -472 -80c-569 0 -856 341 -856 794c0 466 305 832 884 832c469 0 774 -241 774 -712c0 -325 -138 -570 -402 -570c-68 0 -120 13 -157 39s-59 55 -67 87c-19 -29 -50 -58 -93 -85s-99 -41 -167 -41zM1114 244v402c-37 37 -95 60 -162 60
c-136 0 -202 -92 -202 -260s66 -262 202 -262c67 0 125 23 162 60z" />
    <glyph glyph-name="apple" horiz-adv-x="1496" 
 />
    <glyph glyph-name="caron.slovak" horiz-adv-x="852" 
 />
    <glyph glyph-name="IJacute" horiz-adv-x="1160" 
d="M150 1262l140 290h260l-288 -290h-112zM790 1262l140 290h260l-288 -290h-112zM586 -20c-143 0 -254 36 -334 109s-120 185 -120 337h254c0 -160 62 -232 198 -232s190 70 190 254v668h254v-678c0 -168 -38 -274 -110 -346c-77 -77 -193 -112 -332 -112zM132 642v474h254
v-474h-254z" />
    <glyph glyph-name="ijacute" horiz-adv-x="1016" 
d="M144 1048l140 290h260l-288 -290h-112zM648 1048l140 290h260l-288 -290h-112zM126 0v890h248v-890h-248z" />
    <glyph glyph-name="a.alt02" horiz-adv-x="1064" 
d="M720 0v106c-19 -29 -50 -58 -93 -85s-99 -41 -167 -41c-192 0 -384 126 -384 462s192 468 384 468c68 0 124 -14 167 -41s74 -56 93 -85v106h220v-890h-220zM692 244v402c-37 37 -95 60 -162 60c-136 0 -202 -92 -202 -260s66 -262 202 -262c67 0 125 23 162 60z" />
    <glyph glyph-name="aacute.alt02" horiz-adv-x="1064" 
d="M720 0v106c-19 -29 -50 -58 -93 -85s-99 -41 -167 -41c-192 0 -384 126 -384 462s192 468 384 468c68 0 124 -14 167 -41s74 -56 93 -85v106h220v-890h-220zM692 244v402c-37 37 -95 60 -162 60c-136 0 -202 -92 -202 -260s66 -262 202 -262c67 0 125 23 162 60z
M408 1048l140 290h260l-288 -290h-112z" />
    <glyph glyph-name="agrave.alt02" horiz-adv-x="1064" 
d="M720 0v106c-19 -29 -50 -58 -93 -85s-99 -41 -167 -41c-192 0 -384 126 -384 462s192 468 384 468c68 0 124 -14 167 -41s74 -56 93 -85v106h220v-890h-220zM692 244v402c-37 37 -95 60 -162 60c-136 0 -202 -92 -202 -260s66 -262 202 -262c67 0 125 23 162 60z
M522 1048l-288 290h260l140 -290h-112z" />
    <glyph glyph-name="acircumflex.alt02" horiz-adv-x="1064" 
d="M720 0v106c-19 -29 -50 -58 -93 -85s-99 -41 -167 -41c-192 0 -384 126 -384 462s192 468 384 468c68 0 124 -14 167 -41s74 -56 93 -85v106h220v-890h-220zM692 244v402c-37 37 -95 60 -162 60c-136 0 -202 -92 -202 -260s66 -262 202 -262c67 0 125 23 162 60z
M204 1042l244 298h144l244 -298h-126l-190 126l-190 -126h-126z" />
    <glyph glyph-name="adieresis.alt02" horiz-adv-x="1064" 
d="M720 0v106c-19 -29 -50 -58 -93 -85s-99 -41 -167 -41c-192 0 -384 126 -384 462s192 468 384 468c68 0 124 -14 167 -41s74 -56 93 -85v106h220v-890h-220zM692 244v402c-37 37 -95 60 -162 60c-136 0 -202 -92 -202 -260s66 -262 202 -262c67 0 125 23 162 60z
M212 1088v206h224v-206h-224zM604 1088v206h224v-206h-224z" />
    <glyph glyph-name="atilde.alt02" horiz-adv-x="1064" 
d="M720 0v106c-19 -29 -50 -58 -93 -85s-99 -41 -167 -41c-192 0 -384 126 -384 462s192 468 384 468c68 0 124 -14 167 -41s74 -56 93 -85v106h220v-890h-220zM692 244v402c-37 37 -95 60 -162 60c-136 0 -202 -92 -202 -260s66 -262 202 -262c67 0 125 23 162 60z
M212 1092v136c29 53 92 100 164 100c139 0 209 -120 306 -120c61 0 109 33 146 78v-136c-29 -53 -92 -100 -164 -100c-139 0 -209 120 -306 120c-64 0 -109 -33 -146 -78z" />
    <glyph glyph-name="aring.alt02" horiz-adv-x="1064" 
d="M720 0v106c-19 -29 -50 -58 -93 -85s-99 -41 -167 -41c-192 0 -384 126 -384 462s192 468 384 468c68 0 124 -14 167 -41s74 -56 93 -85v106h220v-890h-220zM692 244v402c-37 37 -95 60 -162 60c-136 0 -202 -92 -202 -260s66 -262 202 -262c67 0 125 23 162 60z
M520 1120c64 0 110 41 110 118s-46 118 -110 118s-110 -41 -110 -118s46 -118 110 -118zM520 1008c-117 0 -228 86 -228 230s111 230 228 230s228 -86 228 -230s-111 -230 -228 -230z" />
    <glyph glyph-name="amacron.alt02" horiz-adv-x="1064" 
 />
    <glyph glyph-name="abreve.alt02" horiz-adv-x="1064" 
 />
    <glyph glyph-name="aogonek.alt02" horiz-adv-x="1064" 
 />
    <glyph glyph-name="g.alt02" horiz-adv-x="1064" 
d="M692 -14v136c-19 -27 -48 -52 -87 -77s-89 -37 -149 -37c-198 0 -380 133 -380 448c0 318 182 454 380 454c69 0 126 -13 169 -40s75 -55 95 -86v106h220v-924c0 -219 -81 -382 -420 -382c-256 0 -428 94 -428 326h244c0 -96 58 -144 174 -144c178 0 182 114 182 220z
M692 272v374c-40 40 -93 60 -160 60c-136 0 -204 -89 -204 -246s68 -248 204 -248c67 0 120 20 160 60z" />
    <glyph glyph-name="gbreve.alt02" horiz-adv-x="1064" 
 />
    <glyph glyph-name="gcircumflex.alt02" horiz-adv-x="1064" 
 />
    <glyph glyph-name="gcommaaccent.alt02" horiz-adv-x="1064" 
 />
    <glyph glyph-name="gdotaccent.alt02" horiz-adv-x="1064" 
 />
    <glyph glyph-name="grave.case" horiz-adv-x="852" 
d="M514 1262l-288 290h260l140 -290h-112z" />
    <glyph glyph-name="acute.case" horiz-adv-x="852" 
d="M226 1262l140 290h260l-288 -290h-112z" />
    <glyph glyph-name="dieresis.case" horiz-adv-x="852" 
d="M118 1302v206h224v-206h-224zM510 1302v206h224v-206h-224z" />
    <glyph glyph-name="circumflex.case" horiz-adv-x="852" 
d="M110 1256l244 298h144l244 -298h-126l-190 126l-190 -126h-126z" />
    <glyph glyph-name="tilde.case" horiz-adv-x="852" 
d="M118 1306v136c29 53 92 100 164 100c139 0 209 -120 306 -120c61 0 109 33 146 78v-136c-29 -53 -92 -100 -164 -100c-139 0 -209 120 -306 120c-64 0 -109 -33 -146 -78z" />
    <glyph glyph-name="macron.case" horiz-adv-x="852" 
 />
    <glyph glyph-name="breve.case" horiz-adv-x="852" 
 />
    <glyph glyph-name="dotaccent.case" horiz-adv-x="852" 
 />
    <glyph glyph-name="ring.case" horiz-adv-x="852" 
d="M426 1334c64 0 110 41 110 118s-46 118 -110 118s-110 -41 -110 -118s46 -118 110 -118zM426 1222c-117 0 -228 86 -228 230s111 230 228 230s228 -86 228 -230s-111 -230 -228 -230z" />
    <glyph glyph-name="hungarumlaut.case" horiz-adv-x="852" 
 />
    <glyph glyph-name="caron.case" horiz-adv-x="852" 
d="M354 1256l-244 298h126l190 -126l190 126h126l-244 -298h-144z" />
    <glyph glyph-name="Euro.tf" 
d="M18 632v114h126c23 120 69 215 139 285s163 105 279 105c222 0 402 -141 418 -410h-230c-5 112 -61 222 -182 222c-55 0 -97 -19 -126 -58s-50 -87 -62 -144h238v-114h-252c-3 -27 -2 -50 -2 -74c0 -27 -1 -50 2 -74h252v-114h-238c12 -57 33 -105 62 -144
s71 -58 126 -58c121 0 177 110 182 222h230c-16 -269 -196 -410 -418 -410c-232 0 -373 147 -418 390h-126v114h112c-3 24 -2 47 -2 74c0 24 -1 50 2 74h-112z" />
    <glyph glyph-name="cent.tf" 
d="M726 330h226c-8 -103 -43 -183 -105 -242s-141 -93 -237 -104v-230h-150v232c-183 27 -364 145 -364 460c0 313 181 431 364 458v232h150v-230c96 -11 175 -46 237 -105s97 -140 105 -241h-226c-5 77 -55 143 -140 162v-552c85 16 135 83 140 160zM332 446
c0 -152 51 -247 152 -274v546c-101 -24 -152 -120 -152 -272z" />
    <glyph glyph-name="dollar.tf" 
d="M72 344h246c5 -104 72 -159 160 -180v302l-106 32c-181 53 -278 149 -278 312c0 91 32 164 95 221s151 90 263 101v230h150v-232c208 -27 335 -150 348 -350h-244c-8 99 -51 156 -128 172v-288l114 -34c176 -53 276 -141 276 -312c0 -192 -137 -313 -366 -334v-230h-150
v230c-224 21 -367 149 -380 360zM730 298c0 69 -48 111 -152 140v-278c96 11 152 61 152 138zM332 832c0 -69 39 -108 146 -140v266c-97 -7 -146 -49 -146 -126z" />
    <glyph glyph-name="florin.tf" 
d="M644 550l-44 -248c-37 -208 -128 -322 -334 -322c-88 0 -150 19 -185 57s-53 86 -53 143c0 25 2 47 6 66h176c-3 -11 -4 -23 -4 -36c0 -43 21 -56 50 -56c48 0 75 38 96 150l44 246h-146l26 158h148l18 106c17 103 52 182 103 238s128 84 231 84c88 0 150 -19 185 -57
s53 -86 53 -143c0 -21 -1 -47 -6 -66h-176c3 11 4 23 4 36c0 43 -21 56 -50 56c-45 0 -75 -33 -96 -150l-18 -104h188l-26 -158h-190z" />
    <glyph glyph-name="sterling.tf" 
d="M126 424v154h102c-23 35 -44 70 -64 106s-30 79 -30 130c0 174 152 322 408 322c205 0 400 -94 416 -366h-242c-3 69 -20 118 -53 146s-72 42 -117 42c-101 0 -162 -61 -162 -154c0 -83 44 -151 84 -226h310v-154h-254c0 -11 2 -17 2 -28c0 -77 -39 -151 -100 -202h546
v-194h-884v156c72 16 124 46 157 90s49 93 49 148c0 11 -2 19 -2 30h-166z" />
    <glyph glyph-name="yen.tf" 
d="M112 424v140h208l-298 552h268l236 -498l234 498h260l-298 -552h208v-140h-282v-120h282v-140h-282v-164h-254v164h-282v140h282v120h-282z" />
    <glyph glyph-name="jacute" horiz-adv-x="516" 
 />
    <glyph glyph-name="Jacute" horiz-adv-x="1006" 
 />
    <glyph glyph-name="bbox" horiz-adv-x="80" 
 />
    </font>
</defs>
</svg>
