<?xml version="1.0" standalone="no"?>
<!DOCTYPE svg PUBLIC "-//W3C//DTD SVG 1.1//EN" "http://www.w3.org/Graphics/SVG/1.1/DTD/svg11.dtd" >
<svg xmlns="http://www.w3.org/2000/svg" width="100%" height="100%">
<metadata>
Created by FontXChange 20110222 at Thu Dec  1 19:56:26 2016
 By jasecoop
Webtype Web Use Only
</metadata>
<defs>
<font id="NittiGrotesk" horiz-adv-x="1040" >
  <font-face 
    font-family="NittiGrotesk"
    font-weight="400"
    font-stretch="normal"
    units-per-em="2048"
    panose-1="2 11 5 3 6 0 0 6 0 3"
    ascent="1630"
    descent="-418"
    x-height="870"
    cap-height="1116"
    bbox="-40 -416 2034 1606"
    underline-thickness="88"
    underline-position="-224"
    stemh="120"
    stemv="112"
    unicode-range="U+000D-FB02"
  />
<missing-glyph 
 />
    <glyph glyph-name=".notdef" 
 />
    <glyph glyph-name="uni0000" horiz-adv-x="0" 
 />
    <glyph glyph-name="uni0000" horiz-adv-x="0" 
 />
    <glyph glyph-name="nonmarkingreturn" unicode="&#xd;" horiz-adv-x="412" 
 />
    <glyph glyph-name="space" unicode=" " horiz-adv-x="412" 
 />
    <glyph glyph-name="exclam" unicode="!" horiz-adv-x="568" 
d="M264 330l-56 378v408h152v-408l-56 -378h-40zM190 0v188h188v-188h-188z" />
    <glyph glyph-name="quotedbl" unicode="&#x22;" horiz-adv-x="798" 
d="M226 740l-66 456h174l-66 -456h-42zM530 740l-66 456h174l-66 -456h-42z" />
    <glyph glyph-name="numbersign" unicode="#" 
d="M456 714l-56 -288h192l56 288h-192zM172 714l22 112h162l56 290h122l-56 -290h192l56 290h122l-56 -290h162l-22 -112h-162l-56 -288h162l-22 -112h-162l-60 -314h-122l60 314h-192l-60 -314h-122l60 314h-162l22 112h162l56 288h-162z" />
    <glyph glyph-name="dollar" unicode="$" horiz-adv-x="1086" 
d="M112 328h150c11 -148 117 -206 238 -222v402l-96 28c-81 24 -146 59 -194 105s-72 109 -72 189c0 202 166 293 358 304v208h98v-210c205 -21 329 -138 342 -338h-148c-7 72 -29 124 -67 156s-82 51 -133 58v-380l116 -34c81 -24 146 -59 194 -104s72 -109 72 -192
c0 -219 -176 -305 -376 -316v-208h-98v208c-108 9 -197 42 -267 99s-109 139 -117 247zM652 468l-64 18v-384c157 5 234 84 234 188c0 87 -57 146 -170 178zM286 840c0 -87 57 -146 170 -178l44 -12v364c-141 -5 -214 -73 -214 -174z" />
    <glyph glyph-name="percent" unicode="%" horiz-adv-x="1496" 
d="M368 600c112 0 158 80 158 216s-46 216 -158 216s-158 -80 -158 -216s46 -216 158 -216zM368 496c-133 0 -274 77 -274 320s141 320 274 320s274 -77 274 -320s-141 -320 -274 -320zM330 0l704 1116h132l-704 -1116h-132zM1128 84c112 0 158 80 158 216s-46 216 -158 216
s-158 -80 -158 -216s46 -216 158 -216zM1128 -20c-133 0 -274 77 -274 320s141 320 274 320s274 -77 274 -320s-141 -320 -274 -320z" />
    <glyph glyph-name="ampersand" unicode="&#x26;" horiz-adv-x="1102" 
d="M892 0l-94 110c-85 -77 -201 -130 -350 -130c-219 0 -364 112 -364 288c0 161 133 258 286 348c-35 41 -67 84 -96 129s-44 92 -44 143c0 68 24 126 73 175s120 73 215 73c155 0 278 -89 278 -240c0 -133 -95 -210 -244 -300l250 -292c41 76 62 169 62 280h134
c0 -117 -37 -257 -114 -374l182 -210h-174zM466 100c96 0 187 31 256 98l-280 334c-128 -80 -210 -140 -210 -254c0 -109 79 -178 234 -178zM370 892c0 -77 43 -135 110 -212c148 90 176 138 176 212c0 83 -55 134 -138 134c-93 0 -148 -49 -148 -134z" />
    <glyph glyph-name="quotesingle" unicode="'" horiz-adv-x="494" 
d="M226 740l-66 456h174l-66 -456h-42z" />
    <glyph glyph-name="parenleft" unicode="(" horiz-adv-x="592" 
d="M632 -356h-168c-258 275 -314 588 -314 810s56 535 314 810h168c-286 -281 -340 -593 -340 -810s54 -529 340 -810z" />
    <glyph glyph-name="parenright" unicode=")" horiz-adv-x="592" 
d="M128 -356h-168c286 281 340 593 340 810s-54 529 -340 810h168c258 -275 314 -588 314 -810s-56 -535 -314 -810z" />
    <glyph glyph-name="asterisk" unicode="*" horiz-adv-x="656" 
d="M382 1196l-16 -234l218 86l32 -98l-222 -58l146 -180l-84 -60l-128 200l-128 -200l-84 60l146 180l-222 58l32 98l216 -86l-14 234h108z" />
    <glyph glyph-name="plus" unicode="+" 
d="M126 406v124h326v330h134v-330h328v-124h-328v-332h-134v332h-326z" />
    <glyph glyph-name="comma" unicode="," horiz-adv-x="548" 
d="M162 -320l112 320h-94v188h188v-188l-118 -320h-88z" />
    <glyph glyph-name="hyphen" unicode="-" horiz-adv-x="720" 
d="M126 396v138h468v-138h-468z" />
    <glyph glyph-name="period" unicode="." horiz-adv-x="548" 
d="M180 0v188h188v-188h-188z" />
    <glyph glyph-name="slash" unicode="/" horiz-adv-x="634" 
d="M-6 -128l516 1392h130l-516 -1392h-130z" />
    <glyph glyph-name="zero" unicode="0" horiz-adv-x="1108" 
d="M554 1006c-213 0 -274 -185 -274 -448c0 -265 61 -448 274 -448s274 183 274 448c0 263 -61 448 -274 448zM554 1136c145 0 253 -51 324 -152s106 -243 106 -426s-35 -325 -106 -426s-179 -152 -324 -152s-253 51 -324 152s-106 243 -106 426s35 325 106 426
s179 152 324 152z" />
    <glyph glyph-name="one" unicode="1" horiz-adv-x="682" 
d="M364 1116h138v-1116h-156v892c-47 -53 -160 -114 -302 -114v132c167 5 277 110 320 206z" />
    <glyph glyph-name="two" unicode="2" horiz-adv-x="910" 
d="M456 1136c247 0 364 -137 364 -320c0 -176 -110 -277 -238 -362l-166 -114c-85 -59 -138 -123 -146 -208h566v-132h-736v52c0 171 79 299 234 400l160 106c45 29 86 64 121 104s53 91 53 154c0 117 -71 196 -220 196c-163 0 -229 -92 -232 -236h-150
c0 227 142 360 390 360z" />
    <glyph glyph-name="three" unicode="3" horiz-adv-x="984" 
d="M484 1136c249 0 370 -139 370 -306c0 -123 -62 -215 -174 -260c53 -16 100 -46 139 -91s59 -104 59 -179c0 -176 -127 -320 -388 -320c-267 0 -402 142 -402 374h150c3 -171 96 -250 248 -250s240 80 240 200s-90 202 -258 202h-82v120h86c152 0 230 77 230 194
c0 112 -73 192 -222 192s-229 -79 -232 -234h-150c0 224 135 358 386 358z" />
    <glyph glyph-name="four" unicode="4" horiz-adv-x="932" 
d="M582 1116h140v-746h160v-122h-160v-248h-150v248h-548v104zM180 370h392v534z" />
    <glyph glyph-name="five" unicode="5" horiz-adv-x="972" 
d="M188 1116h634v-132h-506l-26 -336c61 45 143 70 244 70c247 0 364 -163 364 -366c0 -201 -120 -372 -392 -372c-127 0 -225 33 -294 100s-104 158 -104 274h150c1 -89 25 -153 71 -192s103 -58 171 -58c160 0 246 99 246 246s-85 246 -250 246c-109 0 -197 -45 -258 -106
l-90 18z" />
    <glyph glyph-name="six" unicode="6" horiz-adv-x="1034" 
d="M556 1136c224 0 370 -141 370 -356h-150c0 67 -18 122 -55 166s-92 66 -167 66c-84 0 -150 -34 -199 -102s-74 -179 -77 -332c75 69 173 106 282 106c215 0 362 -144 362 -352c0 -210 -152 -352 -376 -352c-275 0 -422 207 -422 572c0 381 160 584 432 584zM532 560
c-77 0 -175 -29 -252 -98c16 -261 124 -358 268 -358c64 0 117 20 160 59s64 95 64 167c0 75 -23 132 -70 171s-103 59 -170 59z" />
    <glyph glyph-name="seven" unicode="7" horiz-adv-x="772" 
d="M22 1116h728v-116c-243 -248 -344 -555 -344 -942v-58h-158v90c0 364 157 717 334 894h-560v132z" />
    <glyph glyph-name="eight" unicode="8" horiz-adv-x="1022" 
d="M512 1136c251 0 380 -145 380 -310c0 -117 -65 -213 -180 -258c55 -19 102 -51 142 -96s60 -104 60 -176c0 -170 -127 -316 -402 -316c-277 0 -404 146 -404 316c0 144 92 235 204 272c-117 45 -182 141 -182 258c0 165 129 310 382 310zM512 506
c-160 0 -254 -82 -254 -202s91 -200 254 -200s252 78 252 198s-92 204 -252 204zM512 1012c-155 0 -232 -79 -232 -194c0 -112 77 -192 232 -192c152 0 230 79 230 194c0 112 -75 192 -230 192z" />
    <glyph glyph-name="nine" unicode="9" horiz-adv-x="1034" 
d="M488 1136c272 0 422 -201 422 -580c0 -373 -148 -576 -428 -576c-238 0 -374 150 -374 356h148c0 -67 19 -122 57 -166s95 -66 171 -66c176 0 267 130 272 434c-77 -75 -176 -106 -280 -106c-221 0 -366 144 -366 350c0 212 152 354 378 354zM502 556
c77 0 172 25 252 100c-16 256 -128 356 -270 356c-65 0 -119 -20 -161 -59s-63 -94 -63 -165c0 -153 109 -232 242 -232z" />
    <glyph glyph-name="colon" unicode=":" horiz-adv-x="588" 
d="M200 0v188h188v-188h-188zM200 682v188h188v-188h-188z" />
    <glyph glyph-name="semicolon" unicode=";" horiz-adv-x="588" 
d="M182 -320l112 320h-94v188h188v-188l-118 -320h-88zM200 682v188h188v-188h-188z" />
    <glyph glyph-name="less" unicode="&#x3c;" 
d="M130 412v102l780 404v-132l-626 -320l626 -320v-138z" />
    <glyph glyph-name="equal" unicode="=" 
d="M146 592v124h748v-124h-748zM146 220v124h748v-124h-748z" />
    <glyph glyph-name="greater" unicode="&#x3e;" 
d="M910 514v-102l-780 -404v132l626 320l-626 320v138z" />
    <glyph glyph-name="question" unicode="?" horiz-adv-x="844" 
d="M312 0v188h188v-188h-188zM342 332v18c0 175 74 228 158 296c27 23 50 47 71 73s31 63 31 111c0 51 -15 93 -44 128s-79 52 -148 52c-160 0 -210 -106 -210 -228h-140c0 116 33 204 99 264s152 90 259 90c231 0 336 -145 336 -302c0 -148 -94 -218 -168 -282
c-33 -28 -61 -56 -83 -83s-33 -67 -33 -119v-18h-128z" />
    <glyph glyph-name="at" unicode="@" horiz-adv-x="1792" 
d="M1094 190v218l-184 -20c-136 -13 -214 -61 -214 -162c0 -77 54 -128 158 -128c101 0 173 36 240 92zM1118 114c-44 -60 -151 -134 -296 -134c-194 0 -278 115 -278 240c0 214 205 259 340 270l210 18v26c0 151 -22 234 -180 234c-144 0 -192 -67 -192 -190h-146
c3 256 196 314 354 312c240 0 314 -125 314 -338v-388c0 -53 25 -72 70 -72c141 0 242 177 242 446c0 405 -233 590 -606 590c-428 0 -702 -242 -702 -688s271 -684 682 -684c88 0 167 8 237 24s120 31 149 46v-108c-60 -27 -214 -66 -386 -66c-528 0 -810 345 -810 788
c0 441 285 792 824 792c454 0 732 -244 732 -692c0 -317 -136 -560 -376 -560c-117 0 -177 59 -182 134z" />
    <glyph glyph-name="A" unicode="A" horiz-adv-x="1126" 
d="M60 0l420 1116h166l420 -1116h-166l-92 260h-496l-92 -260h-160zM356 384h408l-204 574z" />
    <glyph glyph-name="B" unicode="B" horiz-adv-x="1144" 
d="M180 0v1116h400c251 0 394 -102 394 -302c0 -123 -58 -196 -154 -236c125 -37 200 -120 200 -264c0 -208 -149 -314 -410 -314h-430zM336 130h262c99 0 167 16 205 48s57 79 57 140c0 63 -19 110 -57 142s-106 48 -205 48h-262v-378zM336 632h234c91 0 154 15 190 45
s54 74 54 133c0 57 -18 101 -54 131s-99 45 -190 45h-234v-354z" />
    <glyph glyph-name="C" unicode="C" horiz-adv-x="1170" 
d="M902 352h156c-16 -238 -202 -372 -452 -372c-325 0 -486 233 -486 578s161 578 486 578c250 0 436 -134 452 -372h-156c-10 126 -105 236 -292 236c-267 0 -330 -221 -330 -442s63 -442 330 -442c187 0 282 110 292 236z" />
    <glyph glyph-name="D" unicode="D" horiz-adv-x="1186" 
d="M180 0v1116h350c368 0 536 -224 536 -558s-168 -558 -536 -558h-350zM336 132h198c299 0 372 216 372 426s-73 426 -372 426h-198v-852z" />
    <glyph glyph-name="E" unicode="E" horiz-adv-x="1044" 
d="M180 0v1116h744v-132h-588v-346h488v-132h-488v-374h588v-132h-744z" />
    <glyph glyph-name="F" unicode="F" horiz-adv-x="982" 
d="M180 0v1116h702v-132h-546v-346h470v-134h-470v-504h-156z" />
    <glyph glyph-name="G" unicode="G" horiz-adv-x="1234" 
d="M624 -20c-344 0 -504 232 -504 574c0 352 158 582 494 582c253 0 436 -131 458 -362h-158c-11 123 -109 226 -296 226c-281 0 -340 -222 -340 -444c0 -226 67 -442 352 -442c229 0 301 149 306 314h-310v128h458v-556h-122v156c-85 -144 -231 -176 -338 -176z" />
    <glyph glyph-name="H" unicode="H" horiz-adv-x="1220" 
d="M180 0v1116h156v-478h548v478h156v-1116h-156v504h-548v-504h-156z" />
    <glyph glyph-name="I" unicode="I" horiz-adv-x="636" 
d="M96 0v104h144v908h-144v104h444v-104h-144v-908h144v-104h-444z" />
    <glyph glyph-name="J" unicode="J" horiz-adv-x="962" 
d="M166 982v134h636v-762c0 -141 -29 -223 -88 -282c-64 -64 -158 -92 -278 -92c-115 0 -204 28 -268 85s-96 150 -96 281v66h156v-66c0 -168 67 -232 208 -232c72 0 125 17 159 51s51 94 51 181v636h-480z" />
    <glyph glyph-name="K" unicode="K" horiz-adv-x="1082" 
d="M180 0v1116h156v-550l510 550h192l-422 -442l446 -674h-182l-368 562l-176 -184v-378h-156z" />
    <glyph glyph-name="L" unicode="L" horiz-adv-x="924" 
d="M180 0v1116h156v-982h532v-134h-688z" />
    <glyph glyph-name="M" unicode="M" horiz-adv-x="1382" 
d="M180 0v1116h198l316 -624l320 624h188v-1116h-148v912l-306 -598h-114l-306 598v-912h-148z" />
    <glyph glyph-name="N" unicode="N" horiz-adv-x="1224" 
d="M180 0v1116h190l526 -912v912h148v-1116h-190l-526 912v-912h-148z" />
    <glyph glyph-name="O" unicode="O" horiz-adv-x="1248" 
d="M624 116c274 0 344 224 344 442s-70 442 -344 442c-275 0 -344 -224 -344 -442s69 -442 344 -442zM624 -20c-338 0 -504 233 -504 578s166 578 504 578s504 -233 504 -578s-166 -578 -504 -578z" />
    <glyph glyph-name="P" unicode="P" horiz-adv-x="1068" 
d="M180 0v1116h348c291 0 450 -113 450 -350c0 -235 -159 -350 -450 -350h-192v-416h-156zM336 548h188c111 0 187 18 230 54s64 91 64 164s-21 128 -64 164s-119 54 -230 54h-188v-436z" />
    <glyph glyph-name="Q" unicode="Q" horiz-adv-x="1252" 
d="M624 -20c-338 0 -504 233 -504 578s166 578 504 578s504 -233 504 -578c0 -176 -41 -307 -118 -406l148 -148l-100 -100l-150 152c-79 -51 -173 -76 -284 -76zM624 116c73 0 134 15 182 44l-158 160l98 96l156 -158c48 80 66 188 66 300c0 218 -70 442 -344 442
c-275 0 -344 -224 -344 -442s69 -442 344 -442z" />
    <glyph glyph-name="R" unicode="R" horiz-adv-x="1126" 
d="M180 0v1116h348c291 0 450 -113 450 -350c0 -184 -101 -287 -266 -324l334 -442h-190l-308 416h-212v-416h-156zM336 548h188c109 0 186 18 229 55s65 91 65 163c0 73 -21 128 -64 164s-119 54 -230 54h-188v-436z" />
    <glyph glyph-name="S" unicode="S" horiz-adv-x="1074" 
d="M112 328h158c11 -171 154 -218 288 -218c165 0 244 74 244 178c0 87 -53 145 -160 176l-244 70c-168 48 -260 144 -260 296c0 213 178 306 386 306c116 0 210 -29 282 -88s111 -143 118 -254h-154c-16 171 -144 212 -258 212c-144 0 -218 -65 -218 -166
c0 -87 53 -145 160 -176l244 -70c77 -23 140 -57 188 -102s72 -110 72 -194c0 -233 -198 -318 -408 -318c-243 0 -422 114 -438 348z" />
    <glyph glyph-name="T" unicode="T" horiz-adv-x="928" 
d="M386 0v982h-346v134h848v-134h-346v-982h-156z" />
    <glyph glyph-name="U" unicode="U" horiz-adv-x="1184" 
d="M160 394v722h156v-696c0 -112 22 -191 67 -236s114 -68 209 -68c93 0 163 23 208 68s68 124 68 236v696h156v-722c0 -145 -38 -251 -115 -316s-182 -98 -317 -98s-240 33 -317 98s-115 171 -115 316z" />
    <glyph glyph-name="V" unicode="V" horiz-adv-x="1036" 
d="M430 0l-396 1116h166l322 -950l320 950h160l-394 -1116h-178z" />
    <glyph glyph-name="W" unicode="W" horiz-adv-x="1594" 
d="M378 0l-314 1116h156l250 -938l244 938h172l244 -938l250 938h150l-314 -1116h-180l-238 914l-240 -914h-180z" />
    <glyph glyph-name="X" unicode="X" horiz-adv-x="1048" 
d="M50 0l384 574l-362 542h176l280 -422l278 422h172l-364 -544l384 -572h-176l-302 454l-300 -454h-170z" />
    <glyph glyph-name="Y" unicode="Y" horiz-adv-x="1020" 
d="M432 0v446l-406 670h174l312 -534l314 534h168l-406 -670v-446h-156z" />
    <glyph glyph-name="Z" unicode="Z" horiz-adv-x="998" 
d="M88 0v126l616 856h-584v134h768v-126l-614 -856h640v-134h-826z" />
    <glyph glyph-name="bracketleft" unicode="[" horiz-adv-x="574" 
d="M200 -356v1620h374v-116h-234v-1388h234v-116h-374z" />
    <glyph glyph-name="backslash" unicode="\" horiz-adv-x="634" 
d="M510 -128l-516 1392h130l516 -1392h-130z" />
    <glyph glyph-name="bracketright" unicode="]" horiz-adv-x="574" 
d="M0 -356v116h234v1388h-234v116h374v-1620h-374z" />
    <glyph glyph-name="asciicircum" unicode="^" horiz-adv-x="844" 
d="M66 516l306 600h102l306 -600h-130l-228 460l-228 -460h-128z" />
    <glyph glyph-name="underscore" unicode="_" horiz-adv-x="936" 
d="M74 -124v124h788v-124h-788z" />
    <glyph glyph-name="grave" unicode="`" horiz-adv-x="812" 
d="M470 1044l-212 254h186l110 -254h-84z" />
    <glyph glyph-name="a" unicode="a" horiz-adv-x="948" 
d="M638 190v218l-184 -20c-136 -13 -214 -61 -214 -162c0 -77 54 -128 158 -128c101 0 173 36 240 92zM662 98v16c-44 -60 -151 -134 -296 -134c-194 0 -278 115 -278 240c0 214 205 259 340 270l210 18v26c0 151 -22 234 -180 234c-144 0 -192 -67 -192 -190h-146
c3 256 196 314 354 312c240 0 314 -125 314 -338v-398c0 -36 17 -54 50 -54c27 0 51 7 74 20v-112c-24 -13 -69 -28 -120 -28c-109 0 -130 65 -130 118z" />
    <glyph glyph-name="b" unicode="b" horiz-adv-x="1012" 
d="M304 674v-478c48 -51 119 -86 210 -86c163 0 246 118 246 326s-83 324 -246 324c-91 0 -162 -33 -210 -86zM154 0v1324h150v-544c37 43 116 110 246 110c184 0 362 -123 362 -450c0 -334 -178 -460 -362 -460c-141 0 -224 71 -272 130v-110h-124z" />
    <glyph glyph-name="c" unicode="c" horiz-adv-x="950" 
d="M710 298h148c-16 -208 -155 -318 -352 -318c-181 0 -402 91 -402 456c0 363 221 454 402 454c197 0 336 -108 352 -316h-148c-3 51 -20 94 -53 131s-84 55 -153 55c-165 0 -248 -108 -248 -324c0 -217 83 -326 248 -326c69 0 120 19 153 56s50 81 53 132z" />
    <glyph glyph-name="d" unicode="d" horiz-adv-x="1012" 
d="M734 0v110c-23 -31 -56 -60 -101 -88s-102 -42 -171 -42c-185 0 -362 121 -362 452s177 458 362 458c130 0 209 -67 246 -110v544h150v-1324h-124zM708 196v478c-48 53 -119 86 -210 86c-163 0 -246 -116 -246 -324s83 -326 246 -326c91 0 162 35 210 86z" />
    <glyph glyph-name="e" unicode="e" horiz-adv-x="970" 
d="M252 512h468c-11 168 -94 258 -230 258c-144 0 -225 -90 -238 -258zM722 284h146c-32 -240 -227 -304 -376 -304c-208 0 -392 120 -392 456c0 338 202 454 386 454c176 0 388 -105 388 -452v-26h-624c7 -205 89 -308 248 -308c128 0 203 65 224 180z" />
    <glyph glyph-name="f" unicode="f" horiz-adv-x="548" 
d="M184 0v750h-138v120h138v206c0 155 73 268 244 268c45 0 81 -8 94 -16v-126c-16 5 -47 12 -76 12c-85 0 -112 -56 -112 -152v-192h188v-120h-188v-750h-150z" />
    <glyph glyph-name="g" unicode="g" horiz-adv-x="992" 
d="M100 576c0 227 201 314 356 314c51 0 103 -10 158 -30s100 -53 136 -98c37 75 114 128 234 128v-146c-85 0 -152 -15 -192 -58c13 -32 20 -67 20 -110c0 -229 -201 -314 -356 -314c-48 0 -100 7 -148 26c-32 -16 -72 -45 -72 -90c0 -48 45 -78 138 -78h222
c165 0 308 -67 308 -240c0 -95 -39 -168 -116 -219s-183 -77 -318 -77c-133 0 -234 23 -303 70s-103 107 -103 180c0 51 14 92 43 124s62 57 101 74c-56 21 -102 68 -102 140s51 129 118 158c-72 51 -124 129 -124 246zM566 -4h-244c-27 -7 -53 -21 -78 -44s-38 -55 -38 -96
c0 -80 61 -154 262 -154c184 0 290 58 290 170c0 80 -56 124 -192 124zM666 576c0 123 -79 194 -210 194s-210 -71 -210 -194s79 -194 210 -194s210 71 210 194z" />
    <glyph glyph-name="h" unicode="h" horiz-adv-x="1004" 
d="M154 0v1324h150v-544c36 46 111 110 264 110c144 0 294 -61 294 -354v-536h-150v502c0 166 -35 256 -190 256c-112 0 -181 -43 -218 -86v-672h-150z" />
    <glyph glyph-name="i" unicode="i" horiz-adv-x="462" 
d="M156 0v870h150v-870h-150zM140 1154v170h182v-170h-182z" />
    <glyph glyph-name="j" unicode="j" horiz-adv-x="466" 
d="M-28 -400v126c19 -5 49 -12 76 -12c85 0 112 56 112 152v1004h150v-1018c0 -79 -19 -143 -57 -193s-100 -75 -187 -75c-45 0 -78 8 -94 16zM144 1154v170h182v-170h-182z" />
    <glyph glyph-name="k" unicode="k" horiz-adv-x="946" 
d="M154 0v1324h150v-866l404 412h180l-328 -330l332 -540h-178l-260 446l-150 -150v-296h-150z" />
    <glyph glyph-name="l" unicode="l" horiz-adv-x="458" 
d="M154 0v1324h150v-1324h-150z" />
    <glyph glyph-name="m" unicode="m" horiz-adv-x="1500" 
d="M154 0v870h124v-112c45 72 129 132 270 132c47 0 92 -9 136 -28s79 -55 106 -110c53 77 142 138 286 138c138 0 280 -61 280 -354v-536h-150v502c0 163 -30 256 -172 256c-56 0 -101 -11 -135 -34s-60 -45 -79 -68c7 -37 10 -77 10 -120v-536h-150v502
c0 84 -11 148 -34 191s-70 65 -142 65c-101 0 -165 -43 -200 -86v-672h-150z" />
    <glyph glyph-name="n" unicode="n" horiz-adv-x="1006" 
d="M154 0v870h124v-112c48 72 136 132 288 132c144 0 296 -61 296 -354v-536h-150v502c0 166 -35 256 -190 256c-112 0 -181 -43 -218 -86v-672h-150z" />
    <glyph glyph-name="o" unicode="o" horiz-adv-x="1004" 
d="M502 110c167 0 250 109 250 326c0 216 -83 324 -250 324s-250 -108 -250 -324c0 -217 83 -326 250 -326zM502 -20c-189 0 -402 99 -402 456c0 354 213 454 402 454s402 -100 402 -454c0 -357 -213 -456 -402 -456z" />
    <glyph glyph-name="p" unicode="p" horiz-adv-x="1012" 
d="M154 -396v1266h124v-108c48 59 131 128 272 128c184 0 362 -123 362 -450c0 -334 -178 -460 -362 -460c-130 0 -209 67 -246 110v-486h-150zM304 674v-478c48 -51 119 -86 210 -86c163 0 246 118 246 326c0 205 -83 324 -246 324c-91 0 -162 -35 -210 -86z" />
    <glyph glyph-name="q" unicode="q" horiz-adv-x="1012" 
d="M708 -396v486c-37 -43 -116 -110 -246 -110c-185 0 -362 121 -362 452s177 458 362 458c141 0 224 -69 272 -128v108h124v-1266h-150zM708 196v478c-48 51 -119 86 -210 86c-163 0 -246 -119 -246 -324c0 -208 83 -326 246 -326c91 0 162 35 210 86z" />
    <glyph glyph-name="r" unicode="r" horiz-adv-x="638" 
d="M154 0v870h124v-112c19 36 46 67 83 93s88 39 155 39c59 0 89 -13 102 -18v-136c-27 13 -75 24 -128 24c-55 0 -97 -10 -126 -30s-49 -39 -60 -58v-672h-150z" />
    <glyph glyph-name="s" unicode="s" horiz-adv-x="914" 
d="M100 278h146c5 -109 93 -182 232 -182c109 0 186 45 186 136c0 109 -108 120 -262 168c-130 38 -266 88 -266 248c0 176 158 242 318 242c93 0 170 -23 231 -68s94 -114 101 -206h-146c-5 93 -73 158 -190 158c-47 0 -86 -10 -119 -30s-49 -49 -49 -88
c0 -100 112 -113 270 -160c126 -37 258 -85 258 -256c0 -197 -171 -260 -336 -260c-210 0 -358 101 -374 298z" />
    <glyph glyph-name="t" unicode="t" horiz-adv-x="650" 
d="M180 242v508h-138v120h76c61 0 86 27 86 88v190h126v-278h260v-120h-260v-490c0 -99 25 -150 126 -150c45 0 95 9 122 22v-126c-21 -13 -77 -26 -144 -26c-95 0 -161 24 -198 73s-56 112 -56 189z" />
    <glyph glyph-name="u" unicode="u" horiz-adv-x="996" 
d="M142 336v534h150v-500c0 -84 12 -148 37 -192s74 -66 149 -66c109 0 177 45 214 88v670h150v-870h-124v112c-48 -72 -135 -132 -284 -132c-142 0 -292 59 -292 356z" />
    <glyph glyph-name="v" unicode="v" horiz-adv-x="898" 
d="M370 0l-320 870h162l242 -708l240 708h154l-320 -870h-158z" />
    <glyph glyph-name="w" unicode="w" horiz-adv-x="1346" 
d="M320 0l-268 870h152l196 -702l196 702h160l196 -702l196 702h146l-268 -870h-158l-196 690l-194 -690h-158z" />
    <glyph glyph-name="x" unicode="x" horiz-adv-x="910" 
d="M38 0l332 458l-298 412h178l210 -302l208 302h166l-296 -408l334 -462h-178l-248 354l-244 -354h-164z" />
    <glyph glyph-name="y" unicode="y" horiz-adv-x="898" 
d="M76 -400v128c24 -8 57 -16 94 -16s68 10 91 30s46 59 67 118l44 120l-322 890h162l242 -710l240 710h154l-370 -1012c-59 -154 -121 -274 -302 -274c-51 0 -87 11 -100 16z" />
    <glyph glyph-name="z" unicode="z" horiz-adv-x="860" 
d="M96 0v106l476 642h-464v122h648v-104l-472 -642h484v-124h-672z" />
    <glyph glyph-name="braceleft" unicode="{" horiz-adv-x="604" 
d="M248 -62v300c0 120 -45 158 -154 158v116c109 0 154 38 154 158v300c0 229 89 304 356 304v-116c-160 0 -216 -18 -216 -208v-296c0 -93 -45 -171 -130 -200c85 -29 130 -107 130 -200v-296c0 -194 56 -208 216 -208v-116c-267 0 -356 75 -356 304z" />
    <glyph glyph-name="bar" unicode="|" horiz-adv-x="526" 
d="M200 -356v1620h126v-1620h-126z" />
    <glyph glyph-name="braceright" unicode="}" horiz-adv-x="604" 
d="M0 -366v116c160 0 216 14 216 208v296c0 93 45 171 130 200c-85 29 -130 107 -130 200v296c0 190 -56 208 -216 208v116c261 0 356 -75 356 -304v-300c0 -120 45 -158 154 -158v-116c-109 0 -154 -38 -154 -158v-300c0 -229 -95 -304 -356 -304z" />
    <glyph glyph-name="asciitilde" unicode="~" 
d="M262 334h-124c0 192 75 282 208 282c91 0 148 -44 197 -85s89 -85 145 -85c51 0 90 37 90 154h124c0 -192 -75 -282 -208 -282c-91 0 -148 44 -197 85s-89 85 -145 85c-51 0 -90 -37 -90 -154z" />
    <glyph glyph-name="uni00A0" unicode="&#xa0;" horiz-adv-x="412" 
 />
    <glyph glyph-name="exclamdown" unicode="&#xa1;" horiz-adv-x="568" 
d="M304 540l56 -378v-408h-152v408l56 378h40zM378 870v-188h-188v188h188z" />
    <glyph glyph-name="cent" unicode="&#xa2;" horiz-adv-x="958" 
d="M724 298h142c-8 -97 -41 -173 -99 -226s-131 -83 -219 -90v-208h-98v210c-168 16 -346 127 -346 452c0 323 178 434 346 450v212h98v-210c88 -7 161 -37 219 -90s91 -128 99 -224h-142c-3 47 -19 89 -48 126s-74 59 -134 66v-662c120 16 177 98 182 194zM250 436
c0 -200 73 -311 206 -332v660c-133 -21 -206 -133 -206 -328z" />
    <glyph glyph-name="sterling" unicode="&#xa3;" horiz-adv-x="992" 
d="M136 476v108h120c-21 37 -42 75 -62 113s-30 82 -30 133c0 167 137 306 366 306c182 2 359 -86 372 -358h-148c-11 176 -103 238 -222 238c-136 0 -216 -78 -216 -190c0 -44 10 -85 29 -124s40 -78 61 -118h292v-108h-246c5 -29 12 -55 12 -84c0 -112 -62 -213 -150 -272
h608v-120h-812v100c139 69 212 177 212 292c0 29 -6 57 -14 84h-172z" />
    <glyph glyph-name="currency" unicode="&#xa4;" 
d="M520 324c131 0 214 90 214 234s-83 234 -214 234s-214 -90 -214 -234s83 -234 214 -234zM520 206c-79 0 -149 21 -212 64l-120 -124l-74 74l120 124c-45 67 -62 137 -62 214s17 147 62 214l-120 124l74 74l120 -124c63 43 133 64 212 64s149 -21 212 -64l120 124l74 -74
l-120 -124c45 -67 62 -137 62 -214s-17 -147 -62 -214l120 -124l-74 -74l-120 124c-63 -43 -133 -64 -212 -64z" />
    <glyph glyph-name="yen" unicode="&#xa5;" horiz-adv-x="1056" 
d="M130 440v96h264l-348 580h170l314 -546l314 546h166l-348 -580h264v-96h-322v-154h322v-96h-322v-190h-152v190h-322v96h322v154h-322z" />
    <glyph glyph-name="brokenbar" unicode="&#xa6;" horiz-adv-x="526" 
d="M200 -356v642h126v-642h-126zM200 622v642h126v-642h-126z" />
    <glyph glyph-name="section" unicode="&#xa7;" horiz-adv-x="982" 
d="M694 222c40 35 58 83 58 128c0 59 -28 117 -132 162l-214 98c-11 5 -29 15 -54 29s-47 28 -64 43c-37 -35 -58 -83 -58 -128c0 -59 31 -117 132 -162l216 -98c11 -5 29 -15 54 -29s46 -28 62 -43zM470 -244c-206 0 -348 99 -364 302h138c5 -112 88 -192 232 -192
c112 0 194 48 194 144c0 85 -66 135 -170 180l-216 98c-94 42 -188 111 -188 238c0 88 46 164 134 212c-37 45 -54 96 -54 152c0 174 151 246 316 246c189 0 315 -95 328 -282h-136c-5 101 -72 172 -200 172c-45 0 -85 -10 -119 -30s-51 -54 -51 -102
c0 -85 64 -135 168 -180l216 -98c96 -43 188 -110 188 -238c0 -88 -44 -164 -132 -212c37 -45 52 -96 52 -152c0 -192 -169 -258 -336 -258z" />
    <glyph glyph-name="dieresis" unicode="&#xa8;" horiz-adv-x="812" 
d="M142 1086v168h172v-168h-172zM498 1086v168h172v-168h-172z" />
    <glyph glyph-name="copyright" unicode="&#xa9;" horiz-adv-x="1358" 
d="M678 64c283 0 470 197 470 494c0 296 -187 494 -470 494c-281 0 -468 -198 -468 -494c0 -297 187 -494 468 -494zM678 -20c-334 0 -558 233 -558 578s224 578 558 578s560 -233 560 -578s-226 -578 -560 -578zM844 446h122c-13 -165 -125 -252 -282 -252
c-144 0 -322 74 -322 364s178 364 322 364c157 0 269 -87 282 -252h-122c-3 39 -17 72 -42 100s-65 42 -120 42c-125 0 -192 -83 -192 -254s67 -254 192 -254c55 0 95 14 120 42s39 61 42 100z" />
    <glyph glyph-name="ordfeminine" unicode="&#xaa;" horiz-adv-x="736" 
d="M452 710v124l-92 -10c-91 -11 -136 -35 -136 -96c0 -48 29 -72 88 -72s100 25 140 54zM468 650v10c-11 -16 -31 -34 -61 -54s-70 -30 -121 -30c-47 0 -88 12 -123 35s-53 62 -53 115c0 130 123 155 230 166l112 8v18c0 45 -6 78 -18 99s-40 31 -84 31
c-85 0 -113 -35 -116 -102h-106c0 155 128 190 230 190c79 0 133 -18 162 -55s44 -88 44 -155v-240c0 -17 8 -26 24 -26s36 7 52 12v-78c-19 -11 -49 -18 -84 -18c-67 0 -88 34 -88 74zM130 346v96h480v-96h-480z" />
    <glyph glyph-name="guillemotleft" unicode="&#xab;" horiz-adv-x="970" 
d="M396 160l-260 306l260 306h130l-244 -306l244 -306h-130zM710 160l-260 306l260 306h130l-244 -306l244 -306h-130z" />
    <glyph glyph-name="logicalnot" unicode="&#xac;" 
d="M126 406v124h760v-530h-134v406h-626z" />
    <glyph glyph-name="uni00AD" unicode="&#xad;" horiz-adv-x="720" 
d="M126 396v138h468v-138h-468z" />
    <glyph glyph-name="registered" unicode="&#xae;" horiz-adv-x="992" 
d="M496 552c227 0 324 147 324 326s-97 326 -324 326s-324 -147 -324 -326s97 -326 324 -326zM332 642v474h166c123 0 190 -54 190 -150c0 -80 -55 -125 -122 -138l140 -186h-104l-130 176h-52v-176h-88zM420 890h70c67 0 106 20 106 76s-39 76 -106 76h-70v-152zM90 878
c0 219 127 402 406 402s406 -183 406 -402s-127 -402 -406 -402s-406 183 -406 402z" />
    <glyph glyph-name="overscore" unicode="&#xaf;" horiz-adv-x="812" 
d="M162 1114v114h488v-114h-488z" />
    <glyph glyph-name="degree" unicode="&#xb0;" horiz-adv-x="640" 
d="M480 872c0 104 -67 170 -160 170s-160 -66 -160 -170s67 -170 160 -170s160 66 160 170zM54 872c0 158 122 264 266 264s266 -106 266 -264s-122 -264 -266 -264s-266 106 -266 264z" />
    <glyph glyph-name="plusminus" unicode="&#xb1;" 
d="M126 556v124h326v330h134v-330h328v-124h-328v-332h-134v332h-326zM130 0v120h780v-120h-780z" />
    <glyph glyph-name="twosuperior" unicode="&#xb2;" horiz-adv-x="668" 
d="M338 1128c117 0 220 -63 220 -194c0 -114 -77 -178 -152 -226l-78 -52c-53 -37 -85 -73 -90 -118h328v-92h-450v38c0 135 76 197 150 250l78 52c27 19 50 38 70 57s30 48 30 85c0 75 -45 110 -112 110c-32 0 -60 -10 -85 -29s-37 -52 -37 -99h-104c0 149 109 218 232 218
z" />
    <glyph glyph-name="threesuperior" unicode="&#xb3;" horiz-adv-x="694" 
d="M346 1128c61 0 113 -16 156 -48s64 -78 64 -138c0 -64 -27 -111 -96 -148c69 -29 110 -83 110 -166c0 -65 -22 -114 -67 -146s-100 -48 -165 -48c-133 0 -242 65 -242 218h106c0 -93 60 -128 132 -128c75 0 124 37 124 106c0 77 -61 118 -138 118h-48v84h48
c77 0 124 31 124 100s-47 106 -116 106c-67 0 -120 -35 -120 -128h-106c0 149 108 218 234 218z" />
    <glyph glyph-name="acute" unicode="&#xb4;" horiz-adv-x="812" 
d="M258 1044l110 254h186l-212 -254h-84z" />
    <glyph glyph-name="mu" unicode="&#xb5;" horiz-adv-x="1004" 
d="M154 -396v1266h150v-670c37 -43 105 -88 212 -88c76 0 128 22 155 66s41 108 41 192v500h150v-534c0 -288 -159 -356 -310 -356c-142 0 -210 62 -248 110v-486h-150z" />
    <glyph glyph-name="paragraph" unicode="&#xb6;" horiz-adv-x="1058" 
d="M438 -396v860c-103 0 -185 27 -246 80s-92 135 -92 246s31 193 92 246s143 80 246 80h120v-1512h-120zM748 -396v1512h120v-1512h-120z" />
    <glyph glyph-name="middot" unicode="&#xb7;" horiz-adv-x="596" 
d="M204 368v188h188v-188h-188z" />
    <glyph glyph-name="cedilla" unicode="&#xb8;" horiz-adv-x="812" 
d="M236 -242h88c5 -45 38 -62 70 -62c45 0 82 27 82 80s-41 78 -86 78c-37 0 -65 -13 -84 -38l-52 24l58 160h64l-36 -96c24 16 55 20 82 20c99 0 156 -58 156 -146c0 -52 -17 -91 -52 -118s-77 -40 -126 -40c-91 0 -156 45 -164 138z" />
    <glyph glyph-name="onesuperior" unicode="&#xb9;" horiz-adv-x="524" 
d="M270 1116h98v-670h-110v524c-29 -35 -96 -76 -184 -76v98c105 0 169 71 196 124z" />
    <glyph glyph-name="ordmasculine" unicode="&#xba;" horiz-adv-x="736" 
d="M128 346v96h480v-96h-480zM368 672c97 0 146 61 146 184s-49 184 -146 184s-146 -61 -146 -184s49 -184 146 -184zM368 576c-125 0 -260 61 -260 280s135 280 260 280c122 0 260 -61 260 -280s-138 -280 -260 -280z" />
    <glyph glyph-name="guillemotright" unicode="&#xbb;" horiz-adv-x="970" 
d="M130 160l244 306l-244 306h130l260 -306l-260 -306h-130zM444 160l244 306l-244 306h130l260 -306l-260 -306h-130z" />
    <glyph glyph-name="onequarter" unicode="&#xbc;" horiz-adv-x="1312" 
d="M1032 672h106v-438h88v-88h-88v-144h-110v144h-328v74zM1028 234v298l-218 -298h218zM270 1116h98v-670h-110v524c-29 -35 -96 -76 -184 -76v98c105 0 169 71 196 124zM212 0l708 1116h116l-708 -1116h-116z" />
    <glyph glyph-name="onehalf" unicode="&#xbd;" horiz-adv-x="1380" 
d="M1050 684c117 0 220 -63 220 -194c0 -114 -77 -178 -152 -226l-78 -52c-53 -37 -85 -73 -90 -118h328v-92h-450v38c0 135 76 197 150 250l78 52c27 19 50 38 70 57s30 48 30 85c0 75 -45 110 -112 110c-32 0 -60 -10 -85 -29s-37 -52 -37 -99h-104c0 149 109 218 232 218
zM270 1116h98v-670h-110v524c-29 -35 -96 -76 -184 -76v98c105 0 169 71 196 124zM212 0l708 1116h116l-708 -1116h-116z" />
    <glyph glyph-name="threequarters" unicode="&#xbe;" horiz-adv-x="1464" 
d="M1182 672h106v-438h88v-88h-88v-144h-110v144h-328v74zM1178 234v298l-218 -298h218zM346 1128c61 0 113 -16 156 -48s64 -78 64 -138c0 -64 -27 -111 -96 -148c69 -29 110 -83 110 -166c0 -65 -22 -114 -67 -146s-100 -48 -165 -48c-133 0 -242 65 -242 218h106
c0 -93 60 -128 132 -128c75 0 124 37 124 106c0 77 -61 118 -138 118h-48v84h48c77 0 124 31 124 100s-47 106 -116 106c-67 0 -120 -35 -120 -128h-106c0 149 108 218 234 218zM364 0l708 1116h116l-708 -1116h-116z" />
    <glyph glyph-name="questiondown" unicode="&#xbf;" horiz-adv-x="844" 
d="M532 870v-188h-188v188h188zM502 538v-18c0 -175 -74 -228 -158 -296c-27 -23 -50 -47 -71 -73s-31 -63 -31 -111c0 -51 15 -93 44 -128s79 -52 148 -52c160 0 210 106 210 228h140c0 -116 -33 -204 -99 -264s-152 -90 -259 -90c-231 0 -336 145 -336 302
c0 148 94 218 168 282c33 28 61 56 83 83s33 67 33 119v18h128z" />
    <glyph glyph-name="Agrave" unicode="&#xc0;" horiz-adv-x="1126" 
d="M60 0l420 1116h166l420 -1116h-166l-92 260h-496l-92 -260h-160zM356 384h408l-204 574zM562 1258l-212 254h186l110 -254h-84z" />
    <glyph glyph-name="Aacute" unicode="&#xc1;" horiz-adv-x="1126" 
d="M60 0l420 1116h166l420 -1116h-166l-92 260h-496l-92 -260h-160zM356 384h408l-204 574zM478 1258l110 254h186l-212 -254h-84z" />
    <glyph glyph-name="Acircumflex" unicode="&#xc2;" horiz-adv-x="1126" 
d="M60 0l420 1116h166l420 -1116h-166l-92 260h-496l-92 -260h-160zM356 384h408l-204 574zM290 1248l216 266h112l216 -266h-98l-174 142l-174 -142h-98z" />
    <glyph glyph-name="Atilde" unicode="&#xc3;" horiz-adv-x="1126" 
d="M60 0l420 1116h166l420 -1116h-166l-92 260h-496l-92 -260h-160zM356 384h408l-204 574zM300 1308v98c27 51 79 90 140 90c119 0 169 -112 256 -112c53 0 99 35 128 72v-98c-27 -51 -79 -90 -140 -90c-119 0 -169 112 -256 112c-53 0 -99 -35 -128 -72z" />
    <glyph glyph-name="Adieresis" unicode="&#xc4;" horiz-adv-x="1126" 
d="M60 0l420 1116h166l420 -1116h-166l-92 260h-496l-92 -260h-160zM356 384h408l-204 574zM298 1300v168h172v-168h-172zM654 1300v168h172v-168h-172z" />
    <glyph glyph-name="Aring" unicode="&#xc5;" horiz-adv-x="1126" 
d="M60 0l420 1116h166l420 -1116h-166l-92 260h-496l-92 -260h-160zM356 384h408l-204 574zM562 1292c61 0 108 42 108 114s-47 114 -108 114s-108 -42 -108 -114s47 -114 108 -114zM562 1206c-101 0 -200 77 -200 200s99 200 200 200s200 -77 200 -200s-99 -200 -200 -200z
" />
    <glyph glyph-name="AE" unicode="&#xc6;" horiz-adv-x="1626" 
d="M-20 0l704 1116h822v-132h-588v-346h488v-132h-488v-374h588v-132h-744v260h-448l-160 -260h-174zM384 384h378v600h-6z" />
    <glyph glyph-name="Ccedilla" unicode="&#xc7;" horiz-adv-x="1170" 
d="M902 352h156c-16 -238 -202 -372 -452 -372c-325 0 -486 233 -486 578s161 578 486 578c250 0 436 -134 452 -372h-156c-10 126 -105 236 -292 236c-267 0 -330 -221 -330 -442s63 -442 330 -442c187 0 282 110 292 236zM456 -242h88c5 -45 38 -62 70 -62
c45 0 82 27 82 80s-41 78 -86 78c-37 0 -65 -13 -84 -38l-52 24l58 160h64l-36 -96c24 16 55 20 82 20c99 0 156 -58 156 -146c0 -52 -17 -91 -52 -118s-77 -40 -126 -40c-91 0 -156 45 -164 138z" />
    <glyph glyph-name="Egrave" unicode="&#xc8;" horiz-adv-x="1044" 
d="M180 0v1116h744v-132h-588v-346h488v-132h-488v-374h588v-132h-744zM550 1258l-212 254h186l110 -254h-84z" />
    <glyph glyph-name="Eacute" unicode="&#xc9;" horiz-adv-x="1044" 
d="M180 0v1116h744v-132h-588v-346h488v-132h-488v-374h588v-132h-744zM466 1258l110 254h186l-212 -254h-84z" />
    <glyph glyph-name="Ecircumflex" unicode="&#xca;" horiz-adv-x="1044" 
d="M180 0v1116h744v-132h-588v-346h488v-132h-488v-374h588v-132h-744zM278 1248l216 266h112l216 -266h-98l-174 142l-174 -142h-98z" />
    <glyph glyph-name="Edieresis" unicode="&#xcb;" horiz-adv-x="1044" 
d="M180 0v1116h744v-132h-588v-346h488v-132h-488v-374h588v-132h-744zM286 1300v168h172v-168h-172zM642 1300v168h172v-168h-172z" />
    <glyph glyph-name="Igrave" unicode="&#xcc;" horiz-adv-x="636" 
d="M96 0v104h144v908h-144v104h444v-104h-144v-908h144v-104h-444zM318 1258l-212 254h186l110 -254h-84z" />
    <glyph glyph-name="Iacute" unicode="&#xcd;" horiz-adv-x="636" 
d="M96 0v104h144v908h-144v104h444v-104h-144v-908h144v-104h-444zM234 1258l110 254h186l-212 -254h-84z" />
    <glyph glyph-name="Icircumflex" unicode="&#xce;" horiz-adv-x="636" 
d="M96 0v104h144v908h-144v104h444v-104h-144v-908h144v-104h-444zM46 1248l216 266h112l216 -266h-98l-174 142l-174 -142h-98z" />
    <glyph glyph-name="Idieresis" unicode="&#xcf;" horiz-adv-x="636" 
d="M96 0v104h144v908h-144v104h444v-104h-144v-908h144v-104h-444zM54 1300v168h172v-168h-172zM410 1300v168h172v-168h-172z" />
    <glyph glyph-name="Eth" unicode="&#xd0;" horiz-adv-x="1200" 
d="M68 514v114h126v488h350c368 0 536 -224 536 -558s-168 -558 -536 -558h-350v514h-126zM350 132h198c299 0 372 216 372 426s-73 426 -372 426h-198v-356h236v-114h-236v-382z" />
    <glyph glyph-name="Ntilde" unicode="&#xd1;" horiz-adv-x="1224" 
d="M180 0v1116h190l526 -912v912h148v-1116h-190l-526 912v-912h-148zM350 1308v98c27 51 79 90 140 90c119 0 169 -112 256 -112c53 0 99 35 128 72v-98c-27 -51 -79 -90 -140 -90c-119 0 -169 112 -256 112c-53 0 -99 -35 -128 -72z" />
    <glyph glyph-name="Ograve" unicode="&#xd2;" horiz-adv-x="1248" 
d="M624 116c274 0 344 224 344 442s-70 442 -344 442c-275 0 -344 -224 -344 -442s69 -442 344 -442zM624 -20c-338 0 -504 233 -504 578s166 578 504 578s504 -233 504 -578s-166 -578 -504 -578zM624 1258l-212 254h186l110 -254h-84z" />
    <glyph glyph-name="Oacute" unicode="&#xd3;" horiz-adv-x="1248" 
d="M624 116c274 0 344 224 344 442s-70 442 -344 442c-275 0 -344 -224 -344 -442s69 -442 344 -442zM624 -20c-338 0 -504 233 -504 578s166 578 504 578s504 -233 504 -578s-166 -578 -504 -578zM540 1258l110 254h186l-212 -254h-84z" />
    <glyph glyph-name="Ocircumflex" unicode="&#xd4;" horiz-adv-x="1248" 
d="M624 116c274 0 344 224 344 442s-70 442 -344 442c-275 0 -344 -224 -344 -442s69 -442 344 -442zM624 -20c-338 0 -504 233 -504 578s166 578 504 578s504 -233 504 -578s-166 -578 -504 -578zM352 1248l216 266h112l216 -266h-98l-174 142l-174 -142h-98z" />
    <glyph glyph-name="Otilde" unicode="&#xd5;" horiz-adv-x="1248" 
d="M624 116c274 0 344 224 344 442s-70 442 -344 442c-275 0 -344 -224 -344 -442s69 -442 344 -442zM624 -20c-338 0 -504 233 -504 578s166 578 504 578s504 -233 504 -578s-166 -578 -504 -578zM362 1308v98c27 51 79 90 140 90c119 0 169 -112 256 -112
c53 0 99 35 128 72v-98c-27 -51 -79 -90 -140 -90c-119 0 -169 112 -256 112c-53 0 -99 -35 -128 -72z" />
    <glyph glyph-name="Odieresis" unicode="&#xd6;" horiz-adv-x="1248" 
d="M624 116c274 0 344 224 344 442s-70 442 -344 442c-275 0 -344 -224 -344 -442s69 -442 344 -442zM624 -20c-338 0 -504 233 -504 578s166 578 504 578s504 -233 504 -578s-166 -578 -504 -578zM360 1300v168h172v-168h-172zM716 1300v168h172v-168h-172z" />
    <glyph glyph-name="multiply" unicode="&#xd7;" 
d="M172 206l260 262l-260 260l88 88l260 -262l260 262l88 -88l-260 -260l260 -262l-88 -86l-260 260l-260 -260z" />
    <glyph glyph-name="Oslash" unicode="&#xd8;" horiz-adv-x="1256" 
d="M134 -98l-84 72l172 200c-67 99 -98 229 -98 384c0 345 166 578 504 578c141 0 249 -40 332 -112l162 190l84 -72l-174 -202c67 -99 100 -226 100 -382c0 -345 -166 -578 -504 -578c-139 0 -249 37 -332 112zM284 558c0 -93 11 -185 46 -262l534 614
c-53 53 -127 90 -236 90c-275 0 -344 -224 -344 -442zM628 116c274 0 344 224 344 442c0 93 -11 185 -48 262l-532 -616c53 -53 127 -88 236 -88z" />
    <glyph glyph-name="Ugrave" unicode="&#xd9;" horiz-adv-x="1184" 
d="M160 394v722h156v-696c0 -112 22 -191 67 -236s114 -68 209 -68c93 0 163 23 208 68s68 124 68 236v696h156v-722c0 -145 -38 -251 -115 -316s-182 -98 -317 -98s-240 33 -317 98s-115 171 -115 316zM592 1258l-212 254h186l110 -254h-84z" />
    <glyph glyph-name="Uacute" unicode="&#xda;" horiz-adv-x="1184" 
d="M160 394v722h156v-696c0 -112 22 -191 67 -236s114 -68 209 -68c93 0 163 23 208 68s68 124 68 236v696h156v-722c0 -145 -38 -251 -115 -316s-182 -98 -317 -98s-240 33 -317 98s-115 171 -115 316zM508 1258l110 254h186l-212 -254h-84z" />
    <glyph glyph-name="Ucircumflex" unicode="&#xdb;" horiz-adv-x="1184" 
d="M160 394v722h156v-696c0 -112 22 -191 67 -236s114 -68 209 -68c93 0 163 23 208 68s68 124 68 236v696h156v-722c0 -145 -38 -251 -115 -316s-182 -98 -317 -98s-240 33 -317 98s-115 171 -115 316zM320 1248l216 266h112l216 -266h-98l-174 142l-174 -142h-98z" />
    <glyph glyph-name="Udieresis" unicode="&#xdc;" horiz-adv-x="1184" 
d="M160 394v722h156v-696c0 -112 22 -191 67 -236s114 -68 209 -68c93 0 163 23 208 68s68 124 68 236v696h156v-722c0 -145 -38 -251 -115 -316s-182 -98 -317 -98s-240 33 -317 98s-115 171 -115 316zM328 1300v168h172v-168h-172zM684 1300v168h172v-168h-172z" />
    <glyph glyph-name="Yacute" unicode="&#xdd;" horiz-adv-x="1020" 
d="M432 0v446l-406 670h174l312 -534l314 534h168l-406 -670v-446h-156zM426 1258l110 254h186l-212 -254h-84z" />
    <glyph glyph-name="Thorn" unicode="&#xde;" horiz-adv-x="1072" 
d="M180 0v1116h156v-192h192c291 0 450 -115 450 -350c0 -237 -159 -350 -450 -350h-192v-224h-156zM336 356h188c111 0 187 18 230 54s64 91 64 164s-21 128 -64 164s-119 54 -230 54h-188v-436z" />
    <glyph glyph-name="germandbls" unicode="&#xdf;" horiz-adv-x="1022" 
d="M154 0v982c0 270 172 362 346 362c100 0 177 -28 232 -85s82 -132 82 -225c0 -163 -88 -295 -216 -372c139 -46 353 -173 354 -402c0 -133 -73 -280 -320 -280c-72 0 -143 12 -178 28v132c40 -19 101 -38 168 -38c112 0 178 47 178 162c0 81 -31 148 -94 199
s-147 94 -252 129v104c180 90 212 246 212 334c0 123 -61 196 -178 196s-186 -72 -186 -248v-978h-148z" />
    <glyph glyph-name="agrave" unicode="&#xe0;" horiz-adv-x="948" 
d="M638 190v218l-184 -20c-136 -13 -214 -61 -214 -162c0 -77 54 -128 158 -128c101 0 173 36 240 92zM662 98v16c-44 -60 -151 -134 -296 -134c-194 0 -278 115 -278 240c0 214 205 259 340 270l210 18v26c0 151 -22 234 -180 234c-144 0 -192 -67 -192 -190h-146
c3 256 196 314 354 312c240 0 314 -125 314 -338v-398c0 -36 17 -54 50 -54c27 0 51 7 74 20v-112c-24 -13 -69 -28 -120 -28c-109 0 -130 65 -130 118zM460 1044l-212 254h186l110 -254h-84z" />
    <glyph glyph-name="aacute" unicode="&#xe1;" horiz-adv-x="948" 
d="M638 190v218l-184 -20c-136 -13 -214 -61 -214 -162c0 -77 54 -128 158 -128c101 0 173 36 240 92zM662 98v16c-44 -60 -151 -134 -296 -134c-194 0 -278 115 -278 240c0 214 205 259 340 270l210 18v26c0 151 -22 234 -180 234c-144 0 -192 -67 -192 -190h-146
c3 256 196 314 354 312c240 0 314 -125 314 -338v-398c0 -36 17 -54 50 -54c27 0 51 7 74 20v-112c-24 -13 -69 -28 -120 -28c-109 0 -130 65 -130 118zM374 1044l110 254h186l-212 -254h-84z" />
    <glyph glyph-name="acircumflex" unicode="&#xe2;" horiz-adv-x="948" 
d="M638 190v218l-184 -20c-136 -13 -214 -61 -214 -162c0 -77 54 -128 158 -128c101 0 173 36 240 92zM662 98v16c-44 -60 -151 -134 -296 -134c-194 0 -278 115 -278 240c0 214 205 259 340 270l210 18v26c0 151 -22 234 -180 234c-144 0 -192 -67 -192 -190h-146
c3 256 196 314 354 312c240 0 314 -125 314 -338v-398c0 -36 17 -54 50 -54c27 0 51 7 74 20v-112c-24 -13 -69 -28 -120 -28c-109 0 -130 65 -130 118zM186 1034l216 266h112l216 -266h-98l-174 142l-174 -142h-98z" />
    <glyph glyph-name="atilde" unicode="&#xe3;" horiz-adv-x="948" 
d="M638 190v218l-184 -20c-136 -13 -214 -61 -214 -162c0 -77 54 -128 158 -128c101 0 173 36 240 92zM662 98v16c-44 -60 -151 -134 -296 -134c-194 0 -278 115 -278 240c0 214 205 259 340 270l210 18v26c0 151 -22 234 -180 234c-144 0 -192 -67 -192 -190h-146
c3 256 196 314 354 312c240 0 314 -125 314 -338v-398c0 -36 17 -54 50 -54c27 0 51 7 74 20v-112c-24 -13 -69 -28 -120 -28c-109 0 -130 65 -130 118zM196 1094v98c27 51 79 90 140 90c119 0 169 -112 256 -112c53 0 99 35 128 72v-98c-27 -51 -79 -90 -140 -90
c-119 0 -169 112 -256 112c-53 0 -99 -35 -128 -72z" />
    <glyph glyph-name="adieresis" unicode="&#xe4;" horiz-adv-x="948" 
d="M638 190v218l-184 -20c-136 -13 -214 -61 -214 -162c0 -77 54 -128 158 -128c101 0 173 36 240 92zM662 98v16c-44 -60 -151 -134 -296 -134c-194 0 -278 115 -278 240c0 214 205 259 340 270l210 18v26c0 151 -22 234 -180 234c-144 0 -192 -67 -192 -190h-146
c3 256 196 314 354 312c240 0 314 -125 314 -338v-398c0 -36 17 -54 50 -54c27 0 51 7 74 20v-112c-24 -13 -69 -28 -120 -28c-109 0 -130 65 -130 118zM194 1086v168h172v-168h-172zM550 1086v168h172v-168h-172z" />
    <glyph glyph-name="aring" unicode="&#xe5;" horiz-adv-x="948" 
d="M638 190v218l-184 -20c-136 -13 -214 -61 -214 -162c0 -77 54 -128 158 -128c101 0 173 36 240 92zM662 98v16c-44 -60 -151 -134 -296 -134c-194 0 -278 115 -278 240c0 214 205 259 340 270l210 18v26c0 151 -22 234 -180 234c-144 0 -192 -67 -192 -190h-146
c3 256 196 314 354 312c240 0 314 -125 314 -338v-398c0 -36 17 -54 50 -54c27 0 51 7 74 20v-112c-24 -13 -69 -28 -120 -28c-109 0 -130 65 -130 118zM458 1078c61 0 108 42 108 114s-47 114 -108 114s-108 -42 -108 -114s47 -114 108 -114zM458 992
c-101 0 -200 77 -200 200s99 200 200 200s200 -77 200 -200s-99 -200 -200 -200z" />
    <glyph glyph-name="ae" unicode="&#xe6;" horiz-adv-x="1502" 
d="M266 578h-146c0 256 195 312 350 312c144 0 225 -49 268 -140c69 99 170 140 282 140c176 0 386 -105 386 -452v-26h-624c7 -205 89 -308 248 -308c128 0 203 65 224 180h146c-32 -240 -227 -304 -376 -304c-120 0 -230 41 -302 140c-83 -77 -194 -140 -346 -140
c-205 0 -288 116 -288 242c0 212 205 257 340 268l210 18v26c0 151 -22 234 -180 234c-144 0 -192 -67 -192 -190zM402 98c107 0 203 47 272 114c-21 53 -33 117 -36 194l-184 -18c-136 -13 -214 -61 -214 -162c0 -77 53 -128 162 -128zM784 512h468
c-11 168 -94 258 -230 258c-144 0 -225 -90 -238 -258z" />
    <glyph glyph-name="ccedilla" unicode="&#xe7;" horiz-adv-x="950" 
d="M364 -242h88c5 -45 38 -62 70 -62c45 0 82 27 82 80s-41 78 -86 78c-37 0 -65 -13 -84 -38l-52 24l58 160h64l-36 -96c24 16 55 20 82 20c99 0 156 -58 156 -146c0 -52 -17 -91 -52 -118s-77 -40 -126 -40c-91 0 -156 45 -164 138zM710 298h148
c-16 -208 -155 -318 -352 -318c-181 0 -402 91 -402 456c0 363 221 454 402 454c197 0 336 -108 352 -316h-148c-3 51 -20 94 -53 131s-84 55 -153 55c-165 0 -248 -108 -248 -324c0 -217 83 -326 248 -326c69 0 120 19 153 56s50 81 53 132z" />
    <glyph glyph-name="egrave" unicode="&#xe8;" horiz-adv-x="970" 
d="M252 512h468c-11 168 -94 258 -230 258c-144 0 -225 -90 -238 -258zM722 284h146c-32 -240 -227 -304 -376 -304c-208 0 -392 120 -392 456c0 338 202 454 386 454c176 0 388 -105 388 -452v-26h-624c7 -205 89 -308 248 -308c128 0 203 65 224 180zM484 1044l-212 254
h186l110 -254h-84z" />
    <glyph glyph-name="eacute" unicode="&#xe9;" horiz-adv-x="970" 
d="M252 512h468c-11 168 -94 258 -230 258c-144 0 -225 -90 -238 -258zM722 284h146c-32 -240 -227 -304 -376 -304c-208 0 -392 120 -392 456c0 338 202 454 386 454c176 0 388 -105 388 -452v-26h-624c7 -205 89 -308 248 -308c128 0 203 65 224 180zM400 1044l110 254
h186l-212 -254h-84z" />
    <glyph glyph-name="ecircumflex" unicode="&#xea;" horiz-adv-x="970" 
d="M252 512h468c-11 168 -94 258 -230 258c-144 0 -225 -90 -238 -258zM722 284h146c-32 -240 -227 -304 -376 -304c-208 0 -392 120 -392 456c0 338 202 454 386 454c176 0 388 -105 388 -452v-26h-624c7 -205 89 -308 248 -308c128 0 203 65 224 180zM212 1034l216 266
h112l216 -266h-98l-174 142l-174 -142h-98z" />
    <glyph glyph-name="edieresis" unicode="&#xeb;" horiz-adv-x="970" 
d="M252 512h468c-11 168 -94 258 -230 258c-144 0 -225 -90 -238 -258zM722 284h146c-32 -240 -227 -304 -376 -304c-208 0 -392 120 -392 456c0 338 202 454 386 454c176 0 388 -105 388 -452v-26h-624c7 -205 89 -308 248 -308c128 0 203 65 224 180zM220 1086v168h172
v-168h-172zM576 1086v168h172v-168h-172z" />
    <glyph glyph-name="igrave" unicode="&#xec;" horiz-adv-x="462" 
d="M156 0v870h150v-870h-150zM234 1044l-212 254h186l110 -254h-84z" />
    <glyph glyph-name="iacute" unicode="&#xed;" horiz-adv-x="462" 
d="M150 1044l110 254h186l-212 -254h-84zM156 0v870h150v-870h-150z" />
    <glyph glyph-name="icircumflex" unicode="&#xee;" horiz-adv-x="462" 
d="M-38 1034l216 266h112l216 -266h-98l-174 142l-174 -142h-98zM156 0v870h150v-870h-150z" />
    <glyph glyph-name="idieresis" unicode="&#xef;" horiz-adv-x="462" 
d="M-30 1086v168h172v-168h-172zM326 1086v168h172v-168h-172zM156 0v870h150v-870h-150z" />
    <glyph glyph-name="eth" unicode="&#xf0;" horiz-adv-x="1004" 
d="M340 992v112l164 44l-82 176h152l62 -140l212 56v-112l-166 -46l116 -258c69 -159 106 -254 106 -394c0 -336 -202 -450 -402 -450c-185 0 -402 99 -402 454c0 350 210 456 372 456c61 0 138 -15 186 -74l-108 232zM502 110c167 0 250 109 250 326
c0 216 -83 324 -250 324s-250 -108 -250 -324c0 -217 83 -326 250 -326z" />
    <glyph glyph-name="ntilde" unicode="&#xf1;" horiz-adv-x="1004" 
d="M154 0v870h124v-112c48 72 136 132 288 132c144 0 296 -61 296 -354v-536h-150v502c0 166 -35 256 -190 256c-112 0 -181 -43 -218 -86v-672h-150zM246 1094v98c27 51 79 90 140 90c119 0 169 -112 256 -112c53 0 99 35 128 72v-98c-27 -51 -79 -90 -140 -90
c-119 0 -169 112 -256 112c-53 0 -99 -35 -128 -72z" />
    <glyph glyph-name="ograve" unicode="&#xf2;" horiz-adv-x="1004" 
d="M502 110c167 0 250 109 250 326c0 216 -83 324 -250 324s-250 -108 -250 -324c0 -217 83 -326 250 -326zM502 -20c-189 0 -402 99 -402 456c0 354 213 454 402 454s402 -100 402 -454c0 -357 -213 -456 -402 -456zM502 1044l-212 254h186l110 -254h-84z" />
    <glyph glyph-name="oacute" unicode="&#xf3;" horiz-adv-x="1004" 
d="M502 110c167 0 250 109 250 326c0 216 -83 324 -250 324s-250 -108 -250 -324c0 -217 83 -326 250 -326zM502 -20c-189 0 -402 99 -402 456c0 354 213 454 402 454s402 -100 402 -454c0 -357 -213 -456 -402 -456zM418 1044l110 254h186l-212 -254h-84z" />
    <glyph glyph-name="ocircumflex" unicode="&#xf4;" horiz-adv-x="1004" 
d="M502 110c167 0 250 109 250 326c0 216 -83 324 -250 324s-250 -108 -250 -324c0 -217 83 -326 250 -326zM502 -20c-189 0 -402 99 -402 456c0 354 213 454 402 454s402 -100 402 -454c0 -357 -213 -456 -402 -456zM230 1034l216 266h112l216 -266h-98l-174 142l-174 -142
h-98z" />
    <glyph glyph-name="otilde" unicode="&#xf5;" horiz-adv-x="1004" 
d="M502 110c167 0 250 109 250 326c0 216 -83 324 -250 324s-250 -108 -250 -324c0 -217 83 -326 250 -326zM502 -20c-189 0 -402 99 -402 456c0 354 213 454 402 454s402 -100 402 -454c0 -357 -213 -456 -402 -456zM240 1094v98c27 51 79 90 140 90
c119 0 169 -112 256 -112c53 0 99 35 128 72v-98c-27 -51 -79 -90 -140 -90c-119 0 -169 112 -256 112c-53 0 -99 -35 -128 -72z" />
    <glyph glyph-name="odieresis" unicode="&#xf6;" horiz-adv-x="1004" 
d="M502 110c167 0 250 109 250 326c0 216 -83 324 -250 324s-250 -108 -250 -324c0 -217 83 -326 250 -326zM502 -20c-189 0 -402 99 -402 456c0 354 213 454 402 454s402 -100 402 -454c0 -357 -213 -456 -402 -456zM238 1086v168h172v-168h-172zM594 1086v168h172v-168
h-172z" />
    <glyph glyph-name="divide" unicode="&#xf7;" 
d="M428 64v180h184v-180h-184zM428 692v180h184v-180h-184zM126 406v124h788v-124h-788z" />
    <glyph glyph-name="oslash" unicode="&#xf8;" horiz-adv-x="1012" 
d="M112 -98l-78 72l144 166c-45 69 -74 165 -74 296c0 354 213 454 402 454c88 0 179 -21 256 -82l138 160l78 -72l-144 -168c45 -69 74 -164 74 -292c0 -357 -213 -456 -402 -456c-88 0 -181 21 -256 80zM506 110c167 0 250 109 250 326c0 69 -9 129 -28 178l-388 -446
c41 -39 97 -58 166 -58zM256 436c0 -75 9 -135 28 -180l388 444c-43 40 -98 60 -166 60c-167 0 -250 -108 -250 -324z" />
    <glyph glyph-name="ugrave" unicode="&#xf9;" horiz-adv-x="996" 
d="M142 336v534h150v-500c0 -84 12 -148 37 -192s74 -66 149 -66c109 0 177 45 214 88v670h150v-870h-124v112c-48 -72 -135 -132 -284 -132c-142 0 -292 59 -292 356zM490 1044l-212 254h186l110 -254h-84z" />
    <glyph glyph-name="uacute" unicode="&#xfa;" horiz-adv-x="996" 
d="M142 336v534h150v-500c0 -84 12 -148 37 -192s74 -66 149 -66c109 0 177 45 214 88v670h150v-870h-124v112c-48 -72 -135 -132 -284 -132c-142 0 -292 59 -292 356zM406 1044l110 254h186l-212 -254h-84z" />
    <glyph glyph-name="ucircumflex" unicode="&#xfb;" horiz-adv-x="996" 
d="M142 336v534h150v-500c0 -84 12 -148 37 -192s74 -66 149 -66c109 0 177 45 214 88v670h150v-870h-124v112c-48 -72 -135 -132 -284 -132c-142 0 -292 59 -292 356zM218 1034l216 266h112l216 -266h-98l-174 142l-174 -142h-98z" />
    <glyph glyph-name="udieresis" unicode="&#xfc;" horiz-adv-x="996" 
d="M142 336v534h150v-500c0 -84 12 -148 37 -192s74 -66 149 -66c109 0 177 45 214 88v670h150v-870h-124v112c-48 -72 -135 -132 -284 -132c-142 0 -292 59 -292 356zM226 1086v168h172v-168h-172zM582 1086v168h172v-168h-172z" />
    <glyph glyph-name="yacute" unicode="&#xfd;" horiz-adv-x="898" 
d="M76 -400v128c24 -8 57 -16 94 -16s68 10 91 30s46 59 67 118l44 120l-322 890h162l242 -710l240 710h154l-370 -1012c-59 -154 -121 -274 -302 -274c-51 0 -87 11 -100 16zM368 1044l110 254h186l-212 -254h-84z" />
    <glyph glyph-name="thorn" unicode="&#xfe;" horiz-adv-x="1012" 
d="M154 -396v1720h150v-544c37 43 116 110 246 110c184 0 362 -123 362 -450c0 -334 -178 -460 -362 -460c-130 0 -209 67 -246 110v-486h-150zM304 674v-478c48 -51 119 -86 210 -86c163 0 246 118 246 326c0 205 -83 324 -246 324c-91 0 -162 -35 -210 -86z" />
    <glyph glyph-name="ydieresis" unicode="&#xff;" horiz-adv-x="898" 
d="M76 -400v128c24 -8 57 -16 94 -16s68 10 91 30s46 59 67 118l44 120l-322 890h162l242 -710l240 710h154l-370 -1012c-59 -154 -121 -274 -302 -274c-51 0 -87 11 -100 16zM188 1086v168h172v-168h-172zM544 1086v168h172v-168h-172z" />
    <glyph glyph-name="Amacron" unicode="&#x100;" horiz-adv-x="1126" 
 />
    <glyph glyph-name="amacron" unicode="&#x101;" horiz-adv-x="948" 
 />
    <glyph glyph-name="Abreve" unicode="&#x102;" horiz-adv-x="1126" 
 />
    <glyph glyph-name="abreve" unicode="&#x103;" horiz-adv-x="948" 
 />
    <glyph glyph-name="Aogonek" unicode="&#x104;" horiz-adv-x="1126" 
 />
    <glyph glyph-name="aogonek" unicode="&#x105;" horiz-adv-x="948" 
 />
    <glyph glyph-name="Cacute" unicode="&#x106;" horiz-adv-x="1170" 
 />
    <glyph glyph-name="cacute" unicode="&#x107;" horiz-adv-x="950" 
 />
    <glyph glyph-name="Ccircumflex" unicode="&#x108;" horiz-adv-x="1170" 
 />
    <glyph glyph-name="ccircumflex" unicode="&#x109;" horiz-adv-x="950" 
 />
    <glyph glyph-name="Cdotaccent" unicode="&#x10a;" horiz-adv-x="1170" 
 />
    <glyph glyph-name="cdotaccent" unicode="&#x10b;" horiz-adv-x="950" 
 />
    <glyph glyph-name="Ccaron" unicode="&#x10c;" horiz-adv-x="1170" 
 />
    <glyph glyph-name="ccaron" unicode="&#x10d;" horiz-adv-x="950" 
 />
    <glyph glyph-name="Dcaron" unicode="&#x10e;" horiz-adv-x="1186" 
 />
    <glyph glyph-name="dcaron" unicode="&#x10f;" horiz-adv-x="1012" 
 />
    <glyph glyph-name="Dcroat" unicode="&#x110;" horiz-adv-x="1200" 
 />
    <glyph glyph-name="dslash" unicode="&#x111;" horiz-adv-x="1012" 
 />
    <glyph glyph-name="Emacron" unicode="&#x112;" horiz-adv-x="1044" 
 />
    <glyph glyph-name="emacron" unicode="&#x113;" horiz-adv-x="970" 
 />
    <glyph glyph-name="Ebreve" unicode="&#x114;" horiz-adv-x="1044" 
 />
    <glyph glyph-name="ebreve" unicode="&#x115;" horiz-adv-x="970" 
 />
    <glyph glyph-name="Edotaccent" unicode="&#x116;" horiz-adv-x="1044" 
 />
    <glyph glyph-name="edotaccent" unicode="&#x117;" horiz-adv-x="970" 
 />
    <glyph glyph-name="Eogonek" unicode="&#x118;" horiz-adv-x="1044" 
 />
    <glyph glyph-name="eogonek" unicode="&#x119;" horiz-adv-x="970" 
 />
    <glyph glyph-name="Ecaron" unicode="&#x11a;" horiz-adv-x="1044" 
 />
    <glyph glyph-name="ecaron" unicode="&#x11b;" horiz-adv-x="970" 
 />
    <glyph glyph-name="Gcircumflex" unicode="&#x11c;" horiz-adv-x="1234" 
 />
    <glyph glyph-name="gcircumflex" unicode="&#x11d;" horiz-adv-x="992" 
 />
    <glyph glyph-name="Gbreve" unicode="&#x11e;" horiz-adv-x="1234" 
 />
    <glyph glyph-name="gbreve" unicode="&#x11f;" horiz-adv-x="992" 
 />
    <glyph glyph-name="Gdotaccent" unicode="&#x120;" horiz-adv-x="1234" 
 />
    <glyph glyph-name="gdotaccent" unicode="&#x121;" horiz-adv-x="992" 
 />
    <glyph glyph-name="Gcommaaccent" unicode="&#x122;" horiz-adv-x="1234" 
 />
    <glyph glyph-name="gcommaaccent" unicode="&#x123;" horiz-adv-x="992" 
 />
    <glyph glyph-name="Hcircumflex" unicode="&#x124;" horiz-adv-x="1220" 
 />
    <glyph glyph-name="hcircumflex" unicode="&#x125;" horiz-adv-x="1004" 
 />
    <glyph glyph-name="Hbar" unicode="&#x126;" horiz-adv-x="1228" 
 />
    <glyph glyph-name="hbar" unicode="&#x127;" horiz-adv-x="1004" 
 />
    <glyph glyph-name="Itilde" unicode="&#x128;" horiz-adv-x="636" 
 />
    <glyph glyph-name="itilde" unicode="&#x129;" horiz-adv-x="462" 
 />
    <glyph glyph-name="Imacron" unicode="&#x12a;" horiz-adv-x="636" 
 />
    <glyph glyph-name="imacron" unicode="&#x12b;" horiz-adv-x="462" 
 />
    <glyph glyph-name="Ibreve" unicode="&#x12c;" horiz-adv-x="636" 
 />
    <glyph glyph-name="ibreve" unicode="&#x12d;" horiz-adv-x="462" 
 />
    <glyph glyph-name="Iogonek" unicode="&#x12e;" horiz-adv-x="636" 
 />
    <glyph glyph-name="iogonek" unicode="&#x12f;" horiz-adv-x="462" 
 />
    <glyph glyph-name="Idot" unicode="&#x130;" horiz-adv-x="636" 
 />
    <glyph glyph-name="dotlessi" unicode="&#x131;" horiz-adv-x="462" 
d="M156 0v870h150v-870h-150z" />
    <glyph glyph-name="IJ" unicode="&#x132;" horiz-adv-x="1144" 
d="M160 632v484h156v-484h-156zM572 -20c-267 0 -412 120 -412 408h156c0 -192 75 -272 256 -272c89 0 154 23 195 68s61 124 61 236v696h156v-688c0 -176 -31 -273 -100 -342c-71 -71 -175 -106 -312 -106z" />
    <glyph glyph-name="ij" unicode="&#x133;" horiz-adv-x="928" 
 />
    <glyph glyph-name="Jcircumflex" unicode="&#x134;" horiz-adv-x="962" 
 />
    <glyph glyph-name="jcircumflex" unicode="&#x135;" horiz-adv-x="466" 
 />
    <glyph glyph-name="Kcommaaccent" unicode="&#x136;" horiz-adv-x="1082" 
 />
    <glyph glyph-name="kcommaaccent" unicode="&#x137;" horiz-adv-x="946" 
 />
    <glyph glyph-name="kgreenlandic" unicode="&#x138;" horiz-adv-x="946" 
 />
    <glyph glyph-name="Lacute" unicode="&#x139;" horiz-adv-x="924" 
 />
    <glyph glyph-name="lacute" unicode="&#x13a;" horiz-adv-x="458" 
 />
    <glyph glyph-name="Lcommaaccent" unicode="&#x13b;" horiz-adv-x="924" 
 />
    <glyph glyph-name="lcommaaccent" unicode="&#x13c;" horiz-adv-x="458" 
 />
    <glyph glyph-name="Lcaron" unicode="&#x13d;" horiz-adv-x="924" 
 />
    <glyph glyph-name="lcaron" unicode="&#x13e;" horiz-adv-x="458" 
 />
    <glyph glyph-name="Ldot" unicode="&#x13f;" horiz-adv-x="924" 
 />
    <glyph glyph-name="ldot" unicode="&#x140;" horiz-adv-x="662" 
 />
    <glyph glyph-name="Lslash" unicode="&#x141;" horiz-adv-x="944" 
 />
    <glyph glyph-name="lslash" unicode="&#x142;" horiz-adv-x="478" 
 />
    <glyph glyph-name="Nacute" unicode="&#x143;" horiz-adv-x="1224" 
 />
    <glyph glyph-name="nacute" unicode="&#x144;" horiz-adv-x="1004" 
 />
    <glyph glyph-name="Ncommaaccent" unicode="&#x145;" horiz-adv-x="1224" 
 />
    <glyph glyph-name="ncommaaccent" unicode="&#x146;" horiz-adv-x="1004" 
 />
    <glyph glyph-name="Ncaron" unicode="&#x147;" horiz-adv-x="1224" 
 />
    <glyph glyph-name="ncaron" unicode="&#x148;" horiz-adv-x="1004" 
 />
    <glyph glyph-name="napostrophe" unicode="&#x149;" horiz-adv-x="1360" 
 />
    <glyph glyph-name="Eng" unicode="&#x14a;" horiz-adv-x="1224" 
 />
    <glyph glyph-name="eng" unicode="&#x14b;" horiz-adv-x="1004" 
 />
    <glyph glyph-name="Omacron" unicode="&#x14c;" horiz-adv-x="1248" 
 />
    <glyph glyph-name="omacron" unicode="&#x14d;" horiz-adv-x="1004" 
 />
    <glyph glyph-name="Obreve" unicode="&#x14e;" horiz-adv-x="1248" 
 />
    <glyph glyph-name="obreve" unicode="&#x14f;" horiz-adv-x="1004" 
 />
    <glyph glyph-name="Ohungarumlaut" unicode="&#x150;" horiz-adv-x="1248" 
 />
    <glyph glyph-name="ohungarumlaut" unicode="&#x151;" horiz-adv-x="1004" 
 />
    <glyph glyph-name="OE" unicode="&#x152;" horiz-adv-x="1714" 
d="M1594 0h-918c-389 0 -556 224 -556 558s167 558 556 558h918v-132h-588v-346h488v-132h-488v-374h588v-132zM672 132h178v852h-178c-318 0 -392 -216 -392 -426s74 -426 392 -426z" />
    <glyph glyph-name="oe" unicode="&#x153;" horiz-adv-x="1624" 
d="M1146 -20c-133 0 -251 53 -318 186c-76 -140 -203 -186 -326 -186c-189 0 -402 99 -402 456c0 354 213 454 402 454c122 0 252 -49 326 -186c35 68 80 116 137 144s115 42 175 42c176 0 388 -105 388 -452v-26h-624c7 -205 89 -308 248 -308c128 0 203 65 224 180h146
c-32 -240 -227 -304 -376 -304zM502 110c167 0 250 109 250 326c0 216 -83 324 -250 324s-250 -108 -250 -324c0 -217 83 -326 250 -326zM906 512h468c-11 168 -94 258 -230 258c-144 0 -225 -90 -238 -258z" />
    <glyph glyph-name="Racute" unicode="&#x154;" horiz-adv-x="1126" 
 />
    <glyph glyph-name="racute" unicode="&#x155;" horiz-adv-x="638" 
 />
    <glyph glyph-name="Rcommaaccent" unicode="&#x156;" horiz-adv-x="1126" 
 />
    <glyph glyph-name="rcommaaccent" unicode="&#x157;" horiz-adv-x="638" 
 />
    <glyph glyph-name="Rcaron" unicode="&#x158;" horiz-adv-x="1126" 
 />
    <glyph glyph-name="rcaron" unicode="&#x159;" horiz-adv-x="638" 
 />
    <glyph glyph-name="Sacute" unicode="&#x15a;" horiz-adv-x="1074" 
 />
    <glyph glyph-name="sacute" unicode="&#x15b;" horiz-adv-x="914" 
 />
    <glyph glyph-name="Scircumflex" unicode="&#x15c;" horiz-adv-x="1074" 
 />
    <glyph glyph-name="scircumflex" unicode="&#x15d;" horiz-adv-x="914" 
 />
    <glyph glyph-name="Scedilla" unicode="&#x15e;" horiz-adv-x="1074" 
 />
    <glyph glyph-name="scedilla" unicode="&#x15f;" horiz-adv-x="914" 
 />
    <glyph glyph-name="Scaron" unicode="&#x160;" horiz-adv-x="1074" 
d="M112 328h158c11 -171 154 -218 288 -218c165 0 244 74 244 178c0 87 -53 145 -160 176l-244 70c-168 48 -260 144 -260 296c0 213 178 306 386 306c116 0 210 -29 282 -88s111 -143 118 -254h-154c-16 171 -144 212 -258 212c-144 0 -218 -65 -218 -166
c0 -87 53 -145 160 -176l244 -70c77 -23 140 -57 188 -102s72 -110 72 -194c0 -233 -198 -318 -408 -318c-243 0 -422 114 -438 348zM478 1248l-216 266h98l174 -142l174 142h98l-216 -266h-112z" />
    <glyph glyph-name="scaron" unicode="&#x161;" horiz-adv-x="914" 
d="M100 278h146c5 -109 93 -182 232 -182c109 0 186 45 186 136c0 109 -108 120 -262 168c-130 38 -266 88 -266 248c0 176 158 242 318 242c93 0 170 -23 231 -68s94 -114 101 -206h-146c-5 93 -73 158 -190 158c-47 0 -86 -10 -119 -30s-49 -49 -49 -88
c0 -100 112 -113 270 -160c126 -37 258 -85 258 -256c0 -197 -171 -260 -336 -260c-210 0 -358 101 -374 298zM400 1034l-216 266h98l174 -142l174 142h98l-216 -266h-112z" />
    <glyph glyph-name="Tcommaaccent" unicode="&#x162;" horiz-adv-x="928" 
 />
    <glyph glyph-name="tcommaaccent" unicode="&#x163;" horiz-adv-x="650" 
 />
    <glyph glyph-name="Tcaron" unicode="&#x164;" horiz-adv-x="928" 
 />
    <glyph glyph-name="tcaron" unicode="&#x165;" horiz-adv-x="650" 
 />
    <glyph glyph-name="Tbar" unicode="&#x166;" horiz-adv-x="964" 
 />
    <glyph glyph-name="tbar" unicode="&#x167;" horiz-adv-x="690" 
 />
    <glyph glyph-name="Utilde" unicode="&#x168;" horiz-adv-x="1184" 
 />
    <glyph glyph-name="utilde" unicode="&#x169;" horiz-adv-x="996" 
 />
    <glyph glyph-name="Umacron" unicode="&#x16a;" horiz-adv-x="1184" 
 />
    <glyph glyph-name="umacron" unicode="&#x16b;" horiz-adv-x="996" 
 />
    <glyph glyph-name="Ubreve" unicode="&#x16c;" horiz-adv-x="1184" 
 />
    <glyph glyph-name="ubreve" unicode="&#x16d;" horiz-adv-x="996" 
 />
    <glyph glyph-name="Uring" unicode="&#x16e;" horiz-adv-x="1184" 
 />
    <glyph glyph-name="uring" unicode="&#x16f;" horiz-adv-x="996" 
 />
    <glyph glyph-name="Uhungarumlaut" unicode="&#x170;" horiz-adv-x="1184" 
 />
    <glyph glyph-name="uhungarumlaut" unicode="&#x171;" horiz-adv-x="996" 
 />
    <glyph glyph-name="Uogonek" unicode="&#x172;" horiz-adv-x="1184" 
 />
    <glyph glyph-name="uogonek" unicode="&#x173;" horiz-adv-x="996" 
 />
    <glyph glyph-name="Wcircumflex" unicode="&#x174;" horiz-adv-x="1594" 
 />
    <glyph glyph-name="wcircumflex" unicode="&#x175;" horiz-adv-x="1346" 
 />
    <glyph glyph-name="Ycircumflex" unicode="&#x176;" horiz-adv-x="1020" 
 />
    <glyph glyph-name="ycircumflex" unicode="&#x177;" horiz-adv-x="898" 
 />
    <glyph glyph-name="Ydieresis" unicode="&#x178;" horiz-adv-x="1020" 
d="M432 0v446l-406 670h174l312 -534l314 534h168l-406 -670v-446h-156zM246 1300v168h172v-168h-172zM602 1300v168h172v-168h-172z" />
    <glyph glyph-name="Zacute" unicode="&#x179;" horiz-adv-x="998" 
 />
    <glyph glyph-name="zacute" unicode="&#x17a;" horiz-adv-x="860" 
 />
    <glyph glyph-name="Zdotaccent" unicode="&#x17b;" horiz-adv-x="998" 
 />
    <glyph glyph-name="zdotaccent" unicode="&#x17c;" horiz-adv-x="860" 
 />
    <glyph glyph-name="Zcaron" unicode="&#x17d;" horiz-adv-x="998" 
d="M88 0v126l616 856h-584v134h768v-126l-614 -856h640v-134h-826zM466 1248l-216 266h98l174 -142l174 142h98l-216 -266h-112z" />
    <glyph glyph-name="zcaron" unicode="&#x17e;" horiz-adv-x="860" 
d="M96 0v106l476 642h-464v122h648v-104l-472 -642h484v-124h-672zM372 1034l-216 266h98l174 -142l174 142h98l-216 -266h-112z" />
    <glyph glyph-name="florin" unicode="&#x192;" horiz-adv-x="1014" 
d="M590 602l-60 -328c-37 -208 -126 -294 -286 -294c-147 0 -196 78 -196 172c0 24 2 45 6 64h126c-3 -13 -4 -27 -4 -46c0 -59 29 -78 72 -78c80 0 113 70 134 182l60 328h-146l20 110h144l24 130c37 208 126 294 286 294c147 0 196 -78 196 -172c0 -25 -2 -47 -6 -64h-126
c3 13 4 27 4 46c0 59 -29 78 -72 78c-80 0 -113 -70 -134 -182l-22 -130h194l-20 -110h-194z" />
    <glyph glyph-name="AEacute" unicode="&#x1fc;" horiz-adv-x="1626" 
 />
    <glyph glyph-name="aeacute" unicode="&#x1fd;" horiz-adv-x="1502" 
 />
    <glyph glyph-name="Oslashacute" unicode="&#x1fe;" horiz-adv-x="1256" 
 />
    <glyph glyph-name="oslashacute" unicode="&#x1ff;" horiz-adv-x="1012" 
 />
    <glyph glyph-name="Scommaaccent" unicode="&#x218;" horiz-adv-x="1074" 
 />
    <glyph glyph-name="scommaaccent" unicode="&#x219;" horiz-adv-x="914" 
 />
    <glyph glyph-name="uni021A" unicode="&#x21a;" horiz-adv-x="928" 
 />
    <glyph glyph-name="uni021B" unicode="&#x21b;" horiz-adv-x="650" 
 />
    <glyph glyph-name="dotlessj" unicode="&#x237;" horiz-adv-x="466" 
 />
    <glyph glyph-name="circumflex" unicode="&#x2c6;" horiz-adv-x="812" 
d="M134 1034l216 266h112l216 -266h-98l-174 142l-174 -142h-98z" />
    <glyph glyph-name="caron" unicode="&#x2c7;" horiz-adv-x="812" 
d="M350 1034l-216 266h98l174 -142l174 142h98l-216 -266h-112z" />
    <glyph glyph-name="breve" unicode="&#x2d8;" horiz-adv-x="812" 
 />
    <glyph glyph-name="dotaccent" unicode="&#x2d9;" horiz-adv-x="812" 
 />
    <glyph glyph-name="ring" unicode="&#x2da;" horiz-adv-x="812" 
d="M406 1078c61 0 108 42 108 114s-47 114 -108 114s-108 -42 -108 -114s47 -114 108 -114zM406 992c-101 0 -200 77 -200 200s99 200 200 200s200 -77 200 -200s-99 -200 -200 -200z" />
    <glyph glyph-name="ogonek" unicode="&#x2db;" horiz-adv-x="812" 
 />
    <glyph glyph-name="tilde" unicode="&#x2dc;" horiz-adv-x="812" 
d="M144 1094v98c27 51 79 90 140 90c119 0 169 -112 256 -112c53 0 99 35 128 72v-98c-27 -51 -79 -90 -140 -90c-119 0 -169 112 -256 112c-53 0 -99 -35 -128 -72z" />
    <glyph glyph-name="hungarumlaut" unicode="&#x2dd;" horiz-adv-x="812" 
 />
    <glyph glyph-name="commatop" unicode="&#x312;" horiz-adv-x="812" 
 />
    <glyph glyph-name="commaaccent" unicode="&#x326;" horiz-adv-x="812" 
 />
    <glyph glyph-name="pi" unicode="&#x3c0;" horiz-adv-x="1030" 
 />
    <glyph glyph-name="Wgrave" unicode="&#x1e80;" horiz-adv-x="1594" 
 />
    <glyph glyph-name="wgrave" unicode="&#x1e81;" horiz-adv-x="1346" 
 />
    <glyph glyph-name="Wacute" unicode="&#x1e82;" horiz-adv-x="1594" 
 />
    <glyph glyph-name="wacute" unicode="&#x1e83;" horiz-adv-x="1346" 
 />
    <glyph glyph-name="Wdieresis" unicode="&#x1e84;" horiz-adv-x="1594" 
 />
    <glyph glyph-name="wdieresis" unicode="&#x1e85;" horiz-adv-x="1346" 
 />
    <glyph glyph-name="Ygrave" unicode="&#x1ef2;" horiz-adv-x="1020" 
 />
    <glyph glyph-name="ygrave" unicode="&#x1ef3;" horiz-adv-x="898" 
 />
    <glyph glyph-name="endash" unicode="&#x2013;" 
d="M126 406v124h788v-124h-788z" />
    <glyph glyph-name="emdash" unicode="&#x2014;" horiz-adv-x="1440" 
d="M126 406v124h1188v-124h-1188z" />
    <glyph glyph-name="quoteleft" unicode="&#x2018;" horiz-adv-x="488" 
d="M150 740v188l106 268h82l-98 -268h98v-188h-188z" />
    <glyph glyph-name="quoteright" unicode="&#x2019;" horiz-adv-x="488" 
d="M338 1196v-188l-106 -268h-82l98 268h-98v188h188z" />
    <glyph glyph-name="quotesinglbase" unicode="&#x201a;" horiz-adv-x="588" 
d="M388 188v-188l-106 -268h-82l98 268h-98v188h188z" />
    <glyph glyph-name="quotedblleft" unicode="&#x201c;" horiz-adv-x="794" 
d="M150 740v188l106 268h82l-98 -268h98v-188h-188zM456 740v188l106 268h82l-98 -268h98v-188h-188z" />
    <glyph glyph-name="quotedblright" unicode="&#x201d;" horiz-adv-x="794" 
d="M338 1196v-188l-106 -268h-82l98 268h-98v188h188zM644 1196v-188l-106 -268h-82l98 268h-98v188h188z" />
    <glyph glyph-name="quotedblbase" unicode="&#x201e;" horiz-adv-x="894" 
d="M388 188v-188l-106 -268h-82l98 268h-98v188h188zM694 188v-188l-106 -268h-82l98 268h-98v188h188z" />
    <glyph glyph-name="dagger" unicode="&#x2020;" horiz-adv-x="734" 
d="M314 422v514h-234v96h234v232h106v-232h234v-96h-234v-514h-106z" />
    <glyph glyph-name="daggerdbl" unicode="&#x2021;" horiz-adv-x="734" 
d="M314 104v510h-234v96h234v226h-234v96h234v232h106v-232h234v-96h-234v-226h234v-96h-234v-510h-106z" />
    <glyph glyph-name="bullet" unicode="&#x2022;" horiz-adv-x="632" 
d="M140 466c0 48 14 89 43 123s73 51 133 51s104 -17 133 -51s43 -75 43 -123s-14 -89 -43 -123s-73 -51 -133 -51s-104 17 -133 51s-43 75 -43 123z" />
    <glyph glyph-name="ellipsis" unicode="&#x2026;" horiz-adv-x="1368" 
d="M180 0v188h188v-188h-188zM590 0v188h188v-188h-188zM1000 0v188h188v-188h-188z" />
    <glyph glyph-name="perthousand" unicode="&#x2030;" horiz-adv-x="2128" 
d="M1760 84c112 0 158 80 158 216s-46 216 -158 216s-158 -80 -158 -216s46 -216 158 -216zM1760 -20c-133 0 -274 77 -274 320s141 320 274 320s274 -77 274 -320s-141 -320 -274 -320zM368 600c112 0 158 80 158 216s-46 216 -158 216s-158 -80 -158 -216
s46 -216 158 -216zM368 496c-133 0 -274 77 -274 320s141 320 274 320s274 -77 274 -320s-141 -320 -274 -320zM330 0l704 1116h132l-704 -1116h-132zM1128 84c112 0 158 80 158 216s-46 216 -158 216s-158 -80 -158 -216s46 -216 158 -216zM1128 -20
c-133 0 -274 77 -274 320s141 320 274 320s274 -77 274 -320s-141 -320 -274 -320z" />
    <glyph glyph-name="guilsinglleft" unicode="&#x2039;" horiz-adv-x="656" 
d="M396 160l-260 306l260 306h130l-244 -306l244 -306h-130z" />
    <glyph glyph-name="guilsinglright" unicode="&#x203a;" horiz-adv-x="656" 
d="M130 160l244 306l-244 306h130l260 -306l-260 -306h-130z" />
    <glyph glyph-name="fraction" unicode="&#x2044;" horiz-adv-x="870" 
d="M22 0l708 1116h116l-708 -1116h-116z" />
    <glyph glyph-name="uni2070" unicode="&#x2070;" horiz-adv-x="766" 
d="M384 528c114 0 150 110 150 254c0 73 -11 134 -32 181s-61 71 -118 71c-117 0 -152 -106 -152 -252c0 -144 35 -254 152 -254zM384 434c-185 0 -266 148 -266 348c0 201 81 346 266 346c91 0 157 -32 200 -97s64 -148 64 -249c0 -200 -82 -348 -264 -348z" />
    <glyph glyph-name="uni2074" unicode="&#x2074;" horiz-adv-x="688" 
d="M408 1116h106v-438h88v-88h-88v-144h-110v144h-328v74zM404 678v298l-218 -298h218z" />
    <glyph glyph-name="uni2075" unicode="&#x2075;" horiz-adv-x="688" 
d="M158 1116h394v-94h-302l-12 -180c29 21 75 40 136 40c131 0 216 -81 216 -222c0 -76 -23 -133 -68 -170s-101 -56 -166 -56c-122 0 -240 65 -240 218h106c0 -47 13 -80 39 -100s56 -30 89 -30c77 0 128 48 128 136c0 93 -57 134 -134 134c-61 0 -110 -24 -150 -56l-62 16
z" />
    <glyph glyph-name="uni2076" unicode="&#x2076;" horiz-adv-x="714" 
d="M384 1128c131 0 220 -77 220 -218h-108c0 75 -33 128 -116 128c-82 0 -153 -51 -158 -236c37 37 101 62 168 62c64 0 116 -20 155 -59s59 -90 59 -153c0 -64 -21 -116 -64 -157s-98 -61 -166 -61c-77 0 -141 29 -190 86s-74 143 -74 258c0 229 109 350 274 350zM364 776
c-51 0 -105 -20 -140 -52c13 -149 71 -202 148 -202c75 0 120 51 120 128s-48 126 -128 126z" />
    <glyph glyph-name="uni2077" unicode="&#x2077;" horiz-adv-x="574" 
d="M62 1116h432v-84c-136 -149 -198 -338 -198 -546v-40h-112v54c0 189 73 404 180 522h-302v94z" />
    <glyph glyph-name="uni2078" unicode="&#x2078;" horiz-adv-x="714" 
d="M358 1128c114 0 230 -56 230 -186c0 -77 -39 -125 -98 -154c67 -27 114 -77 114 -160c0 -131 -118 -194 -246 -194c-130 0 -248 63 -248 194c0 83 47 133 114 160c-61 29 -98 77 -98 154c0 130 117 186 232 186zM358 748c-36 0 -68 -8 -96 -25s-42 -46 -42 -89
s14 -72 42 -89s60 -25 96 -25c35 0 66 8 94 25s42 46 42 89s-14 72 -42 89s-59 25 -94 25zM358 1042c-64 0 -122 -31 -122 -108c0 -39 12 -66 37 -82s52 -24 83 -24c32 0 61 8 86 24s38 43 38 82s-13 66 -38 83s-53 25 -84 25z" />
    <glyph glyph-name="uni2079" unicode="&#x2079;" horiz-adv-x="714" 
d="M338 1128c77 0 141 -29 190 -86s74 -144 74 -260c0 -227 -107 -348 -270 -348c-131 0 -222 77 -222 218h106c0 -75 33 -128 118 -128c78 0 151 48 156 234c-40 -37 -102 -60 -166 -60s-116 20 -155 59s-59 90 -59 153c0 64 21 116 63 157s97 61 165 61zM348 786
c48 0 103 18 140 50c-13 149 -71 204 -148 204c-75 0 -120 -51 -120 -128s48 -126 128 -126z" />
    <glyph glyph-name="uni2080" unicode="&#x2080;" horiz-adv-x="766" 
d="M384 84c114 0 150 110 150 254c0 73 -11 134 -32 181s-61 71 -118 71c-117 0 -152 -106 -152 -252c0 -144 35 -254 152 -254zM384 -10c-185 0 -266 148 -266 348c0 201 81 346 266 346c91 0 157 -32 200 -97s64 -148 64 -249c0 -200 -82 -348 -264 -348z" />
    <glyph glyph-name="uni2081" unicode="&#x2081;" horiz-adv-x="524" 
d="M270 672h98v-670h-110v524c-29 -35 -96 -76 -184 -76v98c105 0 169 71 196 124z" />
    <glyph glyph-name="uni2082" unicode="&#x2082;" horiz-adv-x="668" 
d="M338 684c117 0 220 -63 220 -194c0 -114 -77 -178 -152 -226l-78 -52c-53 -37 -85 -73 -90 -118h328v-92h-450v38c0 135 76 197 150 250l78 52c27 19 50 38 70 57s30 48 30 85c0 75 -45 110 -112 110c-32 0 -60 -10 -85 -29s-37 -52 -37 -99h-104c0 149 109 218 232 218z
" />
    <glyph glyph-name="uni2083" unicode="&#x2083;" horiz-adv-x="694" 
d="M346 684c61 0 113 -16 156 -48s64 -78 64 -138c0 -64 -27 -111 -96 -148c69 -29 110 -83 110 -166c0 -65 -22 -114 -67 -146s-100 -48 -165 -48c-133 0 -242 65 -242 218h106c0 -93 60 -128 132 -128c75 0 124 37 124 106c0 77 -61 118 -138 118h-48v84h48
c77 0 124 31 124 100s-47 106 -116 106c-67 0 -120 -35 -120 -128h-106c0 149 108 218 234 218z" />
    <glyph glyph-name="uni2084" unicode="&#x2084;" horiz-adv-x="688" 
d="M408 672h106v-438h88v-88h-88v-144h-110v144h-328v74zM404 234v298l-218 -298h218z" />
    <glyph glyph-name="uni2085" unicode="&#x2085;" horiz-adv-x="688" 
d="M158 672h394v-94h-302l-12 -180c29 21 75 40 136 40c131 0 216 -81 216 -222c0 -76 -23 -133 -68 -170s-101 -56 -166 -56c-122 0 -240 65 -240 218h106c0 -47 13 -80 39 -100s56 -30 89 -30c77 0 128 48 128 136c0 93 -57 134 -134 134c-61 0 -110 -24 -150 -56l-62 16z
" />
    <glyph glyph-name="uni2086" unicode="&#x2086;" horiz-adv-x="714" 
d="M384 684c131 0 220 -77 220 -218h-108c0 75 -33 128 -116 128c-82 0 -153 -51 -158 -236c37 37 101 62 168 62c64 0 116 -20 155 -59s59 -90 59 -153c0 -64 -21 -116 -64 -157s-98 -61 -166 -61c-77 0 -141 29 -190 86s-74 143 -74 258c0 229 109 350 274 350zM364 332
c-51 0 -105 -20 -140 -52c13 -149 71 -202 148 -202c75 0 120 51 120 128s-48 126 -128 126z" />
    <glyph glyph-name="uni2087" unicode="&#x2087;" horiz-adv-x="574" 
d="M62 672h432v-84c-136 -149 -198 -338 -198 -546v-40h-112v54c0 189 73 404 180 522h-302v94z" />
    <glyph glyph-name="uni2088" unicode="&#x2088;" horiz-adv-x="714" 
d="M358 684c114 0 230 -56 230 -186c0 -77 -39 -125 -98 -154c67 -27 114 -77 114 -160c0 -131 -118 -194 -246 -194c-130 0 -248 63 -248 194c0 83 47 133 114 160c-61 29 -98 77 -98 154c0 130 117 186 232 186zM358 304c-36 0 -68 -8 -96 -25s-42 -46 -42 -89
s14 -72 42 -89s60 -25 96 -25c35 0 66 8 94 25s42 46 42 89s-14 72 -42 89s-59 25 -94 25zM358 598c-64 0 -122 -31 -122 -108c0 -39 12 -66 37 -82s52 -24 83 -24c32 0 61 8 86 24s38 43 38 82s-13 66 -38 83s-53 25 -84 25z" />
    <glyph glyph-name="uni2089" unicode="&#x2089;" horiz-adv-x="714" 
d="M338 684c77 0 141 -29 190 -86s74 -144 74 -260c0 -227 -107 -348 -270 -348c-131 0 -222 77 -222 218h106c0 -75 33 -128 118 -128c78 0 151 48 156 234c-40 -37 -102 -60 -166 -60s-116 20 -155 59s-59 90 -59 153c0 64 21 116 63 157s97 61 165 61zM348 342
c48 0 103 18 140 50c-13 149 -71 204 -148 204c-75 0 -120 -51 -120 -128s48 -126 128 -126z" />
    <glyph glyph-name="Euro" unicode="&#x20ac;" horiz-adv-x="1228" 
d="M88 658v90h148c24 120 73 215 148 284s175 104 302 104c235 0 414 -135 430 -370h-148c-11 134 -98 246 -280 246c-181 0 -268 -115 -300 -264h366v-90h-380c-5 -35 -4 -65 -4 -100s-1 -68 4 -100h380v-90h-366c32 -149 119 -264 300 -264c182 0 269 112 280 246h148
c-16 -235 -195 -370 -430 -370c-127 0 -227 35 -302 104s-124 164 -148 284h-148v90h136c-3 32 -4 63 -4 100c0 35 1 68 4 100h-136z" />
    <glyph glyph-name="trademark" unicode="&#x2122;" horiz-adv-x="1134" 
d="M524 642v474h108l116 -230l116 230h106v-474h-96v316l-90 -182h-74l-90 182v-316h-96zM226 642v388h-130v86h358v-86h-130v-388h-98z" />
    <glyph glyph-name="Omega" unicode="&#x2126;" horiz-adv-x="1228" 
 />
    <glyph glyph-name="uni2153" unicode="&#x2153;" horiz-adv-x="1414" 
d="M1064 684c61 0 113 -16 156 -48s64 -78 64 -138c0 -64 -27 -111 -96 -148c69 -29 110 -83 110 -166c0 -65 -22 -114 -67 -146s-100 -48 -165 -48c-133 0 -242 65 -242 218h106c0 -93 60 -128 132 -128c75 0 124 37 124 106c0 77 -61 118 -138 118h-48v84h48
c77 0 124 31 124 100s-47 106 -116 106c-67 0 -120 -35 -120 -128h-106c0 149 108 218 234 218zM270 1116h98v-670h-110v524c-29 -35 -96 -76 -184 -76v98c105 0 169 71 196 124zM212 0l708 1116h116l-708 -1116h-116z" />
    <glyph glyph-name="uni2154" unicode="&#x2154;" horiz-adv-x="1580" 
d="M338 1128c117 0 220 -63 220 -194c0 -114 -77 -178 -152 -226l-78 -52c-53 -37 -85 -73 -90 -118h328v-92h-450v38c0 135 76 197 150 250l78 52c27 19 50 38 70 57s30 48 30 85c0 75 -45 110 -112 110c-32 0 -60 -10 -85 -29s-37 -52 -37 -99h-104c0 149 109 218 232 218
zM1232 684c61 0 113 -16 156 -48s64 -78 64 -138c0 -64 -27 -111 -96 -148c69 -29 110 -83 110 -166c0 -65 -22 -114 -67 -146s-100 -48 -165 -48c-133 0 -242 65 -242 218h106c0 -93 60 -128 132 -128c75 0 124 37 124 106c0 77 -61 118 -138 118h-48v84h48
c77 0 124 31 124 100s-47 106 -116 106c-67 0 -120 -35 -120 -128h-106c0 149 108 218 234 218zM380 0l708 1116h116l-708 -1116h-116z" />
    <glyph glyph-name="uni2155" unicode="&#x2155;" horiz-adv-x="1402" 
d="M872 672h394v-94h-302l-12 -180c29 21 75 40 136 40c131 0 216 -81 216 -222c0 -76 -23 -133 -68 -170s-101 -56 -166 -56c-122 0 -240 65 -240 218h106c0 -47 13 -80 39 -100s56 -30 89 -30c77 0 128 48 128 136c0 93 -57 134 -134 134c-61 0 -110 -24 -150 -56l-62 16z
M270 1116h98v-670h-110v524c-29 -35 -96 -76 -184 -76v98c105 0 169 71 196 124zM212 0l708 1116h116l-708 -1116h-116z" />
    <glyph glyph-name="uni2156" unicode="&#x2156;" horiz-adv-x="1568" 
d="M1038 672h394v-94h-302l-12 -180c29 21 75 40 136 40c131 0 216 -81 216 -222c0 -76 -23 -133 -68 -170s-101 -56 -166 -56c-122 0 -240 65 -240 218h106c0 -47 13 -80 39 -100s56 -30 89 -30c77 0 128 48 128 136c0 93 -57 134 -134 134c-61 0 -110 -24 -150 -56l-62 16
zM338 1128c117 0 220 -63 220 -194c0 -114 -77 -178 -152 -226l-78 -52c-53 -37 -85 -73 -90 -118h328v-92h-450v38c0 135 76 197 150 250l78 52c27 19 50 38 70 57s30 48 30 85c0 75 -45 110 -112 110c-32 0 -60 -10 -85 -29s-37 -52 -37 -99h-104c0 149 109 218 232 218z
M380 0l708 1116h116l-708 -1116h-116z" />
    <glyph glyph-name="uni2157" unicode="&#x2157;" horiz-adv-x="1552" 
d="M1022 672h394v-94h-302l-12 -180c29 21 75 40 136 40c131 0 216 -81 216 -222c0 -76 -23 -133 -68 -170s-101 -56 -166 -56c-122 0 -240 65 -240 218h106c0 -47 13 -80 39 -100s56 -30 89 -30c77 0 128 48 128 136c0 93 -57 134 -134 134c-61 0 -110 -24 -150 -56l-62 16
zM346 1128c61 0 113 -16 156 -48s64 -78 64 -138c0 -64 -27 -111 -96 -148c69 -29 110 -83 110 -166c0 -65 -22 -114 -67 -146s-100 -48 -165 -48c-133 0 -242 65 -242 218h106c0 -93 60 -128 132 -128c75 0 124 37 124 106c0 77 -61 118 -138 118h-48v84h48
c77 0 124 31 124 100s-47 106 -116 106c-67 0 -120 -35 -120 -128h-106c0 149 108 218 234 218zM364 0l708 1116h116l-708 -1116h-116z" />
    <glyph glyph-name="uni2158" unicode="&#x2158;" horiz-adv-x="1558" 
d="M408 1116h106v-438h88v-88h-88v-144h-110v144h-328v74zM404 678v298l-218 -298h218zM1028 672h394v-94h-302l-12 -180c29 21 75 40 136 40c131 0 216 -81 216 -222c0 -76 -23 -133 -68 -170s-101 -56 -166 -56c-122 0 -240 65 -240 218h106c0 -47 13 -80 39 -100
s56 -30 89 -30c77 0 128 48 128 136c0 93 -57 134 -134 134c-61 0 -110 -24 -150 -56l-62 16zM370 0l708 1116h116l-708 -1116h-116z" />
    <glyph glyph-name="uni2159" unicode="&#x2159;" horiz-adv-x="1426" 
d="M1094 684c131 0 220 -77 220 -218h-108c0 75 -33 128 -116 128c-82 0 -153 -51 -158 -236c37 37 101 62 168 62c64 0 116 -20 155 -59s59 -90 59 -153c0 -64 -21 -116 -64 -157s-98 -61 -166 -61c-77 0 -141 29 -190 86s-74 143 -74 258c0 229 109 350 274 350zM1074 332
c-51 0 -105 -20 -140 -52c13 -149 71 -202 148 -202c75 0 120 51 120 128s-48 126 -128 126zM270 1116h98v-670h-110v524c-29 -35 -96 -76 -184 -76v98c105 0 169 71 196 124zM212 0l708 1116h116l-708 -1116h-116z" />
    <glyph glyph-name="uni215A" unicode="&#x215a;" horiz-adv-x="1570" 
d="M1238 684c131 0 220 -77 220 -218h-108c0 75 -33 128 -116 128c-82 0 -153 -51 -158 -236c37 37 101 62 168 62c64 0 116 -20 155 -59s59 -90 59 -153c0 -64 -21 -116 -64 -157s-98 -61 -166 -61c-77 0 -141 29 -190 86s-74 143 -74 258c0 229 109 350 274 350zM1218 332
c-51 0 -105 -20 -140 -52c13 -149 71 -202 148 -202c75 0 120 51 120 128s-48 126 -128 126zM158 1116h394v-94h-302l-12 -180c29 21 75 40 136 40c131 0 216 -81 216 -222c0 -76 -23 -133 -68 -170s-101 -56 -166 -56c-122 0 -240 65 -240 218h106c0 -47 13 -80 39 -100
s56 -30 89 -30c77 0 128 48 128 136c0 93 -57 134 -134 134c-61 0 -110 -24 -150 -56l-62 16zM356 0l708 1116h116l-708 -1116h-116z" />
    <glyph glyph-name="uni215B" unicode="&#x215b;" horiz-adv-x="1426" 
d="M270 1116h98v-670h-110v524c-29 -35 -96 -76 -184 -76v98c105 0 169 71 196 124zM212 0l708 1116h116l-708 -1116h-116zM1068 684c114 0 230 -56 230 -186c0 -77 -39 -125 -98 -154c67 -27 114 -77 114 -160c0 -131 -118 -194 -246 -194c-130 0 -248 63 -248 194
c0 83 47 133 114 160c-61 29 -98 77 -98 154c0 130 117 186 232 186zM1068 304c-36 0 -68 -8 -96 -25s-42 -46 -42 -89s14 -72 42 -89s60 -25 96 -25c35 0 66 8 94 25s42 46 42 89s-14 72 -42 89s-59 25 -94 25zM1068 598c-64 0 -122 -31 -122 -108c0 -39 12 -66 37 -82
s52 -24 83 -24c32 0 61 8 86 24s38 43 38 82s-13 66 -38 83s-53 25 -84 25z" />
    <glyph glyph-name="uni215C" unicode="&#x215c;" horiz-adv-x="1578" 
d="M346 1128c61 0 113 -16 156 -48s64 -78 64 -138c0 -64 -27 -111 -96 -148c69 -29 110 -83 110 -166c0 -65 -22 -114 -67 -146s-100 -48 -165 -48c-133 0 -242 65 -242 218h106c0 -93 60 -128 132 -128c75 0 124 37 124 106c0 77 -61 118 -138 118h-48v84h48
c77 0 124 31 124 100s-47 106 -116 106c-67 0 -120 -35 -120 -128h-106c0 149 108 218 234 218zM364 0l708 1116h116l-708 -1116h-116zM1220 684c114 0 230 -56 230 -186c0 -77 -39 -125 -98 -154c67 -27 114 -77 114 -160c0 -131 -118 -194 -246 -194
c-130 0 -248 63 -248 194c0 83 47 133 114 160c-61 29 -98 77 -98 154c0 130 117 186 232 186zM1220 304c-36 0 -68 -8 -96 -25s-42 -46 -42 -89s14 -72 42 -89s60 -25 96 -25c35 0 66 8 94 25s42 46 42 89s-14 72 -42 89s-59 25 -94 25zM1220 598c-64 0 -122 -31 -122 -108
c0 -39 12 -66 37 -82s52 -24 83 -24c32 0 61 8 86 24s38 43 38 82s-13 66 -38 83s-53 25 -84 25z" />
    <glyph glyph-name="uni215D" unicode="&#x215d;" horiz-adv-x="1570" 
d="M158 1116h394v-94h-302l-12 -180c29 21 75 40 136 40c131 0 216 -81 216 -222c0 -76 -23 -133 -68 -170s-101 -56 -166 -56c-122 0 -240 65 -240 218h106c0 -47 13 -80 39 -100s56 -30 89 -30c77 0 128 48 128 136c0 93 -57 134 -134 134c-61 0 -110 -24 -150 -56l-62 16
zM356 0l708 1116h116l-708 -1116h-116zM1212 684c114 0 230 -56 230 -186c0 -77 -39 -125 -98 -154c67 -27 114 -77 114 -160c0 -131 -118 -194 -246 -194c-130 0 -248 63 -248 194c0 83 47 133 114 160c-61 29 -98 77 -98 154c0 130 117 186 232 186zM1212 304
c-36 0 -68 -8 -96 -25s-42 -46 -42 -89s14 -72 42 -89s60 -25 96 -25c35 0 66 8 94 25s42 46 42 89s-14 72 -42 89s-59 25 -94 25zM1212 598c-64 0 -122 -31 -122 -108c0 -39 12 -66 37 -82s52 -24 83 -24c32 0 61 8 86 24s38 43 38 82s-13 66 -38 83s-53 25 -84 25z" />
    <glyph glyph-name="uni215E" unicode="&#x215e;" horiz-adv-x="1402" 
d="M62 1116h432v-84c-136 -149 -198 -338 -198 -546v-40h-112v54c0 189 73 404 180 522h-302v94zM190 0l708 1116h116l-708 -1116h-116zM1046 684c114 0 230 -56 230 -186c0 -77 -39 -125 -98 -154c67 -27 114 -77 114 -160c0 -131 -118 -194 -246 -194
c-130 0 -248 63 -248 194c0 83 47 133 114 160c-61 29 -98 77 -98 154c0 130 117 186 232 186zM1046 304c-36 0 -68 -8 -96 -25s-42 -46 -42 -89s14 -72 42 -89s60 -25 96 -25c35 0 66 8 94 25s42 46 42 89s-14 72 -42 89s-59 25 -94 25zM1046 598c-64 0 -122 -31 -122 -108
c0 -39 12 -66 37 -82s52 -24 83 -24c32 0 61 8 86 24s38 43 38 82s-13 66 -38 83s-53 25 -84 25z" />
    <glyph glyph-name="uni2190" unicode="&#x2190;" horiz-adv-x="1240" 
 />
    <glyph glyph-name="uni2191" unicode="&#x2191;" horiz-adv-x="1240" 
 />
    <glyph glyph-name="uni2192" unicode="&#x2192;" horiz-adv-x="1240" 
 />
    <glyph glyph-name="uni2193" unicode="&#x2193;" horiz-adv-x="1240" 
 />
    <glyph glyph-name="uni2196" unicode="&#x2196;" horiz-adv-x="1240" 
 />
    <glyph glyph-name="uni2197" unicode="&#x2197;" horiz-adv-x="1240" 
 />
    <glyph glyph-name="uni2198" unicode="&#x2198;" horiz-adv-x="1240" 
 />
    <glyph glyph-name="uni2199" unicode="&#x2199;" horiz-adv-x="1240" 
 />
    <glyph glyph-name="partialdiff" unicode="&#x2202;" horiz-adv-x="1004" 
 />
    <glyph glyph-name="increment" unicode="&#x2206;" horiz-adv-x="1128" 
 />
    <glyph glyph-name="product" unicode="&#x220f;" horiz-adv-x="1150" 
 />
    <glyph glyph-name="summation" unicode="&#x2211;" horiz-adv-x="990" 
 />
    <glyph glyph-name="minus" unicode="&#x2212;" 
 />
    <glyph glyph-name="radical" unicode="&#x221a;" horiz-adv-x="1000" 
 />
    <glyph glyph-name="infinity" unicode="&#x221e;" horiz-adv-x="1284" 
 />
    <glyph glyph-name="integral" unicode="&#x222b;" horiz-adv-x="794" 
 />
    <glyph glyph-name="approxequal" unicode="&#x2248;" 
 />
    <glyph glyph-name="notequal" unicode="&#x2260;" 
 />
    <glyph glyph-name="lessequal" unicode="&#x2264;" 
 />
    <glyph glyph-name="greaterequal" unicode="&#x2265;" 
 />
    <glyph glyph-name="lozenge" unicode="&#x25ca;" horiz-adv-x="944" 
 />
    <glyph glyph-name="fi" unicode="&#xfb01;" horiz-adv-x="1010" 
d="M184 0v750h-138v120h138v206c0 155 73 268 244 268c45 0 81 -8 94 -16v-126c-16 5 -47 12 -76 12c-85 0 -112 -56 -112 -152v-192h188v-120h-188v-750h-150zM704 0v870h150v-870h-150zM688 1154v170h182v-170h-182z" />
    <glyph glyph-name="fl" unicode="&#xfb02;" horiz-adv-x="1006" 
d="M184 0v750h-138v120h138v206c0 155 73 268 244 268c45 0 81 -8 94 -16v-126c-16 5 -47 12 -76 12c-85 0 -112 -56 -112 -152v-192h188v-120h-188v-750h-150zM702 0v1324h150v-1324h-150z" />
    <glyph glyph-name="zero.zero" horiz-adv-x="1108" 
d="M554 1010c-217 0 -278 -185 -278 -452s61 -452 278 -452c215 0 278 185 278 452s-63 452 -278 452zM554 636c45 0 78 -33 78 -78s-33 -78 -78 -78s-78 33 -78 78s33 78 78 78zM554 1136c145 0 253 -51 324 -152s106 -243 106 -426s-35 -325 -106 -426
s-179 -152 -324 -152s-253 51 -324 152s-106 243 -106 426s35 325 106 426s179 152 324 152z" />
    <glyph glyph-name="zero.tf" 
d="M520 1006c-208 0 -264 -185 -264 -448c0 -265 56 -448 264 -448s264 183 264 448c0 263 -56 448 -264 448zM520 1136c143 0 248 -51 317 -152s103 -243 103 -426s-34 -325 -103 -426s-174 -152 -317 -152s-248 51 -317 152s-103 243 -103 426s34 325 103 426
s174 152 317 152z" />
    <glyph glyph-name="zero.zero_tf" 
 />
    <glyph glyph-name="one.tf" 
d="M218 130h294v760c-23 -27 -62 -52 -117 -77s-122 -38 -199 -39v132c179 5 291 112 334 210h138v-986h262v-130h-712v130z" />
    <glyph glyph-name="two.tf" 
d="M530 1136c242 0 354 -140 354 -324c0 -172 -97 -262 -230 -358l-162 -114c-85 -61 -132 -125 -140 -208h548v-132h-716v52c0 176 80 301 224 400l156 106c45 31 85 66 118 105s50 90 50 153c0 117 -66 196 -210 196c-155 0 -219 -89 -222 -236h-150
c0 227 137 360 380 360z" />
    <glyph glyph-name="three.tf" 
d="M542 1136c240 0 356 -139 356 -306c0 -123 -61 -215 -170 -260c53 -16 99 -46 138 -90s58 -104 58 -180c0 -178 -122 -320 -378 -320c-259 0 -390 142 -390 374h150c3 -171 87 -250 236 -250c152 0 230 81 230 198c0 120 -82 204 -250 204h-78v120h82
c152 0 222 77 222 192s-70 194 -214 194c-152 0 -217 -87 -220 -234h-150c0 112 33 200 99 263s159 95 279 95z" />
    <glyph glyph-name="four.tf" 
d="M670 1116h140v-746h148v-122h-148v-248h-150v248h-536v104zM276 370h384v534z" />
    <glyph glyph-name="five.tf" 
d="M246 1116h618v-132h-494l-24 -334c61 43 145 68 238 68c237 0 354 -163 354 -366c0 -201 -119 -372 -384 -372c-123 0 -217 33 -284 100s-100 158 -100 274h148c0 -160 85 -250 234 -250c79 0 137 23 176 68s58 104 58 176c0 149 -80 248 -240 248
c-112 0 -197 -50 -250 -106l-90 18z" />
    <glyph glyph-name="six.tf" 
d="M558 1136c227 0 352 -153 352 -356h-148c0 65 -17 120 -51 165s-86 67 -157 67c-160 0 -267 -128 -272 -432c75 64 164 104 276 104c208 0 350 -144 350 -350c0 -213 -149 -354 -366 -354c-264 0 -412 206 -412 574c0 195 39 340 118 437s182 145 310 145zM530 560
c-77 0 -177 -27 -246 -96c16 -259 124 -360 262 -360c61 0 112 19 152 58s60 94 60 166c0 76 -22 134 -65 173s-98 59 -163 59z" />
    <glyph glyph-name="seven.tf" 
d="M156 1116h728v-116c-243 -248 -344 -555 -344 -942v-58h-158v90c0 362 154 719 334 894h-560v132z" />
    <glyph glyph-name="eight.tf" 
d="M520 1136c244 0 370 -145 370 -310c0 -117 -63 -213 -178 -258c55 -19 102 -51 141 -96s59 -104 59 -176c0 -170 -125 -316 -392 -316s-392 146 -392 316c0 72 19 131 58 176s85 77 140 96c-112 45 -176 141 -176 258c0 165 125 310 370 310zM520 506
c-155 0 -242 -84 -242 -204c0 -117 82 -198 242 -198s242 79 242 196c0 60 -21 109 -63 148s-102 58 -179 58zM520 1012c-152 0 -220 -80 -220 -192c0 -115 71 -194 220 -194s220 79 220 194c0 112 -68 192 -220 192z" />
    <glyph glyph-name="nine.tf" 
d="M498 1136c261 0 412 -202 412 -578c0 -381 -153 -578 -420 -578c-229 0 -360 153 -360 356h148c0 -65 18 -120 53 -165s90 -67 163 -67c163 0 256 126 264 430c-75 -68 -165 -102 -270 -102c-208 0 -356 139 -356 352c0 210 149 352 366 352zM510 556c77 0 177 27 246 96
c-16 258 -125 360 -262 360c-61 0 -112 -19 -152 -58s-60 -94 -60 -166c0 -76 22 -134 65 -173s98 -59 163 -59z" />
    <glyph glyph-name="at.alt02" horiz-adv-x="1792" 
d="M872 -20c-185 0 -362 121 -362 452s177 458 362 458c69 0 126 -14 171 -41s78 -56 101 -87v108h124v-706c0 -56 28 -72 68 -72c130 0 220 177 220 444c0 407 -233 592 -606 592c-428 0 -702 -242 -702 -688s271 -684 682 -684c88 0 167 8 237 24s120 31 149 46v-108
c-29 -15 -79 -29 -150 -44s-150 -22 -238 -22c-523 0 -808 345 -808 788c0 441 284 792 826 792c452 0 730 -243 730 -688c0 -306 -123 -564 -356 -564c-115 0 -175 57 -186 124c-25 -31 -59 -59 -101 -85s-96 -39 -161 -39zM1118 196v478c-48 53 -119 86 -210 86
c-163 0 -246 -116 -246 -324s83 -326 246 -326c91 0 162 35 210 86z" />
    <glyph glyph-name="apple" horiz-adv-x="1496" 
 />
    <glyph glyph-name="caron.slovak" horiz-adv-x="812" 
 />
    <glyph glyph-name="IJacute" horiz-adv-x="1144" 
d="M160 632v484h156v-484h-156zM572 -20c-267 0 -412 120 -412 408h156c0 -192 75 -272 256 -272c89 0 154 23 195 68s61 124 61 236v696h156v-688c0 -176 -31 -273 -100 -342c-71 -71 -175 -106 -312 -106zM154 1258l110 254h186l-212 -254h-84zM822 1258l110 254h186
l-212 -254h-84z" />
    <glyph glyph-name="ijacute" horiz-adv-x="928" 
d="M150 1044l110 254h186l-212 -254h-84zM614 1044l110 254h186l-212 -254h-84zM156 0v870h150v-870h-150z" />
    <glyph glyph-name="a.alt02" horiz-adv-x="1012" 
d="M734 0v110c-23 -32 -57 -62 -102 -89s-102 -41 -170 -41c-185 0 -362 121 -362 452s177 458 362 458c69 0 126 -14 171 -41s78 -56 101 -87v108h124v-870h-124zM708 196v478c-48 53 -119 86 -210 86c-163 0 -246 -116 -246 -324s83 -326 246 -326c91 0 162 35 210 86z
" />
    <glyph glyph-name="aacute.alt02" horiz-adv-x="1012" 
d="M734 0v110c-23 -32 -57 -62 -102 -89s-102 -41 -170 -41c-185 0 -362 121 -362 452s177 458 362 458c69 0 126 -14 171 -41s78 -56 101 -87v108h124v-870h-124zM708 196v478c-48 53 -119 86 -210 86c-163 0 -246 -116 -246 -324s83 -326 246 -326c91 0 162 35 210 86z
M408 1044l110 254h186l-212 -254h-84z" />
    <glyph glyph-name="agrave.alt02" horiz-adv-x="1012" 
d="M734 0v110c-23 -32 -57 -62 -102 -89s-102 -41 -170 -41c-185 0 -362 121 -362 452s177 458 362 458c69 0 126 -14 171 -41s78 -56 101 -87v108h124v-870h-124zM708 196v478c-48 53 -119 86 -210 86c-163 0 -246 -116 -246 -324s83 -326 246 -326c91 0 162 35 210 86z
M494 1044l-212 254h186l110 -254h-84z" />
    <glyph glyph-name="acircumflex.alt02" horiz-adv-x="1012" 
d="M734 0v110c-23 -32 -57 -62 -102 -89s-102 -41 -170 -41c-185 0 -362 121 -362 452s177 458 362 458c69 0 126 -14 171 -41s78 -56 101 -87v108h124v-870h-124zM708 196v478c-48 53 -119 86 -210 86c-163 0 -246 -116 -246 -324s83 -326 246 -326c91 0 162 35 210 86z
M220 1034l216 266h112l216 -266h-98l-174 142l-174 -142h-98z" />
    <glyph glyph-name="adieresis.alt02" horiz-adv-x="1012" 
d="M228 1086v168h172v-168h-172zM584 1086v168h172v-168h-172zM734 0v110c-23 -32 -57 -62 -102 -89s-102 -41 -170 -41c-185 0 -362 121 -362 452s177 458 362 458c69 0 126 -14 171 -41s78 -56 101 -87v108h124v-870h-124zM708 196v478c-48 53 -119 86 -210 86
c-163 0 -246 -116 -246 -324s83 -326 246 -326c91 0 162 35 210 86z" />
    <glyph glyph-name="atilde.alt02" horiz-adv-x="1012" 
d="M734 0v110c-23 -32 -57 -62 -102 -89s-102 -41 -170 -41c-185 0 -362 121 -362 452s177 458 362 458c69 0 126 -14 171 -41s78 -56 101 -87v108h124v-870h-124zM708 196v478c-48 53 -119 86 -210 86c-163 0 -246 -116 -246 -324s83 -326 246 -326c91 0 162 35 210 86z
M230 1094v98c27 51 79 90 140 90c119 0 169 -112 256 -112c53 0 99 35 128 72v-98c-27 -51 -79 -90 -140 -90c-119 0 -169 112 -256 112c-53 0 -99 -35 -128 -72z" />
    <glyph glyph-name="aring.alt02" horiz-adv-x="1012" 
d="M492 1078c61 0 108 42 108 114s-47 114 -108 114s-108 -42 -108 -114s47 -114 108 -114zM492 992c-101 0 -200 77 -200 200s99 200 200 200s200 -77 200 -200s-99 -200 -200 -200zM734 0v110c-23 -32 -57 -62 -102 -89s-102 -41 -170 -41c-185 0 -362 121 -362 452
s177 458 362 458c69 0 126 -14 171 -41s78 -56 101 -87v108h124v-870h-124zM708 196v478c-48 53 -119 86 -210 86c-163 0 -246 -116 -246 -324s83 -326 246 -326c91 0 162 35 210 86z" />
    <glyph glyph-name="amacron.alt02" horiz-adv-x="1012" 
 />
    <glyph glyph-name="abreve.alt02" horiz-adv-x="1012" 
 />
    <glyph glyph-name="aogonek.alt02" horiz-adv-x="1012" 
 />
    <glyph glyph-name="g.alt02" horiz-adv-x="1012" 
d="M708 -34v126c-20 -24 -50 -49 -90 -74s-93 -38 -158 -38c-184 0 -360 127 -360 452s175 458 364 458c67 0 122 -13 166 -40s79 -56 104 -88v108h124v-916c0 -219 -66 -370 -370 -370c-213 0 -366 74 -366 300h148c0 -125 70 -180 214 -180c221 0 224 129 224 262z
M708 196v478c-48 53 -121 86 -206 86c-165 0 -250 -121 -250 -324c0 -205 85 -326 250 -326c85 0 158 33 206 86z" />
    <glyph glyph-name="gbreve.alt02" horiz-adv-x="1012" 
 />
    <glyph glyph-name="gcircumflex.alt02" horiz-adv-x="1012" 
 />
    <glyph glyph-name="gcommaaccent.alt02" horiz-adv-x="1012" 
 />
    <glyph glyph-name="gdotaccent.alt02" horiz-adv-x="1012" 
 />
    <glyph glyph-name="grave.case" horiz-adv-x="812" 
d="M470 1258l-212 254h186l110 -254h-84z" />
    <glyph glyph-name="acute.case" horiz-adv-x="812" 
d="M258 1258l110 254h186l-212 -254h-84z" />
    <glyph glyph-name="dieresis.case" horiz-adv-x="812" 
d="M142 1300v168h172v-168h-172zM498 1300v168h172v-168h-172z" />
    <glyph glyph-name="circumflex.case" horiz-adv-x="812" 
d="M134 1248l216 266h112l216 -266h-98l-174 142l-174 -142h-98z" />
    <glyph glyph-name="tilde.case" horiz-adv-x="812" 
d="M144 1308v98c27 51 79 90 140 90c119 0 169 -112 256 -112c53 0 99 35 128 72v-98c-27 -51 -79 -90 -140 -90c-119 0 -169 112 -256 112c-53 0 -99 -35 -128 -72z" />
    <glyph glyph-name="macron.case" horiz-adv-x="812" 
 />
    <glyph glyph-name="breve.case" horiz-adv-x="812" 
 />
    <glyph glyph-name="dotaccent.case" horiz-adv-x="812" 
 />
    <glyph glyph-name="ring.case" horiz-adv-x="812" 
d="M406 1292c61 0 108 42 108 114s-47 114 -108 114s-108 -42 -108 -114s47 -114 108 -114zM406 1206c-101 0 -200 77 -200 200s99 200 200 200s200 -77 200 -200s-99 -200 -200 -200z" />
    <glyph glyph-name="hungarumlaut.case" horiz-adv-x="812" 
 />
    <glyph glyph-name="caron.case" horiz-adv-x="812" 
d="M350 1248l-216 266h98l174 -142l174 142h98l-216 -266h-112z" />
    <glyph glyph-name="Euro.tf" 
d="M56 658v90h124c23 120 67 215 134 284s156 104 268 104c212 0 366 -135 382 -370h-146c-11 134 -79 246 -232 246c-154 0 -227 -115 -254 -264h286v-90h-298c-5 -35 -4 -68 -4 -100c0 -35 -1 -68 4 -100h298v-90h-286c27 -149 100 -264 254 -264c153 0 221 112 232 246
h146c-16 -235 -170 -370 -382 -370c-224 0 -357 145 -402 388h-124v90h114c-5 32 -4 65 -4 100s-1 68 4 100h-114z" />
    <glyph glyph-name="cent.tf" 
d="M764 298h142c-8 -97 -41 -173 -99 -226s-131 -83 -219 -90v-208h-98v210c-168 16 -346 127 -346 452c0 323 178 434 346 450v212h98v-210c88 -7 161 -37 219 -90s91 -128 99 -224h-142c-3 47 -19 89 -48 126s-74 59 -134 66v-662c120 16 177 98 182 194zM290 436
c0 -200 73 -311 206 -332v660c-133 -21 -206 -133 -206 -328z" />
    <glyph glyph-name="dollar.tf" 
d="M94 328h150c11 -148 117 -206 238 -222v402l-96 28c-81 24 -146 59 -194 105s-72 109 -72 189c0 202 166 293 358 304v208h98v-210c205 -21 329 -138 342 -338h-148c-7 72 -29 124 -67 156s-82 51 -133 58v-380l116 -34c81 -24 146 -59 194 -104s72 -109 72 -192
c0 -219 -176 -305 -376 -316v-208h-98v208c-108 9 -197 42 -267 99s-109 139 -117 247zM634 468l-64 18v-384c157 5 234 84 234 188c0 87 -57 146 -170 178zM268 840c0 -87 57 -146 170 -178l44 -12v364c-141 -5 -214 -73 -214 -174z" />
    <glyph glyph-name="florin.tf" 
d="M602 602l-60 -328c-37 -208 -126 -294 -286 -294c-147 0 -196 78 -196 172c0 24 2 45 6 64h126c-3 -13 -4 -27 -4 -46c0 -59 29 -78 72 -78c80 0 113 70 134 182l60 328h-146l20 110h144l24 130c37 208 126 294 286 294c147 0 196 -78 196 -172c0 -25 -2 -47 -6 -64h-126
c3 13 4 27 4 46c0 59 -29 78 -72 78c-80 0 -113 -70 -134 -182l-22 -130h194l-20 -110h-194z" />
    <glyph glyph-name="sterling.tf" 
d="M162 476v108h120c-21 37 -42 75 -62 113s-30 82 -30 133c0 167 137 306 366 306c182 2 359 -86 372 -358h-148c-11 176 -103 238 -222 238c-136 0 -216 -78 -216 -190c0 -44 10 -85 29 -124s40 -78 61 -118h292v-108h-246c5 -29 12 -55 12 -84c0 -112 -62 -213 -150 -272
h608v-120h-812v100c139 69 212 177 212 292c0 29 -6 57 -14 84h-172z" />
    <glyph glyph-name="yen.tf" 
d="M124 440v96h264l-348 580h170l314 -546l314 546h166l-348 -580h264v-96h-322v-154h322v-96h-322v-190h-152v190h-322v96h322v154h-322z" />
    <glyph glyph-name="jacute" horiz-adv-x="466" 
 />
    <glyph glyph-name="Jacute" horiz-adv-x="962" 
 />
    <glyph glyph-name="bbox" horiz-adv-x="80" 
 />
    </font>
</defs>
</svg>
