<?xml version="1.0" standalone="no"?>
<!DOCTYPE svg PUBLIC "-//W3C//DTD SVG 1.1//EN" "http://www.w3.org/Graphics/SVG/1.1/DTD/svg11.dtd" >
<svg xmlns="http://www.w3.org/2000/svg" width="100%" height="100%">
<metadata>
Created by FontXChange 20110222 at Sat Apr 16 11:47:29 2016
 By jasecoop
Webtype Web Use Only
</metadata>
<defs>
<font id="NittiGrotesk-Medium" horiz-adv-x="1040" >
  <font-face 
    font-family="NittiGrotesk"
    font-weight="500"
    font-stretch="normal"
    units-per-em="2048"
    panose-1="2 11 6 3 6 0 0 6 0 3"
    ascent="1630"
    descent="-418"
    x-height="878"
    cap-height="1116"
    bbox="-48 -416 2098 1638"
    underline-thickness="88"
    underline-position="-224"
    stemh="150"
    stemv="128"
    unicode-range="U+000D-FB02"
  />
<missing-glyph 
 />
    <glyph glyph-name=".notdef" 
 />
    <glyph glyph-name="uni0000" horiz-adv-x="0" 
 />
    <glyph glyph-name="uni0000" horiz-adv-x="0" 
 />
    <glyph glyph-name="nonmarkingreturn" unicode="&#xd;" horiz-adv-x="430" 
 />
    <glyph glyph-name="space" unicode=" " horiz-adv-x="430" 
 />
    <glyph glyph-name="exclam" unicode="!" horiz-adv-x="580" 
d="M266 342l-74 374v400h196v-400l-74 -374h-48zM180 0v220h220v-220h-220z" />
    <glyph glyph-name="quotedbl" unicode="&#x22;" horiz-adv-x="856" 
d="M236 700l-82 496h214l-82 -496h-50zM570 700l-82 496h214l-82 -496h-50z" />
    <glyph glyph-name="numbersign" unicode="#" horiz-adv-x="1042" 
d="M460 706l-54 -272h186l52 272h-184zM162 702l26 136h154l54 278h146l-54 -278h178l54 278h148l-54 -278h152l-26 -136h-152l-52 -264h152l-26 -136h-152l-58 -302h-148l58 302h-178l-58 -302h-146l58 302h-154l26 136h154l52 264h-154z" />
    <glyph glyph-name="dollar" unicode="$" horiz-adv-x="1094" 
d="M100 334h190c4 -64 27 -112 68 -143s90 -52 146 -61v360l-102 28c-173 48 -276 141 -276 304c0 194 158 296 366 312v216h120v-218c211 -21 339 -144 352 -344h-188c-11 125 -83 182 -176 198v-342l116 -32c87 -24 155 -60 204 -107s74 -114 74 -199
c0 -208 -167 -308 -382 -324v-216h-120v218c-113 9 -205 43 -275 101s-109 141 -117 249zM640 456l-40 10v-340c136 8 210 75 210 168c0 80 -57 134 -170 162zM310 836c0 -80 53 -127 168 -162l26 -8v324c-128 -5 -194 -63 -194 -154z" />
    <glyph glyph-name="percent" unicode="%" horiz-adv-x="1532" 
d="M368 616c101 0 146 73 146 198s-45 198 -146 198s-146 -73 -146 -198s45 -198 146 -198zM368 492c-141 0 -286 77 -286 322s145 322 286 322c139 0 286 -77 286 -322s-147 -322 -286 -322zM326 0l722 1116h158l-722 -1116h-158zM1164 104c101 0 146 73 146 198
s-45 198 -146 198s-146 -73 -146 -198s45 -198 146 -198zM1164 -20c-141 0 -286 77 -286 322s145 322 286 322c139 0 286 -77 286 -322s-147 -322 -286 -322z" />
    <glyph glyph-name="ampersand" unicode="&#x26;" horiz-adv-x="1140" 
d="M884 0l-84 98c-93 -72 -210 -118 -354 -118c-242 0 -372 127 -372 296c0 176 145 267 284 342c-33 39 -64 80 -93 123s-43 92 -43 147c0 133 103 248 300 248c92 0 165 -23 220 -69s82 -107 82 -183c0 -139 -101 -212 -242 -288l234 -268c40 72 64 163 64 270h164
c-3 -120 -39 -259 -130 -382l190 -216h-220zM478 126c87 0 164 26 232 78l-268 314c-109 -61 -180 -121 -180 -222c0 -109 80 -170 216 -170zM396 886c0 -69 39 -122 100 -194c59 33 99 64 121 92s33 59 33 94c0 83 -51 126 -128 126s-126 -43 -126 -118z" />
    <glyph glyph-name="quotesingle" unicode="'" horiz-adv-x="522" 
d="M236 700l-82 496h214l-82 -496h-50z" />
    <glyph glyph-name="parenleft" unicode="(" horiz-adv-x="618" 
d="M664 -356h-202c-238 249 -318 561 -318 810s80 561 318 810h202c-266 -266 -344 -563 -344 -810c0 -244 77 -548 344 -810z" />
    <glyph glyph-name="parenright" unicode=")" horiz-adv-x="618" 
d="M156 -356h-202c267 262 344 566 344 810c0 247 -78 544 -344 810h202c238 -249 318 -561 318 -810s-80 -561 -318 -810z" />
    <glyph glyph-name="asterisk" unicode="*" horiz-adv-x="672" 
d="M396 1196l-16 -238l222 88l36 -110l-228 -58l150 -184l-94 -66l-130 204l-130 -204l-94 66l150 184l-228 58l36 110l222 -88l-16 238h120z" />
    <glyph glyph-name="plus" unicode="+" 
d="M122 396v152h316v320h164v-320h316v-152h-316v-322h-164v322h-316z" />
    <glyph glyph-name="comma" unicode="," horiz-adv-x="568" 
d="M156 -320l128 320h-110v220h220v-220l-134 -320h-104z" />
    <glyph glyph-name="hyphen" unicode="-" horiz-adv-x="718" 
d="M120 378v174h478v-174h-478z" />
    <glyph glyph-name="period" unicode="." horiz-adv-x="568" 
d="M174 0v220h220v-220h-220z" />
    <glyph glyph-name="slash" unicode="/" horiz-adv-x="660" 
d="M-8 -128l516 1392h160l-516 -1392h-160z" />
    <glyph glyph-name="zero" unicode="0" horiz-adv-x="1128" 
d="M564 976c-192 0 -246 -173 -246 -418s54 -418 246 -418s246 173 246 418s-54 418 -246 418zM564 1136c306 0 444 -221 444 -578s-138 -578 -444 -578s-444 221 -444 578s138 578 444 578z" />
    <glyph glyph-name="one" unicode="1" horiz-adv-x="700" 
d="M358 1116h174v-1116h-198v856c-27 -28 -66 -53 -119 -75s-112 -33 -177 -33v162c163 5 277 103 320 206z" />
    <glyph glyph-name="two" unicode="2" horiz-adv-x="928" 
d="M462 1136c123 0 216 -30 280 -91s96 -139 96 -235c0 -169 -99 -273 -242 -368l-154 -106c-69 -48 -119 -102 -130 -174h540v-162h-758v64c0 184 92 308 236 404l150 100c47 31 86 64 119 100s49 83 49 140c0 112 -68 176 -196 176c-133 0 -203 -75 -206 -214h-184
c0 117 36 208 108 271s169 95 292 95z" />
    <glyph glyph-name="three" unicode="3" horiz-adv-x="976" 
d="M478 1136c245 0 380 -136 380 -312c0 -115 -55 -208 -164 -256c112 -37 188 -130 188 -266c0 -184 -138 -322 -400 -322c-264 0 -412 137 -412 374h186c3 -155 89 -222 222 -222c131 0 212 66 212 178s-80 182 -232 182h-90v146h92c136 0 208 65 208 172
s-68 174 -196 174c-125 0 -203 -66 -206 -210h-186c0 115 36 204 107 267s168 95 291 95z" />
    <glyph glyph-name="four" unicode="4" horiz-adv-x="950" 
d="M570 1116h176v-730h160v-150h-160v-236h-190v236h-534v128zM208 386h348v474z" />
    <glyph glyph-name="five" unicode="5" horiz-adv-x="980" 
d="M178 1116h656v-162h-498l-22 -296c59 40 137 64 230 64c238 0 366 -160 366 -368c0 -210 -132 -374 -404 -374c-125 0 -225 33 -298 98s-110 157 -110 276h186c0 -162 100 -222 216 -222c144 0 218 89 218 220c0 133 -79 220 -228 220c-93 0 -176 -35 -240 -94l-114 26z
" />
    <glyph glyph-name="six" unicode="6" horiz-adv-x="1050" 
d="M564 1136c222 0 380 -131 380 -360h-186c0 60 -16 110 -49 149s-81 59 -145 59c-152 0 -245 -121 -250 -390c69 59 167 94 268 94c201 0 358 -135 358 -350c0 -219 -157 -358 -386 -358c-280 0 -434 204 -434 572c0 192 40 337 120 436s188 148 324 148zM538 540
c-72 0 -153 -23 -222 -82c16 -235 110 -326 240 -326c57 0 105 18 142 53s56 85 56 149c0 68 -21 119 -62 154s-93 52 -154 52z" />
    <glyph glyph-name="seven" unicode="7" horiz-adv-x="788" 
d="M20 1116h746v-144c-235 -243 -328 -547 -328 -918v-54h-202v88c0 350 144 695 320 866h-536v162z" />
    <glyph glyph-name="eight" unicode="8" horiz-adv-x="1024" 
d="M512 1136c251 0 392 -143 392 -314c0 -109 -55 -205 -172 -256c112 -40 194 -132 194 -268c0 -176 -142 -318 -414 -318s-414 142 -414 318c0 136 80 228 192 268c-115 51 -170 147 -170 256c0 171 141 314 392 314zM512 494c-139 0 -224 -72 -224 -184s83 -180 224 -180
s224 68 224 180s-85 184 -224 184zM512 986c-133 0 -204 -69 -204 -176c0 -104 71 -174 204 -174s204 70 204 174c0 107 -71 176 -204 176z" />
    <glyph glyph-name="nine" unicode="9" horiz-adv-x="1048" 
d="M496 1136c272 0 432 -193 432 -580c0 -381 -156 -576 -436 -576c-248 0 -386 152 -386 360h184c0 -60 17 -110 50 -149s84 -59 152 -59c155 0 234 117 242 386c-72 -60 -160 -90 -264 -90c-210 0 -364 136 -364 350c0 219 163 358 390 358zM508 576c69 0 155 21 224 80
c-7 117 -33 201 -78 252s-99 76 -162 76c-57 0 -105 -18 -142 -53s-56 -85 -56 -149c0 -136 89 -206 214 -206z" />
    <glyph glyph-name="colon" unicode=":" horiz-adv-x="612" 
d="M196 0v220h220v-220h-220zM196 658v220h220v-220h-220z" />
    <glyph glyph-name="semicolon" unicode=";" horiz-adv-x="612" 
d="M178 -320l128 320h-110v220h220v-220l-134 -320h-104zM196 658v220h220v-220h-220z" />
    <glyph glyph-name="less" unicode="&#x3c;" 
d="M130 402v118l780 400v-160l-590 -296l590 -296v-166z" />
    <glyph glyph-name="equal" unicode="=" 
d="M142 590v150h756v-150h-756zM142 204v150h756v-150h-756z" />
    <glyph glyph-name="greater" unicode="&#x3e;" 
d="M910 520v-118l-780 -400v160l590 296l-590 296v166z" />
    <glyph glyph-name="question" unicode="?" horiz-adv-x="868" 
d="M308 0v220h220v-220h-220zM338 340v16c0 181 68 232 152 300c27 23 50 46 70 69s30 56 30 99c0 88 -49 156 -172 156c-146 0 -192 -96 -192 -208h-170c0 117 35 207 104 270s160 94 272 94c240 0 350 -149 350 -304c0 -152 -104 -230 -178 -288c-31 -25 -56 -51 -77 -77
s-31 -63 -31 -111v-16h-158z" />
    <glyph glyph-name="at" unicode="@" horiz-adv-x="1830" 
d="M1096 204v196l-166 -18c-125 -13 -198 -55 -198 -146c0 -72 47 -116 146 -116c88 0 157 33 218 84zM1126 116c-42 -63 -152 -136 -304 -136c-176 0 -280 96 -280 248c0 211 208 257 350 268l204 18v24c0 135 -22 212 -164 212c-128 0 -172 -60 -172 -172h-184
c5 263 205 320 376 320c256 0 334 -127 334 -340v-368c0 -49 22 -74 66 -74c123 0 226 152 226 424c0 411 -239 586 -610 586c-432 0 -708 -242 -708 -688c0 -443 267 -674 690 -674c190 0 356 45 418 76v-122c-62 -31 -234 -72 -424 -72c-544 0 -828 344 -828 790
c0 451 294 808 854 808c461 0 748 -241 748 -700c0 -320 -140 -564 -394 -564c-128 0 -187 61 -198 136z" />
    <glyph glyph-name="A" unicode="A" horiz-adv-x="1150" 
d="M52 0l416 1116h214l416 -1116h-210l-82 236h-470l-82 -236h-202zM386 388h368l-184 530z" />
    <glyph glyph-name="B" unicode="B" horiz-adv-x="1154" 
d="M168 0v1116h426c261 0 404 -106 404 -306c0 -120 -55 -192 -148 -232c123 -37 194 -119 194 -260c0 -208 -148 -318 -420 -318h-456zM366 160h238c91 0 153 14 186 43s50 70 50 123s-17 95 -50 124s-95 44 -186 44h-238v-334zM366 646h212c83 0 139 13 170 40
s46 65 46 116c0 49 -15 87 -46 114s-87 40 -170 40h-212v-310z" />
    <glyph glyph-name="C" unicode="C" horiz-adv-x="1188" 
d="M890 374h198c-16 -254 -211 -394 -472 -394c-333 0 -500 233 -500 578s167 578 500 578c261 0 456 -140 472 -394h-198c-11 117 -98 222 -270 222c-242 0 -300 -203 -300 -406s58 -406 300 -406c172 0 259 105 270 222z" />
    <glyph glyph-name="D" unicode="D" horiz-adv-x="1202" 
d="M168 0v1116h370c373 0 548 -224 548 -558s-175 -558 -548 -558h-370zM366 164h172c278 0 344 202 344 394s-66 394 -344 394h-172v-788z" />
    <glyph glyph-name="E" unicode="E" horiz-adv-x="1046" 
d="M168 0v1116h768v-168h-570v-296h468v-164h-468v-320h570v-168h-768z" />
    <glyph glyph-name="F" unicode="F" horiz-adv-x="994" 
d="M168 0v1116h726v-168h-528v-294h450v-168h-450v-486h-198z" />
    <glyph glyph-name="G" unicode="G" horiz-adv-x="1256" 
d="M630 -20c-161 0 -287 50 -378 149s-136 241 -136 425c0 392 210 582 510 582c249 0 449 -130 476 -370h-200c-7 56 -32 103 -77 142s-109 58 -193 58c-237 0 -316 -175 -316 -410c0 -233 84 -406 326 -406c199 0 270 122 280 258h-284v154h476v-562h-154v146
c-75 -128 -212 -166 -330 -166z" />
    <glyph glyph-name="H" unicode="H" horiz-adv-x="1238" 
d="M168 0v1116h198v-460h506v460h198v-1116h-198v486h-506v-486h-198z" />
    <glyph glyph-name="I" unicode="I" horiz-adv-x="670" 
d="M88 0v130h148v856h-148v130h494v-130h-148v-856h148v-130h-494z" />
    <glyph glyph-name="J" unicode="J" horiz-adv-x="980" 
d="M170 946v170h662v-756c0 -141 -29 -223 -88 -282c-72 -72 -171 -98 -294 -98c-119 0 -212 29 -280 87s-102 153 -102 285v80h198v-80c0 -152 59 -208 184 -208s184 53 184 208v594h-464z" />
    <glyph glyph-name="K" unicode="K" horiz-adv-x="1108" 
d="M168 0v1116h198v-512l464 512h240l-412 -440l438 -676h-232l-340 534l-158 -170v-364h-198z" />
    <glyph glyph-name="L" unicode="L" horiz-adv-x="930" 
d="M168 0v1116h198v-946h516v-170h-714z" />
    <glyph glyph-name="M" unicode="M" horiz-adv-x="1400" 
d="M168 0v1116h246l292 -574l294 574h232v-1116h-188v858l-282 -550h-124l-282 550v-858h-188z" />
    <glyph glyph-name="N" unicode="N" horiz-adv-x="1244" 
d="M168 0v1116h236l484 -858v858h188v-1116h-236l-484 858v-858h-188z" />
    <glyph glyph-name="O" unicode="O" horiz-adv-x="1272" 
d="M636 152c254 0 316 206 316 406c0 199 -62 406 -316 406s-316 -207 -316 -406c0 -200 62 -406 316 -406zM636 -20c-350 0 -520 233 -520 578s170 578 520 578s520 -233 520 -578s-170 -578 -520 -578z" />
    <glyph glyph-name="P" unicode="P" horiz-adv-x="1090" 
d="M168 0v1116h366c149 0 266 -29 349 -88s125 -150 125 -274s-42 -215 -125 -274s-200 -88 -349 -88h-168v-392h-198zM366 556h164c101 0 172 16 212 48s60 82 60 150s-20 118 -60 150s-111 48 -212 48h-164v-396z" />
    <glyph glyph-name="Q" unicode="Q" horiz-adv-x="1280" 
d="M636 -20c-350 0 -520 233 -520 578s170 578 520 578c347 0 518 -233 518 -578c0 -168 -41 -299 -116 -398l142 -142l-122 -122l-150 150c-76 -44 -167 -66 -272 -66zM636 150c55 0 103 9 144 28l-150 150l120 118l148 -150c37 69 52 161 52 262c0 199 -63 406 -314 406
c-254 0 -316 -207 -316 -406c0 -201 62 -408 316 -408z" />
    <glyph glyph-name="R" unicode="R" horiz-adv-x="1142" 
d="M168 0v1116h366c149 0 266 -29 349 -88s125 -150 125 -274c0 -179 -102 -281 -254 -324l314 -430h-234l-274 392h-194v-392h-198zM366 556h164c101 0 172 16 212 48s60 82 60 150s-20 118 -60 150s-111 48 -212 48h-164v-396z" />
    <glyph glyph-name="S" unicode="S" horiz-adv-x="1080" 
d="M100 334h200c11 -150 143 -196 266 -196c147 0 222 63 222 156c0 76 -51 128 -154 156l-236 66c-181 51 -272 152 -272 304c0 224 191 316 404 316c238 0 406 -119 422 -348h-200c-11 147 -122 190 -236 190c-128 0 -192 -53 -192 -144c0 -77 45 -127 154 -156l234 -66
c173 -48 274 -136 274 -304c0 -242 -209 -328 -430 -328c-256 0 -440 120 -456 354z" />
    <glyph glyph-name="T" unicode="T" horiz-adv-x="946" 
d="M374 0v946h-336v170h870v-170h-336v-946h-198z" />
    <glyph glyph-name="U" unicode="U" horiz-adv-x="1200" 
d="M148 406v710h198v-684c0 -103 21 -175 62 -217s105 -63 192 -63c85 0 149 21 191 63s63 114 63 217v684h198v-710c0 -149 -40 -258 -120 -325s-191 -101 -332 -101s-252 34 -332 101s-120 176 -120 325z" />
    <glyph glyph-name="V" unicode="V" horiz-adv-x="1066" 
d="M420 0l-392 1116h208l300 -906l300 906h202l-392 -1116h-226z" />
    <glyph glyph-name="W" unicode="W" horiz-adv-x="1616" 
d="M368 0l-310 1116h194l230 -878l226 878h208l228 -878l228 878h186l-310 -1116h-212l-228 870l-228 -870h-212z" />
    <glyph glyph-name="X" unicode="X" horiz-adv-x="1074" 
d="M40 0l384 574l-362 542h224l258 -390l256 390h212l-362 -542l384 -574h-224l-280 424l-278 -424h-212z" />
    <glyph glyph-name="Y" unicode="Y" horiz-adv-x="1042" 
d="M422 0v438l-406 678h218l290 -506l292 506h210l-406 -678v-438h-198z" />
    <glyph glyph-name="Z" unicode="Z" horiz-adv-x="1016" 
d="M86 0v160l586 786h-562v170h802v-160l-586 -786h610v-170h-850z" />
    <glyph glyph-name="bracketleft" unicode="[" horiz-adv-x="596" 
d="M188 -356v1620h402v-138h-232v-1344h232v-138h-402z" />
    <glyph glyph-name="backslash" unicode="\" horiz-adv-x="660" 
d="M508 -128l-516 1392h160l516 -1392h-160z" />
    <glyph glyph-name="bracketright" unicode="]" horiz-adv-x="596" 
d="M6 -356v138h232v1344h-232v138h402v-1620h-402z" />
    <glyph glyph-name="asciicircum" unicode="^" horiz-adv-x="864" 
d="M60 510l312 606h120l312 -606h-162l-214 428l-212 -428h-156z" />
    <glyph glyph-name="underscore" unicode="_" horiz-adv-x="926" 
d="M66 -152v152h794v-152h-794z" />
    <glyph glyph-name="grave" unicode="`" horiz-adv-x="832" 
d="M490 1046l-244 270h218l122 -270h-96z" />
    <glyph glyph-name="a" unicode="a" horiz-adv-x="976" 
d="M632 204v196l-166 -18c-125 -13 -198 -55 -198 -146c0 -72 47 -116 146 -116c88 0 157 33 218 84zM664 104v12c-47 -62 -153 -136 -306 -136c-176 0 -280 96 -280 248c0 211 208 257 350 268l204 18v24c0 135 -22 212 -164 212c-128 0 -172 -60 -172 -172h-184
c5 263 205 320 376 320c256 0 334 -127 334 -340v-376c0 -35 17 -52 50 -52c24 0 51 7 72 18v-136c-29 -16 -79 -32 -138 -32c-118 0 -142 65 -142 124z" />
    <glyph glyph-name="b" unicode="b" horiz-adv-x="1036" 
d="M334 662v-446c45 -45 111 -74 188 -74c152 0 230 106 230 298s-78 296 -230 296c-77 0 -143 -29 -188 -74zM142 0v1324h192v-532c33 39 106 106 240 106c187 0 372 -125 372 -456c0 -334 -180 -462 -372 -462c-72 0 -130 14 -173 42s-74 57 -93 86v-108h-166z" />
    <glyph glyph-name="c" unicode="c" horiz-adv-x="966" 
d="M696 310h188c-16 -215 -164 -330 -374 -330c-193 0 -419 97 -420 460c1 364 227 459 420 458c210 0 358 -115 374 -330h-188c-3 47 -19 87 -50 120s-77 50 -138 50c-149 0 -224 -99 -224 -298c0 -197 75 -300 224 -300c61 0 107 17 138 50s47 73 50 120z" />
    <glyph glyph-name="d" unicode="d" horiz-adv-x="1036" 
d="M728 0v108c-19 -29 -50 -58 -93 -86s-101 -42 -173 -42c-187 0 -372 125 -372 456c0 334 180 462 372 462c134 0 207 -67 240 -106v532h192v-1324h-166zM702 216v446c-45 45 -111 74 -188 74c-152 0 -230 -104 -230 -296s78 -298 230 -298c77 0 143 29 188 74z" />
    <glyph glyph-name="e" unicode="e" horiz-adv-x="986" 
d="M282 526h426c-13 149 -87 226 -212 226c-128 0 -199 -75 -214 -226zM710 290h186c-32 -245 -243 -310 -396 -310c-208 0 -410 119 -410 460c0 347 212 458 404 458c187 0 406 -102 406 -456v-30h-620c4 -188 79 -282 226 -282c117 0 185 59 204 160z" />
    <glyph glyph-name="f" unicode="f" horiz-adv-x="562" 
d="M166 0v732h-134v146h134v182c0 165 78 284 268 284c52 0 87 -6 106 -18v-154c-19 5 -47 12 -74 12c-83 0 -108 -53 -108 -138v-168h182v-146h-182v-732h-192z" />
    <glyph glyph-name="g" unicode="g" horiz-adv-x="1008" 
d="M98 580c0 231 210 318 372 318c51 0 104 -9 159 -28s102 -49 141 -92c40 72 114 120 234 120v-176c-80 0 -138 -11 -178 -40c11 -32 16 -66 16 -102c0 -231 -210 -318 -372 -318c-48 0 -101 8 -152 24c-29 -13 -64 -45 -64 -82c0 -49 46 -74 138 -74h224
c174 0 320 -68 320 -244c0 -97 -41 -172 -122 -224s-193 -78 -334 -78c-137 0 -242 23 -314 68s-108 104 -108 176c0 51 16 91 47 121s66 52 105 67c-61 24 -112 73 -112 150c0 80 59 134 128 166c-75 53 -128 128 -128 248zM580 -26h-262c-45 -16 -88 -54 -88 -118
c0 -73 65 -134 252 -134c171 0 270 48 270 144c0 72 -52 108 -172 108zM658 580c0 112 -68 176 -188 176s-188 -64 -188 -176s68 -176 188 -176s188 64 188 176z" />
    <glyph glyph-name="h" unicode="h" horiz-adv-x="1026" 
d="M142 0v1324h192v-540c38 54 116 114 264 114c144 0 298 -61 298 -356v-542h-192v504c0 73 -12 130 -35 169s-70 59 -139 59c-99 0 -161 -41 -196 -78v-654h-192z" />
    <glyph glyph-name="i" unicode="i" horiz-adv-x="480" 
d="M144 0v878h192v-878h-192zM132 1132v192h216v-192h-216z" />
    <glyph glyph-name="j" unicode="j" horiz-adv-x="488" 
d="M-30 -398v154c19 -5 48 -12 72 -12c83 0 106 53 106 138v996h192v-1010c0 -83 -20 -151 -61 -204s-108 -80 -203 -80c-51 0 -87 7 -106 18zM136 1132v192h216v-192h-216z" />
    <glyph glyph-name="k" unicode="k" horiz-adv-x="966" 
d="M142 0v1324h192v-842l372 396h220l-326 -336l330 -542h-224l-240 416l-132 -138v-278h-192z" />
    <glyph glyph-name="l" unicode="l" horiz-adv-x="476" 
d="M142 0v1324h192v-1324h-192z" />
    <glyph glyph-name="m" unicode="m" horiz-adv-x="1524" 
d="M142 0v878h164v-114c45 75 128 134 272 134c92 0 190 -27 244 -136c53 77 142 136 286 136c139 0 286 -61 286 -356v-542h-192v504c0 73 -10 130 -30 169s-62 59 -126 59c-96 0 -155 -44 -190 -84c5 -32 8 -69 8 -106v-542h-192v504c0 75 -10 131 -31 170s-63 58 -127 58
c-91 0 -151 -41 -180 -78v-654h-192z" />
    <glyph glyph-name="n" unicode="n" horiz-adv-x="1026" 
d="M142 0v878h164v-114c48 75 138 134 290 134c146 0 300 -61 300 -356v-542h-192v504c0 73 -12 130 -35 169s-70 59 -139 59c-99 0 -161 -41 -196 -78v-654h-192z" />
    <glyph glyph-name="o" unicode="o" horiz-adv-x="1024" 
d="M512 140c152 0 228 100 228 300c0 199 -76 298 -228 298s-228 -99 -228 -298c0 -200 76 -300 228 -300zM512 -20c-197 0 -422 102 -422 460c0 357 225 458 422 458s422 -101 422 -458c0 -358 -225 -460 -422 -460z" />
    <glyph glyph-name="p" unicode="p" horiz-adv-x="1036" 
d="M142 -396v1274h166v-108c19 29 50 58 93 86s101 42 173 42c187 0 372 -125 372 -456c0 -334 -180 -462 -372 -462c-132 0 -209 65 -240 106v-482h-192zM334 662v-446c45 -45 111 -74 188 -74c152 0 230 104 230 296s-78 298 -230 298c-77 0 -143 -29 -188 -74z" />
    <glyph glyph-name="q" unicode="q" horiz-adv-x="1036" 
d="M702 -396v482c-31 -41 -108 -106 -240 -106c-187 0 -372 125 -372 456c0 334 180 462 372 462c72 0 130 -14 173 -42s74 -57 93 -86v108h166v-1274h-192zM702 216v446c-45 45 -111 74 -188 74c-152 0 -230 -106 -230 -298s78 -296 230 -296c77 0 143 29 188 74z" />
    <glyph glyph-name="r" unicode="r" horiz-adv-x="666" 
d="M142 0v878h164v-116c43 80 111 136 236 136c61 0 91 -13 104 -18v-168c-29 13 -75 24 -128 24c-99 0 -155 -39 -184 -82v-654h-192z" />
    <glyph glyph-name="s" unicode="s" horiz-adv-x="930" 
d="M86 284h188c5 -101 85 -166 208 -166c99 0 168 43 168 120c0 98 -104 106 -264 154c-126 37 -264 84 -264 254c0 181 170 252 338 252c97 0 178 -23 243 -68s100 -115 107 -208h-188c-5 83 -67 140 -168 140c-80 0 -144 -35 -144 -104c0 -91 113 -103 270 -146
c128 -37 260 -90 260 -262c0 -203 -186 -270 -362 -270c-217 0 -376 101 -392 304z" />
    <glyph glyph-name="t" unicode="t" horiz-adv-x="668" 
d="M162 260v472h-134v146h78c69 0 92 27 92 94v178h156v-272h260v-146h-260v-450c0 -93 25 -144 126 -144c45 0 95 9 122 22v-152c-27 -13 -90 -28 -162 -28c-210 0 -278 117 -278 280z" />
    <glyph glyph-name="u" unicode="u" horiz-adv-x="1018" 
d="M130 338v540h192v-502c0 -76 11 -133 33 -172s67 -58 135 -58c99 0 157 41 194 78v654h192v-878h-164v114c-24 -36 -59 -67 -104 -94s-106 -40 -182 -40c-144 0 -296 59 -296 358z" />
    <glyph glyph-name="v" unicode="v" horiz-adv-x="924" 
d="M358 0l-318 878h206l224 -676l222 676h192l-318 -878h-208z" />
    <glyph glyph-name="w" unicode="w" horiz-adv-x="1388" 
d="M314 0l-270 878h194l180 -674l180 674h202l180 -674l180 674h184l-270 -878h-202l-178 652l-178 -652h-202z" />
    <glyph glyph-name="x" unicode="x" horiz-adv-x="926" 
d="M24 0l332 458l-300 420h226l190 -276l184 276h208l-296 -410l334 -468h-226l-224 324l-220 -324h-208z" />
    <glyph glyph-name="y" unicode="y" horiz-adv-x="924" 
d="M84 -398v158c24 -8 61 -18 98 -18c69 0 109 29 146 130l38 104l-326 902h206l224 -676l222 676h192l-364 -1004c-53 -153 -125 -290 -324 -290c-56 0 -99 13 -112 18z" />
    <glyph glyph-name="z" unicode="z" horiz-adv-x="876" 
d="M86 0v128l456 600h-446v150h684v-128l-456 -600h468v-150h-706z" />
    <glyph glyph-name="braceleft" unicode="{" horiz-adv-x="634" 
d="M246 -40v260c0 125 -50 164 -162 164v140c112 0 162 39 162 164v260c0 247 100 326 388 326v-140c-160 0 -218 -18 -218 -208v-258c0 -101 -46 -185 -142 -214c96 -29 142 -113 142 -214v-258c0 -194 58 -208 218 -208v-140c-288 0 -388 79 -388 326z" />
    <glyph glyph-name="bar" unicode="|" horiz-adv-x="532" 
d="M188 -356v1620h156v-1620h-156z" />
    <glyph glyph-name="braceright" unicode="}" horiz-adv-x="634" 
d="M0 -366v140c160 0 218 14 218 208v258c0 101 46 185 142 214c-96 29 -142 113 -142 214v258c0 190 -58 208 -218 208v140c288 0 388 -79 388 -326v-260c0 -125 50 -164 162 -164v-140c-112 0 -162 -39 -162 -164v-260c0 -247 -100 -326 -388 -326z" />
    <glyph glyph-name="asciitilde" unicode="~" 
d="M268 322h-144c0 211 78 310 222 310c91 0 149 -44 200 -85s89 -85 140 -85c48 0 86 37 86 154h144c0 -211 -78 -310 -222 -310c-91 0 -149 44 -200 85s-89 85 -140 85c-48 0 -86 -37 -86 -154z" />
    <glyph glyph-name="uni00A0" unicode="&#xa0;" horiz-adv-x="430" 
 />
    <glyph glyph-name="exclamdown" unicode="&#xa1;" horiz-adv-x="580" 
d="M314 536l74 -374v-400h-196v400l74 374h48zM400 878v-220h-220v220h220z" />
    <glyph glyph-name="cent" unicode="&#xa2;" horiz-adv-x="976" 
d="M716 312h178c-8 -99 -42 -176 -101 -232s-135 -88 -227 -96v-220h-120v220c-174 21 -354 134 -354 456c0 320 180 433 354 454v222h120v-222c92 -9 168 -42 227 -97s93 -132 101 -231h-178c-5 85 -57 162 -164 178v-612c107 16 159 92 164 180zM278 440
c0 -181 61 -283 182 -306v610c-121 -23 -182 -124 -182 -304z" />
    <glyph glyph-name="sterling" unicode="&#xa3;" horiz-adv-x="994" 
d="M124 454v128h112c-23 36 -44 73 -64 110s-30 81 -30 132c0 171 144 312 384 312c192 0 376 -88 392 -362h-188c-4 81 -25 138 -62 170s-84 48 -140 48c-120 0 -192 -63 -192 -172c0 -44 10 -85 29 -123s39 -76 59 -115h300v-128h-248c4 -20 6 -40 6 -60
c0 -96 -51 -189 -136 -242h588v-152h-842v124c141 53 210 156 210 268c0 21 -3 41 -8 62h-170z" />
    <glyph glyph-name="currency" unicode="&#xa4;" 
d="M520 338c120 0 198 84 198 220s-78 220 -198 220s-198 -84 -198 -220s78 -220 198 -220zM520 192c-77 0 -149 17 -210 60l-128 -130l-94 94l128 130c-43 67 -60 135 -60 212s17 145 60 212l-128 130l94 94l128 -130c61 43 133 60 210 60s149 -17 210 -60l128 130l94 -94
l-128 -130c43 -67 60 -135 60 -212s-17 -145 -60 -212l128 -130l-94 -94l-128 130c-61 -43 -133 -60 -210 -60z" />
    <glyph glyph-name="yen" unicode="&#xa5;" horiz-adv-x="1076" 
d="M126 434v114h246l-334 568h216l288 -516l286 516h210l-336 -568h248v-114h-314v-140h314v-116h-314v-178h-196v178h-314v116h314v140h-314z" />
    <glyph glyph-name="brokenbar" unicode="&#xa6;" horiz-adv-x="532" 
d="M188 -356v642h156v-642h-156zM188 622v642h156v-642h-156z" />
    <glyph glyph-name="section" unicode="&#xa7;" horiz-adv-x="1004" 
d="M376 400l228 -100c15 -5 71 -36 102 -62c35 29 50 71 50 114c0 64 -42 115 -126 152l-228 100c-15 5 -71 36 -102 62c-35 -29 -50 -71 -50 -114c0 -64 42 -115 126 -152zM100 68h166c5 -109 84 -182 220 -182c107 0 182 43 182 128c0 39 -15 69 -44 92s-67 45 -114 66
l-232 104c-103 49 -196 110 -196 242c0 85 41 160 142 208c-43 45 -56 101 -56 154c0 183 160 256 336 256c205 0 337 -99 350 -294h-166c-8 96 -67 164 -190 164c-43 0 -80 -9 -111 -27s-47 -48 -47 -89c0 -77 61 -115 154 -158l232 -104c103 -49 196 -110 196 -242
c0 -85 -41 -160 -142 -208c43 -45 56 -98 56 -154c0 -197 -173 -268 -352 -268c-111 0 -201 26 -270 78s-107 130 -114 234z" />
    <glyph glyph-name="dieresis" unicode="&#xa8;" horiz-adv-x="832" 
d="M134 1086v186h194v-186h-194zM504 1086v186h194v-186h-194z" />
    <glyph glyph-name="copyright" unicode="&#xa9;" horiz-adv-x="1364" 
d="M682 74c279 0 464 194 464 484s-185 484 -464 484s-464 -194 -464 -484s185 -484 464 -484zM682 -20c-338 0 -566 233 -566 578s228 578 566 578s566 -233 566 -578s-228 -578 -566 -578zM828 454h146c-13 -165 -127 -254 -290 -254c-146 0 -322 73 -322 358
c0 283 176 358 322 358c163 0 277 -89 290 -254h-146c-5 69 -50 126 -146 126c-112 0 -168 -77 -168 -230s56 -230 168 -230c96 0 141 57 146 126z" />
    <glyph glyph-name="ordfeminine" unicode="&#xaa;" horiz-adv-x="750" 
d="M450 710v112l-84 -10c-88 -11 -124 -35 -124 -86c0 -44 27 -66 82 -66c53 0 89 21 126 50zM472 644v8c-12 -19 -34 -38 -65 -57s-72 -29 -123 -29c-49 0 -92 12 -127 36s-53 63 -53 118c0 133 126 158 230 168l116 8v16c0 41 -5 72 -16 92s-37 30 -78 30
c-75 0 -99 -33 -102 -94h-130c5 160 134 196 244 196c83 0 140 -19 172 -57s48 -90 48 -157v-228c0 -19 8 -28 24 -28s37 7 50 12v-90c-21 -13 -54 -22 -94 -22c-75 0 -96 38 -96 78zM126 328v114h504v-114h-504z" />
    <glyph glyph-name="guillemotleft" unicode="&#xab;" horiz-adv-x="978" 
d="M378 154l-250 312l250 312h154l-232 -312l232 -312h-154zM704 154l-250 312l250 312h154l-232 -312l232 -312h-154z" />
    <glyph glyph-name="logicalnot" unicode="&#xac;" 
d="M122 396v152h772v-548h-162v396h-610z" />
    <glyph glyph-name="uni00AD" unicode="&#xad;" horiz-adv-x="718" 
d="M120 378v174h478v-174h-478z" />
    <glyph glyph-name="registered" unicode="&#xae;" horiz-adv-x="1020" 
d="M510 540c235 0 332 150 332 334c0 183 -97 334 -332 334s-332 -151 -332 -334c0 -184 97 -334 332 -334zM338 634v482h172c125 0 196 -55 196 -156c0 -80 -52 -123 -116 -136l138 -190h-120l-118 174h-50v-174h-102zM440 890h60c69 0 102 19 102 72s-33 70 -102 70h-60
v-142zM90 874c0 224 132 414 420 414s420 -190 420 -414s-132 -414 -420 -414s-420 190 -420 414z" />
    <glyph glyph-name="overscore" unicode="&#xaf;" horiz-adv-x="832" 
d="M158 1114v132h516v-132h-516z" />
    <glyph glyph-name="degree" unicode="&#xb0;" horiz-adv-x="652" 
d="M478 864c0 99 -64 162 -152 162s-152 -63 -152 -162s64 -162 152 -162s152 63 152 162zM52 864c0 160 125 272 274 272c147 0 274 -112 274 -272s-127 -272 -274 -272c-149 0 -274 112 -274 272z" />
    <glyph glyph-name="plusminus" unicode="&#xb1;" 
d="M122 572v152h316v320h164v-320h316v-152h-316v-322h-164v322h-316zM126 0v146h788v-146h-788z" />
    <glyph glyph-name="twosuperior" unicode="&#xb2;" horiz-adv-x="680" 
d="M344 1128c60 0 112 -16 157 -49s67 -82 67 -149c0 -55 -15 -99 -45 -134s-66 -66 -107 -94l-74 -50c-45 -32 -77 -62 -82 -102h316v-104h-462v42c0 63 15 114 44 153s65 72 106 99l76 50c27 19 49 37 67 54s27 43 27 78c0 69 -39 102 -98 102s-108 -33 -108 -118h-124
c0 151 114 222 240 222z" />
    <glyph glyph-name="threesuperior" unicode="&#xb3;" horiz-adv-x="700" 
d="M352 1128c64 0 117 -17 160 -50s64 -79 64 -138c0 -53 -20 -108 -92 -148c61 -29 106 -84 106 -164c0 -63 -22 -111 -66 -144s-101 -50 -170 -50c-71 0 -130 18 -178 54s-72 92 -72 168h124c0 -85 51 -120 118 -120c69 0 112 36 112 100c0 69 -51 104 -126 104h-50v94h50
c75 0 112 31 112 94c0 61 -41 98 -102 98s-108 -33 -108 -118h-122c0 151 114 220 240 220z" />
    <glyph glyph-name="acute" unicode="&#xb4;" horiz-adv-x="832" 
d="M246 1046l122 270h218l-244 -270h-96z" />
    <glyph glyph-name="mu" unicode="&#xb5;" horiz-adv-x="1022" 
d="M142 -396v1274h192v-654c35 -37 96 -78 192 -78c68 0 114 19 138 58s36 96 36 172v502h192v-540c0 -290 -159 -358 -306 -358c-140 0 -214 60 -252 114v-490h-192z" />
    <glyph glyph-name="paragraph" unicode="&#xb6;" horiz-adv-x="1094" 
d="M442 -396v842c-105 0 -190 28 -253 83s-95 140 -95 253s32 197 95 252s148 82 253 82h142v-1512h-142zM774 -396v1512h142v-1512h-142z" />
    <glyph glyph-name="middot" unicode="&#xb7;" horiz-adv-x="604" 
d="M192 350v220h220v-220h-220z" />
    <glyph glyph-name="cedilla" unicode="&#xb8;" horiz-adv-x="832" 
d="M234 -242h100c5 -45 36 -60 68 -60c45 0 80 25 80 76c0 53 -39 78 -84 78c-37 0 -65 -13 -84 -38l-60 26l58 160h70l-36 -98c27 19 59 22 88 22c104 0 162 -60 162 -148c0 -53 -18 -94 -54 -121s-80 -41 -132 -41c-99 0 -165 51 -176 144z" />
    <glyph glyph-name="onesuperior" unicode="&#xb9;" horiz-adv-x="542" 
d="M272 1116h116v-670h-130v504c-29 -35 -92 -74 -180 -74v116c105 0 168 71 194 124z" />
    <glyph glyph-name="ordmasculine" unicode="&#xba;" horiz-adv-x="748" 
d="M122 328v114h504v-114h-504zM374 682c89 0 134 56 134 168c0 115 -45 172 -134 172s-134 -57 -134 -172c0 -112 45 -168 134 -168zM374 566c-128 0 -274 63 -274 284c0 224 146 286 274 286s274 -62 274 -286c0 -221 -146 -284 -274 -284z" />
    <glyph glyph-name="guillemotright" unicode="&#xbb;" horiz-adv-x="978" 
d="M120 154l232 312l-232 312h154l250 -312l-250 -312h-154zM446 154l232 312l-232 312h154l250 -312l-250 -312h-154z" />
    <glyph glyph-name="onequarter" unicode="&#xbc;" horiz-adv-x="1354" 
d="M1058 672h124v-432h86v-98h-86v-140h-128v140h-324v84zM1054 240v278l-204 -278h204zM272 1116h116v-670h-130v504c-29 -35 -92 -74 -180 -74v116c105 0 168 71 194 124zM218 0l724 1116h136l-724 -1116h-136z" />
    <glyph glyph-name="onehalf" unicode="&#xbd;" horiz-adv-x="1418" 
d="M1082 684c60 0 112 -16 157 -49s67 -82 67 -149c0 -55 -15 -99 -45 -134s-66 -66 -107 -94l-74 -50c-45 -32 -77 -62 -82 -102h316v-104h-462v42c0 63 15 114 44 153s65 72 106 99l76 50c27 19 49 37 67 54s27 43 27 78c0 69 -39 102 -98 102s-108 -33 -108 -118h-124
c0 151 114 222 240 222zM272 1116h116v-670h-130v504c-29 -35 -92 -74 -180 -74v116c105 0 168 71 194 124zM218 0l724 1116h136l-724 -1116h-136z" />
    <glyph glyph-name="threequarters" unicode="&#xbe;" horiz-adv-x="1494" 
d="M1198 672h124v-432h86v-98h-86v-140h-128v140h-324v84zM1194 240v278l-204 -278h204zM352 1128c64 0 117 -17 160 -50s64 -79 64 -138c0 -53 -20 -108 -92 -148c61 -29 106 -84 106 -164c0 -63 -22 -111 -66 -144s-101 -50 -170 -50c-71 0 -130 18 -178 54
s-72 92 -72 168h124c0 -85 51 -120 118 -120c69 0 112 36 112 100c0 69 -51 104 -126 104h-50v94h50c75 0 112 31 112 94c0 61 -41 98 -102 98s-108 -33 -108 -118h-122c0 151 114 220 240 220zM358 0l724 1116h136l-724 -1116h-136z" />
    <glyph glyph-name="questiondown" unicode="&#xbf;" horiz-adv-x="868" 
d="M560 877v-220h-220v220h220zM530 537v-16c0 -181 -68 -232 -152 -300c-27 -23 -50 -46 -70 -69s-30 -56 -30 -99c0 -88 49 -156 172 -156c146 0 192 96 192 208h170c0 -117 -35 -207 -104 -270s-160 -94 -272 -94c-240 0 -350 149 -350 304c0 152 104 230 178 288
c31 25 56 51 77 77s31 63 31 111v16h158z" />
    <glyph glyph-name="Agrave" unicode="&#xc0;" horiz-adv-x="1150" 
d="M52 0l416 1116h214l416 -1116h-210l-82 236h-470l-82 -236h-202zM386 388h368l-184 530zM574 1260l-244 270h218l122 -270h-96z" />
    <glyph glyph-name="Aacute" unicode="&#xc1;" horiz-adv-x="1150" 
d="M52 0l416 1116h214l416 -1116h-210l-82 236h-470l-82 -236h-202zM386 388h368l-184 530zM478 1260l122 270h218l-244 -270h-96z" />
    <glyph glyph-name="Acircumflex" unicode="&#xc2;" horiz-adv-x="1150" 
d="M52 0l416 1116h214l416 -1116h-210l-82 236h-470l-82 -236h-202zM386 388h368l-184 530zM284 1252l228 280h124l228 -280h-110l-180 134l-180 -134h-110z" />
    <glyph glyph-name="Atilde" unicode="&#xc3;" horiz-adv-x="1150" 
d="M52 0l416 1116h214l416 -1116h-210l-82 236h-470l-82 -236h-202zM386 388h368l-184 530zM292 1308v114c29 53 83 94 150 94c126 0 187 -116 278 -116c59 0 101 34 136 74v-114c-29 -53 -83 -94 -150 -94c-129 0 -186 116 -278 116c-59 0 -101 -34 -136 -74z" />
    <glyph glyph-name="Adieresis" unicode="&#xc4;" horiz-adv-x="1150" 
d="M52 0l416 1116h214l416 -1116h-210l-82 236h-470l-82 -236h-202zM386 388h368l-184 530zM292 1300v186h194v-186h-194zM662 1300v186h194v-186h-194z" />
    <glyph glyph-name="Aring" unicode="&#xc5;" horiz-adv-x="1150" 
d="M52 0l416 1116h214l416 -1116h-210l-82 236h-470l-82 -236h-202zM386 388h368l-184 530zM574 1310c61 0 108 41 108 116s-47 116 -108 116s-108 -41 -108 -116s47 -116 108 -116zM574 1214c-107 0 -212 81 -212 212s105 212 212 212s212 -81 212 -212
s-105 -212 -212 -212z" />
    <glyph glyph-name="AE" unicode="&#xc6;" horiz-adv-x="1644" 
d="M-20 0l682 1116h872v-168h-570v-296h468v-164h-468v-320h570v-168h-768v236h-428l-142 -236h-216zM420 388h346v562h-8z" />
    <glyph glyph-name="Ccedilla" unicode="&#xc7;" horiz-adv-x="1188" 
d="M890 374h198c-16 -254 -211 -394 -472 -394c-333 0 -500 233 -500 578s167 578 500 578c261 0 456 -140 472 -394h-198c-11 117 -98 222 -270 222c-242 0 -300 -203 -300 -406s58 -406 300 -406c172 0 259 105 270 222zM460 -242h100c5 -45 36 -60 68 -60
c45 0 80 25 80 76c0 53 -39 78 -84 78c-37 0 -65 -13 -84 -38l-60 26l58 160h70l-36 -98c27 19 59 22 88 22c104 0 162 -60 162 -148c0 -53 -18 -94 -54 -121s-80 -41 -132 -41c-99 0 -165 51 -176 144z" />
    <glyph glyph-name="Egrave" unicode="&#xc8;" horiz-adv-x="1046" 
d="M168 0v1116h768v-168h-570v-296h468v-164h-468v-320h570v-168h-768zM548 1260l-244 270h218l122 -270h-96z" />
    <glyph glyph-name="Eacute" unicode="&#xc9;" horiz-adv-x="1046" 
d="M168 0v1116h768v-168h-570v-296h468v-164h-468v-320h570v-168h-768zM452 1260l122 270h218l-244 -270h-96z" />
    <glyph glyph-name="Ecircumflex" unicode="&#xca;" horiz-adv-x="1046" 
d="M168 0v1116h768v-168h-570v-296h468v-164h-468v-320h570v-168h-768zM258 1252l228 280h124l228 -280h-110l-180 134l-180 -134h-110z" />
    <glyph glyph-name="Edieresis" unicode="&#xcb;" horiz-adv-x="1046" 
d="M168 0v1116h768v-168h-570v-296h468v-164h-468v-320h570v-168h-768zM266 1300v186h194v-186h-194zM636 1300v186h194v-186h-194z" />
    <glyph glyph-name="Igrave" unicode="&#xcc;" horiz-adv-x="670" 
d="M88 0v130h148v856h-148v130h494v-130h-148v-856h148v-130h-494zM336 1260l-244 270h218l122 -270h-96z" />
    <glyph glyph-name="Iacute" unicode="&#xcd;" horiz-adv-x="670" 
d="M88 0v130h148v856h-148v130h494v-130h-148v-856h148v-130h-494zM240 1260l122 270h218l-244 -270h-96z" />
    <glyph glyph-name="Icircumflex" unicode="&#xce;" horiz-adv-x="670" 
d="M88 0v130h148v856h-148v130h494v-130h-148v-856h148v-130h-494zM46 1252l228 280h124l228 -280h-110l-180 134l-180 -134h-110z" />
    <glyph glyph-name="Idieresis" unicode="&#xcf;" horiz-adv-x="670" 
d="M88 0v130h148v856h-148v130h494v-130h-148v-856h148v-130h-494zM54 1300v186h194v-186h-194zM424 1300v186h194v-186h-194z" />
    <glyph glyph-name="Eth" unicode="&#xd0;" horiz-adv-x="1218" 
d="M58 502v138h126v476h370c373 0 548 -224 548 -558s-175 -558 -548 -558h-370v502h-126zM382 164h172c278 0 344 202 344 394s-66 394 -344 394h-172v-312h212v-138h-212v-338z" />
    <glyph glyph-name="Ntilde" unicode="&#xd1;" horiz-adv-x="1244" 
d="M168 0v1116h236l484 -858v858h188v-1116h-236l-484 858v-858h-188zM340 1308v114c29 53 83 94 150 94c126 0 187 -116 278 -116c59 0 101 34 136 74v-114c-29 -53 -83 -94 -150 -94c-129 0 -186 116 -278 116c-59 0 -101 -34 -136 -74z" />
    <glyph glyph-name="Ograve" unicode="&#xd2;" horiz-adv-x="1272" 
d="M636 152c254 0 316 206 316 406c0 199 -62 406 -316 406s-316 -207 -316 -406c0 -200 62 -406 316 -406zM636 -20c-350 0 -520 233 -520 578s170 578 520 578s520 -233 520 -578s-170 -578 -520 -578zM636 1260l-244 270h218l122 -270h-96z" />
    <glyph glyph-name="Oacute" unicode="&#xd3;" horiz-adv-x="1272" 
d="M636 152c254 0 316 206 316 406c0 199 -62 406 -316 406s-316 -207 -316 -406c0 -200 62 -406 316 -406zM636 -20c-350 0 -520 233 -520 578s170 578 520 578s520 -233 520 -578s-170 -578 -520 -578zM540 1260l122 270h218l-244 -270h-96z" />
    <glyph glyph-name="Ocircumflex" unicode="&#xd4;" horiz-adv-x="1272" 
d="M636 152c254 0 316 206 316 406c0 199 -62 406 -316 406s-316 -207 -316 -406c0 -200 62 -406 316 -406zM636 -20c-350 0 -520 233 -520 578s170 578 520 578s520 -233 520 -578s-170 -578 -520 -578zM346 1252l228 280h124l228 -280h-110l-180 134l-180 -134h-110z" />
    <glyph glyph-name="Otilde" unicode="&#xd5;" horiz-adv-x="1272" 
d="M636 152c254 0 316 206 316 406c0 199 -62 406 -316 406s-316 -207 -316 -406c0 -200 62 -406 316 -406zM636 -20c-350 0 -520 233 -520 578s170 578 520 578s520 -233 520 -578s-170 -578 -520 -578zM354 1308v114c29 53 83 94 150 94c126 0 187 -116 278 -116
c59 0 101 34 136 74v-114c-29 -53 -83 -94 -150 -94c-129 0 -186 116 -278 116c-59 0 -101 -34 -136 -74z" />
    <glyph glyph-name="Odieresis" unicode="&#xd6;" horiz-adv-x="1272" 
d="M636 152c254 0 316 206 316 406c0 199 -62 406 -316 406s-316 -207 -316 -406c0 -200 62 -406 316 -406zM636 -20c-350 0 -520 233 -520 578s170 578 520 578s520 -233 520 -578s-170 -578 -520 -578zM354 1300v186h194v-186h-194zM724 1300v186h194v-186h-194z" />
    <glyph glyph-name="multiply" unicode="&#xd7;" 
d="M162 220l252 252l-252 250l106 108l252 -252l250 252l108 -106l-252 -252l252 -250l-106 -108l-252 252l-250 -252z" />
    <glyph glyph-name="Oslash" unicode="&#xd8;" horiz-adv-x="1280" 
d="M146 -110l-96 84l172 200c-69 99 -102 229 -102 384c0 345 170 578 520 578c136 0 245 -38 328 -102l166 192l96 -84l-172 -200c68 -99 102 -227 102 -384c0 -345 -170 -578 -520 -578c-139 0 -245 36 -330 100zM324 558c0 -83 9 -163 38 -232l488 562
c-48 45 -117 76 -210 76c-254 0 -316 -207 -316 -406zM640 152c254 0 316 206 316 406c0 80 -11 163 -40 232l-488 -564c48 -45 116 -74 212 -74z" />
    <glyph glyph-name="Ugrave" unicode="&#xd9;" horiz-adv-x="1200" 
d="M148 406v710h198v-684c0 -103 21 -175 62 -217s105 -63 192 -63c85 0 149 21 191 63s63 114 63 217v684h198v-710c0 -149 -40 -258 -120 -325s-191 -101 -332 -101s-252 34 -332 101s-120 176 -120 325zM600 1260l-244 270h218l122 -270h-96z" />
    <glyph glyph-name="Uacute" unicode="&#xda;" horiz-adv-x="1200" 
d="M148 406v710h198v-684c0 -103 21 -175 62 -217s105 -63 192 -63c85 0 149 21 191 63s63 114 63 217v684h198v-710c0 -149 -40 -258 -120 -325s-191 -101 -332 -101s-252 34 -332 101s-120 176 -120 325zM504 1260l122 270h218l-244 -270h-96z" />
    <glyph glyph-name="Ucircumflex" unicode="&#xdb;" horiz-adv-x="1200" 
d="M148 406v710h198v-684c0 -103 21 -175 62 -217s105 -63 192 -63c85 0 149 21 191 63s63 114 63 217v684h198v-710c0 -149 -40 -258 -120 -325s-191 -101 -332 -101s-252 34 -332 101s-120 176 -120 325zM310 1252l228 280h124l228 -280h-110l-180 134l-180 -134h-110z
" />
    <glyph glyph-name="Udieresis" unicode="&#xdc;" horiz-adv-x="1200" 
d="M148 406v710h198v-684c0 -103 21 -175 62 -217s105 -63 192 -63c85 0 149 21 191 63s63 114 63 217v684h198v-710c0 -149 -40 -258 -120 -325s-191 -101 -332 -101s-252 34 -332 101s-120 176 -120 325zM318 1300v186h194v-186h-194zM688 1300v186h194v-186h-194z" />
    <glyph glyph-name="Yacute" unicode="&#xdd;" horiz-adv-x="1042" 
d="M422 0v438l-406 678h218l290 -506l292 506h210l-406 -678v-438h-198zM426 1260l122 270h218l-244 -270h-96z" />
    <glyph glyph-name="Thorn" unicode="&#xde;" horiz-adv-x="1096" 
d="M168 0v1116h198v-184h168c149 0 266 -29 349 -88s125 -150 125 -274s-42 -215 -125 -274s-200 -88 -349 -88h-168v-208h-198zM366 372h164c101 0 172 16 212 48s60 82 60 150s-20 118 -60 150s-111 48 -212 48h-164v-396z" />
    <glyph glyph-name="germandbls" unicode="&#xdf;" horiz-adv-x="1058" 
d="M142 0v970c0 272 179 374 376 374c107 0 191 -29 252 -86s92 -135 92 -232c0 -157 -85 -281 -210 -358c139 -48 342 -175 342 -402c0 -141 -78 -286 -334 -286c-77 0 -147 9 -182 28v158c37 -19 96 -36 160 -36c99 0 162 42 162 146c0 75 -29 136 -88 183
s-137 88 -234 121v128c160 86 194 226 194 310c0 112 -57 178 -164 178s-176 -64 -176 -224v-972h-190z" />
    <glyph glyph-name="agrave" unicode="&#xe0;" horiz-adv-x="976" 
d="M632 204v196l-166 -18c-125 -13 -198 -55 -198 -146c0 -72 47 -116 146 -116c88 0 157 33 218 84zM664 104v12c-47 -62 -153 -136 -306 -136c-176 0 -280 96 -280 248c0 211 208 257 350 268l204 18v24c0 135 -22 212 -164 212c-128 0 -172 -60 -172 -172h-184
c5 263 205 320 376 320c256 0 334 -127 334 -340v-376c0 -35 17 -52 50 -52c24 0 51 7 72 18v-136c-29 -16 -79 -32 -138 -32c-118 0 -142 65 -142 124zM470 1046l-244 270h218l122 -270h-96z" />
    <glyph glyph-name="aacute" unicode="&#xe1;" horiz-adv-x="976" 
d="M632 204v196l-166 -18c-125 -13 -198 -55 -198 -146c0 -72 47 -116 146 -116c88 0 157 33 218 84zM664 104v12c-47 -62 -153 -136 -306 -136c-176 0 -280 96 -280 248c0 211 208 257 350 268l204 18v24c0 135 -22 212 -164 212c-128 0 -172 -60 -172 -172h-184
c5 263 205 320 376 320c256 0 334 -127 334 -340v-376c0 -35 17 -52 50 -52c24 0 51 7 72 18v-136c-29 -16 -79 -32 -138 -32c-118 0 -142 65 -142 124zM372 1046l122 270h218l-244 -270h-96z" />
    <glyph glyph-name="acircumflex" unicode="&#xe2;" horiz-adv-x="976" 
d="M632 204v196l-166 -18c-125 -13 -198 -55 -198 -146c0 -72 47 -116 146 -116c88 0 157 33 218 84zM664 104v12c-47 -62 -153 -136 -306 -136c-176 0 -280 96 -280 248c0 211 208 257 350 268l204 18v24c0 135 -22 212 -164 212c-128 0 -172 -60 -172 -172h-184
c5 263 205 320 376 320c256 0 334 -127 334 -340v-376c0 -35 17 -52 50 -52c24 0 51 7 72 18v-136c-29 -16 -79 -32 -138 -32c-118 0 -142 65 -142 124zM178 1038l228 280h124l228 -280h-110l-180 134l-180 -134h-110z" />
    <glyph glyph-name="atilde" unicode="&#xe3;" horiz-adv-x="976" 
d="M632 204v196l-166 -18c-125 -13 -198 -55 -198 -146c0 -72 47 -116 146 -116c88 0 157 33 218 84zM664 104v12c-47 -62 -153 -136 -306 -136c-176 0 -280 96 -280 248c0 211 208 257 350 268l204 18v24c0 135 -22 212 -164 212c-128 0 -172 -60 -172 -172h-184
c5 263 205 320 376 320c256 0 334 -127 334 -340v-376c0 -35 17 -52 50 -52c24 0 51 7 72 18v-136c-29 -16 -79 -32 -138 -32c-118 0 -142 65 -142 124zM186 1094v114c29 53 83 94 150 94c126 0 187 -116 278 -116c59 0 101 34 136 74v-114c-29 -53 -83 -94 -150 -94
c-129 0 -186 116 -278 116c-59 0 -101 -34 -136 -74z" />
    <glyph glyph-name="adieresis" unicode="&#xe4;" horiz-adv-x="976" 
d="M632 204v196l-166 -18c-125 -13 -198 -55 -198 -146c0 -72 47 -116 146 -116c88 0 157 33 218 84zM664 104v12c-47 -62 -153 -136 -306 -136c-176 0 -280 96 -280 248c0 211 208 257 350 268l204 18v24c0 135 -22 212 -164 212c-128 0 -172 -60 -172 -172h-184
c5 263 205 320 376 320c256 0 334 -127 334 -340v-376c0 -35 17 -52 50 -52c24 0 51 7 72 18v-136c-29 -16 -79 -32 -138 -32c-118 0 -142 65 -142 124zM186 1086v186h194v-186h-194zM556 1086v186h194v-186h-194z" />
    <glyph glyph-name="aring" unicode="&#xe5;" horiz-adv-x="976" 
d="M632 204v196l-166 -18c-125 -13 -198 -55 -198 -146c0 -72 47 -116 146 -116c88 0 157 33 218 84zM664 104v12c-47 -62 -153 -136 -306 -136c-176 0 -280 96 -280 248c0 211 208 257 350 268l204 18v24c0 135 -22 212 -164 212c-128 0 -172 -60 -172 -172h-184
c5 263 205 320 376 320c256 0 334 -127 334 -340v-376c0 -35 17 -52 50 -52c24 0 51 7 72 18v-136c-29 -16 -79 -32 -138 -32c-118 0 -142 65 -142 124zM468 1096c61 0 108 41 108 116s-47 116 -108 116s-108 -41 -108 -116s47 -116 108 -116zM468 1000
c-107 0 -212 81 -212 212s105 212 212 212s212 -81 212 -212s-105 -212 -212 -212z" />
    <glyph glyph-name="ae" unicode="&#xe6;" horiz-adv-x="1516" 
d="M296 578h-184c5 261 201 320 366 320c139 0 225 -43 270 -126c69 85 165 126 282 126c181 0 400 -102 400 -456v-30h-620c4 -188 79 -282 226 -282c117 0 185 59 204 160h186c-32 -245 -243 -310 -396 -310c-123 0 -235 39 -312 140c-88 -77 -198 -140 -350 -140
c-192 0 -290 97 -290 246c2 219 211 259 350 270l204 18v24c0 135 -22 212 -164 212c-128 0 -172 -60 -172 -172zM414 120c99 0 183 43 250 104c-19 51 -29 109 -32 178l-166 -18c-125 -13 -198 -57 -198 -148c0 -72 47 -116 146 -116zM812 526h426
c-13 149 -87 226 -212 226c-128 0 -199 -75 -214 -226z" />
    <glyph glyph-name="ccedilla" unicode="&#xe7;" horiz-adv-x="966" 
d="M696 310h188c-16 -215 -164 -330 -374 -330c-193 0 -419 97 -420 460c1 364 227 459 420 458c210 0 358 -115 374 -330h-188c-3 47 -19 87 -50 120s-77 50 -138 50c-149 0 -224 -99 -224 -298c0 -197 75 -300 224 -300c61 0 107 17 138 50s47 73 50 120zM360 -242h100
c5 -45 36 -60 68 -60c45 0 80 25 80 76c0 53 -39 78 -84 78c-37 0 -65 -13 -84 -38l-60 26l58 160h70l-36 -98c27 19 59 22 88 22c104 0 162 -60 162 -148c0 -53 -18 -94 -54 -121s-80 -41 -132 -41c-99 0 -165 51 -176 144z" />
    <glyph glyph-name="egrave" unicode="&#xe8;" horiz-adv-x="986" 
d="M282 526h426c-13 149 -87 226 -212 226c-128 0 -199 -75 -214 -226zM710 290h186c-32 -245 -243 -310 -396 -310c-208 0 -410 119 -410 460c0 347 212 458 404 458c187 0 406 -102 406 -456v-30h-620c4 -188 79 -282 226 -282c117 0 185 59 204 160zM494 1046l-244 270
h218l122 -270h-96z" />
    <glyph glyph-name="eacute" unicode="&#xe9;" horiz-adv-x="986" 
d="M282 526h426c-13 149 -87 226 -212 226c-128 0 -199 -75 -214 -226zM710 290h186c-32 -245 -243 -310 -396 -310c-208 0 -410 119 -410 460c0 347 212 458 404 458c187 0 406 -102 406 -456v-30h-620c4 -188 79 -282 226 -282c117 0 185 59 204 160zM398 1046l122 270
h218l-244 -270h-96z" />
    <glyph glyph-name="ecircumflex" unicode="&#xea;" horiz-adv-x="986" 
d="M282 526h426c-13 149 -87 226 -212 226c-128 0 -199 -75 -214 -226zM710 290h186c-32 -245 -243 -310 -396 -310c-208 0 -410 119 -410 460c0 347 212 458 404 458c187 0 406 -102 406 -456v-30h-620c4 -188 79 -282 226 -282c117 0 185 59 204 160zM204 1038l228 280
h124l228 -280h-110l-180 134l-180 -134h-110z" />
    <glyph glyph-name="edieresis" unicode="&#xeb;" horiz-adv-x="986" 
d="M282 526h426c-13 149 -87 226 -212 226c-128 0 -199 -75 -214 -226zM710 290h186c-32 -245 -243 -310 -396 -310c-208 0 -410 119 -410 460c0 347 212 458 404 458c187 0 406 -102 406 -456v-30h-620c4 -188 79 -282 226 -282c117 0 185 59 204 160zM212 1086v186h194
v-186h-194zM582 1086v186h194v-186h-194z" />
    <glyph glyph-name="igrave" unicode="&#xec;" horiz-adv-x="480" 
d="M144 0v878h192v-878h-192zM242 1046l-244 270h218l122 -270h-96z" />
    <glyph glyph-name="iacute" unicode="&#xed;" horiz-adv-x="480" 
d="M144 0v878h192v-878h-192zM146 1046l122 270h218l-244 -270h-96z" />
    <glyph glyph-name="icircumflex" unicode="&#xee;" horiz-adv-x="480" 
d="M144 0v878h192v-878h-192zM-48 1038l228 280h124l228 -280h-110l-180 134l-180 -134h-110z" />
    <glyph glyph-name="idieresis" unicode="&#xef;" horiz-adv-x="480" 
d="M144 0v878h192v-878h-192zM-40 1086v186h194v-186h-194zM330 1086v186h194v-186h-194z" />
    <glyph glyph-name="eth" unicode="&#xf0;" horiz-adv-x="1024" 
d="M334 980v132l150 38l-80 174h194l56 -128l210 54v-132l-156 -42l116 -258c69 -153 110 -260 110 -398c0 -317 -209 -440 -424 -440c-192 0 -420 98 -420 452c0 350 221 448 376 448c67 0 129 -19 174 -64l-102 216zM512 138c151 0 226 97 226 292s-75 292 -226 292
c-152 0 -228 -97 -228 -292s76 -292 228 -292z" />
    <glyph glyph-name="ntilde" unicode="&#xf1;" horiz-adv-x="1026" 
d="M142 0v878h164v-114c48 75 138 134 290 134c146 0 300 -61 300 -356v-542h-192v504c0 73 -12 130 -35 169s-70 59 -139 59c-99 0 -161 -41 -196 -78v-654h-192zM238 1094v114c29 53 83 94 150 94c126 0 187 -116 278 -116c59 0 101 34 136 74v-114
c-29 -53 -83 -94 -150 -94c-129 0 -186 116 -278 116c-59 0 -101 -34 -136 -74z" />
    <glyph glyph-name="ograve" unicode="&#xf2;" horiz-adv-x="1024" 
d="M512 140c152 0 228 100 228 300c0 199 -76 298 -228 298s-228 -99 -228 -298c0 -200 76 -300 228 -300zM512 -20c-197 0 -422 102 -422 460c0 357 225 458 422 458s422 -101 422 -458c0 -358 -225 -460 -422 -460zM512 1046l-244 270h218l122 -270h-96z" />
    <glyph glyph-name="oacute" unicode="&#xf3;" horiz-adv-x="1024" 
d="M512 140c152 0 228 100 228 300c0 199 -76 298 -228 298s-228 -99 -228 -298c0 -200 76 -300 228 -300zM512 -20c-197 0 -422 102 -422 460c0 357 225 458 422 458s422 -101 422 -458c0 -358 -225 -460 -422 -460zM416 1046l122 270h218l-244 -270h-96z" />
    <glyph glyph-name="ocircumflex" unicode="&#xf4;" horiz-adv-x="1024" 
d="M512 140c152 0 228 100 228 300c0 199 -76 298 -228 298s-228 -99 -228 -298c0 -200 76 -300 228 -300zM512 -20c-197 0 -422 102 -422 460c0 357 225 458 422 458s422 -101 422 -458c0 -358 -225 -460 -422 -460zM222 1038l228 280h124l228 -280h-110l-180 134
l-180 -134h-110z" />
    <glyph glyph-name="otilde" unicode="&#xf5;" horiz-adv-x="1024" 
d="M512 140c152 0 228 100 228 300c0 199 -76 298 -228 298s-228 -99 -228 -298c0 -200 76 -300 228 -300zM512 -20c-197 0 -422 102 -422 460c0 357 225 458 422 458s422 -101 422 -458c0 -358 -225 -460 -422 -460zM230 1094v114c29 53 83 94 150 94
c126 0 187 -116 278 -116c59 0 101 34 136 74v-114c-29 -53 -83 -94 -150 -94c-129 0 -186 116 -278 116c-59 0 -101 -34 -136 -74z" />
    <glyph glyph-name="odieresis" unicode="&#xf6;" horiz-adv-x="1024" 
d="M512 140c152 0 228 100 228 300c0 199 -76 298 -228 298s-228 -99 -228 -298c0 -200 76 -300 228 -300zM512 -20c-197 0 -422 102 -422 460c0 357 225 458 422 458s422 -101 422 -458c0 -358 -225 -460 -422 -460zM230 1086v186h194v-186h-194zM600 1086v186h194v-186
h-194z" />
    <glyph glyph-name="divide" unicode="&#xf7;" 
d="M416 48v204h208v-204h-208zM416 692v204h208v-204h-208zM122 396v152h796v-152h-796z" />
    <glyph glyph-name="oslash" unicode="&#xf8;" horiz-adv-x="1032" 
d="M120 -110l-92 84l144 168c-48 69 -78 165 -78 298c0 357 225 458 422 458c85 0 177 -19 254 -72l142 162l92 -84l-144 -168c48 -69 78 -165 78 -296c0 -358 -225 -460 -422 -460c-88 0 -177 19 -254 72zM288 440c0 -65 7 -117 22 -156l352 404c-35 33 -83 50 -146 50
c-152 0 -228 -99 -228 -298zM516 140c152 0 228 100 228 300c0 59 -7 110 -22 154l-352 -404c35 -33 83 -50 146 -50z" />
    <glyph glyph-name="ugrave" unicode="&#xf9;" horiz-adv-x="1018" 
d="M130 338v540h192v-502c0 -76 11 -133 33 -172s67 -58 135 -58c99 0 157 41 194 78v654h192v-878h-164v114c-24 -36 -59 -67 -104 -94s-106 -40 -182 -40c-144 0 -296 59 -296 358zM502 1046l-244 270h218l122 -270h-96z" />
    <glyph glyph-name="uacute" unicode="&#xfa;" horiz-adv-x="1018" 
d="M130 338v540h192v-502c0 -76 11 -133 33 -172s67 -58 135 -58c99 0 157 41 194 78v654h192v-878h-164v114c-24 -36 -59 -67 -104 -94s-106 -40 -182 -40c-144 0 -296 59 -296 358zM406 1046l122 270h218l-244 -270h-96z" />
    <glyph glyph-name="ucircumflex" unicode="&#xfb;" horiz-adv-x="1018" 
d="M130 338v540h192v-502c0 -76 11 -133 33 -172s67 -58 135 -58c99 0 157 41 194 78v654h192v-878h-164v114c-24 -36 -59 -67 -104 -94s-106 -40 -182 -40c-144 0 -296 59 -296 358zM212 1038l228 280h124l228 -280h-110l-180 134l-180 -134h-110z" />
    <glyph glyph-name="udieresis" unicode="&#xfc;" horiz-adv-x="1018" 
d="M130 338v540h192v-502c0 -76 11 -133 33 -172s67 -58 135 -58c99 0 157 41 194 78v654h192v-878h-164v114c-24 -36 -59 -67 -104 -94s-106 -40 -182 -40c-144 0 -296 59 -296 358zM220 1086v186h194v-186h-194zM590 1086v186h194v-186h-194z" />
    <glyph glyph-name="yacute" unicode="&#xfd;" horiz-adv-x="924" 
d="M84 -398v158c24 -8 61 -18 98 -18c69 0 109 29 146 130l38 104l-326 902h206l224 -676l222 676h192l-364 -1004c-53 -153 -125 -290 -324 -290c-56 0 -99 13 -112 18zM374 1046l122 270h218l-244 -270h-96z" />
    <glyph glyph-name="thorn" unicode="&#xfe;" horiz-adv-x="1036" 
d="M142 -396v1720h192v-532c33 39 106 106 240 106c187 0 372 -125 372 -456c0 -334 -180 -462 -372 -462c-132 0 -209 65 -240 106v-482h-192zM334 662v-446c45 -45 111 -74 188 -74c152 0 230 104 230 296s-78 298 -230 298c-77 0 -143 -29 -188 -74z" />
    <glyph glyph-name="ydieresis" unicode="&#xff;" horiz-adv-x="924" 
d="M84 -398v158c24 -8 61 -18 98 -18c69 0 109 29 146 130l38 104l-326 902h206l224 -676l222 676h192l-364 -1004c-53 -153 -125 -290 -324 -290c-56 0 -99 13 -112 18zM188 1086v186h194v-186h-194zM558 1086v186h194v-186h-194z" />
    <glyph glyph-name="Amacron" unicode="&#x100;" horiz-adv-x="1150" 
 />
    <glyph glyph-name="amacron" unicode="&#x101;" horiz-adv-x="976" 
 />
    <glyph glyph-name="Abreve" unicode="&#x102;" horiz-adv-x="1150" 
 />
    <glyph glyph-name="abreve" unicode="&#x103;" horiz-adv-x="976" 
 />
    <glyph glyph-name="Aogonek" unicode="&#x104;" horiz-adv-x="1150" 
 />
    <glyph glyph-name="aogonek" unicode="&#x105;" horiz-adv-x="976" 
 />
    <glyph glyph-name="Cacute" unicode="&#x106;" horiz-adv-x="1188" 
 />
    <glyph glyph-name="cacute" unicode="&#x107;" horiz-adv-x="966" 
 />
    <glyph glyph-name="Ccircumflex" unicode="&#x108;" horiz-adv-x="1188" 
 />
    <glyph glyph-name="ccircumflex" unicode="&#x109;" horiz-adv-x="966" 
 />
    <glyph glyph-name="Cdotaccent" unicode="&#x10a;" horiz-adv-x="1188" 
 />
    <glyph glyph-name="cdotaccent" unicode="&#x10b;" horiz-adv-x="966" 
 />
    <glyph glyph-name="Ccaron" unicode="&#x10c;" horiz-adv-x="1188" 
 />
    <glyph glyph-name="ccaron" unicode="&#x10d;" horiz-adv-x="966" 
 />
    <glyph glyph-name="Dcaron" unicode="&#x10e;" horiz-adv-x="1202" 
 />
    <glyph glyph-name="dcaron" unicode="&#x10f;" horiz-adv-x="1038" 
 />
    <glyph glyph-name="Dcroat" unicode="&#x110;" horiz-adv-x="1218" 
 />
    <glyph glyph-name="dslash" unicode="&#x111;" 
 />
    <glyph glyph-name="Emacron" unicode="&#x112;" horiz-adv-x="1046" 
 />
    <glyph glyph-name="emacron" unicode="&#x113;" horiz-adv-x="986" 
 />
    <glyph glyph-name="Ebreve" unicode="&#x114;" horiz-adv-x="1046" 
 />
    <glyph glyph-name="ebreve" unicode="&#x115;" horiz-adv-x="986" 
 />
    <glyph glyph-name="Edotaccent" unicode="&#x116;" horiz-adv-x="1046" 
 />
    <glyph glyph-name="edotaccent" unicode="&#x117;" horiz-adv-x="986" 
 />
    <glyph glyph-name="Eogonek" unicode="&#x118;" horiz-adv-x="1046" 
 />
    <glyph glyph-name="eogonek" unicode="&#x119;" horiz-adv-x="986" 
 />
    <glyph glyph-name="Ecaron" unicode="&#x11a;" horiz-adv-x="1046" 
 />
    <glyph glyph-name="ecaron" unicode="&#x11b;" horiz-adv-x="986" 
 />
    <glyph glyph-name="Gcircumflex" unicode="&#x11c;" horiz-adv-x="1256" 
 />
    <glyph glyph-name="gcircumflex" unicode="&#x11d;" horiz-adv-x="1008" 
 />
    <glyph glyph-name="Gbreve" unicode="&#x11e;" horiz-adv-x="1256" 
 />
    <glyph glyph-name="gbreve" unicode="&#x11f;" horiz-adv-x="1008" 
 />
    <glyph glyph-name="Gdotaccent" unicode="&#x120;" horiz-adv-x="1256" 
 />
    <glyph glyph-name="gdotaccent" unicode="&#x121;" horiz-adv-x="1008" 
 />
    <glyph glyph-name="Gcommaaccent" unicode="&#x122;" horiz-adv-x="1256" 
 />
    <glyph glyph-name="gcommaaccent" unicode="&#x123;" horiz-adv-x="1008" 
 />
    <glyph glyph-name="Hcircumflex" unicode="&#x124;" horiz-adv-x="1238" 
 />
    <glyph glyph-name="hcircumflex" unicode="&#x125;" horiz-adv-x="1026" 
 />
    <glyph glyph-name="Hbar" unicode="&#x126;" horiz-adv-x="1258" 
 />
    <glyph glyph-name="hbar" unicode="&#x127;" horiz-adv-x="1030" 
 />
    <glyph glyph-name="Itilde" unicode="&#x128;" horiz-adv-x="670" 
 />
    <glyph glyph-name="itilde" unicode="&#x129;" horiz-adv-x="480" 
 />
    <glyph glyph-name="Imacron" unicode="&#x12a;" horiz-adv-x="670" 
 />
    <glyph glyph-name="imacron" unicode="&#x12b;" horiz-adv-x="480" 
 />
    <glyph glyph-name="Ibreve" unicode="&#x12c;" horiz-adv-x="670" 
 />
    <glyph glyph-name="ibreve" unicode="&#x12d;" horiz-adv-x="480" 
 />
    <glyph glyph-name="Iogonek" unicode="&#x12e;" horiz-adv-x="670" 
 />
    <glyph glyph-name="iogonek" unicode="&#x12f;" horiz-adv-x="480" 
 />
    <glyph glyph-name="Idot" unicode="&#x130;" horiz-adv-x="670" 
 />
    <glyph glyph-name="dotlessi" unicode="&#x131;" horiz-adv-x="480" 
d="M144 0v878h192v-878h-192z" />
    <glyph glyph-name="IJ" unicode="&#x132;" horiz-adv-x="1150" 
d="M576 -20c-135 0 -240 34 -315 102s-113 175 -113 322h198c0 -176 69 -254 232 -254c80 0 138 21 173 64s53 115 53 218v684h198v-684c0 -173 -35 -275 -104 -344c-72 -72 -179 -108 -322 -108zM148 636v480h198v-480h-198z" />
    <glyph glyph-name="ij" unicode="&#x133;" horiz-adv-x="968" 
 />
    <glyph glyph-name="Jcircumflex" unicode="&#x134;" horiz-adv-x="980" 
 />
    <glyph glyph-name="jcircumflex" unicode="&#x135;" horiz-adv-x="488" 
 />
    <glyph glyph-name="Kcommaaccent" unicode="&#x136;" horiz-adv-x="1108" 
 />
    <glyph glyph-name="kcommaaccent" unicode="&#x137;" horiz-adv-x="966" 
 />
    <glyph glyph-name="kgreenlandic" unicode="&#x138;" horiz-adv-x="966" 
 />
    <glyph glyph-name="Lacute" unicode="&#x139;" horiz-adv-x="930" 
 />
    <glyph glyph-name="lacute" unicode="&#x13a;" horiz-adv-x="476" 
 />
    <glyph glyph-name="Lcommaaccent" unicode="&#x13b;" horiz-adv-x="930" 
 />
    <glyph glyph-name="lcommaaccent" unicode="&#x13c;" horiz-adv-x="476" 
 />
    <glyph glyph-name="Lcaron" unicode="&#x13d;" horiz-adv-x="930" 
 />
    <glyph glyph-name="lcaron" unicode="&#x13e;" horiz-adv-x="496" 
 />
    <glyph glyph-name="Ldot" unicode="&#x13f;" horiz-adv-x="930" 
 />
    <glyph glyph-name="ldot" unicode="&#x140;" horiz-adv-x="712" 
 />
    <glyph glyph-name="Lslash" unicode="&#x141;" horiz-adv-x="950" 
 />
    <glyph glyph-name="lslash" unicode="&#x142;" horiz-adv-x="504" 
 />
    <glyph glyph-name="Nacute" unicode="&#x143;" horiz-adv-x="1244" 
 />
    <glyph glyph-name="nacute" unicode="&#x144;" horiz-adv-x="1026" 
 />
    <glyph glyph-name="Ncommaaccent" unicode="&#x145;" horiz-adv-x="1244" 
 />
    <glyph glyph-name="ncommaaccent" unicode="&#x146;" horiz-adv-x="1026" 
 />
    <glyph glyph-name="Ncaron" unicode="&#x147;" horiz-adv-x="1244" 
 />
    <glyph glyph-name="ncaron" unicode="&#x148;" horiz-adv-x="1026" 
 />
    <glyph glyph-name="napostrophe" unicode="&#x149;" horiz-adv-x="1404" 
 />
    <glyph glyph-name="Eng" unicode="&#x14a;" horiz-adv-x="1244" 
 />
    <glyph glyph-name="eng" unicode="&#x14b;" horiz-adv-x="1026" 
 />
    <glyph glyph-name="Omacron" unicode="&#x14c;" horiz-adv-x="1272" 
 />
    <glyph glyph-name="omacron" unicode="&#x14d;" horiz-adv-x="1024" 
 />
    <glyph glyph-name="Obreve" unicode="&#x14e;" horiz-adv-x="1272" 
 />
    <glyph glyph-name="obreve" unicode="&#x14f;" horiz-adv-x="1024" 
 />
    <glyph glyph-name="Ohungarumlaut" unicode="&#x150;" horiz-adv-x="1272" 
 />
    <glyph glyph-name="ohungarumlaut" unicode="&#x151;" horiz-adv-x="1024" 
 />
    <glyph glyph-name="OE" unicode="&#x152;" horiz-adv-x="1714" 
d="M1604 0h-940c-373 0 -548 224 -548 558s175 558 548 558h940v-168h-570v-296h468v-164h-468v-320h570v-168zM664 164h172v788h-172c-278 0 -344 -202 -344 -394s66 -394 344 -394z" />
    <glyph glyph-name="oe" unicode="&#x153;" horiz-adv-x="1636" 
d="M1150 -20c-128 0 -246 49 -318 166c-39 -63 -87 -106 -145 -130s-116 -36 -175 -36c-197 0 -422 102 -422 460c0 357 225 458 422 458c59 0 117 -12 175 -36s106 -67 145 -130c75 120 192 166 312 166c187 0 406 -102 406 -456v-30h-620c4 -188 79 -282 226 -282
c117 0 185 59 204 160h186c-32 -245 -243 -310 -396 -310zM512 140c152 0 228 100 228 300c0 199 -76 298 -228 298s-228 -99 -228 -298c0 -200 76 -300 228 -300zM932 526h426c-13 149 -87 226 -212 226c-128 0 -199 -75 -214 -226z" />
    <glyph glyph-name="Racute" unicode="&#x154;" horiz-adv-x="1142" 
 />
    <glyph glyph-name="racute" unicode="&#x155;" horiz-adv-x="666" 
 />
    <glyph glyph-name="Rcommaaccent" unicode="&#x156;" horiz-adv-x="1142" 
 />
    <glyph glyph-name="rcommaaccent" unicode="&#x157;" horiz-adv-x="666" 
 />
    <glyph glyph-name="Rcaron" unicode="&#x158;" horiz-adv-x="1142" 
 />
    <glyph glyph-name="rcaron" unicode="&#x159;" horiz-adv-x="666" 
 />
    <glyph glyph-name="Sacute" unicode="&#x15a;" horiz-adv-x="1080" 
 />
    <glyph glyph-name="sacute" unicode="&#x15b;" horiz-adv-x="930" 
 />
    <glyph glyph-name="Scircumflex" unicode="&#x15c;" horiz-adv-x="1080" 
 />
    <glyph glyph-name="scircumflex" unicode="&#x15d;" horiz-adv-x="930" 
 />
    <glyph glyph-name="Scedilla" unicode="&#x15e;" horiz-adv-x="1080" 
 />
    <glyph glyph-name="scedilla" unicode="&#x15f;" horiz-adv-x="930" 
 />
    <glyph glyph-name="Scaron" unicode="&#x160;" horiz-adv-x="1080" 
d="M100 334h200c11 -150 143 -196 266 -196c147 0 222 63 222 156c0 76 -51 128 -154 156l-236 66c-181 51 -272 152 -272 304c0 224 191 316 404 316c238 0 406 -119 422 -348h-200c-11 147 -122 190 -236 190c-128 0 -192 -53 -192 -144c0 -77 45 -127 154 -156l234 -66
c173 -48 274 -136 274 -304c0 -242 -209 -328 -430 -328c-256 0 -440 120 -456 354zM482 1252l-228 280h110l180 -134l180 134h110l-228 -280h-124z" />
    <glyph glyph-name="scaron" unicode="&#x161;" horiz-adv-x="930" 
d="M86 284h188c5 -101 85 -166 208 -166c99 0 168 43 168 120c0 98 -104 106 -264 154c-126 37 -264 84 -264 254c0 181 170 252 338 252c97 0 178 -23 243 -68s100 -115 107 -208h-188c-5 83 -67 140 -168 140c-80 0 -144 -35 -144 -104c0 -91 113 -103 270 -146
c128 -37 260 -90 260 -262c0 -203 -186 -270 -362 -270c-217 0 -376 101 -392 304zM402 1038l-228 280h110l180 -134l180 134h110l-228 -280h-124z" />
    <glyph glyph-name="Tcommaaccent" unicode="&#x162;" horiz-adv-x="946" 
 />
    <glyph glyph-name="tcommaaccent" unicode="&#x163;" horiz-adv-x="668" 
 />
    <glyph glyph-name="Tcaron" unicode="&#x164;" horiz-adv-x="946" 
 />
    <glyph glyph-name="tcaron" unicode="&#x165;" horiz-adv-x="668" 
 />
    <glyph glyph-name="Tbar" unicode="&#x166;" horiz-adv-x="966" 
 />
    <glyph glyph-name="tbar" unicode="&#x167;" horiz-adv-x="712" 
 />
    <glyph glyph-name="Utilde" unicode="&#x168;" horiz-adv-x="1200" 
 />
    <glyph glyph-name="utilde" unicode="&#x169;" horiz-adv-x="1018" 
 />
    <glyph glyph-name="Umacron" unicode="&#x16a;" horiz-adv-x="1200" 
 />
    <glyph glyph-name="umacron" unicode="&#x16b;" horiz-adv-x="1018" 
 />
    <glyph glyph-name="Ubreve" unicode="&#x16c;" horiz-adv-x="1200" 
 />
    <glyph glyph-name="ubreve" unicode="&#x16d;" horiz-adv-x="1018" 
 />
    <glyph glyph-name="Uring" unicode="&#x16e;" horiz-adv-x="1200" 
 />
    <glyph glyph-name="uring" unicode="&#x16f;" horiz-adv-x="1018" 
 />
    <glyph glyph-name="Uhungarumlaut" unicode="&#x170;" horiz-adv-x="1200" 
 />
    <glyph glyph-name="uhungarumlaut" unicode="&#x171;" horiz-adv-x="1018" 
 />
    <glyph glyph-name="Uogonek" unicode="&#x172;" horiz-adv-x="1200" 
 />
    <glyph glyph-name="uogonek" unicode="&#x173;" horiz-adv-x="1018" 
 />
    <glyph glyph-name="Wcircumflex" unicode="&#x174;" horiz-adv-x="1616" 
 />
    <glyph glyph-name="wcircumflex" unicode="&#x175;" horiz-adv-x="1388" 
 />
    <glyph glyph-name="Ycircumflex" unicode="&#x176;" horiz-adv-x="1042" 
 />
    <glyph glyph-name="ycircumflex" unicode="&#x177;" horiz-adv-x="924" 
 />
    <glyph glyph-name="Ydieresis" unicode="&#x178;" horiz-adv-x="1042" 
d="M422 0v438l-406 678h218l290 -506l292 506h210l-406 -678v-438h-198zM240 1300v186h194v-186h-194zM610 1300v186h194v-186h-194z" />
    <glyph glyph-name="Zacute" unicode="&#x179;" horiz-adv-x="1016" 
 />
    <glyph glyph-name="zacute" unicode="&#x17a;" horiz-adv-x="876" 
 />
    <glyph glyph-name="Zdotaccent" unicode="&#x17b;" horiz-adv-x="1016" 
 />
    <glyph glyph-name="zdotaccent" unicode="&#x17c;" horiz-adv-x="876" 
 />
    <glyph glyph-name="Zcaron" unicode="&#x17d;" horiz-adv-x="1016" 
d="M86 0v160l586 786h-562v170h802v-160l-586 -786h610v-170h-850zM464 1252l-228 280h110l180 -134l180 134h110l-228 -280h-124z" />
    <glyph glyph-name="zcaron" unicode="&#x17e;" horiz-adv-x="876" 
d="M86 0v128l456 600h-446v150h684v-128l-456 -600h468v-150h-706zM372 1038l-228 280h110l180 -134l180 134h110l-228 -280h-124z" />
    <glyph glyph-name="florin" unicode="&#x192;" horiz-adv-x="1034" 
d="M618 580l-54 -294c-37 -208 -125 -306 -306 -306c-80 0 -136 18 -169 54s-49 79 -49 130c0 24 2 45 6 64h148c-3 -13 -4 -27 -4 -40c0 -53 27 -70 64 -70c69 0 99 56 120 168l52 294h-146l24 130h144l22 120c37 208 127 306 306 306c81 0 138 -18 170 -54s48 -79 48 -130
c0 -25 -2 -47 -6 -64h-148c3 13 4 27 4 40c0 53 -27 70 -64 70c-67 0 -99 -56 -120 -168l-22 -120h196l-24 -130h-192z" />
    <glyph glyph-name="AEacute" unicode="&#x1fc;" horiz-adv-x="1644" 
 />
    <glyph glyph-name="aeacute" unicode="&#x1fd;" horiz-adv-x="1516" 
 />
    <glyph glyph-name="Oslashacute" unicode="&#x1fe;" horiz-adv-x="1280" 
 />
    <glyph glyph-name="oslashacute" unicode="&#x1ff;" horiz-adv-x="1032" 
 />
    <glyph glyph-name="Scommaaccent" unicode="&#x218;" horiz-adv-x="1080" 
 />
    <glyph glyph-name="scommaaccent" unicode="&#x219;" horiz-adv-x="930" 
 />
    <glyph glyph-name="uni021A" unicode="&#x21a;" horiz-adv-x="946" 
 />
    <glyph glyph-name="uni021B" unicode="&#x21b;" horiz-adv-x="668" 
 />
    <glyph glyph-name="dotlessj" unicode="&#x237;" horiz-adv-x="488" 
 />
    <glyph glyph-name="circumflex" unicode="&#x2c6;" horiz-adv-x="832" 
d="M126 1038l228 280h124l228 -280h-110l-180 134l-180 -134h-110z" />
    <glyph glyph-name="caron" unicode="&#x2c7;" horiz-adv-x="832" 
d="M354 1038l-228 280h110l180 -134l180 134h110l-228 -280h-124z" />
    <glyph glyph-name="breve" unicode="&#x2d8;" horiz-adv-x="832" 
 />
    <glyph glyph-name="dotaccent" unicode="&#x2d9;" horiz-adv-x="832" 
 />
    <glyph glyph-name="ring" unicode="&#x2da;" horiz-adv-x="832" 
d="M416 1096c61 0 108 41 108 116s-47 116 -108 116s-108 -41 -108 -116s47 -116 108 -116zM416 1000c-107 0 -212 81 -212 212s105 212 212 212s212 -81 212 -212s-105 -212 -212 -212z" />
    <glyph glyph-name="ogonek" unicode="&#x2db;" horiz-adv-x="832" 
 />
    <glyph glyph-name="tilde" unicode="&#x2dc;" horiz-adv-x="832" 
d="M134 1094v114c29 53 83 94 150 94c126 0 187 -116 278 -116c59 0 101 34 136 74v-114c-29 -53 -83 -94 -150 -94c-129 0 -186 116 -278 116c-59 0 -101 -34 -136 -74z" />
    <glyph glyph-name="hungarumlaut" unicode="&#x2dd;" horiz-adv-x="832" 
 />
    <glyph glyph-name="commatop" unicode="&#x312;" horiz-adv-x="832" 
 />
    <glyph glyph-name="commaaccent" unicode="&#x326;" horiz-adv-x="832" 
 />
    <glyph glyph-name="pi" unicode="&#x3c0;" horiz-adv-x="1044" 
 />
    <glyph glyph-name="Wgrave" unicode="&#x1e80;" horiz-adv-x="1616" 
 />
    <glyph glyph-name="wgrave" unicode="&#x1e81;" horiz-adv-x="1388" 
 />
    <glyph glyph-name="Wacute" unicode="&#x1e82;" horiz-adv-x="1616" 
 />
    <glyph glyph-name="wacute" unicode="&#x1e83;" horiz-adv-x="1388" 
 />
    <glyph glyph-name="Wdieresis" unicode="&#x1e84;" horiz-adv-x="1616" 
 />
    <glyph glyph-name="wdieresis" unicode="&#x1e85;" horiz-adv-x="1388" 
 />
    <glyph glyph-name="Ygrave" unicode="&#x1ef2;" horiz-adv-x="1042" 
 />
    <glyph glyph-name="ygrave" unicode="&#x1ef3;" horiz-adv-x="924" 
 />
    <glyph glyph-name="endash" unicode="&#x2013;" 
d="M122 396v152h796v-152h-796z" />
    <glyph glyph-name="emdash" unicode="&#x2014;" horiz-adv-x="1438" 
d="M122 396v152h1194v-152h-1194z" />
    <glyph glyph-name="quoteleft" unicode="&#x2018;" horiz-adv-x="508" 
d="M144 700v220l122 276h98l-114 -276h114v-220h-220z" />
    <glyph glyph-name="quoteright" unicode="&#x2019;" horiz-adv-x="508" 
d="M364 1196v-220l-122 -276h-98l114 276h-114v220h220z" />
    <glyph glyph-name="quotesinglbase" unicode="&#x201a;" horiz-adv-x="604" 
d="M412 220v-220l-122 -276h-98l114 276h-114v220h220z" />
    <glyph glyph-name="quotedblleft" unicode="&#x201c;" horiz-adv-x="846" 
d="M144 700v220l122 276h98l-114 -276h114v-220h-220zM482 700v220l122 276h98l-114 -276h114v-220h-220z" />
    <glyph glyph-name="quotedblright" unicode="&#x201d;" horiz-adv-x="846" 
d="M364 1196v-220l-122 -276h-98l114 276h-114v220h220zM702 1196v-220l-122 -276h-98l114 276h-114v220h220z" />
    <glyph glyph-name="quotedblbase" unicode="&#x201e;" horiz-adv-x="942" 
d="M412 220v-220l-122 -276h-98l114 276h-114v220h220zM750 220v-220l-122 -276h-98l114 276h-114v220h220z" />
    <glyph glyph-name="dagger" unicode="&#x2020;" horiz-adv-x="746" 
d="M310 410v508h-232v114h232v232h126v-232h232v-114h-232v-508h-126z" />
    <glyph glyph-name="daggerdbl" unicode="&#x2021;" horiz-adv-x="746" 
d="M310 78v500h-232v114h232v226h-232v114h232v232h126v-232h232v-114h-232v-226h232v-114h-232v-500h-126z" />
    <glyph glyph-name="bullet" unicode="&#x2022;" horiz-adv-x="632" 
d="M132 466c0 51 15 94 45 129s76 53 139 53s109 -18 139 -53s45 -78 45 -129s-15 -94 -45 -129s-76 -53 -139 -53s-109 18 -139 53s-45 78 -45 129z" />
    <glyph glyph-name="ellipsis" unicode="&#x2026;" horiz-adv-x="1420" 
d="M180 0v216h216v-216h-216zM602 0v216h216v-216h-216zM1024 0v216h216v-216h-216z" />
    <glyph glyph-name="perthousand" unicode="&#x2030;" horiz-adv-x="2180" 
d="M1812 104c101 0 146 73 146 198s-45 198 -146 198s-146 -73 -146 -198s45 -198 146 -198zM1812 -20c-141 0 -286 77 -286 322s145 322 286 322c139 0 286 -77 286 -322s-147 -322 -286 -322zM368 616c101 0 146 73 146 198s-45 198 -146 198s-146 -73 -146 -198
s45 -198 146 -198zM368 492c-141 0 -286 77 -286 322s145 322 286 322c139 0 286 -77 286 -322s-147 -322 -286 -322zM326 0l722 1116h158l-722 -1116h-158zM1164 104c101 0 146 73 146 198s-45 198 -146 198s-146 -73 -146 -198s45 -198 146 -198zM1164 -20
c-141 0 -286 77 -286 322s145 322 286 322c139 0 286 -77 286 -322s-147 -322 -286 -322z" />
    <glyph glyph-name="guilsinglleft" unicode="&#x2039;" horiz-adv-x="652" 
d="M378 154l-250 312l250 312h154l-232 -312l232 -312h-154z" />
    <glyph glyph-name="guilsinglright" unicode="&#x203a;" horiz-adv-x="652" 
d="M120 154l232 312l-232 312h154l250 -312l-250 -312h-154z" />
    <glyph glyph-name="fraction" unicode="&#x2044;" horiz-adv-x="904" 
d="M22 0l724 1116h136l-724 -1116h-136z" />
    <glyph glyph-name="uni2070" unicode="&#x2070;" horiz-adv-x="776" 
d="M388 544c105 0 138 110 138 238s-33 238 -138 238s-138 -110 -138 -238s33 -238 138 -238zM388 436c-186 0 -272 141 -272 346s86 346 272 346s272 -141 272 -346s-86 -346 -272 -346z" />
    <glyph glyph-name="uni2074" unicode="&#x2074;" horiz-adv-x="700" 
d="M404 1116h124v-432h86v-98h-86v-140h-128v140h-324v84zM400 684v278l-204 -278h204z" />
    <glyph glyph-name="uni2075" unicode="&#x2075;" horiz-adv-x="696" 
d="M156 1116h404v-108h-298l-12 -160c29 21 76 36 132 36c128 0 216 -81 216 -222c0 -75 -22 -131 -67 -170s-102 -58 -173 -58c-130 0 -246 70 -246 222h124c0 -85 55 -120 116 -120c69 0 116 44 116 124c0 83 -49 122 -124 122c-53 0 -105 -23 -142 -52l-72 20z" />
    <glyph glyph-name="uni2076" unicode="&#x2076;" horiz-adv-x="724" 
d="M386 1128c67 0 121 -19 164 -56s64 -92 64 -164h-124c0 72 -34 116 -106 116s-137 -45 -142 -216c37 35 96 56 160 56s115 -20 154 -59s58 -90 58 -153c0 -64 -21 -116 -63 -157s-99 -61 -171 -61c-163 0 -270 115 -270 342c0 116 25 204 76 263s117 89 200 89zM368 766
c-45 0 -92 -15 -124 -44c13 -136 65 -186 134 -186c64 0 106 45 106 114c0 72 -44 116 -116 116z" />
    <glyph glyph-name="uni2077" unicode="&#x2077;" horiz-adv-x="586" 
d="M64 1116h440v-98c-133 -147 -190 -333 -190 -536v-36h-132v50c0 190 67 397 172 512h-290v108z" />
    <glyph glyph-name="uni2078" unicode="&#x2078;" horiz-adv-x="720" 
d="M360 1128c119 0 236 -57 236 -188c0 -80 -43 -123 -96 -152c64 -27 112 -75 112 -160c0 -135 -122 -194 -252 -194s-252 59 -252 194c0 85 46 133 110 160c-53 29 -94 72 -94 152c0 131 117 188 236 188zM360 742c-32 0 -61 -8 -86 -23s-38 -42 -38 -81s13 -66 39 -81
s54 -23 85 -23s59 8 85 23s39 42 39 81s-13 66 -38 81s-54 23 -86 23zM360 1028c-27 0 -51 -7 -74 -22s-34 -39 -34 -74c0 -36 11 -61 34 -76s47 -22 74 -22s51 7 74 22s34 40 34 76c0 35 -11 59 -34 74s-47 22 -74 22z" />
    <glyph glyph-name="uni2079" unicode="&#x2079;" horiz-adv-x="722" 
d="M342 1128c163 0 270 -117 270 -344c0 -116 -25 -203 -76 -262s-117 -88 -198 -88c-67 0 -121 19 -164 56s-64 92 -64 164h124c0 -69 32 -116 104 -116c73 0 131 41 142 212c-37 -32 -99 -52 -160 -52c-64 0 -115 20 -153 59s-57 90 -57 153c0 64 21 116 63 157
s98 61 169 61zM354 796c45 0 92 13 124 40c-13 139 -65 190 -134 190c-64 0 -106 -45 -106 -114c0 -72 44 -116 116 -116z" />
    <glyph glyph-name="uni2080" unicode="&#x2080;" horiz-adv-x="776" 
d="M388 100c105 0 138 110 138 238s-33 238 -138 238s-138 -110 -138 -238s33 -238 138 -238zM388 -8c-186 0 -272 141 -272 346s86 346 272 346s272 -141 272 -346s-86 -346 -272 -346z" />
    <glyph glyph-name="uni2081" unicode="&#x2081;" horiz-adv-x="542" 
d="M272 672h116v-670h-130v504c-29 -35 -92 -74 -180 -74v116c105 0 168 71 194 124z" />
    <glyph glyph-name="uni2082" unicode="&#x2082;" horiz-adv-x="680" 
d="M344 684c60 0 112 -16 157 -49s67 -82 67 -149c0 -55 -15 -99 -45 -134s-66 -66 -107 -94l-74 -50c-45 -32 -77 -62 -82 -102h316v-104h-462v42c0 63 15 114 44 153s65 72 106 99l76 50c27 19 49 37 67 54s27 43 27 78c0 69 -39 102 -98 102s-108 -33 -108 -118h-124
c0 151 114 222 240 222z" />
    <glyph glyph-name="uni2083" unicode="&#x2083;" horiz-adv-x="700" 
d="M352 684c64 0 117 -17 160 -50s64 -79 64 -138c0 -53 -20 -108 -92 -148c61 -29 106 -84 106 -164c0 -63 -22 -111 -66 -144s-101 -50 -170 -50c-71 0 -130 18 -178 54s-72 92 -72 168h124c0 -85 51 -120 118 -120c69 0 112 36 112 100c0 69 -51 104 -126 104h-50v94h50
c75 0 112 31 112 94c0 61 -41 98 -102 98s-108 -33 -108 -118h-122c0 151 114 220 240 220z" />
    <glyph glyph-name="uni2084" unicode="&#x2084;" horiz-adv-x="700" 
d="M404 672h124v-432h86v-98h-86v-140h-128v140h-324v84zM400 240v278l-204 -278h204z" />
    <glyph glyph-name="uni2085" unicode="&#x2085;" horiz-adv-x="696" 
d="M156 672h404v-108h-298l-12 -160c29 21 76 36 132 36c128 0 216 -81 216 -222c0 -75 -22 -131 -67 -170s-102 -58 -173 -58c-130 0 -246 70 -246 222h124c0 -85 55 -120 116 -120c69 0 116 44 116 124c0 83 -49 122 -124 122c-53 0 -105 -23 -142 -52l-72 20z" />
    <glyph glyph-name="uni2086" unicode="&#x2086;" horiz-adv-x="724" 
d="M386 684c67 0 121 -19 164 -56s64 -92 64 -164h-124c0 72 -34 116 -106 116s-137 -45 -142 -216c37 35 96 56 160 56s115 -20 154 -59s58 -90 58 -153c0 -64 -21 -116 -63 -157s-99 -61 -171 -61c-163 0 -270 115 -270 342c0 116 25 204 76 263s117 89 200 89zM368 322
c-45 0 -92 -15 -124 -44c13 -136 65 -186 134 -186c64 0 106 45 106 114c0 72 -44 116 -116 116z" />
    <glyph glyph-name="uni2087" unicode="&#x2087;" horiz-adv-x="586" 
d="M64 672h440v-98c-133 -147 -190 -333 -190 -536v-36h-132v50c0 190 67 397 172 512h-290v108z" />
    <glyph glyph-name="uni2088" unicode="&#x2088;" horiz-adv-x="720" 
d="M360 684c119 0 236 -57 236 -188c0 -80 -43 -123 -96 -152c64 -27 112 -75 112 -160c0 -135 -122 -194 -252 -194s-252 59 -252 194c0 85 46 133 110 160c-53 29 -94 72 -94 152c0 131 117 188 236 188zM360 298c-32 0 -61 -8 -86 -23s-38 -42 -38 -81s13 -66 39 -81
s54 -23 85 -23s59 8 85 23s39 42 39 81s-13 66 -38 81s-54 23 -86 23zM360 584c-27 0 -51 -7 -74 -22s-34 -39 -34 -74c0 -36 11 -61 34 -76s47 -22 74 -22s51 7 74 22s34 40 34 76c0 35 -11 59 -34 74s-47 22 -74 22z" />
    <glyph glyph-name="uni2089" unicode="&#x2089;" horiz-adv-x="722" 
d="M342 684c163 0 270 -117 270 -344c0 -116 -25 -203 -76 -262s-117 -88 -198 -88c-67 0 -121 19 -164 56s-64 92 -64 164h124c0 -69 32 -116 104 -116c73 0 131 41 142 212c-37 -32 -99 -52 -160 -52c-64 0 -115 20 -153 59s-57 90 -57 153c0 64 21 116 63 157
s98 61 169 61zM354 352c45 0 92 13 124 40c-13 139 -65 190 -134 190c-64 0 -106 -45 -106 -114c0 -72 44 -116 116 -116z" />
    <glyph glyph-name="Euro" unicode="&#x20ac;" horiz-adv-x="1226" 
d="M62 646v102h148c25 120 77 215 154 284s181 104 310 104c245 0 436 -138 452 -388h-188c-5 64 -29 119 -72 165s-105 69 -188 69c-165 0 -243 -103 -274 -234h338v-102h-352c-3 -29 -4 -59 -4 -88s1 -59 4 -88h352v-102h-338c16 -67 45 -122 87 -167s104 -67 187 -67
s145 23 188 69s67 101 72 165h188c-16 -250 -207 -388 -452 -388c-129 0 -233 35 -310 104s-129 164 -154 284h-148v102h134c-3 29 -4 59 -4 88s1 59 4 88h-134z" />
    <glyph glyph-name="trademark" unicode="&#x2122;" horiz-adv-x="1124" 
d="M520 634v482h118l112 -226l114 226h112v-482h-102v320l-90 -186h-72l-90 186v-320h-102zM220 634v388h-128v94h362v-94h-128v-388h-106z" />
    <glyph glyph-name="Omega" unicode="&#x2126;" horiz-adv-x="1244" 
 />
    <glyph glyph-name="uni2153" unicode="&#x2153;" horiz-adv-x="1440" 
d="M1092 684c64 0 117 -17 160 -50s64 -79 64 -138c0 -53 -20 -108 -92 -148c61 -29 106 -84 106 -164c0 -63 -22 -111 -66 -144s-101 -50 -170 -50c-71 0 -130 18 -178 54s-72 92 -72 168h124c0 -85 51 -120 118 -120c69 0 112 36 112 100c0 69 -51 104 -126 104h-50v94h50
c75 0 112 31 112 94c0 61 -41 98 -102 98s-108 -33 -108 -118h-122c0 151 114 220 240 220zM272 1116h116v-670h-130v504c-29 -35 -92 -74 -180 -74v116c105 0 168 71 194 124zM218 0l724 1116h136l-724 -1116h-136z" />
    <glyph glyph-name="uni2154" unicode="&#x2154;" horiz-adv-x="1602" 
d="M344 1128c60 0 112 -16 157 -49s67 -82 67 -149c0 -55 -15 -99 -45 -134s-66 -66 -107 -94l-74 -50c-45 -32 -77 -62 -82 -102h316v-104h-462v42c0 63 15 114 44 153s65 72 106 99l76 50c27 19 49 37 67 54s27 43 27 78c0 69 -39 102 -98 102s-108 -33 -108 -118h-124
c0 151 114 222 240 222zM1254 684c64 0 117 -17 160 -50s64 -79 64 -138c0 -53 -20 -108 -92 -148c61 -29 106 -84 106 -164c0 -63 -22 -111 -66 -144s-101 -50 -170 -50c-71 0 -130 18 -178 54s-72 92 -72 168h124c0 -85 51 -120 118 -120c69 0 112 36 112 100
c0 69 -51 104 -126 104h-50v94h50c75 0 112 31 112 94c0 61 -41 98 -102 98s-108 -33 -108 -118h-122c0 151 114 220 240 220zM380 0l724 1116h136l-724 -1116h-136z" />
    <glyph glyph-name="uni2155" unicode="&#x2155;" horiz-adv-x="1438" 
d="M898 672h404v-108h-298l-12 -160c29 21 76 36 132 36c128 0 216 -81 216 -222c0 -75 -22 -131 -67 -170s-102 -58 -173 -58c-130 0 -246 70 -246 222h124c0 -85 55 -120 116 -120c69 0 116 44 116 124c0 83 -49 122 -124 122c-53 0 -105 -23 -142 -52l-72 20zM272 1116
h116v-670h-130v504c-29 -35 -92 -74 -180 -74v116c105 0 168 71 194 124zM218 0l724 1116h136l-724 -1116h-136z" />
    <glyph glyph-name="uni2156" unicode="&#x2156;" horiz-adv-x="1598" 
d="M1058 672h404v-108h-298l-12 -160c29 21 76 36 132 36c128 0 216 -81 216 -222c0 -75 -22 -131 -67 -170s-102 -58 -173 -58c-130 0 -246 70 -246 222h124c0 -85 55 -120 116 -120c69 0 116 44 116 124c0 83 -49 122 -124 122c-53 0 -105 -23 -142 -52l-72 20zM344 1128
c60 0 112 -16 157 -49s67 -82 67 -149c0 -55 -15 -99 -45 -134s-66 -66 -107 -94l-74 -50c-45 -32 -77 -62 -82 -102h316v-104h-462v42c0 63 15 114 44 153s65 72 106 99l76 50c27 19 49 37 67 54s27 43 27 78c0 69 -39 102 -98 102s-108 -33 -108 -118h-124
c0 151 114 222 240 222zM380 0l724 1116h136l-724 -1116h-136z" />
    <glyph glyph-name="uni2157" unicode="&#x2157;" horiz-adv-x="1578" 
d="M1038 672h404v-108h-298l-12 -160c29 21 76 36 132 36c128 0 216 -81 216 -222c0 -75 -22 -131 -67 -170s-102 -58 -173 -58c-130 0 -246 70 -246 222h124c0 -85 55 -120 116 -120c69 0 116 44 116 124c0 83 -49 122 -124 122c-53 0 -105 -23 -142 -52l-72 20zM352 1128
c64 0 117 -17 160 -50s64 -79 64 -138c0 -53 -20 -108 -92 -148c61 -29 106 -84 106 -164c0 -63 -22 -111 -66 -144s-101 -50 -170 -50c-71 0 -130 18 -178 54s-72 92 -72 168h124c0 -85 51 -120 118 -120c69 0 112 36 112 100c0 69 -51 104 -126 104h-50v94h50
c75 0 112 31 112 94c0 61 -41 98 -102 98s-108 -33 -108 -118h-122c0 151 114 220 240 220zM358 0l724 1116h136l-724 -1116h-136z" />
    <glyph glyph-name="uni2158" unicode="&#x2158;" horiz-adv-x="1590" 
d="M404 1116h124v-432h86v-98h-86v-140h-128v140h-324v84zM400 684v278l-204 -278h204zM1050 672h404v-108h-298l-12 -160c29 21 76 36 132 36c128 0 216 -81 216 -222c0 -75 -22 -131 -67 -170s-102 -58 -173 -58c-130 0 -246 70 -246 222h124c0 -85 55 -120 116 -120
c69 0 116 44 116 124c0 83 -49 122 -124 122c-53 0 -105 -23 -142 -52l-72 20zM372 0l724 1116h136l-724 -1116h-136z" />
    <glyph glyph-name="uni2159" unicode="&#x2159;" horiz-adv-x="1456" 
d="M1118 684c67 0 121 -19 164 -56s64 -92 64 -164h-124c0 72 -34 116 -106 116s-137 -45 -142 -216c37 35 96 56 160 56s115 -20 154 -59s58 -90 58 -153c0 -64 -21 -116 -63 -157s-99 -61 -171 -61c-163 0 -270 115 -270 342c0 116 25 204 76 263s117 89 200 89zM1100 322
c-45 0 -92 -15 -124 -44c13 -136 65 -186 134 -186c64 0 106 45 106 114c0 72 -44 116 -116 116zM272 1116h116v-670h-130v504c-29 -35 -92 -74 -180 -74v116c105 0 168 71 194 124zM218 0l724 1116h136l-724 -1116h-136z" />
    <glyph glyph-name="uni215A" unicode="&#x215a;" horiz-adv-x="1592" 
d="M1254 684c67 0 121 -19 164 -56s64 -92 64 -164h-124c0 72 -34 116 -106 116s-137 -45 -142 -216c37 35 96 56 160 56s115 -20 154 -59s58 -90 58 -153c0 -64 -21 -116 -63 -157s-99 -61 -171 -61c-163 0 -270 115 -270 342c0 116 25 204 76 263s117 89 200 89zM1236 322
c-45 0 -92 -15 -124 -44c13 -136 65 -186 134 -186c64 0 106 45 106 114c0 72 -44 116 -116 116zM156 1116h404v-108h-298l-12 -160c29 21 76 36 132 36c128 0 216 -81 216 -222c0 -75 -22 -131 -67 -170s-102 -58 -173 -58c-130 0 -246 70 -246 222h124
c0 -85 55 -120 116 -120c69 0 116 44 116 124c0 83 -49 122 -124 122c-53 0 -105 -23 -142 -52l-72 20zM354 0l724 1116h136l-724 -1116h-136z" />
    <glyph glyph-name="uni215B" unicode="&#x215b;" horiz-adv-x="1454" 
d="M272 1116h116v-670h-130v504c-29 -35 -92 -74 -180 -74v116c105 0 168 71 194 124zM218 0l724 1116h136l-724 -1116h-136zM1094 684c119 0 236 -57 236 -188c0 -80 -43 -123 -96 -152c64 -27 112 -75 112 -160c0 -135 -122 -194 -252 -194s-252 59 -252 194
c0 85 46 133 110 160c-53 29 -94 72 -94 152c0 131 117 188 236 188zM1094 298c-32 0 -61 -8 -86 -23s-38 -42 -38 -81s13 -66 39 -81s54 -23 85 -23s59 8 85 23s39 42 39 81s-13 66 -38 81s-54 23 -86 23zM1094 584c-27 0 -51 -7 -74 -22s-34 -39 -34 -74
c0 -36 11 -61 34 -76s47 -22 74 -22s51 7 74 22s34 40 34 76c0 35 -11 59 -34 74s-47 22 -74 22z" />
    <glyph glyph-name="uni215C" unicode="&#x215c;" horiz-adv-x="1594" 
d="M352 1128c64 0 117 -17 160 -50s64 -79 64 -138c0 -53 -20 -108 -92 -148c61 -29 106 -84 106 -164c0 -63 -22 -111 -66 -144s-101 -50 -170 -50c-71 0 -130 18 -178 54s-72 92 -72 168h124c0 -85 51 -120 118 -120c69 0 112 36 112 100c0 69 -51 104 -126 104h-50v94h50
c75 0 112 31 112 94c0 61 -41 98 -102 98s-108 -33 -108 -118h-122c0 151 114 220 240 220zM358 0l724 1116h136l-724 -1116h-136zM1234 684c119 0 236 -57 236 -188c0 -80 -43 -123 -96 -152c64 -27 112 -75 112 -160c0 -135 -122 -194 -252 -194s-252 59 -252 194
c0 85 46 133 110 160c-53 29 -94 72 -94 152c0 131 117 188 236 188zM1234 298c-32 0 -61 -8 -86 -23s-38 -42 -38 -81s13 -66 39 -81s54 -23 85 -23s59 8 85 23s39 42 39 81s-13 66 -38 81s-54 23 -86 23zM1234 584c-27 0 -51 -7 -74 -22s-34 -39 -34 -74
c0 -36 11 -61 34 -76s47 -22 74 -22s51 7 74 22s34 40 34 76c0 35 -11 59 -34 74s-47 22 -74 22z" />
    <glyph glyph-name="uni215D" unicode="&#x215d;" horiz-adv-x="1590" 
d="M156 1116h404v-108h-298l-12 -160c29 21 76 36 132 36c128 0 216 -81 216 -222c0 -75 -22 -131 -67 -170s-102 -58 -173 -58c-130 0 -246 70 -246 222h124c0 -85 55 -120 116 -120c69 0 116 44 116 124c0 83 -49 122 -124 122c-53 0 -105 -23 -142 -52l-72 20zM354 0
l724 1116h136l-724 -1116h-136zM1230 684c119 0 236 -57 236 -188c0 -80 -43 -123 -96 -152c64 -27 112 -75 112 -160c0 -135 -122 -194 -252 -194s-252 59 -252 194c0 85 46 133 110 160c-53 29 -94 72 -94 152c0 131 117 188 236 188zM1230 298c-32 0 -61 -8 -86 -23
s-38 -42 -38 -81s13 -66 39 -81s54 -23 85 -23s59 8 85 23s39 42 39 81s-13 66 -38 81s-54 23 -86 23zM1230 584c-27 0 -51 -7 -74 -22s-34 -39 -34 -74c0 -36 11 -61 34 -76s47 -22 74 -22s51 7 74 22s34 40 34 76c0 35 -11 59 -34 74s-47 22 -74 22z" />
    <glyph glyph-name="uni215E" unicode="&#x215e;" horiz-adv-x="1430" 
d="M64 1116h440v-98c-133 -147 -190 -333 -190 -536v-36h-132v50c0 190 67 397 172 512h-290v108zM194 0l724 1116h136l-724 -1116h-136zM1070 684c119 0 236 -57 236 -188c0 -80 -43 -123 -96 -152c64 -27 112 -75 112 -160c0 -135 -122 -194 -252 -194s-252 59 -252 194
c0 85 46 133 110 160c-53 29 -94 72 -94 152c0 131 117 188 236 188zM1070 298c-32 0 -61 -8 -86 -23s-38 -42 -38 -81s13 -66 39 -81s54 -23 85 -23s59 8 85 23s39 42 39 81s-13 66 -38 81s-54 23 -86 23zM1070 584c-27 0 -51 -7 -74 -22s-34 -39 -34 -74
c0 -36 11 -61 34 -76s47 -22 74 -22s51 7 74 22s34 40 34 76c0 35 -11 59 -34 74s-47 22 -74 22z" />
    <glyph glyph-name="uni2190" unicode="&#x2190;" horiz-adv-x="1240" 
 />
    <glyph glyph-name="uni2191" unicode="&#x2191;" horiz-adv-x="1240" 
 />
    <glyph glyph-name="uni2192" unicode="&#x2192;" horiz-adv-x="1240" 
 />
    <glyph glyph-name="uni2193" unicode="&#x2193;" horiz-adv-x="1240" 
 />
    <glyph glyph-name="uni2196" unicode="&#x2196;" horiz-adv-x="1240" 
 />
    <glyph glyph-name="uni2197" unicode="&#x2197;" horiz-adv-x="1240" 
 />
    <glyph glyph-name="uni2198" unicode="&#x2198;" horiz-adv-x="1240" 
 />
    <glyph glyph-name="uni2199" unicode="&#x2199;" horiz-adv-x="1240" 
 />
    <glyph glyph-name="partialdiff" unicode="&#x2202;" horiz-adv-x="1024" 
 />
    <glyph glyph-name="increment" unicode="&#x2206;" horiz-adv-x="1146" 
 />
    <glyph glyph-name="product" unicode="&#x220f;" horiz-adv-x="1174" 
 />
    <glyph glyph-name="summation" unicode="&#x2211;" horiz-adv-x="1004" 
 />
    <glyph glyph-name="minus" unicode="&#x2212;" 
 />
    <glyph glyph-name="radical" unicode="&#x221a;" 
 />
    <glyph glyph-name="infinity" unicode="&#x221e;" horiz-adv-x="1288" 
 />
    <glyph glyph-name="integral" unicode="&#x222b;" horiz-adv-x="828" 
 />
    <glyph glyph-name="approxequal" unicode="&#x2248;" 
 />
    <glyph glyph-name="notequal" unicode="&#x2260;" 
 />
    <glyph glyph-name="lessequal" unicode="&#x2264;" 
 />
    <glyph glyph-name="greaterequal" unicode="&#x2265;" 
 />
    <glyph glyph-name="lozenge" unicode="&#x25ca;" horiz-adv-x="972" 
 />
    <glyph glyph-name="fi" unicode="&#xfb01;" horiz-adv-x="1042" 
d="M166 0v732h-134v146h134v182c0 165 78 284 268 284c52 0 87 -6 106 -18v-154c-19 5 -47 12 -74 12c-83 0 -108 -53 -108 -138v-168h182v-146h-182v-732h-192zM706 0v878h192v-878h-192zM694 1132v192h216v-192h-216z" />
    <glyph glyph-name="fl" unicode="&#xfb02;" horiz-adv-x="1038" 
d="M166 0v732h-134v146h134v182c0 165 78 284 268 284c52 0 87 -6 106 -18v-154c-19 5 -47 12 -74 12c-83 0 -108 -53 -108 -138v-168h182v-146h-182v-732h-192zM704 0v1324h192v-1324h-192z" />
    <glyph glyph-name="zero.zero" horiz-adv-x="1128" 
d="M564 980c-197 0 -250 -175 -250 -422c0 -249 53 -422 250 -422c196 0 250 173 250 422c0 247 -54 422 -250 422zM564 636c45 0 78 -33 78 -78s-33 -78 -78 -78s-78 33 -78 78s33 78 78 78zM564 1136c306 0 444 -221 444 -578s-138 -578 -444 -578s-444 221 -444 578
s138 578 444 578z" />
    <glyph glyph-name="zero.tf" 
d="M520 976c-185 0 -234 -173 -234 -418s49 -418 234 -418c184 0 234 173 234 418s-50 418 -234 418zM520 1136c297 0 432 -221 432 -578s-135 -578 -432 -578s-432 221 -432 578s135 578 432 578z" />
    <glyph glyph-name="zero.zero_tf" 
 />
    <glyph glyph-name="one.tf" 
d="M206 160h288v694c-27 -27 -67 -51 -120 -74s-115 -35 -186 -36v162c170 5 285 107 328 210h174v-956h254v-160h-738v160z" />
    <glyph glyph-name="two.tf" 
d="M530 1136c120 0 211 -31 272 -92s92 -141 92 -238c0 -83 -21 -152 -64 -207s-99 -108 -168 -157l-150 -106c-72 -51 -116 -105 -124 -174h522v-162h-738v64c0 181 85 308 226 404l146 100c44 29 82 62 113 98s47 83 47 142c0 109 -61 176 -184 176
c-128 0 -193 -75 -196 -214h-184c0 117 35 208 105 271s165 95 285 95z" />
    <glyph glyph-name="three.tf" 
d="M538 1136c242 0 366 -141 366 -310c0 -117 -56 -210 -160 -258c112 -37 186 -132 186 -268c0 -179 -132 -320 -386 -320c-256 0 -400 137 -400 374h186c3 -155 80 -222 208 -222s202 66 202 178s-77 182 -224 182h-84v146h86c133 0 198 65 198 172s-63 174 -186 174
c-128 0 -191 -76 -194 -212h-186c0 116 35 206 105 269s164 95 283 95z" />
    <glyph glyph-name="four.tf" 
d="M642 1116h178v-730h144v-150h-144v-236h-190v236h-522v128zM290 386h340v476z" />
    <glyph glyph-name="five.tf" 
d="M228 1116h638v-162h-482l-22 -294c56 37 135 62 226 62c227 0 352 -160 352 -368c0 -210 -129 -374 -392 -374c-121 0 -218 33 -289 98s-107 157 -107 276h184c3 -155 85 -222 208 -222c139 0 206 87 206 218c0 136 -74 222 -218 222c-93 0 -171 -38 -232 -94l-114 26z
" />
    <glyph glyph-name="six.tf" 
d="M554 1136c235 0 364 -157 364 -360h-184c0 59 -15 108 -44 148s-75 60 -138 60c-144 0 -237 -119 -242 -386c75 60 160 90 256 90c197 0 350 -131 350 -350s-154 -358 -376 -358c-267 0 -424 196 -424 572c0 400 182 584 438 584zM526 540c-69 0 -153 -25 -214 -78
c7 -117 31 -202 73 -253s94 -77 157 -77c112 0 188 74 188 202c0 133 -84 206 -204 206z" />
    <glyph glyph-name="seven.tf" 
d="M148 1116h746v-144c-237 -243 -330 -547 -330 -918v-54h-200v88c0 350 142 695 318 866h-534v162z" />
    <glyph glyph-name="eight.tf" 
d="M520 1136c240 0 380 -143 380 -314c0 -115 -59 -208 -166 -256c109 -40 188 -132 188 -268c0 -176 -138 -318 -402 -318c-265 0 -402 142 -402 318c0 136 79 228 188 268c-107 48 -166 141 -166 256c0 171 140 314 380 314zM520 494c-136 0 -214 -74 -214 -186
c0 -109 75 -178 214 -178s214 69 214 178c0 112 -78 186 -214 186zM520 986c-131 0 -194 -70 -194 -174c0 -107 66 -176 194 -176s194 69 194 176c0 104 -63 174 -194 174z" />
    <glyph glyph-name="nine.tf" 
d="M500 1136c131 0 234 -48 310 -144s114 -241 114 -434s-38 -338 -115 -434s-182 -144 -315 -144c-238 0 -372 157 -372 360h184c0 -59 16 -108 47 -148s79 -60 143 -60c144 0 226 114 234 386c-71 -60 -155 -90 -252 -90c-200 0 -354 131 -354 350s157 358 376 358z
M512 576c69 0 155 25 216 78c-7 117 -31 202 -74 253s-95 77 -158 77c-109 0 -186 -74 -186 -202c0 -133 82 -206 202 -206z" />
    <glyph glyph-name="at.alt02" horiz-adv-x="1830" 
d="M876 -20c-187 0 -372 125 -372 456c0 334 185 462 372 462c71 0 128 -14 172 -41s75 -56 94 -85v106h166v-688c0 -53 24 -74 64 -74c112 0 206 157 206 424c0 411 -239 586 -610 586c-432 0 -708 -242 -708 -688c0 -443 267 -674 690 -674c190 0 356 45 418 76v-122
c-62 -31 -234 -72 -424 -72c-544 0 -828 344 -828 790c0 451 294 808 854 808c461 0 748 -241 748 -700c0 -315 -131 -564 -378 -564c-123 0 -189 59 -202 126c-32 -54 -120 -126 -262 -126zM1116 216v446c-45 45 -111 74 -188 74c-152 0 -230 -104 -230 -296
s78 -298 230 -298c77 0 143 29 188 74z" />
    <glyph glyph-name="apple" horiz-adv-x="1496" 
 />
    <glyph glyph-name="caron.slovak" horiz-adv-x="832" 
 />
    <glyph glyph-name="IJacute" horiz-adv-x="1150" 
d="M576 -20c-135 0 -240 34 -315 102s-113 175 -113 322h198c0 -176 69 -254 232 -254c80 0 138 21 173 64s53 115 53 218v684h198v-684c0 -173 -35 -275 -104 -344c-72 -72 -179 -108 -322 -108zM148 636v480h198v-480h-198zM154 1260l122 270h218l-244 -270h-96zM808 1260
l122 270h218l-244 -270h-96z" />
    <glyph glyph-name="ijacute" horiz-adv-x="968" 
d="M148 1046l122 270h218l-244 -270h-96zM630 1046l122 270h218l-244 -270h-96zM144 0v878h192v-878h-192z" />
    <glyph glyph-name="a.alt02" horiz-adv-x="1036" 
d="M728 0v108c-19 -29 -50 -58 -93 -86s-101 -42 -173 -42c-187 0 -372 125 -372 456c0 334 185 462 372 462c71 0 128 -14 172 -41s75 -56 94 -85v106h166v-878h-166zM702 216v446c-45 45 -111 74 -188 74c-152 0 -230 -104 -230 -296s78 -298 230 -298c77 0 143 29 188 74
z" />
    <glyph glyph-name="aacute.alt02" horiz-adv-x="1036" 
d="M728 0v108c-19 -29 -50 -58 -93 -86s-101 -42 -173 -42c-187 0 -372 125 -372 456c0 334 185 462 372 462c71 0 128 -14 172 -41s75 -56 94 -85v106h166v-878h-166zM702 216v446c-45 45 -111 74 -188 74c-152 0 -230 -104 -230 -296s78 -298 230 -298c77 0 143 29 188 74
zM410 1046l122 270h218l-244 -270h-96z" />
    <glyph glyph-name="agrave.alt02" horiz-adv-x="1036" 
d="M728 0v108c-19 -29 -50 -58 -93 -86s-101 -42 -173 -42c-187 0 -372 125 -372 456c0 334 185 462 372 462c71 0 128 -14 172 -41s75 -56 94 -85v106h166v-878h-166zM702 216v446c-45 45 -111 74 -188 74c-152 0 -230 -104 -230 -296s78 -298 230 -298c77 0 143 29 188 74
zM506 1046l-244 270h218l122 -270h-96z" />
    <glyph glyph-name="acircumflex.alt02" horiz-adv-x="1036" 
d="M728 0v108c-19 -29 -50 -58 -93 -86s-101 -42 -173 -42c-187 0 -372 125 -372 456c0 334 185 462 372 462c71 0 128 -14 172 -41s75 -56 94 -85v106h166v-878h-166zM702 216v446c-45 45 -111 74 -188 74c-152 0 -230 -104 -230 -296s78 -298 230 -298c77 0 143 29 188 74
zM216 1038l228 280h124l228 -280h-110l-180 134l-180 -134h-110z" />
    <glyph glyph-name="adieresis.alt02" horiz-adv-x="1036" 
d="M728 0v108c-19 -29 -50 -58 -93 -86s-101 -42 -173 -42c-187 0 -372 125 -372 456c0 334 185 462 372 462c71 0 128 -14 172 -41s75 -56 94 -85v106h166v-878h-166zM702 216v446c-45 45 -111 74 -188 74c-152 0 -230 -104 -230 -296s78 -298 230 -298c77 0 143 29 188 74
zM224 1086v186h194v-186h-194zM594 1086v186h194v-186h-194z" />
    <glyph glyph-name="atilde.alt02" horiz-adv-x="1036" 
d="M728 0v108c-19 -29 -50 -58 -93 -86s-101 -42 -173 -42c-187 0 -372 125 -372 456c0 334 185 462 372 462c71 0 128 -14 172 -41s75 -56 94 -85v106h166v-878h-166zM702 216v446c-45 45 -111 74 -188 74c-152 0 -230 -104 -230 -296s78 -298 230 -298c77 0 143 29 188 74
zM224 1094v114c29 53 83 94 150 94c126 0 187 -116 278 -116c59 0 101 34 136 74v-114c-29 -53 -83 -94 -150 -94c-129 0 -186 116 -278 116c-59 0 -101 -34 -136 -74z" />
    <glyph glyph-name="aring.alt02" horiz-adv-x="1036" 
d="M728 0v108c-19 -29 -50 -58 -93 -86s-101 -42 -173 -42c-187 0 -372 125 -372 456c0 334 185 462 372 462c71 0 128 -14 172 -41s75 -56 94 -85v106h166v-878h-166zM702 216v446c-45 45 -111 74 -188 74c-152 0 -230 -104 -230 -296s78 -298 230 -298c77 0 143 29 188 74
zM506 1096c61 0 108 41 108 116s-47 116 -108 116s-108 -41 -108 -116s47 -116 108 -116zM506 1000c-107 0 -212 81 -212 212s105 212 212 212s212 -81 212 -212s-105 -212 -212 -212z" />
    <glyph glyph-name="amacron.alt02" horiz-adv-x="1036" 
 />
    <glyph glyph-name="abreve.alt02" horiz-adv-x="1036" 
 />
    <glyph glyph-name="aogonek.alt02" horiz-adv-x="1036" 
 />
    <glyph glyph-name="g.alt02" horiz-adv-x="1036" 
d="M702 -26v130c-20 -27 -49 -52 -88 -76s-89 -36 -152 -36c-187 0 -372 119 -372 450s185 456 372 456c71 0 128 -14 172 -41s75 -56 94 -85v106h166v-918c0 -219 -72 -376 -392 -376c-233 0 -392 81 -392 312h188c0 -111 66 -166 198 -166c203 0 206 121 206 244zM702 228
v434c-45 45 -111 74 -188 74c-152 0 -230 -101 -230 -290s78 -292 230 -292c77 0 143 29 188 74z" />
    <glyph glyph-name="gbreve.alt02" horiz-adv-x="1036" 
 />
    <glyph glyph-name="gcircumflex.alt02" horiz-adv-x="1036" 
 />
    <glyph glyph-name="gcommaaccent.alt02" horiz-adv-x="1036" 
 />
    <glyph glyph-name="gdotaccent.alt02" horiz-adv-x="1036" 
 />
    <glyph glyph-name="grave.case" horiz-adv-x="832" 
d="M490 1260l-244 270h218l122 -270h-96z" />
    <glyph glyph-name="acute.case" horiz-adv-x="832" 
d="M246 1260l122 270h218l-244 -270h-96z" />
    <glyph glyph-name="dieresis.case" horiz-adv-x="832" 
d="M134 1300v186h194v-186h-194zM504 1300v186h194v-186h-194z" />
    <glyph glyph-name="circumflex.case" horiz-adv-x="832" 
d="M126 1252l228 280h124l228 -280h-110l-180 134l-180 -134h-110z" />
    <glyph glyph-name="tilde.case" horiz-adv-x="832" 
d="M134 1308v114c29 53 83 94 150 94c126 0 187 -116 278 -116c59 0 101 34 136 74v-114c-29 -53 -83 -94 -150 -94c-129 0 -186 116 -278 116c-59 0 -101 -34 -136 -74z" />
    <glyph glyph-name="macron.case" horiz-adv-x="832" 
 />
    <glyph glyph-name="breve.case" horiz-adv-x="832" 
 />
    <glyph glyph-name="dotaccent.case" horiz-adv-x="832" 
 />
    <glyph glyph-name="ring.case" horiz-adv-x="832" 
d="M416 1310c61 0 108 41 108 116s-47 116 -108 116s-108 -41 -108 -116s47 -116 108 -116zM416 1214c-107 0 -212 81 -212 212s105 212 212 212s212 -81 212 -212s-105 -212 -212 -212z" />
    <glyph glyph-name="hungarumlaut.case" horiz-adv-x="832" 
 />
    <glyph glyph-name="caron.case" horiz-adv-x="832" 
d="M354 1252l-228 280h110l180 -134l180 134h110l-228 -280h-124z" />
    <glyph glyph-name="Euro.tf" 
d="M40 646v102h124c23 120 68 215 137 284s160 104 273 104c218 0 380 -138 396 -388h-182c-5 126 -71 236 -210 236c-68 0 -119 -23 -154 -68s-59 -101 -72 -168h266v-102h-280c-3 -29 -2 -59 -2 -88s-1 -59 2 -88h280v-102h-266c13 -68 37 -124 72 -169s86 -67 154 -67
c139 0 205 110 210 236h182c-16 -250 -178 -388 -396 -388c-227 0 -365 145 -410 388h-124v102h110c-3 29 -2 59 -2 88s-1 59 2 88h-110z" />
    <glyph glyph-name="cent.tf" 
d="M748 312h178c-8 -99 -42 -176 -101 -232s-135 -88 -227 -96v-220h-120v220c-174 21 -354 134 -354 456c0 320 180 433 354 454v222h120v-222c92 -9 168 -42 227 -97s93 -132 101 -231h-178c-5 85 -57 162 -164 178v-612c107 16 159 92 164 180zM310 440
c0 -181 61 -283 182 -306v610c-121 -23 -182 -124 -182 -304z" />
    <glyph glyph-name="dollar.tf" 
d="M84 334h190c4 -64 26 -112 65 -144s86 -52 141 -60v358l-102 30c-168 51 -270 144 -270 304c0 191 152 296 358 312v216h120v-218c208 -21 331 -144 344 -344h-188c-11 125 -77 182 -170 198v-342l116 -34c84 -25 150 -61 198 -108s72 -112 72 -196
c0 -208 -159 -308 -372 -324v-216h-120v218c-109 9 -199 43 -268 101s-107 141 -114 249zM608 456l-36 10v-340c131 8 200 75 200 168c0 79 -55 133 -164 162zM294 836c0 -80 47 -133 162 -162l24 -6v322c-123 -5 -186 -63 -186 -154z" />
    <glyph glyph-name="florin.tf" 
d="M622 580l-54 -294c-37 -208 -125 -306 -306 -306c-80 0 -136 18 -169 54s-49 79 -49 130c0 24 2 45 6 64h148c-3 -13 -4 -27 -4 -40c0 -53 27 -70 64 -70c69 0 99 56 120 168l52 294h-146l24 130h144l22 120c37 208 127 306 306 306c81 0 138 -18 170 -54s48 -79 48 -130
c0 -25 -2 -47 -6 -64h-148c3 13 4 27 4 40c0 53 -27 70 -64 70c-67 0 -99 -56 -120 -168l-22 -120h196l-24 -130h-192z" />
    <glyph glyph-name="sterling.tf" 
d="M146 454v128h112c-23 36 -44 73 -64 110s-30 81 -30 132c0 171 144 312 384 312c192 0 376 -88 392 -362h-188c-4 81 -25 138 -62 170s-84 48 -140 48c-120 0 -192 -63 -192 -172c0 -44 10 -85 29 -123s39 -76 59 -115h300v-128h-248c4 -20 6 -40 6 -60
c0 -96 -51 -189 -136 -242h588v-152h-842v124c141 53 210 156 210 268c0 21 -3 41 -8 62h-170z" />
    <glyph glyph-name="yen.tf" 
d="M116 434v114h240l-324 568h212l280 -528l278 528h206l-326 -568h242v-114h-306v-140h306v-116h-306v-178h-196v178h-306v116h306v140h-306z" />
    <glyph glyph-name="jacute" horiz-adv-x="488" 
 />
    <glyph glyph-name="Jacute" horiz-adv-x="980" 
 />
    <glyph glyph-name="bbox" horiz-adv-x="80" 
 />
    </font>
</defs>
</svg>
