<svg width="110" height="28" viewBox="0 0 110 28" fill="none" xmlns="http://www.w3.org/2000/svg">
<g clip-path="url(#clip0)">
<path d="M103.283 24.7393C103.288 25.1756 103.379 25.6065 103.551 26.0072C103.724 26.4079 103.973 26.7704 104.285 27.0737C104.598 27.3769 104.967 27.615 105.372 27.774C105.777 27.933 106.209 28.0099 106.644 28.0001C107.079 28.0147 107.513 27.9411 107.92 27.7837C108.327 27.6264 108.697 27.3885 109.011 27.0842C109.324 26.78 109.573 26.4156 109.743 26.0127C109.913 25.6098 110 25.1768 110 24.7393C110 22.7796 108.538 21.4784 106.644 21.4784C104.749 21.4784 103.283 22.7796 103.283 24.7393V24.7393Z" fill="#F37620"/>
<path fill-rule="evenodd" clip-rule="evenodd" d="M91.1022 18.3752H100.693C100.702 16.1393 99.9379 13.9695 98.5312 12.236C97.1244 10.5025 95.1622 9.3126 92.9791 8.86929C90.796 8.42597 88.5273 8.7567 86.56 9.80506C84.5927 10.8534 83.0487 12.5545 82.1913 14.6181C81.3339 16.6817 81.2162 18.9799 81.8584 21.1209C82.5006 23.2618 83.8627 25.1128 85.7126 26.3581C87.5625 27.6034 89.7855 28.1658 92.0023 27.9495C94.2192 27.7332 96.2926 26.7515 97.8689 25.1718L94.7826 22.0736C94.1728 22.6766 93.4246 23.1197 92.6039 23.3639C91.7833 23.6082 90.9154 23.6461 90.0768 23.4744C89.2381 23.3026 88.4544 22.9265 87.7946 22.3791C87.1349 21.8317 86.6193 21.1298 86.2935 20.3352C85.9676 19.5407 85.8413 18.6779 85.9258 17.8229C86.0104 16.9678 86.303 16.1468 86.7781 15.432C87.2532 14.7173 87.8961 14.1308 88.6501 13.7242C89.4042 13.3176 90.2462 13.1034 91.1022 13.1005C91.7906 13.0956 92.4726 13.233 93.1058 13.5042C93.739 13.7753 94.3097 14.1745 94.7826 14.6767L91.1022 18.3752ZM57.5733 9.24321H61.9597V27.4452H57.5733V26.477C56.03 27.4909 54.221 28.0207 52.3767 27.999C49.8269 27.999 47.3816 26.9822 45.5787 25.1723C43.7757 23.3624 42.7628 20.9076 42.7628 18.3481C42.7628 15.7885 43.7757 13.3337 45.5787 11.5238C47.3816 9.71394 49.8269 8.69716 52.3767 8.69716C54.226 8.69542 56.0343 9.24392 57.5733 10.2734V9.24321ZM57.5733 18.4294V18.3209C57.559 16.9412 57.0011 15.6232 56.0216 14.6551C55.0421 13.687 53.7207 13.1476 52.3461 13.1548C50.9716 13.1619 49.6558 13.7151 48.6863 14.6933C47.7169 15.6716 47.1727 16.9953 47.1727 18.3752C47.1727 19.755 47.7169 21.0788 48.6863 22.057C49.6558 23.0352 50.9716 23.5884 52.3461 23.5956C53.7207 23.6027 55.0421 23.0633 56.0216 22.0952C57.0011 21.1272 57.559 19.8092 57.5733 18.4294V18.4294ZM30.4793 9.24321H34.8812V10.2734C36.4284 9.25863 38.2335 8.71152 40.0816 8.69716C41.4224 8.71132 42.7474 8.98893 43.9819 9.51431L41.3277 13.267C40.9218 13.1552 40.5026 13.0991 40.0816 13.1005C38.7027 13.1015 37.3805 13.6518 36.4055 14.6306C35.4304 15.6095 34.8822 16.9367 34.8812 18.3209V27.4568H30.4793V9.24321ZM15.9235 12.0045H27.7788C27.8853 12.6444 27.9395 13.292 27.9408 13.9409C27.9561 17.185 26.8497 20.334 24.8105 22.8508C22.7712 25.3676 19.9253 27.0963 16.7583 27.742C13.5912 28.3878 10.299 27.9106 7.44324 26.3918C4.58749 24.8731 2.34502 22.4068 1.0983 19.4138C-0.14842 16.4207 -0.32218 13.0861 0.606657 9.97878C1.53549 6.87146 3.5094 4.18383 6.19172 2.37427C8.87404 0.564716 12.0986 -0.254685 15.3156 0.0558183C18.5325 0.366322 21.5425 1.7875 23.8322 4.07696L20.3601 7.56244C19.004 6.20973 17.2566 5.32216 15.3677 5.02668C13.4787 4.73121 11.5451 5.04296 9.84335 5.91736C8.1416 6.79176 6.7589 8.184 5.89303 9.89495C5.02715 11.6059 4.72246 13.5479 5.02253 15.4432C5.3226 17.3385 6.21206 19.09 7.56368 20.4472C8.91531 21.8043 10.6599 22.6976 12.5478 22.9993C14.4358 23.301 16.3704 22.9956 18.075 22.1268C19.7796 21.258 21.1668 19.8703 22.0383 18.1622L15.9235 12.0045ZM74.1468 8.68554C76.7046 8.68452 79.1586 9.7011 80.9714 11.5126L77.831 14.6651C77.3569 14.1635 76.7853 13.7648 76.1516 13.4937C75.5179 13.2226 74.8356 13.0848 74.1468 13.0889C73.2893 13.0913 72.4456 13.3054 71.6901 13.7123C70.9345 14.1192 70.2902 14.7065 69.8141 15.4223C69.3379 16.1382 69.0445 16.9606 68.9596 17.8171C68.8748 18.6736 69.0011 19.538 69.3275 20.3339C69.6539 21.1299 70.1703 21.833 70.8312 22.3813C71.4922 22.9297 72.2773 23.3064 73.1175 23.4783C73.9577 23.6502 74.8271 23.612 75.6491 23.367C76.471 23.1221 77.2204 22.6779 77.831 22.0736L80.9714 25.1718C79.1586 26.9834 76.7046 28 74.1468 27.999C71.597 27.999 69.1517 26.9822 67.3487 25.1723C65.5458 23.3624 64.5329 20.9076 64.5329 18.3481C64.5329 15.7885 65.5458 13.3337 67.3487 11.5238C69.1517 9.71394 71.597 8.69716 74.1468 8.69716V8.68554Z" fill="white"/>
</g>
<defs>
<clipPath id="clip0">
<rect width="110" height="28" fill="white"/>
</clipPath>
</defs>
</svg>
